<?xml version="1.0" encoding="utf-8"?>
<!-- Generator: Adobe Illustrator 23.0.5, SVG Export Plug-In . SVG Version: 6.00 Build 0)  -->
<svg version="1.1" id="Layer_1" xmlns="http://www.w3.org/2000/svg" xmlns:xlink="http://www.w3.org/1999/xlink" x="0px" y="0px"
	 viewBox="0 0 504 504" style="enable-background:new 0 0 504 504;" xml:space="preserve">
<style type="text/css">
	.st0{fill-rule:evenodd;clip-rule:evenodd;fill:#262626;}
	.st1{fill:none;}
</style>
<path class="st0" d="M426.3,101c0-11-9-20-20-20H101c-11,0-20,9-20,20v299c0,11,9,20,20,20h124c11,0,20,9,20,20v3c0,11,9,20,20,20
	h189c11,0,20-9,20-20V294c0-11-9-20-20-20h-7.7c-11,0-20-9-20-20V101z"/>
<rect class="st1" width="504" height="504"/>
</svg>
