<svg width="24" height="25" viewBox="0 0 24 25" fill="none" xmlns="http://www.w3.org/2000/svg">
<path d="M16.19 2.47949H7.81C4.17 2.47949 2 4.64949 2 8.28949V16.6595C2 20.3095 4.17 22.4795 7.81 22.4795H16.18C19.82 22.4795 21.99 20.3095 21.99 16.6695V8.28949C22 4.64949 19.83 2.47949 16.19 2.47949ZM16.82 11.2995C16.53 11.5895 16.05 11.5895 15.76 11.2995L12.75 8.28949V18.4795C12.75 18.8895 12.41 19.2295 12 19.2295C11.59 19.2295 11.25 18.8895 11.25 18.4795V8.28949L8.24 11.2995C7.95 11.5895 7.47 11.5895 7.18 11.2995C7.03 11.1495 6.96 10.9595 6.96 10.7695C6.96 10.5795 7.04 10.3795 7.18 10.2395L11.47 5.94949C11.61 5.80949 11.8 5.72949 12 5.72949C12.2 5.72949 12.39 5.80949 12.53 5.94949L16.82 10.2395C17.11 10.5295 17.11 10.9995 16.82 11.2995Z" fill="#F14F44"/>
</svg>
