<svg width="148" height="50" viewBox="0 0 148 50" fill="none" xmlns="http://www.w3.org/2000/svg">
<path d="M33.5189 4.16609C33.0462 4.306 32.5775 4.46085 32.113 4.62657L25.5684 0.847616C23.611 -0.282539 21.1999 -0.282539 19.2425 0.847616L3.16226 10.132C1.20622 11.2622 0 13.35 0 15.6103V34.1763C0 36.4366 1.20622 38.5244 3.16226 39.6546L6.74697 41.7247C6.6546 42.9663 6.60027 44.2092 6.60298 45.4521C6.60298 46.0728 6.61657 46.6936 6.64373 47.3144C6.67498 47.9338 6.71301 48.5532 6.78908 49.1685C7.02 46.7058 7.39491 44.2771 7.85947 41.8741C8.32946 39.4726 8.89589 37.1009 9.58594 34.7713C9.75709 34.1885 9.9364 33.6085 10.1252 33.0326C10.314 32.4566 10.5028 31.8807 10.7079 31.3115C11.1182 30.1732 11.5488 29.0431 12.0215 27.9333L12.3814 27.1033L12.7523 26.2788C13.009 25.7341 13.2657 25.1894 13.5415 24.6542C14.0835 23.5798 14.6567 22.523 15.2761 21.496C15.8914 20.4664 16.5489 19.4612 17.243 18.4859C17.9276 17.5025 18.6761 16.5652 19.4449 15.6469C20.2097 14.7246 21.0355 13.8553 21.8818 13.0049C22.7294 12.156 23.6246 11.3545 24.5483 10.5843C25.4679 9.80735 26.4405 9.09421 27.4293 8.39873L28.1805 7.88935C28.3041 7.80241 28.4345 7.72363 28.5622 7.64349L28.9466 7.40034C29.4533 7.06618 29.9831 6.77142 30.506 6.45764C31.5655 5.86132 32.6414 5.2813 33.7512 4.76105L34.1668 4.56273L34.3746 4.46357L34.5852 4.36984L35.4274 3.99493C35.7072 3.86317 35.9924 3.75043 36.2777 3.63089C36.563 3.51272 36.8468 3.39182 37.1321 3.26821C35.9177 3.50728 34.7061 3.79118 33.5202 4.16609H33.5189ZM15.4079 17.1588C14.6635 18.183 13.9639 19.2384 13.3092 20.3197C12.7835 21.2081 12.2877 22.1127 11.8232 23.0323V20.6525C11.8232 19.4965 12.4399 18.4275 13.441 17.8488L16.0028 16.3696L15.9784 16.3995L15.4065 17.1574L15.4079 17.1588Z" fill="url(#paint0_linear_347_2608)"/>
<path d="M41.7377 9.47938L34.2926 5.18018C33.7153 5.52248 33.1447 5.8743 32.581 6.24105C30.7472 7.44456 28.9882 8.7676 27.3364 10.2075C26.2877 11.1271 25.288 12.0874 24.3344 13.0831L31.459 17.1962C32.4601 17.7749 33.0768 18.8426 33.0768 19.9999V28.4815C33.0768 29.6374 32.4601 30.7065 31.459 31.2851L24.1144 35.5259C23.1133 36.1046 21.8785 36.1046 20.8774 35.5259L13.5327 31.2851C13.3154 31.1588 13.1157 31.0094 12.9378 30.8409C11.3458 34.552 10.039 38.4016 8.95508 42.2933L19.3329 48.285C21.2903 49.4151 23.7014 49.4151 25.6588 48.285L41.7377 39.002C43.6951 37.8718 44.9 35.784 44.9 33.5237V14.9576C44.9 12.6973 43.6938 10.6095 41.7377 9.47938Z" fill="url(#paint1_linear_347_2608)"/>
<path d="M137.619 36.7158V18.2378H141.771L141.945 23.359L141.564 23.2898C141.841 21.5135 142.36 20.2332 143.121 19.4489C143.905 18.6415 144.966 18.2378 146.304 18.2378H148V22.0441H146.27C145.324 22.0441 144.54 22.1825 143.917 22.4593C143.294 22.7362 142.821 23.1745 142.498 23.7743C142.198 24.351 142.048 25.1122 142.048 26.0581V36.7158H137.619Z" fill="#414141"/>
<path d="M125.136 37.1309C123.313 37.1309 121.71 36.7388 120.326 35.9544C118.965 35.147 117.904 34.0167 117.142 32.5634C116.404 31.11 116.035 29.4145 116.035 27.4767C116.035 25.5159 116.404 23.8203 117.142 22.3901C117.904 20.9368 118.965 19.8179 120.326 19.0336C121.71 18.2262 123.313 17.8225 125.136 17.8225C126.958 17.8225 128.55 18.2262 129.911 19.0336C131.272 19.8179 132.322 20.9368 133.06 22.3901C133.821 23.8203 134.202 25.5159 134.202 27.4767C134.202 29.4145 133.821 31.11 133.06 32.5634C132.322 34.0167 131.272 35.147 129.911 35.9544C128.55 36.7388 126.958 37.1309 125.136 37.1309ZM125.136 33.5322C126.566 33.5322 127.662 33.0017 128.423 31.9405C129.207 30.8793 129.599 29.3914 129.599 27.4767C129.599 25.5851 129.207 24.1087 128.423 23.0475C127.662 21.9633 126.566 21.4212 125.136 21.4212C123.705 21.4212 122.598 21.9633 121.814 23.0475C121.03 24.1087 120.637 25.5851 120.637 27.4767C120.637 29.3914 121.03 30.8793 121.814 31.9405C122.598 33.0017 123.705 33.5322 125.136 33.5322Z" fill="#414141"/>
<path d="M97.6328 36.7158V33.0478L108.325 21.6635H98.048V18.2378H113.55V21.9057L102.754 33.2901H113.792V36.7158H97.6328Z" fill="#414141"/>
<path d="M86.4781 37.1309C84.6326 37.1309 83.0293 36.7388 81.6683 35.9544C80.3072 35.147 79.2576 34.0167 78.5194 32.5634C77.7812 31.11 77.4121 29.4145 77.4121 27.4767C77.4121 25.539 77.7812 23.855 78.5194 22.4247C79.2576 20.9714 80.2957 19.841 81.6337 19.0336C82.9947 18.2262 84.5749 17.8225 86.3743 17.8225C88.1275 17.8225 89.6615 18.2147 90.9765 18.999C92.3144 19.7833 93.341 20.9137 94.0561 22.3901C94.7712 23.8665 95.1288 25.6428 95.1288 27.7189V28.7224H82.0143C82.1066 30.3372 82.5449 31.5599 83.3292 32.3903C84.1366 33.1977 85.1978 33.6014 86.5127 33.6014C87.5046 33.6014 88.3236 33.3823 88.9695 32.944C89.6385 32.4826 90.0998 31.8482 90.3536 31.0408L94.8866 31.3176C94.3791 33.117 93.3756 34.5357 91.8761 35.5738C90.3997 36.6119 88.6004 37.1309 86.4781 37.1309ZM82.0143 25.7466H90.5612C90.4689 24.2471 90.0422 23.1398 89.2809 22.4247C88.5196 21.6865 87.5508 21.3174 86.3743 21.3174C85.1978 21.3174 84.2174 21.698 83.433 22.4593C82.6718 23.2206 82.1988 24.3163 82.0143 25.7466Z" fill="#414141"/>
<path d="M55.5137 36.7158V12.1477H65.7907C67.567 12.1477 69.1011 12.4476 70.3929 13.0474C71.6848 13.6472 72.6883 14.5007 73.4034 15.608C74.1185 16.7153 74.4761 18.0187 74.4761 19.5181C74.4761 20.6485 74.2339 21.652 73.7494 22.5286C73.265 23.4052 72.6075 24.1088 71.777 24.6394C70.9696 25.1699 70.07 25.4929 69.078 25.6082L68.905 25.2622C70.4967 25.2622 71.7194 25.6198 72.5729 26.3349C73.4495 27.05 73.9455 28.1458 74.0608 29.6222L74.6837 36.7158H70.1161L69.5971 30.2796C69.5279 29.3108 69.2164 28.5956 68.6628 28.1343C68.1091 27.6729 67.1864 27.4422 65.8945 27.4422H60.0121V36.7158H55.5137ZM60.0121 23.4975H65.5139C66.875 23.4975 67.9361 23.1745 68.6974 22.5286C69.4586 21.8827 69.8393 20.9714 69.8393 19.795C69.8393 18.5954 69.4471 17.6726 68.6628 17.0267C67.9015 16.3808 66.7827 16.0578 65.3063 16.0578H60.0121V23.4975Z" fill="#414141"/>
<defs>
<linearGradient id="paint0_linear_347_2608" x1="0.292047" y1="13.3853" x2="23.1288" y2="26.9105" gradientUnits="userSpaceOnUse">
<stop stop-color="#1AF5AF"/>
<stop offset="1" stop-color="#3D84FF"/>
</linearGradient>
<linearGradient id="paint1_linear_347_2608" x1="4.56758" y1="13.5789" x2="24.8071" y2="25.5664" gradientUnits="userSpaceOnUse">
<stop stop-color="#1AF5AF"/>
<stop offset="1" stop-color="#3D84FF"/>
</linearGradient>
</defs>
</svg>
