<svg width="302" height="284" viewBox="0 0 302 284" fill="none" xmlns="http://www.w3.org/2000/svg">
<path d="M109.163 185.891V185.901L109.362 186.167C127.167 210.039 136.744 245.132 141.297 283.712L143.284 283.712C147.851 245.132 157.428 210.025 175.233 186.167L175.233 186.166C176.553 184.396 178.123 182.836 179.743 181.226C179.99 180.981 180.238 180.735 180.486 180.486C180.735 180.238 180.981 179.99 181.226 179.743C182.836 178.123 184.396 176.553 186.166 175.233L186.167 175.233C210.039 157.428 245.132 147.851 283.712 143.284V141.297C245.132 136.73 210.025 127.167 186.167 109.362L186.166 109.361C184.396 108.042 182.836 106.472 181.226 104.852C180.981 104.605 180.735 104.357 180.486 104.109C180.238 103.86 179.99 103.614 179.743 103.369C178.123 101.759 176.553 100.199 175.233 98.4284L175.233 98.428C157.428 74.5556 147.851 39.4625 143.284 0.882437H141.297C136.73 39.4631 127.167 74.5695 109.362 98.4278L109.361 98.4284C108.042 100.199 106.472 101.759 104.852 103.369C104.605 103.614 104.357 103.86 104.109 104.109C103.86 104.357 103.614 104.605 103.369 104.852C101.759 106.472 100.199 108.042 98.4284 109.361L98.428 109.362C74.5556 127.167 39.4626 136.744 0.882788 141.297L0.882437 143.284C39.4631 147.851 74.5695 157.414 98.4278 175.219L98.4284 175.22C100.199 176.539 101.759 178.109 103.369 179.73C103.614 179.976 103.86 180.224 104.109 180.472C104.357 180.721 104.605 180.967 104.851 181.212C106.392 182.742 107.886 184.227 109.163 185.891ZM174.431 99.0259C157.103 75.7924 147.554 42.118 142.795 5.08507C142.964 3.7665 143.127 2.44389 143.284 1.11756L142.29 1L141.297 1.11756C141.454 2.44391 141.617 3.76652 141.786 5.08509C137.028 42.1189 127.492 75.8057 110.163 99.0259C108.796 100.861 107.168 102.478 105.551 104.083C105.306 104.327 105.06 104.571 104.816 104.816C104.571 105.06 104.327 105.306 104.083 105.551C102.478 107.168 100.861 108.796 99.0259 110.163C75.7936 127.491 42.1213 137.04 5.09059 141.787C3.77019 141.618 2.44574 141.455 1.11756 141.297L1 142.29L1.11721 143.284C2.44546 143.127 3.76996 142.964 5.0904 142.795C42.1221 147.554 75.8068 157.09 99.0259 174.418L174.431 99.0259Z" stroke="#E5E5E5" stroke-width="2"/>
<path d="M237.357 68.1501L237.491 68.3299C243.828 76.8254 247.273 89.3779 248.916 103.291L250.902 103.291C252.549 89.3777 255.995 76.8205 262.331 68.3301L262.331 68.3295C262.778 67.7302 263.309 67.2027 263.897 66.6178C263.987 66.5286 264.078 66.4381 264.17 66.3458C264.262 66.2535 264.353 66.1624 264.442 66.0727C265.027 65.4843 265.554 64.9536 266.154 64.5071L266.154 64.5068C274.65 58.1705 287.202 54.7246 301.116 53.0775V51.0914C287.202 49.4442 274.645 46.0032 266.154 39.6672L266.154 39.6668C265.554 39.2202 265.027 38.6895 264.442 38.1011C264.353 38.0114 264.262 37.9204 264.17 37.8281C264.078 37.7358 263.987 37.6453 263.897 37.5562C263.309 36.9713 262.778 36.4437 262.331 35.8444L262.331 35.844C255.995 27.3485 252.549 14.7959 250.902 0.882438L248.916 0.882437C247.268 14.7965 243.827 27.3536 237.491 35.8438L237.491 35.8444C237.044 36.4437 236.514 36.9713 235.925 37.5562C235.836 37.6454 235.745 37.7358 235.652 37.8281C235.56 37.9203 235.47 38.0114 235.38 38.101C234.796 38.6895 234.268 39.2202 233.669 39.6668L233.668 39.6671C225.173 46.0033 212.62 49.4492 198.707 51.0913L198.707 53.0775C212.621 54.7247 225.178 58.1657 233.668 64.5017L233.669 64.5021C234.268 64.9487 234.796 65.4794 235.38 66.0679C235.47 66.1575 235.56 66.2485 235.652 66.3408C235.745 66.4331 235.836 66.5235 235.925 66.6127C236.456 67.1403 236.94 67.6211 237.357 68.1501Z" stroke="#E5E5E5" stroke-width="2"/>
</svg>
