<svg width="272" height="257" viewBox="0 0 272 257" fill="none" xmlns="http://www.w3.org/2000/svg">
<path d="M98.6109 168.051V168.059L98.8093 168.325C114.878 189.869 123.527 221.549 127.639 256.395L129.625 256.395C133.751 221.549 142.4 189.857 158.468 168.325L158.468 168.325C159.656 166.731 161.068 165.328 162.532 163.873C162.755 163.652 162.979 163.429 163.204 163.204C163.429 162.979 163.652 162.755 163.873 162.532C165.328 161.068 166.731 159.656 168.325 158.468L168.325 158.468C189.869 142.399 221.55 133.751 256.395 129.625V127.639C221.549 123.514 189.857 114.878 168.325 98.8094L168.325 98.809C166.731 97.6216 165.328 96.2092 163.873 94.7448C163.652 94.5219 163.429 94.2978 163.204 94.0731C162.979 93.8483 162.755 93.6256 162.532 93.4041C161.068 91.9493 159.656 90.5461 158.468 88.9526L158.468 88.9522C142.399 67.4079 133.751 35.7278 129.625 0.882438L127.639 0.882437C123.514 35.7283 114.878 67.4205 98.8094 88.952L98.809 88.9526C97.6217 90.5461 96.2092 91.9493 94.7449 93.4042C94.5219 93.6256 94.2978 93.8483 94.0731 94.0731C93.8483 94.2978 93.6256 94.5219 93.4042 94.7449C91.9493 96.2092 90.5461 97.6217 88.9526 98.809L88.9522 98.8093C67.408 114.878 35.7279 123.527 0.882788 127.639L0.882438 129.625C35.7283 133.751 67.4205 142.387 88.952 158.455L88.9526 158.456C90.5461 159.643 91.9493 161.056 93.4042 162.52C93.6256 162.743 93.8483 162.967 94.0731 163.192C94.2978 163.416 94.5219 163.639 94.7448 163.861C96.1286 165.235 97.466 166.564 98.6109 168.051Z" stroke="#E5E5E5" stroke-width="2"/>
<path d="M214.43 61.7176L214.551 61.8791C220.259 69.5328 223.37 80.8514 224.852 93.4143L226.839 93.4146C228.326 80.8513 231.436 69.5284 237.144 61.8793L237.145 61.8787C237.544 61.3435 238.017 60.8725 238.549 60.3437C238.63 60.2631 238.713 60.1811 238.797 60.0974C238.88 60.0136 238.962 59.9312 239.043 59.8501C239.572 59.3182 240.043 58.8444 240.578 58.4456L240.578 58.4453C248.232 52.7368 259.551 49.6266 272.114 48.1393V46.1532C259.55 44.6659 248.227 41.5601 240.579 35.8519L240.578 35.8515C240.043 35.4527 239.572 34.9789 239.043 34.447C238.962 34.3659 238.88 34.2834 238.797 34.1997C238.713 34.116 238.63 34.034 238.549 33.9534C238.017 33.4246 237.544 32.9536 237.145 32.4183L237.145 32.418C231.436 24.7642 228.326 13.4456 226.839 0.882437H224.852C223.365 13.4461 220.259 24.7688 214.551 32.4177L214.551 32.4183C214.152 32.9536 213.678 33.4246 213.146 33.9534C213.065 34.034 212.983 34.116 212.899 34.1997C212.815 34.2834 212.733 34.3659 212.653 34.4469C212.124 34.9789 211.653 35.4527 211.118 35.8515L211.117 35.8518C203.463 41.5602 192.145 44.6704 179.582 46.1532L179.582 48.1393C192.145 49.6267 203.468 52.7325 211.117 58.4406L211.118 58.4411C211.653 58.8399 212.124 59.3137 212.653 59.8456C212.733 59.9267 212.815 60.0091 212.899 60.0929C212.983 60.1766 213.065 60.2585 213.146 60.3391C213.626 60.8158 214.058 61.2455 214.43 61.7176Z" stroke="#E5E5E5" stroke-width="2"/>
</svg>
