<svg width="50" height="50" viewBox="0 0 50 50" fill="none" xmlns="http://www.w3.org/2000/svg">
<path d="M4.16797 18.7501V14.5834C4.16797 8.33342 8.33464 4.16675 14.5846 4.16675H35.418C41.668 4.16675 45.8346 8.33342 45.8346 14.5834V18.7501" stroke="#171717" stroke-width="2" stroke-miterlimit="10" stroke-linecap="round" stroke-linejoin="round"/>
<path d="M4.16797 31.25V35.4167C4.16797 41.6667 8.33464 45.8333 14.5846 45.8333H35.418C41.668 45.8333 45.8346 41.6667 45.8346 35.4167V31.25" stroke="#171717" stroke-width="2" stroke-miterlimit="10" stroke-linecap="round" stroke-linejoin="round"/>
<path d="M13.957 19.2917L24.9987 25.6876L35.957 19.3335" stroke="#171717" stroke-width="2" stroke-linecap="round" stroke-linejoin="round"/>
<path d="M25 37.0209V25.6667" stroke="#171717" stroke-width="2" stroke-linecap="round" stroke-linejoin="round"/>
<path d="M22.4166 13.1042L15.75 16.8126C14.25 17.646 13 19.7501 13 21.4793V28.5418C13 30.271 14.2292 32.3751 15.75 33.2085L22.4166 36.9167C23.8333 37.7084 26.1667 37.7084 27.6042 36.9167L34.2708 33.2085C35.7708 32.3751 37.0208 30.271 37.0208 28.5418V21.4793C37.0208 19.7501 35.7917 17.646 34.2708 16.8126L27.6042 13.1042C26.1667 12.2917 23.8333 12.2917 22.4166 13.1042Z" stroke="#171717" stroke-width="2" stroke-linecap="round" stroke-linejoin="round"/>
</svg>
