<svg width="50" height="50" viewBox="0 0 50 50" fill="none" xmlns="http://www.w3.org/2000/svg">
<path d="M4.16797 18.7498V14.5832C4.16797 8.33317 8.33464 4.1665 14.5846 4.1665H35.418C41.668 4.1665 45.8346 8.33317 45.8346 14.5832V18.7498" stroke="white" stroke-width="2" stroke-miterlimit="10" stroke-linecap="round" stroke-linejoin="round"/>
<path d="M4.16797 31.25V35.4167C4.16797 41.6667 8.33464 45.8333 14.5846 45.8333H35.418C41.668 45.8333 45.8346 41.6667 45.8346 35.4167V31.25" stroke="white" stroke-width="2" stroke-miterlimit="10" stroke-linecap="round" stroke-linejoin="round"/>
<path d="M13.957 19.2915L24.9987 25.6874L35.957 19.3332" stroke="white" stroke-width="2" stroke-linecap="round" stroke-linejoin="round"/>
<path d="M25 37.0207V25.6665" stroke="white" stroke-width="2" stroke-linecap="round" stroke-linejoin="round"/>
<path d="M22.4166 13.104L15.75 16.8124C14.25 17.6457 13 19.7499 13 21.479V28.5416C13 30.2707 14.2292 32.3749 15.75 33.2082L22.4166 36.9165C23.8333 37.7082 26.1667 37.7082 27.6042 36.9165L34.2708 33.2082C35.7708 32.3749 37.0208 30.2707 37.0208 28.5416V21.479C37.0208 19.7499 35.7917 17.6457 34.2708 16.8124L27.6042 13.104C26.1667 12.2915 23.8333 12.2915 22.4166 13.104Z" stroke="white" stroke-width="2" stroke-linecap="round" stroke-linejoin="round"/>
</svg>
