<svg width="50" height="50" viewBox="0 0 50 50" fill="none" xmlns="http://www.w3.org/2000/svg">
<path d="M25.0003 35.4167V40.375C25.0003 44.2708 23.4378 45.8333 19.5212 45.8333H9.62533C5.72949 45.8333 4.16699 44.2708 4.16699 40.375V30.4792C4.16699 26.5625 5.72949 25 9.62533 25H14.5837V29.9375C14.5837 33.8542 16.1462 35.4167 20.042 35.4167H25.0003Z" stroke="white" stroke-width="2" stroke-linecap="round" stroke-linejoin="round"/>
<path d="M35.4163 25.0026V29.9401C35.4163 33.8568 33.8538 35.4193 29.9372 35.4193H20.0413C16.1455 35.4193 14.583 33.8568 14.583 29.9401V20.0443C14.583 16.1484 16.1455 14.5859 20.0413 14.5859H24.9997V19.5234C24.9997 23.4401 26.5622 25.0026 30.458 25.0026H35.4163Z" stroke="white" stroke-width="2" stroke-linecap="round" stroke-linejoin="round"/>
<path d="M45.8333 9.6224V19.5182C45.8333 23.4349 44.2708 24.9974 40.3542 24.9974H30.4583C26.5625 24.9974 25 23.4349 25 19.5182V9.6224C25 5.72656 26.5625 4.16406 30.4583 4.16406H40.3542C44.2708 4.16406 45.8333 5.72656 45.8333 9.6224Z" stroke="white" stroke-width="2" stroke-linecap="round" stroke-linejoin="round"/>
</svg>
