<svg width="19" height="17" viewBox="0 0 19 17" fill="none" xmlns="http://www.w3.org/2000/svg">
<g clip-path="url(#clip0_347_2750)">
<path d="M19 7.9733C19 6.7201 18.0617 5.72117 16.9224 5.72117C16.3695 5.72117 15.8501 5.95728 15.4815 6.35685C14.0573 5.24894 12.097 4.52245 9.91887 4.4498H9.1649C6.95326 4.50429 4.95944 5.23078 3.51852 6.35685C3.14991 5.97544 2.64727 5.72117 2.0776 5.72117C0.938271 5.72117 0 6.73826 0 7.9733C0 8.88142 0.502645 9.68057 1.2231 10.0257C1.18959 10.2618 1.17284 10.4797 1.17284 10.7158C1.17284 14.1848 4.89242 17 9.5 17C14.0908 17 17.8104 14.1848 17.8104 10.7158C17.8104 10.4797 17.7936 10.2618 17.7601 10.0438C18.4974 9.68057 19 8.89959 19 7.9733ZM4.74162 9.58976C4.74162 8.6998 5.41182 7.9733 6.2328 7.9733C7.05379 7.9733 7.72399 8.6998 7.72399 9.58976C7.72399 10.4797 7.05379 11.2062 6.2328 11.2062C5.41182 11.2062 4.74162 10.4797 4.74162 9.58976ZM13.0353 13.8398C12.0132 14.9295 10.0864 15.0203 9.5 15.0203C8.93034 15.0203 6.98677 14.9295 5.98148 13.8398C5.83069 13.6763 5.83069 13.4039 5.98148 13.2404C6.13228 13.0769 6.3836 13.0769 6.53439 13.2404C7.17108 13.9306 8.54497 14.1848 9.51675 14.1848C10.4885 14.1848 11.8624 13.9487 12.4991 13.2404C12.6499 13.0769 12.8845 13.0769 13.0353 13.2404C13.1861 13.422 13.1861 13.6763 13.0353 13.8398ZM12.7672 11.188C11.9462 11.188 11.276 10.4616 11.276 9.57159C11.276 8.68164 11.9462 7.95514 12.7672 7.95514C13.5882 7.95514 14.2584 8.68164 14.2584 9.57159C14.2584 10.4797 13.5882 11.188 12.7672 11.188Z" fill="white"/>
<path d="M15.1971 0C14.6107 0 14.1081 0.363248 13.8735 0.90812L10.422 0.108974C10.3215 0.090812 10.2209 0.108974 10.1372 0.163462C10.0534 0.217949 10.0031 0.308761 9.96962 0.417735L8.91406 5.81197H9.66803L10.6231 0.980769L13.7227 1.6891C13.7562 2.54274 14.4097 3.21474 15.1971 3.21474C16.0181 3.21474 16.6883 2.48825 16.6883 1.59829C16.6883 0.726496 16.0181 0 15.1971 0Z" fill="white"/>
</g>
<defs>
<clipPath id="clip0_347_2750">
<rect width="19" height="17" fill="white"/>
</clipPath>
</defs>
</svg>
