<svg width="15" height="14" viewBox="0 0 15 14" fill="none" xmlns="http://www.w3.org/2000/svg">
<path fill-rule="evenodd" clip-rule="evenodd" d="M14.9945 0.816069L13.0734 13.2593C12.988 13.8461 12.2481 14.0417 11.7216 13.6204C10.1563 12.3114 8.66213 11.0626 7.22491 9.85886C6.58456 9.31719 6.48495 8.41442 6.99723 7.84266C8.19254 6.4885 9.40209 5.13434 10.6116 3.78018C10.8251 3.53944 10.4836 3.22347 10.2132 3.40402C8.32061 4.66791 6.47072 5.94684 4.64929 7.21072C4.26508 7.48155 3.7528 7.51165 3.32591 7.31604C2.31558 6.83456 1.31949 6.36813 0.36608 5.91674C-0.160427 5.676 -0.103508 4.8936 0.43723 4.71304L13.8703 0.0487112C14.4395 -0.14689 15.0656 0.274405 14.9945 0.816069Z" fill="white"/>
</svg>
