<svg width="19" height="20" viewBox="0 0 19 20" fill="none" xmlns="http://www.w3.org/2000/svg">
<g clip-path="url(#clip0_347_2755)">
<path fill-rule="evenodd" clip-rule="evenodd" d="M13.4885 7.22284C14.8195 8.1449 16.4436 8.69375 18.2032 8.69375V5.40066C17.8648 5.40066 17.549 5.35676 17.2106 5.29089V7.88145C15.4511 7.88145 13.8269 7.33261 12.496 6.41054V13.1284C12.496 16.4874 9.69877 19.2097 6.24738 19.2097C4.96157 19.2097 3.76599 18.8365 2.77344 18.1778C3.90134 19.2975 5.48041 20 7.23994 20C10.6913 20 13.4885 17.2777 13.4885 13.9188V7.22284ZM14.7067 3.9078C14.0299 3.18332 13.5788 2.26126 13.4885 1.22942V0.790344H12.5411C12.7892 2.10758 13.5788 3.22723 14.7067 3.9078ZM4.93901 15.6092C4.55553 15.1262 4.3525 14.5335 4.3525 13.9188C4.3525 12.382 5.63831 11.1306 7.21738 11.1306C7.51064 11.1306 7.80389 11.1745 8.07459 11.2624V7.90341C7.73622 7.8595 7.4204 7.83755 7.08203 7.83755V10.4501C6.81133 10.3622 6.51808 10.3183 6.22482 10.3183C4.64576 10.3183 3.35995 11.5697 3.35995 13.1065C3.38251 14.2042 4.01413 15.1482 4.93901 15.6092Z" fill="white"/>
<path fill-rule="evenodd" clip-rule="evenodd" d="M12.4959 6.4325C13.8269 7.35456 15.451 7.90341 17.2106 7.90341V5.29089C16.2406 5.09331 15.3608 4.58837 14.7066 3.88584C13.5787 3.20527 12.7892 2.08562 12.541 0.790344H10.0822V13.9188C10.0822 15.4555 8.79641 16.685 7.21734 16.685C6.29246 16.685 5.45781 16.2459 4.93897 15.5873C4.01409 15.1262 3.35991 14.1822 3.35991 13.1065C3.35991 11.5697 4.64572 10.3183 6.22478 10.3183C6.51804 10.3183 6.81129 10.3622 7.08199 10.4501V7.8595C3.69828 7.92536 0.96875 10.6257 0.96875 13.9407C0.96875 15.5873 1.64549 17.1021 2.75084 18.1998C3.74339 18.8584 4.93897 19.2316 6.22478 19.2316C9.67617 19.2316 12.4734 16.5093 12.4734 13.1504V6.4325H12.4959Z" fill="white"/>
<path fill-rule="evenodd" clip-rule="evenodd" d="M17.2118 5.29089V4.61032C16.3321 4.61032 15.4523 4.36883 14.7079 3.90779C15.3621 4.61032 16.2418 5.0933 17.2118 5.29089ZM12.5423 0.79034C12.5197 0.658617 12.4972 0.548847 12.4972 0.417124V0H9.09091V13.1284C9.09091 14.6652 7.8051 15.8946 6.22603 15.8946C5.75231 15.8946 5.32371 15.7849 4.94022 15.5873C5.45906 16.2459 6.29371 16.685 7.21859 16.685C8.79765 16.685 10.0609 15.4555 10.0835 13.9188V0.79034H12.5423ZM7.1058 7.8595V7.11306C6.81254 7.06916 6.54185 7.0472 6.24859 7.0472C2.7972 7.0472 0 9.76948 0 13.1284C0 15.236 1.10535 17.0801 2.77464 18.1778C1.6693 17.0801 0.992556 15.5873 0.992556 13.9188C0.992556 10.6257 3.72208 7.92536 7.1058 7.8595Z" fill="white"/>
</g>
<defs>
<clipPath id="clip0_347_2755">
<rect width="18.1818" height="20" fill="white"/>
</clipPath>
</defs>
</svg>
