<svg width="40" height="40" viewBox="0 0 40 40" fill="none" xmlns="http://www.w3.org/2000/svg">
<path d="M26.9834 3.33325H13.0167C6.95004 3.33325 3.33337 6.94992 3.33337 13.0166V26.9666C3.33337 33.0499 6.95004 36.6666 13.0167 36.6666H26.9667C33.0334 36.6666 36.65 33.0499 36.65 26.9833V13.0166C36.6667 6.94992 33.05 3.33325 26.9834 3.33325ZM28.3334 28.7499H11.6667C10.9834 28.7499 10.4167 28.1833 10.4167 27.4999C10.4167 26.8166 10.9834 26.2499 11.6667 26.2499H28.3334C29.0167 26.2499 29.5834 26.8166 29.5834 27.4999C29.5834 28.1833 29.0167 28.7499 28.3334 28.7499ZM28.3334 21.2499H11.6667C10.9834 21.2499 10.4167 20.6833 10.4167 19.9999C10.4167 19.3166 10.9834 18.7499 11.6667 18.7499H28.3334C29.0167 18.7499 29.5834 19.3166 29.5834 19.9999C29.5834 20.6833 29.0167 21.2499 28.3334 21.2499ZM28.3334 13.7499H11.6667C10.9834 13.7499 10.4167 13.1833 10.4167 12.4999C10.4167 11.8166 10.9834 11.2499 11.6667 11.2499H28.3334C29.0167 11.2499 29.5834 11.8166 29.5834 12.4999C29.5834 13.1833 29.0167 13.7499 28.3334 13.7499Z" fill="white"/>
</svg>
