<svg width="69" height="65" viewBox="0 0 69 65" fill="none" xmlns="http://www.w3.org/2000/svg">
<path d="M25.1063 42.4488C29.2378 47.9881 31.4465 56.1079 32.4952 64.9937C33.5472 56.1079 35.7559 47.9849 39.8873 42.4488C40.2496 41.9626 40.6913 41.5431 41.1172 41.1172C41.5431 40.6913 41.9626 40.2496 42.4488 39.8873C47.9881 35.7559 56.1079 33.5472 64.9937 32.4952C56.1079 31.4433 47.9849 29.2378 42.4488 25.1063C41.9626 24.7441 41.5431 24.3023 41.1172 23.8765C40.6913 23.4506 40.2496 23.0311 39.8873 22.5449C35.7559 17.0056 33.5472 8.88574 32.4952 0C31.4433 8.88574 29.2378 17.0088 25.1063 22.5449C24.7441 23.0311 24.3023 23.4506 23.8765 23.8765C23.4506 24.3023 23.0311 24.7441 22.5449 25.1063C17.0056 29.2378 8.88574 31.4465 0 32.4952C8.88574 33.5472 17.0088 35.7527 22.5449 39.8841C23.0311 40.2464 23.4506 40.6882 23.8765 41.114C24.3023 41.5399 24.7441 41.9594 25.1063 42.4456V42.4488Z" fill="url(#paint0_linear_347_2667)"/>
<path d="M54.5734 15.3476C56.0672 17.3504 56.8658 20.2862 57.2449 23.4989C57.6253 20.2862 58.4239 17.3492 59.9176 15.3476C60.0486 15.1718 60.2083 15.0201 60.3623 14.8662C60.5162 14.7122 60.6679 14.5525 60.8437 14.4215C62.8465 12.9278 65.7823 12.1292 68.9949 11.7489C65.7823 11.3685 62.8453 10.5711 60.8437 9.07735C60.6679 8.94636 60.5162 8.78665 60.3623 8.63268C60.2083 8.47871 60.0486 8.32703 59.9176 8.15123C58.4239 6.14847 57.6253 3.21269 57.2449 0C56.8646 3.21269 56.0672 6.14962 54.5734 8.15123C54.4425 8.32703 54.2827 8.47871 54.1288 8.63268C53.9748 8.78665 53.8231 8.94636 53.6473 9.07735C51.6446 10.5711 48.7088 11.3697 45.4961 11.7489C48.7088 12.1292 51.6457 12.9266 53.6473 14.4204C53.8231 14.5513 53.9748 14.7111 54.1288 14.865C54.2827 15.019 54.4425 15.1707 54.5734 15.3465V15.3476Z" fill="url(#paint1_linear_347_2667)"/>
<defs>
<linearGradient id="paint0_linear_347_2667" x1="0" y1="32.4968" x2="64.9937" y2="32.4968" gradientUnits="userSpaceOnUse">
<stop stop-color="#3D84FF"/>
<stop offset="1" stop-color="#F14F44"/>
</linearGradient>
<linearGradient id="paint1_linear_347_2667" x1="45.4961" y1="11.7494" x2="68.9949" y2="11.7494" gradientUnits="userSpaceOnUse">
<stop stop-color="#3D84FF"/>
<stop offset="1" stop-color="#F14F44"/>
</linearGradient>
</defs>
</svg>
