<svg width="69" height="65" viewBox="0 0 69 65" fill="none" xmlns="http://www.w3.org/2000/svg">
<path d="M25.1063 42.4488C29.2378 47.9881 31.4465 56.1079 32.4952 64.9937C33.5472 56.1079 35.7559 47.9849 39.8873 42.4488C40.2496 41.9626 40.6913 41.5431 41.1172 41.1172C41.5431 40.6913 41.9626 40.2496 42.4488 39.8873C47.9881 35.7559 56.1079 33.5472 64.9937 32.4952C56.1079 31.4433 47.9849 29.2378 42.4488 25.1063C41.9626 24.7441 41.5431 24.3023 41.1172 23.8765C40.6913 23.4506 40.2496 23.0311 39.8873 22.5449C35.7559 17.0056 33.5472 8.88574 32.4952 0C31.4433 8.88574 29.2378 17.0088 25.1063 22.5449C24.7441 23.0311 24.3023 23.4506 23.8765 23.8765C23.4506 24.3023 23.0311 24.7441 22.5449 25.1063C17.0056 29.2378 8.88574 31.4465 0 32.4952C8.88574 33.5472 17.0088 35.7527 22.5449 39.8841C23.0311 40.2464 23.4506 40.6882 23.8765 41.114C24.3023 41.5399 24.7441 41.9594 25.1063 42.4456V42.4488Z" fill="url(#paint0_linear_797_4574)"/>
<path d="M54.5754 15.3476C56.0691 17.3504 56.8677 20.2862 57.2469 23.4989C57.6272 20.2862 58.4258 17.3492 59.9195 15.3476C60.0505 15.1718 60.2103 15.0201 60.3642 14.8662C60.5182 14.7122 60.6699 14.5525 60.8457 14.4215C62.8484 12.9278 65.7842 12.1292 68.9969 11.7489C65.7842 11.3685 62.8473 10.5711 60.8457 9.07735C60.6699 8.94636 60.5182 8.78665 60.3642 8.63268C60.2103 8.47871 60.0505 8.32703 59.9195 8.15123C58.4258 6.14847 57.6272 3.21269 57.2469 0C56.8666 3.21269 56.0691 6.14962 54.5754 8.15123C54.4444 8.32703 54.2847 8.47871 54.1307 8.63268C53.9768 8.78665 53.8251 8.94636 53.6493 9.07735C51.6465 10.5711 48.7107 11.3697 45.498 11.7489C48.7107 12.1292 51.6477 12.9266 53.6493 14.4204C53.8251 14.5513 53.9768 14.7111 54.1307 14.865C54.2847 15.019 54.4444 15.1707 54.5754 15.3465V15.3476Z" fill="url(#paint1_linear_797_4574)"/>
<defs>
<linearGradient id="paint0_linear_797_4574" x1="0" y1="32.4968" x2="64.9937" y2="32.4968" gradientUnits="userSpaceOnUse">
<stop stop-color="#3D84FF"/>
<stop offset="1" stop-color="#F14F44"/>
</linearGradient>
<linearGradient id="paint1_linear_797_4574" x1="45.498" y1="11.7494" x2="68.9969" y2="11.7494" gradientUnits="userSpaceOnUse">
<stop stop-color="#3D84FF"/>
<stop offset="1" stop-color="#F14F44"/>
</linearGradient>
</defs>
</svg>
