<svg width="50" height="50" viewBox="0 0 50 50" fill="none" xmlns="http://www.w3.org/2000/svg">
<path d="M19.9997 41.6667H29.9997C38.333 41.6667 41.6663 38.3334 41.6663 30V20C41.6663 11.6667 38.333 8.33337 29.9997 8.33337H19.9997C11.6663 8.33337 8.33301 11.6667 8.33301 20V30C8.33301 38.3334 11.6663 41.6667 19.9997 41.6667Z" stroke="#171717" stroke-width="2" stroke-linecap="round" stroke-linejoin="round"/>
<path d="M21.8747 35.4167H28.1247C33.333 35.4167 35.4163 33.3334 35.4163 28.125V21.875C35.4163 16.6667 33.333 14.5834 28.1247 14.5834H21.8747C16.6663 14.5834 14.583 16.6667 14.583 21.875V28.125C14.583 33.3334 16.6663 35.4167 21.8747 35.4167Z" stroke="#171717" stroke-width="2" stroke-linecap="round" stroke-linejoin="round"/>
<path d="M16.6875 8.33329V4.16663" stroke="#171717" stroke-width="2" stroke-linecap="round" stroke-linejoin="round"/>
<path d="M25 8.33329V4.16663" stroke="#171717" stroke-width="2" stroke-linecap="round" stroke-linejoin="round"/>
<path d="M33.333 8.33329V4.16663" stroke="#171717" stroke-width="2" stroke-linecap="round" stroke-linejoin="round"/>
<path d="M41.667 16.6666H45.8337" stroke="#171717" stroke-width="2" stroke-linecap="round" stroke-linejoin="round"/>
<path d="M41.667 25H45.8337" stroke="#171717" stroke-width="2" stroke-linecap="round" stroke-linejoin="round"/>
<path d="M41.667 33.3334H45.8337" stroke="#171717" stroke-width="2" stroke-linecap="round" stroke-linejoin="round"/>
<path d="M33.333 41.6666V45.8333" stroke="#171717" stroke-width="2" stroke-linecap="round" stroke-linejoin="round"/>
<path d="M25.0205 41.6666V45.8333" stroke="#171717" stroke-width="2" stroke-linecap="round" stroke-linejoin="round"/>
<path d="M16.6875 41.6666V45.8333" stroke="#171717" stroke-width="2" stroke-linecap="round" stroke-linejoin="round"/>
<path d="M4.16699 16.6666H8.33366" stroke="#171717" stroke-width="2" stroke-linecap="round" stroke-linejoin="round"/>
<path d="M4.16699 25H8.33366" stroke="#171717" stroke-width="2" stroke-linecap="round" stroke-linejoin="round"/>
<path d="M4.16699 33.3334H8.33366" stroke="#171717" stroke-width="2" stroke-linecap="round" stroke-linejoin="round"/>
<path d="M25.0003 20.2084L23.042 23.625C22.6045 24.375 22.9587 25 23.8337 25H26.167C27.042 25 27.3962 25.625 26.9587 26.375L25.0003 29.7917" stroke="#171717" stroke-width="2" stroke-linecap="round" stroke-linejoin="round"/>
</svg>
