<?xml version="1.0" encoding="UTF-8"?>
<svg version="1.1" xmlns="http://www.w3.org/2000/svg" width="500" height="500">
<path d="M0 0 C1.85273026 -0.01062721 1.85273026 -0.01062721 3.7428894 -0.02146912 C5.10887183 -0.01917537 6.4748539 -0.01666568 7.84083557 -0.01396179 C9.28157312 -0.01830971 10.72230836 -0.02349313 12.16304016 -0.02944946 C16.07419736 -0.04284203 19.98525793 -0.04341786 23.89643359 -0.04088616 C27.16189225 -0.03981664 30.42733133 -0.04469933 33.6927858 -0.04949158 C41.39661024 -0.06058763 49.10038591 -0.06102361 56.80421448 -0.05497742 C64.75110839 -0.04893635 72.69782531 -0.06125172 80.64468902 -0.08254749 C87.46858201 -0.10016141 94.29241866 -0.10616519 101.11633354 -0.10290974 C105.19152104 -0.10109643 109.26658228 -0.10373783 113.34174919 -0.11762428 C117.17411355 -0.13019468 121.00620192 -0.12826616 124.83856201 -0.11521339 C126.24422867 -0.11284634 127.64991471 -0.11558697 129.05555916 -0.12383652 C130.97597889 -0.13429364 132.89647716 -0.12440641 134.81689453 -0.11352539 C135.89111884 -0.11369313 136.96534315 -0.11386087 138.07211971 -0.1140337 C141.39818601 0.31577831 143.28502125 1.2846755 145.97193909 3.26069641 C147.32220396 5.96122615 147.11655252 8.07907135 147.13929749 11.10398865 C147.15078827 12.34888565 147.16227905 13.59378265 147.17411804 14.87640381 C147.18174346 16.26377788 147.18921506 17.6511528 147.19654846 19.03852844 C147.20772165 20.49380752 147.21923491 21.94908402 147.23106384 23.40435791 C147.26765526 28.19237171 147.29284885 32.98041201 147.31568909 37.76850891 C147.31963495 38.58321451 147.32358082 39.3979201 147.32764626 40.23731375 C147.36407242 47.92219506 147.39551565 55.60708554 147.41675568 63.29202461 C147.44431719 73.11898572 147.49505037 82.94522398 147.57722998 92.77188408 C147.63306189 99.68238841 147.66199768 106.5926969 147.67122889 113.5034188 C147.67748115 117.62990845 147.69555377 121.755551 147.74261475 125.88179398 C147.78638478 129.76776569 147.79673903 133.65243021 147.78198624 137.53860664 C147.78231407 138.9608046 147.79452741 140.38305994 147.81983566 141.80503273 C148.0230011 153.86174278 148.0230011 153.86174278 143.58143616 159.01017761 C142.40701951 160.12478026 141.2061331 161.21267034 139.97193909 162.26069641 C139.12631409 163.10632141 138.28068909 163.95194641 137.40943909 164.82319641 C136.60506409 165.62757141 135.80068909 166.43194641 134.97193909 167.26069641 C134.00717369 168.40111937 133.04926462 169.54736502 132.09693909 170.69819641 C129.08030562 174.26188777 125.80154525 177.56615393 121.97193909 180.26069641 C121.31193909 180.26069641 120.65193909 180.26069641 119.97193909 180.26069641 C119.97193909 181.25069641 119.97193909 182.24069641 119.97193909 183.26069641 C118.36256409 185.01460266 118.36256409 185.01460266 116.22193909 186.82319641 C115.52584534 187.42261047 114.82975159 188.02202454 114.11256409 188.63960266 C111.97193909 190.26069641 111.97193909 190.26069641 109.76881409 191.22554016 C107.77462979 192.09398989 107.77462979 192.09398989 107.44068909 194.19038391 C107.28600159 194.87358704 107.13131409 195.55679016 106.97193909 196.26069641 C105.37818909 197.89350891 105.37818909 197.89350891 103.47193909 199.38569641 C100.78390068 201.45957322 100.78390068 201.45957322 98.97193909 204.26069641 C98.31193909 204.26069641 97.65193909 204.26069641 96.97193909 204.26069641 C96.97193909 204.92069641 96.97193909 205.58069641 96.97193909 206.26069641 C96.31193909 206.26069641 95.65193909 206.26069641 94.97193909 206.26069641 C94.97193909 206.92069641 94.97193909 207.58069641 94.97193909 208.26069641 C93.1702182 209.99382387 91.24243327 211.53368297 89.30787659 213.11616516 C88.53701721 213.82386047 87.76615784 214.53155579 86.97193909 215.26069641 C86.47246262 215.63553665 85.97298615 216.01037689 85.45837402 216.39657593 C81.71236325 219.76102618 80.6067018 222.80788672 80.28197575 227.83141232 C80.16104054 231.71067495 80.17192462 235.58323359 80.20240784 239.46382141 C80.19368806 241.15058496 80.18219579 242.83733625 80.1680603 244.52406311 C80.13774152 248.94866243 80.14208728 253.37253616 80.15467834 257.79719543 C80.16412617 263.18221435 80.13565815 268.56713844 80.10961628 273.95208359 C80.08962529 278.13914791 80.07634529 282.32584083 80.08380127 286.51295471 C80.08348404 287.28124603 80.08316681 288.04953735 80.08283997 288.84111023 C80.08232605 290.2747894 80.08553061 291.70847671 80.09317017 293.14213562 C80.08788246 296.13864435 79.92858439 298.3907605 78.97193909 301.26069641 C76.90943909 301.94819641 76.90943909 301.94819641 74.97193909 302.26069641 C74.86881409 302.90007141 74.76568909 303.53944641 74.65943909 304.19819641 C74.43256409 304.87882141 74.20568909 305.55944641 73.97193909 306.26069641 C72.98193909 306.59069641 71.99193909 306.92069641 70.97193909 307.26069641 C70.66256409 307.92069641 70.35318909 308.58069641 70.03443909 309.26069641 C68.97193909 311.26069641 68.97193909 311.26069641 66.84693909 312.01069641 C66.22818909 312.09319641 65.60943909 312.17569641 64.97193909 312.26069641 C64.97193909 312.92069641 64.97193909 313.58069641 64.97193909 314.26069641 C64.31193909 314.26069641 63.65193909 314.26069641 62.97193909 314.26069641 C62.70381409 315.06507141 62.43568909 315.86944641 62.15943909 316.69819641 C61.76756409 317.54382141 61.37568909 318.38944641 60.97193909 319.26069641 C59.98193909 319.59069641 58.99193909 319.92069641 57.97193909 320.26069641 C57.56975159 321.12694641 57.56975159 321.12694641 57.15943909 322.01069641 C55.44538137 325.25838471 52.82084975 326.99319609 49.97193909 329.26069641 C49.39443909 329.85882141 48.81693909 330.45694641 48.22193909 331.07319641 C46.97193909 332.26069641 46.97193909 332.26069641 44.97193909 332.26069641 C44.64193909 333.58069641 44.31193909 334.90069641 43.97193909 336.26069641 C42.65193909 336.59069641 41.33193909 336.92069641 39.97193909 337.26069641 C39.86881409 337.85882141 39.76568909 338.45694641 39.65943909 339.07319641 C38.86556973 341.59914436 38.016215 342.60955049 35.97193909 344.26069641 C34.98193909 344.59069641 33.99193909 344.92069641 32.97193909 345.26069641 C32.64193909 345.92069641 32.31193909 346.58069641 31.97193909 347.26069641 C31.64193909 347.92069641 31.31193909 348.58069641 30.97193909 349.26069641 C29.98193909 349.59069641 28.99193909 349.92069641 27.97193909 350.26069641 C27.64193909 351.25069641 27.31193909 352.24069641 26.97193909 353.26069641 C22.51479623 357.26069641 22.51479623 357.26069641 19.97193909 357.26069641 C19.86881409 357.90007141 19.76568909 358.53944641 19.65943909 359.19819641 C19.43256409 359.87882141 19.20568909 360.55944641 18.97193909 361.26069641 C17.98193909 361.59069641 16.99193909 361.92069641 15.97193909 362.26069641 C15.66256409 362.92069641 15.35318909 363.58069641 15.03443909 364.26069641 C14.68381409 364.92069641 14.33318909 365.58069641 13.97193909 366.26069641 C12.63860575 366.59402974 11.30527242 366.92736308 9.97193909 367.26069641 C8.78863725 369.12714548 8.78863725 369.12714548 7.97193909 371.26069641 C5.97193909 374.26069641 5.97193909 374.26069641 2.97193909 375.26069641 C2.66256409 375.92069641 2.35318909 376.58069641 2.03443909 377.26069641 C1.68381409 377.92069641 1.33318909 378.58069641 0.97193909 379.26069641 C-0.36139425 379.59402974 -1.69472758 379.92736308 -3.02806091 380.26069641 C-4.16985731 382.25241795 -4.16985731 382.25241795 -5.02806091 384.26069641 C-6.46461945 384.34201105 -7.90250921 384.400032 -9.34056091 384.44819641 C-10.14106873 384.4830011 -10.94157654 384.51780579 -11.76634216 384.55366516 C-14.607376 384.1856556 -15.27839847 383.48784605 -17.02806091 381.26069641 C-17.3972044 379.22049427 -17.3972044 379.22049427 -17.38882446 376.83779907 C-17.39501045 375.48114136 -17.39501045 375.48114136 -17.40132141 374.09707642 C-17.39053558 373.10733322 -17.37974976 372.11759003 -17.36863708 371.09785461 C-17.36907516 370.05378448 -17.36951324 369.00971436 -17.3699646 367.93400574 C-17.36787134 364.47630743 -17.34451446 361.01909147 -17.32102966 357.56147766 C-17.31543563 355.1668016 -17.31116463 352.77212212 -17.3081665 350.37744141 C-17.2967026 344.0693873 -17.26722192 337.76153986 -17.23405457 331.4535675 C-17.20338709 325.01886287 -17.18966827 318.58412491 -17.17454529 312.14936829 C-17.14235388 299.51972274 -17.09171398 286.89022056 -17.02806091 274.26069641 C-17.85108688 274.26346179 -17.85108688 274.26346179 -18.69073963 274.26628304 C-32.03575397 274.31043401 -45.38075552 274.34341168 -58.72582722 274.36432076 C-65.17938261 274.37477124 -71.63288541 274.38895354 -78.08641052 274.41157532 C-84.31093045 274.43325855 -90.53539968 274.4452555 -96.75995445 274.4504509 C-99.13828009 274.45415479 -101.51660286 274.46138725 -103.894907 274.47215652 C-107.21840602 274.48661128 -110.54169387 274.48867687 -113.86521912 274.48774719 C-114.85496231 274.49493774 -115.84470551 274.5021283 -116.86444092 274.50953674 C-117.76887939 274.50678741 -118.67331787 274.50403809 -119.60516357 274.50120544 C-120.39145299 274.50304903 -121.1777424 274.50489262 -121.98785877 274.50679207 C-124.02806091 274.26069641 -124.02806091 274.26069641 -127.02806091 272.26069641 C-127.3972044 270.32792473 -127.3972044 270.32792473 -127.38882446 267.92008972 C-127.39294846 267.00861176 -127.39707245 266.09713379 -127.40132141 265.15803528 C-127.39053558 264.15534607 -127.37974976 263.15265686 -127.36863708 262.11958313 C-127.36907516 261.06590546 -127.36951324 260.01222778 -127.3699646 258.92662048 C-127.36786842 255.43102218 -127.34449794 251.9358988 -127.32102966 248.44038391 C-127.31543667 246.02185834 -127.31116517 243.60332938 -127.3081665 241.18479919 C-127.29669444 234.80932789 -127.26720684 228.43406057 -127.23405457 222.05867004 C-127.20340458 215.55702983 -127.18967202 209.05535675 -127.17454529 202.55366516 C-127.1423395 189.78925505 -127.09168866 177.02498656 -127.02806091 164.26069641 C-127.84335628 164.2620791 -127.84335628 164.2620791 -128.67512226 164.26348972 C-141.89496969 164.2855655 -155.11481389 164.3020542 -168.33467579 164.31250858 C-174.72767637 164.31773375 -181.12066368 164.3248248 -187.51365662 164.33613586 C-193.6798179 164.34697769 -199.84596639 164.35297601 -206.01213646 164.35557365 C-208.36812733 164.35742556 -210.72411748 164.36104169 -213.08010292 164.36642647 C-216.37242284 164.37365403 -219.66468946 164.37468662 -222.95701599 164.3742218 C-223.93740845 164.37781708 -224.9178009 164.38141235 -225.92790222 164.38511658 C-226.82392654 164.38374191 -227.71995087 164.38236725 -228.64312744 164.38095093 C-229.42204251 164.38187272 -230.20095758 164.38279451 -231.00347614 164.38374424 C-233.02806091 164.26069641 -233.02806091 164.26069641 -236.02806091 163.26069641 C-237.2307891 160.85524003 -237.12877563 159.31072688 -237.09056091 156.63569641 C-237.08153748 155.81843079 -237.07251404 155.00116516 -237.06321716 154.15913391 C-237.04581482 153.21940735 -237.04581482 153.21940735 -237.02806091 152.26069641 C-235.70806091 151.93069641 -234.38806091 151.60069641 -233.02806091 151.26069641 C-232.53306091 149.28069641 -232.53306091 149.28069641 -232.02806091 147.26069641 C-231.36806091 147.26069641 -230.70806091 147.26069641 -230.02806091 147.26069641 C-229.62587341 146.30163391 -229.62587341 146.30163391 -229.21556091 145.32319641 C-228.02806091 143.26069641 -228.02806091 143.26069641 -225.02806091 142.26069641 C-224.69806091 141.27069641 -224.36806091 140.28069641 -224.02806091 139.26069641 C-223.03806091 139.26069641 -222.04806091 139.26069641 -221.02806091 139.26069641 C-220.36806091 137.61069641 -219.70806091 135.96069641 -219.02806091 134.26069641 C-218.36806091 134.26069641 -217.70806091 134.26069641 -217.02806091 134.26069641 C-217.02806091 133.60069641 -217.02806091 132.94069641 -217.02806091 132.26069641 C-216.36806091 132.26069641 -215.70806091 132.26069641 -215.02806091 132.26069641 C-215.02806091 131.60069641 -215.02806091 130.94069641 -215.02806091 130.26069641 C-213.21556091 128.13569641 -213.21556091 128.13569641 -211.02806091 126.26069641 C-210.03806091 126.26069641 -209.04806091 126.26069641 -208.02806091 126.26069641 C-207.69806091 124.94069641 -207.36806091 123.62069641 -207.02806091 122.26069641 C-205.04806091 121.76569641 -205.04806091 121.76569641 -203.02806091 121.26069641 C-202.53306091 119.28069641 -202.53306091 119.28069641 -202.02806091 117.26069641 C-201.36806091 117.26069641 -200.70806091 117.26069641 -200.02806091 117.26069641 C-199.53306091 115.77569641 -199.53306091 115.77569641 -199.02806091 114.26069641 C-198.03806091 114.26069641 -197.04806091 114.26069641 -196.02806091 114.26069641 C-195.36806091 112.61069641 -194.70806091 110.96069641 -194.02806091 109.26069641 C-193.36806091 109.26069641 -192.70806091 109.26069641 -192.02806091 109.26069641 C-191.77024841 108.66386047 -191.51243591 108.06702454 -191.24681091 107.45210266 C-189.92747669 105.07983824 -188.64056771 103.87656516 -186.52806091 102.19819641 C-184.0914118 100.25197455 -182.8054397 98.92676459 -181.02806091 96.26069641 C-180.03806091 96.26069641 -179.04806091 96.26069641 -178.02806091 96.26069641 C-177.96618591 95.70382141 -177.90431091 95.14694641 -177.84056091 94.57319641 C-176.67998401 91.270016 -174.62592646 89.54174908 -172.02806091 87.26069641 C-171.36806091 87.26069641 -170.70806091 87.26069641 -170.02806091 87.26069641 C-169.53306091 85.77569641 -169.53306091 85.77569641 -169.02806091 84.26069641 C-168.03806091 84.26069641 -167.04806091 84.26069641 -166.02806091 84.26069641 C-165.36806091 82.61069641 -164.70806091 80.96069641 -164.02806091 79.26069641 C-163.36806091 79.26069641 -162.70806091 79.26069641 -162.02806091 79.26069641 C-162.02806091 78.60069641 -162.02806091 77.94069641 -162.02806091 77.26069641 C-161.36806091 77.26069641 -160.70806091 77.26069641 -160.02806091 77.26069641 C-160.02806091 76.60069641 -160.02806091 75.94069641 -160.02806091 75.26069641 C-158.21556091 73.13569641 -158.21556091 73.13569641 -156.02806091 71.26069641 C-155.03806091 71.26069641 -154.04806091 71.26069641 -153.02806091 71.26069641 C-152.53306091 69.28069641 -152.53306091 69.28069641 -152.02806091 67.26069641 C-125.95806091 66.93069641 -99.88806091 66.60069641 -73.02806091 66.26069641 C-72.03806091 64.28069641 -72.03806091 64.28069641 -71.02806091 62.26069641 C-70.03806091 62.26069641 -69.04806091 62.26069641 -68.02806091 62.26069641 C-67.69806091 61.27069641 -67.36806091 60.28069641 -67.02806091 59.26069641 C-66.36806091 59.26069641 -65.70806091 59.26069641 -65.02806091 59.26069641 C-64.69806091 57.94069641 -64.36806091 56.62069641 -64.02806091 55.26069641 C-62.70806091 54.93069641 -61.38806091 54.60069641 -60.02806091 54.26069641 C-59.87337341 53.30163391 -59.87337341 53.30163391 -59.71556091 52.32319641 C-59.37524841 51.30225891 -59.37524841 51.30225891 -59.02806091 50.26069641 C-58.03806091 49.93069641 -57.04806091 49.60069641 -56.02806091 49.26069641 C-54.81923995 47.26053175 -54.81923995 47.26053175 -54.02806091 45.26069641 C-53.36806091 45.26069641 -52.70806091 45.26069641 -52.02806091 45.26069641 C-52.02806091 44.60069641 -52.02806091 43.94069641 -52.02806091 43.26069641 C-51.40931091 43.01319641 -50.79056091 42.76569641 -50.15306091 42.51069641 C-47.67737405 41.05441002 -47.07681089 39.88257135 -46.02806091 37.26069641 C-45.03806091 37.26069641 -44.04806091 37.26069641 -43.02806091 37.26069641 C-42.96618591 36.68319641 -42.90431091 36.10569641 -42.84056091 35.51069641 C-41.50838147 31.8215841 -38.44988078 29.97160634 -35.02806091 28.26069641 C-34.69806091 27.27069641 -34.36806091 26.28069641 -34.02806091 25.26069641 C-31.96556091 24.57319641 -31.96556091 24.57319641 -30.02806091 24.26069641 C-29.69806091 22.94069641 -29.36806091 21.62069641 -29.02806091 20.26069641 C-28.38868591 20.15757141 -27.74931091 20.05444641 -27.09056091 19.94819641 C-26.40993591 19.72132141 -25.72931091 19.49444641 -25.02806091 19.26069641 C-24.69806091 18.27069641 -24.36806091 17.28069641 -24.02806091 16.26069641 C-23.36806091 16.26069641 -22.70806091 16.26069641 -22.02806091 16.26069641 C-21.87337341 15.30163391 -21.87337341 15.30163391 -21.71556091 14.32319641 C-21.37524841 13.30225891 -21.37524841 13.30225891 -21.02806091 12.26069641 C-20.03806091 11.93069641 -19.04806091 11.60069641 -18.02806091 11.26069641 C-16.81923995 9.26053175 -16.81923995 9.26053175 -16.02806091 7.26069641 C-15.03806091 7.26069641 -14.04806091 7.26069641 -13.02806091 7.26069641 C-12.69806091 6.27069641 -12.36806091 5.28069641 -12.02806091 4.26069641 C-11.36806091 4.26069641 -10.70806091 4.26069641 -10.02806091 4.26069641 C-10.02806091 3.60069641 -10.02806091 2.94069641 -10.02806091 2.26069641 C-6.61263139 0.19090555 -3.9608646 0.00757197 0 0 Z " fill="#1F9CAC" transform="translate(294.02806091308594,63.73930358886719)"/>
<path d="M0 0 C21.12 0 42.24 0 64 0 C64 0.66 64 1.32 64 2 C65.32 2.33 66.64 2.66 68 3 C69.54008408 7.77987285 70.23412975 11.6891437 70.13525391 16.76147461 C70.11508209 18.06229477 70.09491028 19.36311493 70.0741272 20.70335388 C70.04183382 22.10302245 70.00930688 23.50268566 69.9765625 24.90234375 C69.95036017 26.34963872 69.92509605 27.79695096 69.90072632 29.24427795 C69.83441972 33.03380363 69.75545461 36.82296146 69.67376709 40.61218262 C69.59250866 44.48675534 69.52333984 48.36154232 69.453125 52.23632812 C69.31385235 59.82447831 69.16119354 67.41228045 69 75 C66.13735162 76.43132419 63.68631268 76.13520272 60.48657227 76.14526367 C59.81810272 76.14862228 59.14963318 76.1519809 58.46090698 76.15544128 C56.24605462 76.16495818 54.0312778 76.16689474 51.81640625 76.16796875 C50.27945423 76.17118074 48.74250252 76.17454476 47.20555115 76.17805481 C43.98167207 76.18404787 40.75781981 76.18589452 37.53393555 76.18530273 C33.39995904 76.18520108 29.26615417 76.19885554 25.13221836 76.21607494 C21.9572419 76.22718531 18.78230707 76.22922224 15.60731316 76.22869301 C14.08306219 76.2298745 12.5588102 76.2343057 11.03457832 76.24202538 C8.90387014 76.25180631 6.77353629 76.24895499 4.64282227 76.24291992 C3.42973892 76.24434494 2.21665558 76.24576996 0.96681213 76.24723816 C-2 76 -2 76 -5 74 C-5.3742218 71.11547852 -5.3742218 71.11547852 -5.37231445 67.37890625 C-5.37596512 66.69907684 -5.37961578 66.01924744 -5.38337708 65.31881714 C-5.39149837 63.06645911 -5.37786022 60.81481699 -5.36328125 58.5625 C-5.36276283 57.00073243 -5.36327983 55.43896419 -5.36479187 53.87719727 C-5.36470208 50.60195186 -5.35425836 47.32695224 -5.33618164 44.05175781 C-5.31349406 39.84814635 -5.31294954 35.64489423 -5.31969929 31.4412384 C-5.32303675 28.21566561 -5.31641342 24.99017512 -5.30657005 21.76461792 C-5.3027139 20.21443105 -5.30157155 18.66423504 -5.3031559 17.11404419 C-5.30352572 14.94954913 -5.29093027 12.78551912 -5.2746582 10.62109375 C-5.27005081 9.3880249 -5.26544342 8.15495605 -5.26069641 6.88452148 C-5 4 -5 4 -3 2 C-2.01 2 -1.02 2 0 2 C0 1.34 0 0.68 0 0 Z " fill="#345ACF" transform="translate(62,262)"/>
<path d="M0 0 C1.80149265 0.1126123 3.60636523 0.17580504 5.41113281 0.20532227 C6.49195129 0.22526749 7.57276978 0.24521271 8.68634033 0.26576233 C10.42714874 0.29083107 10.42714874 0.29083107 12.203125 0.31640625 C13.39605164 0.33718735 14.58897827 0.35796844 15.8180542 0.37937927 C19.62864423 0.44476239 23.43930314 0.50370776 27.25 0.5625 C29.83334046 0.60569589 32.41667395 0.64931052 35 0.69335938 C41.33326052 0.80043234 47.66658956 0.90221972 54 1 C54 0.34 54 -0.32 54 -1 C54.99 -1 55.98 -1 57 -1 C57 -0.34 57 0.32 57 1 C58.175625 1.1546875 58.175625 1.1546875 59.375 1.3125 C62 2 62 2 64 5 C64.26069641 7.83946228 64.26069641 7.83946228 64.2746582 11.33569336 C64.28419022 12.64392563 64.29372223 13.9521579 64.30354309 15.30003357 C64.30328166 16.72997057 64.30234461 18.15990758 64.30078125 19.58984375 C64.3046683 21.05571108 64.30900299 22.52157728 64.31376648 23.98744202 C64.32122856 27.05994314 64.32093759 30.13232937 64.31567383 33.20483398 C64.30987984 37.14037774 64.32680807 41.07545078 64.3500185 45.01091671 C64.36475752 48.03840379 64.36562733 51.06577755 64.36250877 54.09329414 C64.36302193 55.5441538 64.36825863 56.9950198 64.37832069 58.44584465 C64.39066925 60.47549723 64.38195493 62.50524486 64.37231445 64.53491211 C64.37294388 65.68946396 64.3735733 66.84401581 64.3742218 68.03355408 C63.94992197 71.39696718 63.57484164 72.78548618 61 75 C58.03991699 75.49447632 58.03991699 75.49447632 54.37304688 75.48583984 C53.7044313 75.48963654 53.03581573 75.49343323 52.34693909 75.49734497 C50.13706529 75.5047538 47.9285069 75.48336585 45.71875 75.4609375 C44.18322911 75.45855312 42.64770527 75.45764774 41.11218262 75.4581604 C37.89410131 75.45503185 34.67646536 75.43846319 31.45849609 75.41162109 C27.33234415 75.3776409 23.20668166 75.36999248 19.08040619 75.37151146 C15.90968142 75.37096774 12.73906378 75.36000025 9.56837463 75.34550858 C8.04692902 75.33914169 6.52547127 75.33520193 5.00401306 75.33372116 C2.87811591 75.32938687 0.75273863 75.31188398 -1.37304688 75.29052734 C-2.58311401 75.28290375 -3.79318115 75.27528015 -5.03991699 75.26742554 C-8 75 -8 75 -11 73 C-11.41218567 70.28752136 -11.41218567 70.28752136 -11.46411133 66.79370117 C-11.49036087 65.48862106 -11.51661041 64.18354095 -11.5436554 62.83891296 C-11.55706784 61.40693724 -11.56984411 59.97495543 -11.58203125 58.54296875 C-11.60395723 57.07805378 -11.62689485 55.61315362 -11.65080261 54.14826965 C-11.69772609 51.07406515 -11.73434904 47.99996101 -11.76342773 44.92553711 C-11.80117701 40.99098642 -11.86116901 37.05716918 -11.92854786 33.12302685 C-11.9784535 30.09561063 -12.01804014 27.06812835 -12.05438805 24.04052162 C-12.07273285 22.59045917 -12.09389741 21.1404295 -12.11795998 19.69045067 C-12.14981265 17.65859575 -12.1666476 15.62652231 -12.18286133 13.59448242 C-12.19601883 12.43913498 -12.20917633 11.28378754 -12.22273254 10.09342957 C-11.99486315 6.92865669 -11.48155645 4.79636693 -10 2 C-6.1129113 -0.53505785 -4.34612587 -1.18271592 0 0 Z " fill="#4D0FF5" transform="translate(178,373)"/>
<path d="M0 0 C1.07471558 0.24349686 1.07471558 0.24349686 2.17114258 0.49191284 C4.93994459 0.98921353 7.45233957 1.12690439 10.26171875 1.12939453 C11.28628174 1.13254669 12.31084473 1.13569885 13.36645508 1.13894653 C14.4623999 1.1369223 15.55834473 1.13489807 16.6875 1.1328125 C17.82276123 1.13376923 18.95802246 1.13472595 20.12768555 1.13571167 C22.52490291 1.13639134 24.92212213 1.13455191 27.31933594 1.13037109 C30.98637022 1.12501989 34.65328202 1.13032334 38.3203125 1.13671875 C40.65104194 1.13605793 42.9817713 1.13477669 45.3125 1.1328125 C46.95641724 1.13584885 46.95641724 1.13584885 48.63354492 1.13894653 C50.1703894 1.13421829 50.1703894 1.13421829 51.73828125 1.12939453 C52.63587158 1.12859894 53.53346191 1.12780334 54.45825195 1.12698364 C57.05971933 0.99701647 59.4627548 0.57486022 62 0 C62 0.66 62 1.32 62 2 C63.65 2.33 65.3 2.66 67 3 C68.51681228 7.72891698 69.23970211 11.62369383 69.16699219 16.63793945 C69.15327576 17.91228348 69.13955933 19.1866275 69.12542725 20.49958801 C69.09976114 21.87082888 69.07356464 23.24205992 69.046875 24.61328125 C69.02575109 26.03337182 69.00527399 27.45347214 68.9854126 28.87358093 C68.94158164 31.83653238 68.89025668 34.79923174 68.83349609 37.76196289 C68.76124688 41.56276201 68.70741246 45.36356188 68.65903854 49.16473103 C68.61987176 52.09101233 68.57129683 55.01707848 68.51981354 57.94316673 C68.49623591 59.34538458 68.47554832 60.74765408 68.45778656 62.14995766 C68.43159283 64.10313408 68.39143416 66.0561083 68.35058594 68.0090332 C68.33122986 69.12043167 68.31187378 70.23183014 68.29193115 71.37690735 C68 74 68 74 66 76 C63.16017151 76.25396729 63.16017151 76.25396729 59.48657227 76.25878906 C58.48386795 76.26404602 58.48386795 76.26404602 57.46090698 76.26940918 C55.24596848 76.27822852 53.03134814 76.27237615 50.81640625 76.265625 C49.27945392 76.26697176 47.74250201 76.26891238 46.20555115 76.27142334 C42.98163809 76.274375 39.75783575 76.27007626 36.53393555 76.26074219 C32.39993998 76.24935713 28.26620435 76.25590074 24.13221836 76.26788712 C20.95723003 76.27511279 17.78230334 76.27281438 14.60731316 76.26763153 C13.0830679 76.26629649 11.55881706 76.26793766 10.03457832 76.27259064 C7.90384212 76.27766649 5.77352708 76.26993067 3.64282227 76.25878906 C2.42973892 76.25719788 1.21665558 76.25560669 -0.03318787 76.25396729 C-3 76 -3 76 -6 74 C-6.41218567 71.28752136 -6.41218567 71.28752136 -6.46411133 67.79370117 C-6.49036087 66.48862106 -6.51661041 65.18354095 -6.5436554 63.83891296 C-6.55706784 62.40693724 -6.56984411 60.97495543 -6.58203125 59.54296875 C-6.60395723 58.07805378 -6.62689485 56.61315362 -6.65080261 55.14826965 C-6.69772609 52.07406515 -6.73434904 48.99996101 -6.76342773 45.92553711 C-6.80117701 41.99098642 -6.86116901 38.05716918 -6.92854786 34.12302685 C-6.9784535 31.09561063 -7.01804014 28.06812835 -7.05438805 25.04052162 C-7.07273285 23.59045917 -7.09389741 22.1404295 -7.11795998 20.69045067 C-7.14981265 18.65859575 -7.1666476 16.62652231 -7.18286133 14.59448242 C-7.19601883 13.43913498 -7.20917633 12.28378754 -7.22273254 11.09342957 C-6.99584101 7.94223765 -6.49640848 5.77647472 -5 3 C-2.375 2.1875 -2.375 2.1875 0 2 C0 1.34 0 0.68 0 0 Z " fill="#4D0FF5" transform="translate(63,372)"/>
</svg>
