<svg width="25" height="25" viewBox="0 0 25 25" fill="none" xmlns="http://www.w3.org/2000/svg">
<path d="M24.8354 7.43402L23.9045 6.50336V5.63859C23.9047 5.49383 23.8472 5.35526 23.745 5.25283C23.6428 5.1506 23.504 5.09329 23.3594 5.09329H22.2688C22.1243 5.09329 21.9855 5.1506 21.8833 5.25283C21.781 5.35526 21.7235 5.49383 21.7237 5.63859V6.56865C19.7656 9.91153 16.5169 11.9086 12.9999 11.9086C9.48295 11.9086 6.23432 9.91153 4.27616 6.56865V5.63859C4.27636 5.49383 4.21885 5.35526 4.11662 5.25283C4.01439 5.1506 3.87562 5.09329 3.73106 5.09329H2.64046C2.4959 5.09329 2.35713 5.1506 2.2549 5.25283C2.15266 5.35526 2.09516 5.49383 2.09536 5.63859V6.50336L1.1645 7.43402C1.02393 7.5712 0.967822 7.77326 1.01794 7.96335C1.06806 8.15324 1.21641 8.30159 1.4063 8.35171C1.59618 8.40163 1.79845 8.34572 1.93562 8.20495L2.09536 8.04521V19.8146C2.09516 19.9591 2.15266 20.0979 2.2549 20.2001C2.35713 20.3026 2.4959 20.3599 2.64046 20.3599H3.73106C3.87562 20.3599 4.01439 20.3026 4.11662 20.2001C4.21885 20.0979 4.27636 19.9591 4.27616 19.8146V18.1789H21.7237V19.8146C21.7235 19.9591 21.781 20.0979 21.8833 20.2001C21.9855 20.3026 22.1243 20.3599 22.2688 20.3599H23.3594C23.504 20.3599 23.6428 20.3026 23.745 20.2001C23.8472 20.0979 23.9047 19.9591 23.9045 19.8146V8.04521L24.0643 8.20495C24.2014 8.34572 24.4037 8.40163 24.5936 8.35171C24.7837 8.30159 24.932 8.15324 24.9819 7.96335C25.0321 7.77326 24.976 7.5712 24.8354 7.43402ZM17.907 11.7467V17.0885H15.1809V12.7419C16.131 12.5368 17.0483 12.2019 17.907 11.7467ZM14.0903 12.922V17.0885H11.9095V12.922C12.2713 12.9669 12.6353 12.9926 12.9999 12.9992C13.3645 12.9926 13.7285 12.9669 14.0903 12.922ZM10.8189 17.0885H8.09285V11.7467C8.95163 12.2019 9.86891 12.5368 10.8189 12.7419V17.0885ZM4.27616 8.50905C5.04409 9.5068 5.96397 10.3776 7.00245 11.0894V17.0885H4.27616V8.50905ZM18.9974 17.0885V11.0894C20.0359 10.3776 20.956 9.5068 21.7237 8.50905V17.0885H18.9974Z" fill="white"/>
</svg>
