<svg width="17" height="17" viewBox="0 0 17 17" fill="none" xmlns="http://www.w3.org/2000/svg">
<g clip-path="url(#clip0_867_1309)">
<path d="M14.4113 14.323H3.21133V3.12295H7.21133V1.52295H3.21133C2.78698 1.52295 2.38002 1.69152 2.07996 1.99158C1.7799 2.29164 1.61133 2.6986 1.61133 3.12295V14.323C1.61133 14.7473 1.7799 15.1543 2.07996 15.4543C2.38002 15.7544 2.78698 15.923 3.21133 15.923H14.4113C14.8357 15.923 15.2426 15.7544 15.5427 15.4543C15.8428 15.1543 16.0113 14.7473 16.0113 14.323V10.323H14.4113V14.323Z" fill="#A1A1A1"/>
<path d="M9.61167 1.52295L12.2437 4.15495L7.65967 8.73895L8.79567 9.87495L13.3797 5.29095L16.0117 7.92295V1.52295H9.61167Z" fill="#A1A1A1"/>
</g>
<defs>
<clipPath id="clip0_867_1309">
<rect width="16" height="16" fill="white" transform="translate(0.811523 0.723145)"/>
</clipPath>
</defs>
</svg>
