<svg width="25" height="26" viewBox="0 0 25 26" fill="none" xmlns="http://www.w3.org/2000/svg">
<path d="M18.8382 24.0703H16.4171C18.1099 22.6821 19.0106 20.5588 18.8201 18.3655C18.7886 18.0025 18.5008 17.7147 18.1378 17.6831C16.3976 17.532 14.6877 18.068 13.3543 19.1644V15.377L11.8544 15.377V19.2655C10.5046 18.1011 8.74402 17.5275 6.9507 17.6832C6.58774 17.7147 6.29993 18.0025 6.26838 18.3655C6.07825 20.5554 6.97583 22.6798 8.67141 24.0703H6.37063C5.95644 24.0703 5.62062 24.4061 5.62062 24.8203C5.62062 25.2345 5.95644 25.5703 6.37063 25.5703H18.8381C19.2523 25.5703 19.5881 25.2345 19.5881 24.8203C19.5881 24.4061 19.2524 24.0703 18.8382 24.0703ZM17.3405 19.1628C17.2546 21.1809 15.9916 22.9525 14.1295 23.7006C14.0541 22.8444 13.8136 22.0155 13.4237 21.2571C14.3685 19.9679 15.8187 19.2275 17.3405 19.1628ZM7.74801 19.1628C10.4055 19.2759 12.5378 21.4075 12.651 24.0657C9.99358 23.9526 7.86121 21.8209 7.74801 19.1628Z" fill="white"/>
<path d="M15.6216 8.59898C15.6216 6.93533 14.2681 5.58179 12.6044 5.58179C10.9407 5.58179 9.58717 6.93527 9.58717 8.59898C9.58717 10.2627 10.9407 11.6162 12.6044 11.6162C14.2681 11.6162 15.6216 10.2626 15.6216 8.59898ZM11.266 8.59898C11.266 7.86107 11.8664 7.26066 12.6044 7.26066C13.3423 7.26066 13.9427 7.86101 13.9427 8.59898C13.9427 9.33695 13.3423 9.93731 12.6044 9.93731C11.8664 9.93731 11.266 9.3369 11.266 8.59898Z" fill="white"/>
<circle cx="12.6467" cy="8.59898" r="5.99322" stroke="white" strokeWidth="2"/>
</svg>
