<svg width="15" height="15" viewBox="0 0 15 15" fill="none" xmlns="http://www.w3.org/2000/svg">
<path fill-rule="evenodd" clip-rule="evenodd" d="M7.24023 13C8.69893 13 10.0979 12.4205 11.1293 11.3891C12.1608 10.3576 12.7402 8.95869 12.7402 7.5C12.7402 6.04131 12.1608 4.64236 11.1293 3.61091C10.0979 2.57946 8.69893 2 7.24023 2C5.78154 2 4.3826 2.57946 3.35115 3.61091C2.3197 4.64236 1.74023 6.04131 1.74023 7.5C1.74023 8.95869 2.3197 10.3576 3.35115 11.3891C4.3826 12.4205 5.78154 13 7.24023 13ZM7.24023 14.5C9.09675 14.5 10.8772 13.7625 12.19 12.4497C13.5027 11.137 14.2402 9.35652 14.2402 7.5C14.2402 5.64348 13.5027 3.86301 12.19 2.55025C10.8772 1.2375 9.09675 0.5 7.24023 0.5C5.38372 0.5 3.60324 1.2375 2.29049 2.55025C0.977732 3.86301 0.240234 5.64348 0.240234 7.5C0.240234 9.35652 0.977732 11.137 2.29049 12.4497C3.60324 13.7625 5.38372 14.5 7.24023 14.5ZM8.24023 5C8.24023 5.26522 8.13488 5.51957 7.94734 5.70711C7.7598 5.89464 7.50545 6 7.24023 6C6.97502 6 6.72066 5.89464 6.53313 5.70711C6.34559 5.51957 6.24023 5.26522 6.24023 5C6.24023 4.73478 6.34559 4.48043 6.53313 4.29289C6.72066 4.10536 6.97502 4 7.24023 4C7.50545 4 7.7598 4.10536 7.94734 4.29289C8.13488 4.48043 8.24023 4.73478 8.24023 5ZM7.99023 8C7.99023 7.80109 7.91122 7.61032 7.77056 7.46967C7.62991 7.32902 7.43915 7.25 7.24023 7.25C7.04132 7.25 6.85056 7.32902 6.7099 7.46967C6.56925 7.61032 6.49023 7.80109 6.49023 8V10.5C6.49023 10.6989 6.56925 10.8897 6.7099 11.0303C6.85056 11.171 7.04132 11.25 7.24023 11.25C7.43915 11.25 7.62991 11.171 7.77056 11.0303C7.91122 10.8897 7.99023 10.6989 7.99023 10.5V8Z" fill="black"/>
</svg>
