<svg width="27" height="27" viewBox="0 0 27 27" fill="none" xmlns="http://www.w3.org/2000/svg">
<g id="Menu icn">
<g id="icn">
<path id="Union" fill-rule="evenodd" clip-rule="evenodd" d="M13.6506 5.88556C12.734 5.88556 11.991 6.6286 11.991 7.5452C11.991 8.46179 12.734 9.20483 13.6506 9.20483C14.5672 9.20483 15.3102 8.46179 15.3102 7.5452C15.3102 6.6286 14.5672 5.88556 13.6506 5.88556ZM5.3528 7.5452C5.3528 6.62861 6.09584 5.88556 7.01243 5.88556C7.92902 5.88556 8.67207 6.62861 8.67207 7.5452C8.67207 8.46179 7.92902 9.20484 7.01243 9.20484C6.09584 9.20484 5.3528 8.46179 5.3528 7.5452ZM5.35246 14.1838C5.35246 13.2672 6.0955 12.5241 7.01209 12.5241C7.92868 12.5241 8.67173 13.2672 8.67173 14.1838C8.67173 15.1003 7.92868 15.8434 7.01209 15.8434C6.0955 15.8434 5.35246 15.1003 5.35246 14.1838ZM11.991 14.1838C11.991 13.2672 12.734 12.5241 13.6506 12.5241C14.5672 12.5241 15.3102 13.2672 15.3102 14.1838C15.3102 15.1003 14.5672 15.8434 13.6506 15.8434C12.734 15.8434 11.991 15.1003 11.991 14.1838ZM20.2893 5.88556C19.3727 5.88556 18.6296 6.6286 18.6296 7.5452C18.6296 8.46179 19.3727 9.20483 20.2893 9.20483C21.2059 9.20483 21.9489 8.46179 21.9489 7.5452C21.9489 6.6286 21.2059 5.88556 20.2893 5.88556ZM18.6296 14.1838C18.6296 13.2672 19.3727 12.5241 20.2893 12.5241C21.2059 12.5241 21.9489 13.2672 21.9489 14.1838C21.9489 15.1003 21.2059 15.8434 20.2893 15.8434C19.3727 15.8434 18.6296 15.1003 18.6296 14.1838ZM7.01209 19.1627C6.0955 19.1627 5.35246 19.9057 5.35246 20.8223C5.35246 21.7389 6.0955 22.4819 7.01209 22.4819C7.92868 22.4819 8.67173 21.7389 8.67173 20.8223C8.67173 19.9057 7.92868 19.1627 7.01209 19.1627ZM11.991 20.8223C11.991 19.9057 12.734 19.1627 13.6506 19.1627C14.5672 19.1627 15.3102 19.9057 15.3102 20.8223C15.3102 21.7389 14.5672 22.4819 13.6506 22.4819C12.734 22.4819 11.991 21.7389 11.991 20.8223ZM20.2893 19.1627C19.3727 19.1627 18.6296 19.9057 18.6296 20.8223C18.6296 21.7389 19.3727 22.4819 20.2893 22.4819C21.2059 22.4819 21.9489 21.7389 21.9489 20.8223C21.9489 19.9057 21.2059 19.1627 20.2893 19.1627Z" fill="#4D59FF"/>
</g>
</g>
</svg>
