<svg width="25" height="25" viewBox="0 0 25 25" fill="none" xmlns="http://www.w3.org/2000/svg">
<path d="M12.8022 4.76334L5.80217 7.76334L12.8022 10.7633L19.8022 7.76334L12.8022 4.76334Z" stroke="white" strokeWidth="2" strokeLinejoin="round"/>
<path fill-rule="evenodd" clip-rule="evenodd" d="M7.82762 10.8073L5.40825 11.8442C5.04057 12.0018 4.80217 12.3633 4.80217 12.7633C4.80217 13.1634 5.04057 13.5249 5.40825 13.6825L12.4083 16.6825C12.6598 16.7903 12.9445 16.7903 13.1961 16.6825L20.1961 13.6825C20.5638 13.5249 20.8022 13.1634 20.8022 12.7633C20.8022 12.3633 20.5638 12.0018 20.1961 11.8442L17.7767 10.8073L15.2381 11.8953L17.2636 12.7633L12.8022 14.6754L8.34076 12.7633L10.3662 11.8953L7.82762 10.8073Z" fill="white"/>
<path fill-rule="evenodd" clip-rule="evenodd" d="M7.82762 15.8073L5.40825 16.8442C5.04057 17.0018 4.80217 17.3633 4.80217 17.7633C4.80217 18.1634 5.04057 18.5249 5.40825 18.6825L12.4083 21.6825C12.6598 21.7903 12.9445 21.7903 13.1961 21.6825L20.1961 18.6825C20.5638 18.5249 20.8022 18.1634 20.8022 17.7633C20.8022 17.3633 20.5638 17.0018 20.1961 16.8442L17.7767 15.8073L15.2381 16.8953L17.2636 17.7633L12.8022 19.6754L8.34076 17.7633L10.3662 16.8953L7.82762 15.8073Z" fill="white"/>
</svg>
