<svg width="24" height="24" viewBox="0 0 24 24" fill="none" xmlns="http://www.w3.org/2000/svg">
<g id="mi:favorite">
<path id="Vector" d="M12 2.5C12.1857 2.5001 12.3677 2.55188 12.5256 2.64955C12.6835 2.74722 12.8111 2.88692 12.894 3.053L15.474 8.211L21.144 9.035C21.3287 9.06182 21.5023 9.1398 21.6449 9.2601C21.7876 9.38041 21.8938 9.53825 21.9514 9.71576C22.0091 9.89327 22.0159 10.0834 21.9711 10.2646C21.9263 10.4457 21.8317 10.6108 21.698 10.741L17.571 14.765L18.499 20.439C18.5289 20.6227 18.5068 20.811 18.4354 20.9829C18.3641 21.1547 18.2461 21.3032 18.0949 21.4117C17.9438 21.5202 17.7653 21.5843 17.5796 21.5969C17.394 21.6095 17.2085 21.5701 17.044 21.483L12 18.807L6.95605 21.483C6.79159 21.5701 6.60611 21.6095 6.42045 21.5969C6.23479 21.5843 6.05633 21.5202 5.90515 21.4117C5.75396 21.3032 5.63603 21.1547 5.56465 20.9829C5.49326 20.811 5.47123 20.6227 5.50105 20.439L6.42905 14.765L2.30205 10.741C2.16834 10.6108 2.07375 10.4457 2.02897 10.2646C1.98419 10.0834 1.991 9.89327 2.04865 9.71576C2.10629 9.53825 2.21246 9.38041 2.35515 9.2601C2.49784 9.1398 2.67135 9.06182 2.85605 9.035L8.52605 8.211L11.106 3.053C11.189 2.88692 11.3166 2.74722 11.4745 2.64955C11.6324 2.55188 11.8144 2.5001 12 2.5ZM12 5.736L10.082 9.572C10.0101 9.71626 9.90427 9.84099 9.77368 9.93553C9.64309 10.0301 9.49157 10.0917 9.33205 10.115L5.14805 10.723L8.19805 13.696C8.31331 13.8083 8.39977 13.9468 8.45008 14.0996C8.50039 14.2525 8.51307 14.4152 8.48705 14.574L7.80005 18.771L11.531 16.791C11.6755 16.7143 11.8365 16.6742 12 16.6742C12.1636 16.6742 12.3246 16.7143 12.469 16.791L16.2 18.771L15.513 14.574C15.4872 14.4154 15.5 14.2528 15.5503 14.1001C15.6006 13.9475 15.6869 13.8092 15.802 13.697L18.852 10.723L14.669 10.115C14.5095 10.0917 14.358 10.0301 14.2274 9.93553C14.0968 9.84099 13.991 9.71626 13.919 9.572L12 5.736Z" fill="white"/>
</g>
</svg>
