<svg width="706" height="657" viewBox="0 0 706 657" fill="none" xmlns="http://www.w3.org/2000/svg">
<mask id="mask0_347_2419" style="mask-type:alpha" maskUnits="userSpaceOnUse" x="0" y="0" width="706" height="657">
<path fill-rule="evenodd" clip-rule="evenodd" d="M706 25C706 11.1929 694.807 0 681 0H25C11.1929 0 0 11.1929 0 25V632C0 645.807 11.2319 657 25.0391 657C38.8462 657 50.0781 645.807 50.0781 632V521.967C50.0781 510.921 59.0324 501.967 70.0781 501.967H119.924C130.969 501.967 139.924 510.921 139.924 521.967V632C139.924 645.807 151.117 657 164.924 657H681C694.807 657 706 645.807 706 632V25Z" fill="white"/>
</mask>
<g mask="url(#mask0_347_2419)">
<path d="M766.039 102.605C757.744 124.404 748.567 142.6 738.524 157.142C719.694 184.415 705.14 188.459 684.997 194.061C667.914 198.811 646.648 204.723 614.48 226.235C550.133 269.255 468.741 342.944 446.371 449.687C437.031 494.256 438.817 545.996 442.367 649.076C443.519 682.545 445.012 701.274 446.002 713.667C446.98 725.963 447.522 732.736 446.877 742.193C440.881 830.101 346.597 947.218 158.618 1100.3C157.941 1100.85 157.331 1100.27 157.255 1099C157.181 1097.74 157.673 1096.25 158.348 1095.71C342.453 945.782 438.703 827.09 444.434 743.015C445.028 734.26 444.508 727.717 443.56 715.838C442.565 703.366 441.062 684.529 439.903 650.871C436.326 546.999 434.528 494.859 444.132 449.013C462.502 361.314 519.792 284.76 614.392 221.503C646.805 199.829 668.205 193.878 685.402 189.098C705.86 183.407 719.374 179.652 737.537 153.349C778.089 94.6315 804.237 -25.8397 815.268 -204.711C815.349 -206.075 815.968 -207.374 816.644 -207.62C817.321 -207.865 817.801 -206.959 817.718 -205.597C809.277 -68.6953 791.942 34.533 766.037 102.609L766.039 102.605Z" fill="url(#paint0_linear_347_2419)"/>
<path d="M756.161 95.0133C747.435 117.917 737.774 136.557 726.88 151.576C708.948 176.293 695.221 180.462 676.224 186.244C666.068 189.327 654.557 192.829 640.181 200.236C632.186 204.358 619.869 211.206 605.277 223.093L602.1 225.668C579.602 243.872 526.917 286.513 486.078 352.09C466.213 383.942 452.181 417.007 444.366 450.363C433.949 494.836 433.609 545.046 435.31 641.289C435.789 668.505 436.675 685.054 437.32 697.143C438.148 712.634 438.527 719.706 436.926 730.24C431.917 763.181 415.442 798.748 383.489 845.562L379.142 851.943C360.168 879.801 338.662 911.376 308.647 945.204C262.921 996.716 206.438 1046.46 140.759 1093.03C140.107 1093.49 139.544 1092.86 139.509 1091.61C139.475 1090.36 139.973 1088.98 140.628 1088.52C206.137 1042.06 262.456 992.469 308.022 941.13C337.86 907.514 359.274 876.069 378.169 848.326L382.52 841.936C413.8 796.111 429.882 761.653 434.664 730.179C436.109 720.655 435.749 713.875 434.956 699.016C434.306 686.869 433.415 670.234 432.931 642.867C431.219 545.806 431.582 495.083 442.265 449.476C450.309 415.131 464.683 381.199 484.985 348.667C526.217 282.452 579.213 239.56 601.843 221.244L605.015 218.672C619.77 206.662 632.211 199.738 640.289 195.577C654.788 188.102 666.369 184.583 676.582 181.481C695.209 175.816 708.664 171.727 725.991 147.843C740.279 128.146 752.408 101.968 763.068 67.8177C782.653 5.08618 795.983 -86.4693 802.685 -204.316C802.76 -205.629 803.344 -206.879 804.004 -207.133C804.654 -207.376 805.123 -206.521 805.047 -205.215C798.296 -86.5225 784.814 5.8766 764.977 69.4184C762.145 78.4861 759.209 87.0143 756.161 95.0153L756.161 95.0133Z" fill="url(#paint1_linear_347_2419)"/>
<path d="M746.171 87.5989C737.018 111.598 726.82 130.825 715.232 146.001C698.2 168.313 684.548 172.753 667.266 178.384C656.622 181.847 644.555 185.774 629.452 194.676C620.081 200.194 608.79 207.507 596.091 219.928C594.452 221.529 592.559 223.359 590.436 225.4C568.337 246.694 522.352 291.001 484.219 354.304C464.849 386.354 450.784 418.9 442.411 451.044C431.837 491.659 428.404 535.99 428.284 633.487C428.254 655.489 428.638 670.392 428.918 681.272C429.386 699.574 429.582 707.146 426.964 718.219C419.742 748.732 404.865 777.787 370.113 829.227C363.709 838.708 357.409 848.708 350.741 859.3C335.652 883.26 318.548 910.415 295.996 937.658C249.122 994.283 192.506 1042.72 122.918 1085.72C122.286 1086.11 121.772 1085.44 121.765 1084.22C121.756 1083.01 122.267 1081.71 122.894 1081.32C192.255 1038.45 248.652 990.214 295.31 933.85C317.68 906.835 334.692 879.823 349.699 855.993C356.392 845.366 362.715 835.328 369.166 825.777C403.402 775.101 418.002 746.719 424.947 717.35C427.272 707.528 427.098 700.811 426.638 682.854C426.356 671.925 425.971 656.952 425.998 634.843C426.121 536.427 429.633 491.499 440.454 449.949C449.03 416.999 463.388 383.732 483.126 351.084C521.574 287.25 567.799 242.718 590.017 221.31C592.131 219.274 594.02 217.455 595.652 215.859C608.549 203.244 619.98 195.831 629.465 190.247C644.721 181.262 656.871 177.304 667.586 173.819C684.55 168.29 697.951 163.929 714.444 142.329C728.826 123.492 741.023 98.1664 751.726 64.9551C771.055 4.9629 783.965 -85.5007 790.1 -203.923C790.159 -205.161 790.724 -206.392 791.353 -206.641C791.979 -206.894 792.435 -206.079 792.37 -204.826C786.194 -85.5467 773.126 5.76272 753.533 66.5714C751.153 73.9556 748.703 80.9596 746.172 87.5946L746.171 87.5989Z" fill="url(#paint2_linear_347_2419)"/>
<path d="M736.178 80.3859C726.626 105.409 715.901 125.151 703.603 140.425C687.446 160.484 673.867 165.137 658.143 170.523C647.029 174.331 634.438 178.65 618.737 189.104C608.965 195.618 598.347 203.479 586.931 216.765C584.804 219.239 582.262 222.135 579.369 225.428C557.989 249.776 518.193 295.086 482.426 356.539C463.235 389.339 449.526 420.491 440.524 451.735C428.271 494.243 423.242 539.762 421.292 625.702C421.034 637.041 420.859 646.379 420.713 654.194C420.149 684.248 419.997 692.325 417.133 705.673L417.033 706.138L416.857 706.537C403.019 737.678 388.748 765.07 356.747 812.882C348.025 825.917 339.947 840.076 331.391 855.071C317.515 879.39 303.166 904.543 283.361 930.117C236.61 990.495 178.294 1039 105.081 1078.41C104.476 1078.73 104.002 1078.04 104.02 1076.86C104.041 1075.68 104.538 1074.47 105.149 1074.14C178.08 1034.88 236.131 986.616 282.62 926.581C302.227 901.26 316.481 876.273 330.269 852.112C338.873 837.028 347 822.788 355.825 809.6C387.459 762.328 401.619 735.23 415.253 704.573C417.828 692.413 417.966 685.073 418.524 655.347C418.67 647.525 418.847 638.181 419.104 626.82C421.073 539.995 426.201 493.844 438.706 450.464C447.914 418.523 461.853 386.829 481.329 353.527C517.336 291.673 557.305 246.164 578.778 221.708C581.664 218.419 584.196 215.541 586.316 213.072C597.963 199.515 608.746 191.534 618.662 184.924C634.541 174.35 647.232 170 658.43 166.161C674.522 160.645 687.234 156.29 702.909 136.829C717.404 118.826 729.665 94.392 740.394 62.1183C759.525 4.55759 772.018 -84.8076 777.518 -203.502C777.572 -204.688 778.104 -205.873 778.709 -206.124C779.313 -206.377 779.755 -205.615 779.702 -204.415C774.158 -84.8656 761.508 5.3611 742.101 63.7429C740.177 69.5309 738.205 75.0796 736.179 80.3881L736.178 80.3859Z" fill="url(#paint3_linear_347_2419)"/>
<path d="M726.168 73.4145C716.243 99.3854 705.009 119.562 691.995 134.845C676.696 152.808 663.805 157.391 648.88 162.701C637.313 166.819 624.202 171.479 608.05 183.546C598.503 190.678 588.229 199.253 577.802 213.589C575.348 216.963 572.387 220.952 568.991 225.516C548.606 252.945 514.483 298.861 480.693 358.804C461.82 392.295 448.084 422.924 438.699 452.452C427.036 489.163 418.428 531.349 414.344 617.92L414.196 621.104C411.879 670.298 411.525 677.86 407.249 693.47L407.114 693.958L406.897 694.338C391.368 721.414 376.826 746.135 343.396 796.524C333.045 812.122 324.133 829.395 314.698 847.674C302.09 872.109 289.049 897.379 270.743 922.587C224.373 986.442 164.353 1035.01 87.2579 1071.08C86.6828 1071.35 86.2448 1070.64 86.284 1069.51C86.3215 1068.37 86.817 1067.24 87.3992 1066.96C164.171 1031.05 223.888 982.747 269.959 919.309C288.046 894.395 300.989 869.317 313.502 845.069C323.011 826.643 331.991 809.239 342.502 793.393C375.693 743.372 390.209 718.72 405.612 691.872C409.492 677.562 409.857 669.767 412.11 621.97L412.261 618.783C415.839 542.876 422.785 495.831 437.028 451.004C446.574 420.968 460.5 389.889 479.602 356.003C513.554 295.777 547.786 249.713 568.236 222.194C571.62 217.637 574.571 213.666 577.017 210.305C587.709 195.605 598.174 186.864 607.889 179.606C624.25 167.382 637.474 162.676 649.142 158.528C663.83 153.305 676.516 148.792 691.392 131.326C706.018 114.151 718.35 90.5884 729.082 59.2775C748.346 3.10871 760.079 -82.7042 764.956 -203.08C765.003 -204.217 765.513 -205.357 766.084 -205.607C766.66 -205.859 767.091 -205.142 767.045 -203.997C762.132 -82.7476 750.242 3.89959 730.695 60.9021C729.216 65.2171 727.708 69.3821 726.168 73.4123L726.168 73.4145Z" fill="url(#paint4_linear_347_2419)"/>
<path d="M716.119 66.7281C705.863 93.5378 694.137 114.052 680.398 129.261C665.925 145.288 653.078 149.978 639.478 154.933C626.871 159.534 613.841 164.286 597.375 177.985C588.143 185.665 578.276 194.91 568.687 210.422C565.949 214.848 562.648 220.098 558.874 226.115C540.919 254.701 510.868 302.546 479.019 361.094C460.093 395.89 446.714 425.152 436.934 453.169C423.407 491.91 413.214 533.429 407.431 610.158C403.738 659.184 402.426 666.369 397.378 681.234L397.224 681.692L396.199 683.142C376.067 711.702 361.519 732.337 330.052 780.144C318.347 797.927 309.027 817.869 299.16 838.976C287.508 863.903 275.463 889.679 258.138 915.063C212.282 982.245 150.557 1030.88 69.4368 1063.75C68.8878 1063.98 68.4865 1063.27 68.5407 1062.18C68.5938 1061.09 69.0844 1060.02 69.6341 1059.8C150.395 1027.07 211.786 978.736 257.315 912.033C274.407 886.984 286.355 861.424 297.911 836.706C307.87 815.4 317.275 795.273 329.186 777.179C360.694 729.313 375.255 708.649 395.412 680.058L395.985 679.248C400.616 665.545 401.875 658.249 405.449 610.751C411.306 533.081 421.661 490.948 435.407 451.578C445.325 423.195 458.837 393.606 477.934 358.499C509.865 299.799 539.967 251.866 557.953 223.229C561.724 217.228 565.017 211.985 567.751 207.56C577.653 191.55 588.16 181.759 597.13 174.296C613.836 160.396 627.584 155.38 639.716 150.957C653.701 145.854 665.782 141.449 679.882 125.832C694.659 109.473 707.038 86.8058 717.781 56.4553C736.958 2.23955 748.279 -82.5111 752.397 -202.639C752.434 -203.729 752.91 -204.816 753.462 -205.07C754.015 -205.328 754.433 -204.652 754.396 -203.568C750.247 -82.5532 738.766 3.0297 719.295 58.0757C718.253 61.0279 717.195 63.9097 716.119 66.7239L716.119 66.7281Z" fill="url(#paint5_linear_347_2419)"/>
<path d="M706.017 60.3389C695.475 87.8693 683.282 108.619 668.818 123.675C655.14 137.914 642.911 142.445 629.965 147.235C616.885 152.08 603.358 157.088 586.716 172.424C578.276 180.208 568.452 190.429 559.59 207.251L547.503 230.177C531.161 261.157 506.468 307.978 477.408 363.416C463.603 389.745 447.801 421.081 435.255 453.845L435.232 453.906C419.211 495.76 407.821 535.206 400.55 602.405C395.668 647.573 393.404 654.747 387.527 668.967L387.153 669.608L384.257 673.065C361.715 699.924 346.827 717.67 316.717 763.758C303.796 783.542 294.293 805.931 284.237 829.638C273.377 855.237 262.146 881.706 245.542 907.542C200.284 977.963 136.854 1026.66 51.6255 1056.42C51.1043 1056.6 50.7339 1055.9 50.7994 1054.86C50.8708 1053.81 51.3433 1052.82 51.8662 1052.64C136.706 1023.01 199.779 974.643 244.691 904.759C261.052 879.296 272.186 853.064 282.949 827.688C293.112 803.734 302.71 781.114 315.883 760.952C346.121 714.658 361.067 696.851 383.69 669.89L386.377 666.69C391.802 653.525 393.97 646.35 398.691 602.717C406.055 534.624 417.605 494.637 433.854 452.192L433.878 452.131C446.545 419.05 462.446 387.512 476.335 361.018C505.397 305.576 530.094 258.752 546.434 227.768L558.521 204.842C567.684 187.454 577.757 176.959 586.397 168.99C603.308 153.415 616.972 148.353 630.188 143.458C642.965 138.727 655.032 134.265 668.386 120.355C683.33 104.797 695.807 83.0543 706.493 53.6534C725.639 1.17695 736.55 -82.509 739.848 -202.182C739.877 -203.208 740.328 -204.257 740.854 -204.512C741.379 -204.771 741.781 -204.143 741.753 -203.115C738.427 -82.5561 727.358 1.95745 707.914 55.26C707.287 56.9772 706.655 58.6747 706.017 60.3412L706.017 60.3389Z" fill="url(#paint6_linear_347_2419)"/>
<path d="M695.854 54.2673C685.076 82.3858 672.441 103.273 657.257 118.087C644.345 130.683 632.702 135.017 620.372 139.614C606.8 144.668 592.77 149.898 576.074 166.867C564.943 178.181 556.817 190.009 550.506 204.083C547.46 210.875 543.992 218.787 540.085 227.711C525.005 262.128 504.356 309.264 475.852 365.757C461.278 394.649 446.206 424.521 433.592 454.646C416.727 494.914 403.072 530.833 393.704 594.657C387.757 635.178 384.497 642.946 377.704 656.636L377.366 657.136L370.285 664.378C346.968 688.181 331.565 703.909 303.397 747.345C289.329 769.034 279.794 793.748 269.698 819.908C259.52 846.289 248.997 873.563 232.963 900.015C188.352 973.612 123.21 1022.37 33.8156 1049.09C33.3225 1049.24 32.9821 1048.54 33.0583 1047.55C33.1327 1046.55 33.593 1045.63 34.0917 1045.48C123.075 1018.89 187.841 970.475 232.091 897.476C247.883 871.427 258.311 844.401 268.393 818.269C278.603 791.811 288.244 766.813 302.596 744.688C330.961 700.955 346.449 685.14 369.891 661.208L376.782 654.162C382.703 642.231 386.005 635.325 391.971 594.658C401.472 529.93 415.288 493.601 432.357 452.824C445.053 422.501 460.172 392.537 474.792 363.554C503.224 307.204 523.838 260.151 538.889 225.794C542.808 216.855 546.28 208.926 549.331 202.126C555.878 187.523 564.25 175.313 575.686 163.689C592.675 146.425 606.861 141.135 620.581 136.025C632.763 131.484 644.27 127.198 656.9 114.873C672.237 99.9117 684.435 79.4774 695.223 50.8446C714.656 -0.807843 724.853 -81.0637 727.312 -201.725C727.328 -202.693 727.751 -203.703 728.252 -203.955C728.753 -204.215 729.143 -203.631 729.123 -202.66C726.647 -81.1056 716.295 -0.0453742 696.549 52.4369C696.319 53.0501 696.086 53.6583 695.853 54.2666L695.854 54.2673Z" fill="url(#paint7_linear_347_2419)"/>
<path d="M685.516 48.7917C685.409 49.0714 685.302 49.3426 685.195 49.6208C674.175 78.0243 661.628 97.9979 645.705 112.492C633.542 123.572 622.461 127.693 610.731 132.063C596.645 137.31 582.085 142.726 565.446 161.308C555.073 172.891 547.264 185.723 541.585 200.526C541.535 200.658 541.482 200.795 541.433 200.938C538.325 209.103 535.026 218.323 531.206 228.993C518.583 264.27 501.294 312.569 474.357 368.127C469.537 378.068 464.631 387.996 459.738 397.892C450.372 416.837 440.686 436.433 432.015 455.389L429.687 460.484C413.336 496.171 397.888 529.885 386.887 586.926C379.671 624.34 375.249 631.831 367.913 644.261L367.622 644.626C363.489 648.347 359.624 651.763 355.965 655.002C331.36 676.757 316.509 689.883 290.088 730.911C274.919 754.453 265.442 781.425 255.406 809.98C245.842 837.193 235.954 865.333 220.397 892.501C176.468 969.214 109.614 1018.03 16.016 1041.74C15.5517 1041.86 15.2371 1041.19 15.3213 1040.25C15.4009 1039.3 15.8499 1038.43 16.3154 1038.32C109.486 1014.72 175.955 966.266 219.513 890.188C234.834 863.446 244.629 835.574 254.1 808.61C264.256 779.718 273.848 752.438 289.32 728.413C315.986 687.015 331.788 673.039 355.706 651.892C359.317 648.699 363.125 645.332 367.196 641.671C374.129 629.929 378.357 622.616 385.305 586.591C396.468 528.703 412.069 494.64 428.589 458.587L430.919 453.502C439.623 434.46 449.328 414.834 458.715 395.849C463.598 385.97 468.502 376.055 473.314 366.126C500.12 310.839 517.344 262.724 529.914 227.588C533.749 216.886 537.055 207.638 540.184 199.414C540.236 199.268 540.293 199.121 540.347 198.98C546.246 183.603 554.313 170.32 564.993 158.399C581.952 139.46 596.68 133.976 610.925 128.669C622.531 124.348 633.498 120.266 645.427 109.404C660.966 95.2564 673.211 75.7632 683.96 48.0583C684.063 47.7899 684.173 47.513 684.276 47.2446C703.586 -3.08973 713.284 -82.0916 714.783 -201.244C714.796 -202.173 715.188 -203.117 715.662 -203.376C716.134 -203.635 716.509 -203.102 716.5 -202.183C714.986 -82.1635 705.14 -2.357 685.516 48.7938L685.516 48.7917Z" fill="url(#paint8_linear_347_2419)"/>
<path d="M674.972 43.9481C674.601 44.9139 674.23 45.8634 673.854 46.805C662.9 74.1662 650.29 93.2616 634.172 106.896C622.734 116.569 611.715 120.646 601.061 124.582C586.44 129.985 571.324 135.572 554.831 155.75C544.86 167.957 537.508 181.709 532.366 197.802C529.294 207.424 526.121 218.549 522.761 230.335C511.912 268.385 498.41 315.733 472.921 370.521C463.193 391.421 452.786 411.987 442.726 431.872C438.585 440.053 434.489 448.147 430.501 456.143C427.904 461.35 425.297 466.471 422.693 471.579C406.789 502.791 391.773 532.278 380.099 579.198C371.764 612.731 366.558 622.582 358.046 631.965C344.158 647.277 332.849 656.253 322.871 664.167C307.714 676.196 294.621 686.587 276.791 714.453C260.551 739.831 251.198 769.007 241.297 799.903C232.293 827.983 222.984 857.027 207.845 884.973C164.623 964.786 96.055 1013.66 -1.77799 1034.4C-2.21669 1034.49 -2.50251 1033.84 -2.41487 1032.94C-2.32716 1032.05 -1.90618 1031.25 -1.46418 1031.15C95.9319 1010.51 164.108 962.018 206.96 882.898C221.865 855.367 231.086 826.605 240.005 798.779C250.026 767.534 259.487 738.012 276.062 712.107C294.156 683.827 307.384 673.331 322.703 661.173C333.107 652.918 343.865 644.381 357.628 629.21C365.839 620.149 370.578 611.11 378.688 578.509C390.53 530.875 406.401 499.727 421.751 469.605C424.35 464.505 426.95 459.398 429.544 454.202C433.534 446.2 437.634 438.096 441.779 429.905C451.823 410.052 462.21 389.529 471.897 368.706C497.192 314.345 510.618 267.258 521.408 229.416C524.783 217.583 527.97 206.406 531.073 196.688C536.354 180.184 544.17 165.523 554.326 153.095C571.154 132.5 586.453 126.846 601.248 121.383C611.806 117.476 622.721 113.443 633.964 103.933C649.712 90.6174 662.023 71.9697 672.715 45.2667C692.352 -3.78854 701.768 -82.0303 702.26 -200.769C702.263 -201.628 702.631 -202.545 703.078 -202.791C703.522 -203.05 703.884 -202.563 703.878 -201.699C703.392 -84.3421 694.197 -6.11798 674.973 43.9455L674.972 43.9481Z" fill="url(#paint9_linear_347_2419)"/>
<path d="M664.394 39.2884C663.781 40.8849 663.16 42.4516 662.522 43.9951C651.652 70.316 638.984 88.524 622.652 101.29C611.929 109.679 601.49 113.482 591.394 117.164C575.501 122.954 560.491 128.423 544.229 150.193C534.836 162.77 527.797 177.743 523.309 194.698C520.36 205.826 517.61 218.412 514.694 231.731C506.209 270.544 495.649 318.838 471.532 372.941C458.339 402.537 443.308 430.652 429.046 456.905C424.662 464.974 420.129 472.862 415.747 480.483C400.905 506.297 385.558 533.003 373.329 571.473C364.055 600.633 357.644 610.513 348.348 619.44C333.459 633.741 321.717 641.848 311.359 648.998C294.709 660.498 281.555 669.577 263.497 697.985C246.19 725.202 237.013 756.57 227.31 789.748C218.835 818.72 210.071 848.679 195.305 877.464C152.807 960.333 82.5195 1009.26 -19.5724 1027.04C-19.9831 1027.11 -20.2462 1026.49 -20.1544 1025.65C-20.0709 1024.82 -19.6625 1024.06 -19.249 1023.99C82.3998 1006.29 152.294 957.752 194.423 875.604C208.975 847.228 217.651 817.558 226.049 788.851C235.875 755.278 245.152 723.56 262.805 695.788C281.152 666.928 294.446 657.751 311.278 646.124C321.59 639.007 333.274 630.942 348.06 616.737C356.969 608.178 363.136 598.671 372.111 570.441C384.517 531.408 399.995 504.475 414.962 478.434C419.335 470.838 423.852 462.972 428.215 454.944C442.435 428.77 457.417 400.749 470.539 371.318C494.419 317.712 504.9 269.801 513.322 231.275C516.255 217.882 519.019 205.229 522.003 193.966C526.68 176.321 533.969 160.801 543.676 147.796C560.29 125.556 576.194 119.763 591.571 114.158C601.585 110.509 611.942 106.73 622.501 98.4765C638.479 85.9861 650.859 68.1998 661.474 42.5007C687.571 -20.7547 690.106 -126.318 689.741 -200.262C689.742 -201.073 690.073 -201.93 690.496 -202.186C690.917 -202.438 691.261 -201.996 691.267 -201.192C691.835 -86.5481 683.284 -9.85326 664.396 39.292L664.394 39.2884Z" fill="url(#paint10_linear_347_2419)"/>
<path d="M654.109 34.0213C653.126 36.577 652.153 38.9555 651.202 41.1825C640.424 66.4735 627.693 83.7947 611.144 95.6866C601.136 102.872 591.291 106.388 581.771 109.79C565.232 115.696 549.612 121.28 533.634 144.639C524.659 157.754 518.137 173.573 514.256 191.622C511.533 204.281 509.326 218.295 506.988 233.131C500.764 272.649 493.013 321.822 470.196 375.381C459.42 400.666 445.899 426.812 427.649 457.661C421.417 468.194 414.865 478.193 408.53 487.861C394.121 509.843 379.227 532.577 366.581 563.732C356.424 588.755 348.661 598.501 338.686 606.87C322.766 620.235 310.496 627.57 299.668 634.039C281.491 644.912 268.357 652.761 250.215 681.483C231.859 710.538 222.9 744.063 213.42 779.543C205.437 809.415 197.18 840.307 182.771 869.95C141.016 955.851 69.0076 1004.83 -37.3693 1019.69C-37.7506 1019.74 -37.9904 1019.14 -37.8983 1018.35C-37.8163 1017.57 -37.4293 1016.89 -37.0419 1016.83C68.8914 1002.04 140.511 953.449 181.904 868.286C196.091 839.09 204.286 808.452 212.201 778.835C221.788 742.961 230.84 709.071 249.559 679.436C268.004 650.235 281.974 641.881 299.661 631.31C310.444 624.86 322.666 617.556 338.501 604.265C348.176 596.148 355.712 586.685 365.583 562.357C378.392 530.804 393.395 507.914 407.899 485.769C414.219 476.134 420.749 466.168 426.937 455.709C445.094 425.014 458.532 399.029 469.231 373.928C491.784 321.056 499.143 274.29 505.635 233.059C507.986 218.134 510.206 204.039 512.968 191.209C517.002 172.469 523.757 156.075 533.045 142.492C549.385 118.604 565.198 112.95 581.942 106.968C591.395 103.589 601.172 100.101 611.046 93.005C627.256 81.3623 639.709 64.4335 650.237 39.7284C676.721 -22.3715 678.316 -126.7 677.226 -199.773C677.219 -200.526 677.528 -201.33 677.921 -201.587C678.315 -201.844 678.643 -201.438 678.653 -200.694C680.778 -58.3464 666.468 1.88512 654.107 34.017L654.109 34.0213Z" fill="url(#paint11_linear_347_2419)"/>
<path d="M643.552 29.4904C642.312 32.7109 641.086 35.6525 639.89 38.3701C629.209 62.6485 616.421 79.0767 599.643 90.066C590.353 96.1555 581.126 99.3642 572.206 102.464C554.973 108.454 538.696 114.11 523.048 139.089C514.458 152.796 508.455 169.454 505.21 188.583C502.805 202.769 501.25 218.173 499.604 234.491C495.334 276.816 490.518 324.808 468.911 377.849C458.185 404.225 444.247 430.584 426.306 458.433C418.035 471.272 409.166 483.037 400.588 494.419C386.83 512.672 372.6 531.543 359.855 555.965C348.833 577.081 339.57 586.553 329.052 594.285C312.06 606.772 299.192 613.394 287.842 619.23C268.809 629.019 255.058 636.096 236.941 664.96C217.537 695.873 208.83 731.539 199.611 769.304C192.095 800.081 184.328 831.913 170.245 862.445C129.253 951.359 55.5219 1000.39 -55.1572 1012.32C-55.5141 1012.36 -55.7308 1011.8 -55.6408 1011.06C-55.5596 1010.34 -55.1938 1009.7 -54.8358 1009.66C6.2926 1003.07 57.2524 984.385 96.6272 954.134C127.702 930.259 151.507 899.789 169.401 860.976C183.278 830.89 190.992 799.297 198.444 768.767C207.768 730.592 216.571 694.531 236.324 663.067C254.757 633.706 268.655 626.555 287.892 616.66C299.21 610.834 312.036 604.235 328.951 591.807C339.255 584.237 348.325 574.963 359.099 554.32C371.976 529.649 386.278 510.677 400.112 492.322C408.658 480.985 417.499 469.259 425.714 456.509C443.528 428.849 457.356 402.706 467.986 376.58C489.315 324.069 494.071 276.694 498.303 234.744C499.959 218.336 501.523 202.829 503.963 188.451C507.323 168.645 513.537 151.399 522.432 137.197C538.446 111.633 554.928 105.907 572.373 99.8434C581.243 96.7629 590.414 93.5747 599.597 87.5576C616.048 76.7758 628.575 60.7006 639.012 36.9766C665.933 -24.1921 666.581 -127.157 664.72 -199.254C664.701 -199.947 664.983 -200.712 665.347 -200.961C665.716 -201.211 666.026 -200.848 666.046 -200.156C669.605 -62.368 655.914 -2.61527 643.552 29.4925L643.552 29.4904Z" fill="url(#paint12_linear_347_2419)"/>
<path d="M632.533 26.1103C631.281 29.3594 629.969 32.5026 628.584 35.555C617.863 59.1552 605.392 74.2348 588.151 84.4466C579.593 89.5259 571.016 92.3943 562.723 95.1728C544.739 101.202 527.754 106.895 512.47 133.529C504.244 147.863 498.756 165.375 496.176 185.564C494.171 201.252 493.361 218.034 492.5 235.802C490.425 278.75 488.069 327.405 467.872 379.827C467.805 380 467.742 380.163 467.673 380.334C457.164 407.464 443.213 433.262 425.025 459.192C414.231 474.586 402.386 488.077 390.935 501.129C378.344 515.474 365.329 530.302 353.159 548.136C340.526 566.653 329.491 575.188 319.454 581.658C301.328 593.33 287.213 599.533 275.868 604.519C255.28 613.562 241.681 619.538 223.676 648.4C203.233 681.181 194.798 718.999 185.865 759.044C178.796 790.729 171.483 823.475 157.736 854.919C140.039 895.363 115.927 926.817 84.021 951.08C43.6144 981.811 -9.19601 999.93 -72.9452 1004.94C-73.2725 1004.96 -73.4689 1004.43 -73.3808 1003.75C-73.2911 1003.07 -72.9572 1002.5 -72.6283 1002.47C-9.01838 997.475 43.6476 979.418 83.9071 948.8C115.544 924.739 139.426 893.611 156.918 853.636C170.488 822.62 177.744 790.104 184.759 758.654C193.784 718.197 202.31 679.992 223.097 646.661C241.419 617.287 255.162 611.248 275.962 602.113C287.278 597.142 301.361 590.953 319.416 579.322C329.325 572.934 340.213 564.519 352.645 546.298C364.9 528.339 377.961 513.454 390.594 499.064C402.533 485.463 413.809 472.61 424.53 457.329C442.57 431.608 456.392 406.058 466.788 379.223L466.978 378.727C486.887 327.063 489.218 278.851 491.274 236.3C492.14 218.426 492.955 201.551 494.988 185.657C497.65 164.818 503.322 146.724 511.836 131.882C527.49 104.605 544.683 98.8473 562.886 92.74C571.14 89.9749 579.672 87.11 588.151 82.0924C605.08 72.0579 617.308 57.2937 627.79 34.2194C655.329 -26.3455 654.886 -127.707 652.207 -198.737C652.182 -199.369 652.439 -200.084 652.779 -200.332C653.116 -200.577 653.411 -200.258 653.435 -199.624C656 -131.646 656.451 -35.9545 632.535 26.1088L632.533 26.1103Z" fill="url(#paint13_linear_347_2419)"/>
<path d="M621.985 21.7193C620.521 25.5171 618.959 29.1948 617.294 32.7451C606.691 55.3362 594.165 69.5479 576.681 78.8277C568.869 82.9676 560.985 85.487 553.357 87.9255C534.563 93.9339 516.812 99.6116 501.906 127.986C493.919 143.19 489.082 161.065 487.16 182.582C485.628 199.75 485.632 217.884 485.641 237.085C485.66 280.911 485.676 330.581 466.496 382.843C456.449 410.051 442.066 436.064 423.804 459.97C409.412 478.809 393.855 493.678 377.384 509.418C367.188 519.166 356.643 529.238 346.512 540.265C332.931 555.039 320.377 563.092 309.886 569.015C290.572 579.93 275.711 585.452 263.768 589.89C241.617 598.114 228.246 603.081 210.42 631.839C188.946 666.482 180.795 706.466 172.174 748.802C165.539 781.384 158.71 814.969 145.238 847.412C127.945 889.022 103.76 921.133 71.2984 945.578C30.0176 976.665 -24.4962 994.153 -90.7259 997.556C-91.0284 997.574 -91.2044 997.077 -91.1195 996.45C-91.0405 995.846 -90.7243 995.301 -90.4223 995.291C-24.3221 991.894 30.0571 974.458 71.2017 943.473C103.395 919.231 127.358 887.443 144.459 846.294C157.725 814.368 164.546 780.897 171.139 748.531C179.838 705.81 188.059 665.445 209.885 630.241C228.024 600.979 241.526 595.965 263.896 587.655C275.812 583.231 290.642 577.725 309.898 566.842C320.311 560.961 332.772 552.974 346.221 538.338C356.393 527.277 366.955 517.182 377.169 507.419C393.589 491.723 409.099 476.9 423.402 458.178C440.644 435.612 454.365 411.237 464.22 385.684C464.708 384.418 465.186 383.154 465.649 381.889C484.541 330.425 484.525 281.192 484.506 237.749C484.5 218.453 484.492 200.225 486.044 182.848C488.025 160.709 493 142.305 501.261 126.572C516.53 97.5168 534.494 91.7691 553.515 85.6884C561.108 83.2611 568.965 80.7516 576.713 76.6388C593.907 67.5178 606.202 53.5872 616.582 31.4736C637.739 -13.5685 645.283 -88.696 639.703 -198.204C639.669 -198.781 639.902 -199.449 640.213 -199.684C640.525 -199.923 640.802 -199.647 640.831 -199.071C644.207 -132.816 645.693 -39.755 621.985 21.7193Z" fill="url(#paint14_linear_347_2419)"/>
<path d="M611.38 17.5227C609.698 21.8817 607.907 26.0146 606.008 29.9308C592.571 57.6316 577.148 67.599 565.213 73.1912C558.173 76.4947 551.016 78.6433 544.097 80.7288C524.432 86.6433 505.86 92.2333 491.343 122.441C483.685 138.393 479.367 157.089 478.152 179.627C477.155 198.255 478.058 217.743 479.01 238.372C481.076 282.971 483.418 333.518 465.36 385.38C455.736 412.898 441.376 438.248 422.636 460.75C401.983 485.551 377.578 503.915 353.978 521.676C349.273 525.218 344.574 528.752 339.908 532.334C325.597 543.314 311.876 550.638 300.34 556.354C279.763 566.543 264.106 571.399 251.529 575.29C228.6 582.4 214.761 586.686 197.169 615.241C174.655 651.796 166.816 693.943 158.519 738.576C152.3 772.054 145.881 806.697 132.747 839.898C116.093 882.074 91.1391 915.778 58.5793 940.062C16.4277 971.507 -39.7929 988.368 -108.515 990.171C-108.79 990.178 -108.948 989.721 -108.867 989.149C-108.783 988.574 -108.5 988.108 -108.224 988.101C-39.6246 986.303 16.4674 969.493 58.4938 938.143C90.799 914.042 115.532 880.671 132.01 838.938C132.277 838.263 132.541 837.586 132.803 836.908C145.247 804.667 151.504 770.995 157.559 738.407C165.925 693.386 173.825 650.875 196.677 613.788C214.568 584.743 228.536 580.421 251.674 573.251C264.233 569.359 279.859 564.52 300.389 554.347C311.889 548.654 325.563 541.356 339.811 530.42C344.477 526.838 349.18 523.3 353.885 519.758C377.428 502.041 401.777 483.721 422.316 459.058C440.871 436.772 455.08 411.726 464.564 384.572C482.351 333.5 480.029 283.376 477.982 239.149C477.018 218.423 476.112 198.847 477.124 180.02C478.365 156.91 482.81 137.685 490.703 121.26C505.571 90.317 524.356 84.6668 544.248 78.6864C551.143 76.615 558.277 74.4615 565.274 71.1856C577.028 65.6793 592.211 55.8767 605.371 28.7404C627.121 -16.0723 634.245 -90.1141 627.199 -197.662C627.166 -198.193 627.368 -198.796 627.652 -199.026C627.937 -199.256 628.192 -199.023 628.228 -198.504C634.71 -99.5693 629.198 -28.6452 611.379 17.5249L611.38 17.5227Z" fill="url(#paint15_linear_347_2419)"/>
<path d="M461.64 399.232C428.219 485.698 349.537 519.781 291.51 544.916C269.544 554.432 253.019 558.617 239.742 561.98C215.247 568.186 201.755 571.6 184.412 599.9C160.806 638.416 153.286 682.799 145.325 729.787C139.497 764.183 133.47 799.754 120.641 833.907C104.386 877.341 79.2728 911.688 46.1048 936.174C3.00535 967.996 -55.0306 984.226 -126.394 984.415C-126.64 984.414 -126.781 983.997 -126.705 983.479C-126.639 982.972 -126.371 982.544 -126.122 982.543C-54.8718 982.356 3.04799 966.171 46.0279 934.438C78.3136 910.602 102.86 877.346 119.003 835.584C119.324 834.755 119.636 833.93 119.95 833.1C132.651 799.288 138.644 763.909 144.442 729.696C152.463 682.352 160.031 637.633 183.96 598.6C201.59 569.83 215.198 566.384 239.9 560.125C253.161 556.764 269.662 552.588 291.583 543.085C351.62 517.083 433.857 481.527 464.544 388.386C481.286 337.614 476.908 288.727 472.676 241.449C468.65 196.462 464.832 153.988 481.196 116.75C495.676 83.7793 515.375 78.3099 536.233 72.523C556.913 66.7886 578.295 60.8564 595.418 26.7559C617.593 -17.3982 624.497 -92.5329 615.978 -196.618C615.94 -197.082 616.116 -197.643 616.373 -197.863C616.63 -198.091 616.868 -197.888 616.904 -197.426C625.478 -92.6666 618.432 -16.87 595.975 27.869C578.535 62.6006 556.955 68.5904 536.083 74.3829C515.452 80.1018 495.963 85.5123 481.814 117.728C481.107 119.343 480.433 120.976 479.798 122.62C466.187 157.83 469.792 198.092 473.602 240.622C477.863 288.26 482.272 337.519 465.28 389.058C464.136 392.531 462.918 395.922 461.638 399.233L461.64 399.232Z" fill="url(#paint16_linear_347_2419)"/>
</g>
<defs>
<linearGradient id="paint0_linear_347_2419" x1="763.911" y1="13.6286" x2="636.376" y2="1075.27" gradientUnits="userSpaceOnUse">
<stop stop-color="white"/>
<stop offset="0.397379" stop-color="#FFBBB7"/>
<stop offset="0.701224" stop-color="white"/>
</linearGradient>
<linearGradient id="paint1_linear_347_2419" x1="750.367" y1="12.7571" x2="596.29" y2="1075.99" gradientUnits="userSpaceOnUse">
<stop stop-color="white"/>
<stop offset="0.397379" stop-color="#FFBBB7"/>
<stop offset="0.701224" stop-color="white"/>
</linearGradient>
<linearGradient id="paint2_linear_347_2419" x1="736.789" y1="11.8501" x2="557.552" y2="1075.34" gradientUnits="userSpaceOnUse">
<stop stop-color="white"/>
<stop offset="0.397379" stop-color="#FFBBB7"/>
<stop offset="0.701224" stop-color="white"/>
</linearGradient>
<linearGradient id="paint3_linear_347_2419" x1="723.245" y1="11.0045" x2="519.876" y2="1073.6" gradientUnits="userSpaceOnUse">
<stop stop-color="white"/>
<stop offset="0.397379" stop-color="#FFBBB7"/>
<stop offset="0.701224" stop-color="white"/>
</linearGradient>
<linearGradient id="paint4_linear_347_2419" x1="709.741" y1="10.1953" x2="483.309" y2="1070.91" gradientUnits="userSpaceOnUse">
<stop stop-color="white"/>
<stop offset="0.397379" stop-color="#FFBBB7"/>
<stop offset="0.701224" stop-color="white"/>
</linearGradient>
<linearGradient id="paint5_linear_347_2419" x1="696.271" y1="9.43805" x2="447.822" y2="1067.39" gradientUnits="userSpaceOnUse">
<stop stop-color="white"/>
<stop offset="0.397379" stop-color="#FFBBB7"/>
<stop offset="0.701224" stop-color="white"/>
</linearGradient>
<linearGradient id="paint6_linear_347_2419" x1="682.83" y1="8.7271" x2="413.433" y2="1063.16" gradientUnits="userSpaceOnUse">
<stop stop-color="white"/>
<stop offset="0.397379" stop-color="#FFBBB7"/>
<stop offset="0.701224" stop-color="white"/>
</linearGradient>
<linearGradient id="paint7_linear_347_2419" x1="669.421" y1="8.04546" x2="380.113" y2="1058.31" gradientUnits="userSpaceOnUse">
<stop stop-color="white"/>
<stop offset="0.397379" stop-color="#FFBBB7"/>
<stop offset="0.701224" stop-color="white"/>
</linearGradient>
<linearGradient id="paint8_linear_347_2419" x1="656.038" y1="7.40669" x2="347.85" y2="1052.95" gradientUnits="userSpaceOnUse">
<stop stop-color="white"/>
<stop offset="0.397379" stop-color="#FFBBB7"/>
<stop offset="0.701224" stop-color="white"/>
</linearGradient>
<linearGradient id="paint9_linear_347_2419" x1="642.671" y1="6.78629" x2="316.634" y2="1047.16" gradientUnits="userSpaceOnUse">
<stop stop-color="white"/>
<stop offset="0.397379" stop-color="#FFBBB7"/>
<stop offset="0.701224" stop-color="white"/>
</linearGradient>
<linearGradient id="paint10_linear_347_2419" x1="629.319" y1="6.20274" x2="286.386" y2="1041.01" gradientUnits="userSpaceOnUse">
<stop stop-color="white"/>
<stop offset="0.397379" stop-color="#FFBBB7"/>
<stop offset="0.701224" stop-color="white"/>
</linearGradient>
<linearGradient id="paint11_linear_347_2419" x1="615.998" y1="5.64255" x2="257.061" y2="1034.58" gradientUnits="userSpaceOnUse">
<stop stop-color="white"/>
<stop offset="0.397379" stop-color="#FFBBB7"/>
<stop offset="0.701224" stop-color="white"/>
</linearGradient>
<linearGradient id="paint12_linear_347_2419" x1="602.675" y1="5.1083" x2="228.663" y2="1027.92" gradientUnits="userSpaceOnUse">
<stop stop-color="white"/>
<stop offset="0.397379" stop-color="#FFBBB7"/>
<stop offset="0.701224" stop-color="white"/>
</linearGradient>
<linearGradient id="paint13_linear_347_2419" x1="589.339" y1="4.55445" x2="201.181" y2="1021.08" gradientUnits="userSpaceOnUse">
<stop stop-color="white"/>
<stop offset="0.397379" stop-color="#FFBBB7"/>
<stop offset="0.701224" stop-color="white"/>
</linearGradient>
<linearGradient id="paint14_linear_347_2419" x1="576.043" y1="4.06054" x2="174.454" y2="1014.12" gradientUnits="userSpaceOnUse">
<stop stop-color="white"/>
<stop offset="0.397379" stop-color="#FFBBB7"/>
<stop offset="0.701224" stop-color="white"/>
</linearGradient>
<linearGradient id="paint15_linear_347_2419" x1="562.752" y1="3.58324" x2="148.492" y2="1007.08" gradientUnits="userSpaceOnUse">
<stop stop-color="white"/>
<stop offset="0.397379" stop-color="#FFBBB7"/>
<stop offset="0.701224" stop-color="white"/>
</linearGradient>
<linearGradient id="paint16_linear_347_2419" x1="555.474" y1="9.80061" x2="116.632" y2="1001.88" gradientUnits="userSpaceOnUse">
<stop stop-color="white"/>
<stop offset="0.397379" stop-color="#FFBBB7"/>
<stop offset="0.701224" stop-color="white"/>
</linearGradient>
</defs>
</svg>
