<svg width="50" height="50" viewBox="0 0 50 50" fill="none" xmlns="http://www.w3.org/2000/svg">
<path d="M14.5846 16.6667H8.33464C6.04297 16.6667 4.16797 14.7917 4.16797 12.5001V8.33341C4.16797 6.04175 6.04297 4.16675 8.33464 4.16675H14.5846C16.8763 4.16675 18.7513 6.04175 18.7513 8.33341V12.5001C18.7513 14.7917 16.8763 16.6667 14.5846 16.6667Z" stroke="#171717" stroke-width="2" stroke-linecap="round" stroke-linejoin="round"/>
<path d="M43.332 14.5833H35.832C34.457 14.5833 33.332 13.4583 33.332 12.0833V8.75003C33.332 7.37503 34.457 6.25 35.832 6.25H43.332C44.707 6.25 45.832 7.37503 45.832 8.75003V12.0833C45.832 13.4583 44.707 14.5833 43.332 14.5833Z" stroke="#171717" stroke-width="2" stroke-linecap="round" stroke-linejoin="round"/>
<path d="M43.332 30.2083H35.832C34.457 30.2083 33.332 29.0833 33.332 27.7083V24.375C33.332 23 34.457 21.875 35.832 21.875H43.332C44.707 21.875 45.832 23 45.832 24.375V27.7083C45.832 29.0833 44.707 30.2083 43.332 30.2083Z" stroke="#171717" stroke-width="2" stroke-linecap="round" stroke-linejoin="round"/>
<path d="M18.75 10.4167H33.3333" stroke="#171717" stroke-width="2" stroke-miterlimit="10" stroke-linecap="round" stroke-linejoin="round"/>
<path d="M26.043 10.4167V37.5001C26.043 39.7917 27.918 41.6667 30.2096 41.6667H33.3346" stroke="#171717" stroke-width="2" stroke-miterlimit="10" stroke-linecap="round" stroke-linejoin="round"/>
<path d="M26.043 26.0417H33.3346" stroke="#171717" stroke-width="2" stroke-miterlimit="10" stroke-linecap="round" stroke-linejoin="round"/>
<path d="M43.332 45.8333H35.832C34.457 45.8333 33.332 44.7083 33.332 43.3333V40C33.332 38.625 34.457 37.5 35.832 37.5H43.332C44.707 37.5 45.832 38.625 45.832 40V43.3333C45.832 44.7083 44.707 45.8333 43.332 45.8333Z" stroke="#171717" stroke-width="2" stroke-linecap="round" stroke-linejoin="round"/>
</svg>
