<svg width="50" height="50" viewBox="0 0 50 50" fill="none" xmlns="http://www.w3.org/2000/svg">
<path d="M20.0007 41.6668H30.0007C38.334 41.6668 41.6673 38.3335 41.6673 30.0002V20.0002C41.6673 11.6668 38.334 8.3335 30.0007 8.3335H20.0007C11.6673 8.3335 8.33398 11.6668 8.33398 20.0002V30.0002C8.33398 38.3335 11.6673 41.6668 20.0007 41.6668Z" stroke="white" stroke-width="2" stroke-linecap="round" stroke-linejoin="round"/>
<path d="M21.8757 35.4168H28.1257C33.334 35.4168 35.4173 33.3335 35.4173 28.1252V21.8752C35.4173 16.6668 33.334 14.5835 28.1257 14.5835H21.8757C16.6673 14.5835 14.584 16.6668 14.584 21.8752V28.1252C14.584 33.3335 16.6673 35.4168 21.8757 35.4168Z" stroke="white" stroke-width="2" stroke-linecap="round" stroke-linejoin="round"/>
<path d="M16.6875 8.33317V4.1665" stroke="white" stroke-width="2" stroke-linecap="round" stroke-linejoin="round"/>
<path d="M25 8.33317V4.1665" stroke="white" stroke-width="2" stroke-linecap="round" stroke-linejoin="round"/>
<path d="M33.334 8.33317V4.1665" stroke="white" stroke-width="2" stroke-linecap="round" stroke-linejoin="round"/>
<path d="M41.666 16.6665H45.8327" stroke="white" stroke-width="2" stroke-linecap="round" stroke-linejoin="round"/>
<path d="M41.666 25H45.8327" stroke="white" stroke-width="2" stroke-linecap="round" stroke-linejoin="round"/>
<path d="M41.666 33.3335H45.8327" stroke="white" stroke-width="2" stroke-linecap="round" stroke-linejoin="round"/>
<path d="M33.334 41.6665V45.8332" stroke="white" stroke-width="2" stroke-linecap="round" stroke-linejoin="round"/>
<path d="M25.0215 41.6665V45.8332" stroke="white" stroke-width="2" stroke-linecap="round" stroke-linejoin="round"/>
<path d="M16.6875 41.6665V45.8332" stroke="white" stroke-width="2" stroke-linecap="round" stroke-linejoin="round"/>
<path d="M4.16602 16.6665H8.33268" stroke="white" stroke-width="2" stroke-linecap="round" stroke-linejoin="round"/>
<path d="M4.16602 25H8.33268" stroke="white" stroke-width="2" stroke-linecap="round" stroke-linejoin="round"/>
<path d="M4.16602 33.3335H8.33268" stroke="white" stroke-width="2" stroke-linecap="round" stroke-linejoin="round"/>
<path d="M24.9993 20.2085L23.041 23.6252C22.6035 24.3752 22.9577 25.0002 23.8327 25.0002H26.166C27.041 25.0002 27.3952 25.6252 26.9577 26.3752L24.9993 29.7918" stroke="white" stroke-width="2" stroke-linecap="round" stroke-linejoin="round"/>
</svg>
