<svg width="50" height="50" viewBox="0 0 50 50" fill="none" xmlns="http://www.w3.org/2000/svg">
<path d="M47.9163 33.2734C47.9163 41.3359 41.3955 47.8568 33.333 47.8568L35.5205 44.2109" stroke="white" stroke-width="2" stroke-linecap="round" stroke-linejoin="round"/>
<path d="M2.08301 16.6068C2.08301 8.54427 8.60384 2.02344 16.6663 2.02344L14.4788 5.66927" stroke="white" stroke-width="2" stroke-linecap="round" stroke-linejoin="round"/>
<path d="M13.792 27.2344H19.6462C20.9378 27.2344 22.0003 28.4011 22.0003 29.5886C22.0003 30.8802 20.9587 31.9427 19.6462 31.9427H13.792V27.2344Z" stroke="white" stroke-width="2" stroke-miterlimit="10" stroke-linecap="round" stroke-linejoin="round"/>
<path d="M13.792 31.9375H20.5003C21.9795 31.9375 23.1878 32.9792 23.1878 34.2917C23.1878 35.5833 21.9795 36.6459 20.5003 36.6459H13.792V31.9375Z" stroke="white" stroke-width="2" stroke-miterlimit="10" stroke-linecap="round" stroke-linejoin="round"/>
<path d="M17.542 36.625V38.9583" stroke="white" stroke-width="2" stroke-miterlimit="10" stroke-linecap="round" stroke-linejoin="round"/>
<path d="M17.542 24.8984V27.2318" stroke="white" stroke-width="2" stroke-miterlimit="10" stroke-linecap="round" stroke-linejoin="round"/>
<path d="M30.9378 31.9402C30.9378 39.0444 25.1878 44.7943 18.0837 44.7943C10.9795 44.7943 5.22949 39.0444 5.22949 31.9402C5.22949 24.836 10.9795 19.0859 18.0837 19.0859C18.417 19.0859 18.7295 19.1068 19.0837 19.1276C25.3962 19.6068 30.4378 24.6485 30.917 30.961C30.917 31.2735 30.9378 31.586 30.9378 31.9402Z" stroke="white" stroke-width="2" stroke-miterlimit="10" stroke-linecap="round" stroke-linejoin="round"/>
<path d="M44.7923 18.0651C44.7923 25.1692 39.0423 30.9193 31.9382 30.9193H30.9173C30.4382 24.6068 25.3965 19.565 19.084 19.0859V18.0651C19.084 10.9609 24.834 5.21094 31.9382 5.21094C39.0423 5.21094 44.7923 10.9609 44.7923 18.0651Z" stroke="white" stroke-width="2" stroke-miterlimit="10" stroke-linecap="round" stroke-linejoin="round"/>
</svg>
