<svg width="428" height="418" viewBox="0 0 428 418" fill="none" xmlns="http://www.w3.org/2000/svg">
<rect x="0.5" y="217.5" width="207" height="200" rx="19.5" fill="url(#paint0_linear_2008_1405)" stroke="url(#paint1_linear_2008_1405)"/>
<path d="M77.2255 392V386.239L90.6871 373.774C91.832 372.666 92.7923 371.669 93.5678 370.783C94.3557 369.896 94.9528 369.028 95.359 368.179C95.7653 367.317 95.9684 366.388 95.9684 365.391C95.9684 364.283 95.716 363.329 95.2113 362.528C94.7066 361.716 94.0172 361.094 93.1431 360.663C92.2691 360.22 91.2781 359.999 90.1701 359.999C89.0129 359.999 88.0034 360.232 87.1417 360.7C86.2799 361.168 85.6152 361.839 85.1474 362.713C84.6796 363.587 84.4457 364.627 84.4457 365.834H76.8562C76.8562 363.359 77.4163 361.211 78.5366 359.389C79.6568 357.567 81.2264 356.158 83.2454 355.161C85.2643 354.163 87.591 353.665 90.2255 353.665C92.9338 353.665 95.2913 354.145 97.2979 355.105C99.3169 356.053 100.886 357.37 102.007 359.057C103.127 360.743 103.687 362.676 103.687 364.855C103.687 366.283 103.404 367.693 102.838 369.084C102.284 370.475 101.293 372.02 99.8647 373.719C98.4367 375.405 96.4239 377.43 93.8263 379.794L88.305 385.205V385.463H104.186V392H77.2255ZM110.201 354.182H120.062L130.477 379.591H130.92L141.335 354.182H151.195V392H143.44V367.385H143.126L133.339 391.815H128.058L118.271 367.293H117.957V392H110.201V354.182ZM168.863 386.239V360.091H175.473V386.239H168.863ZM159.094 376.47V369.859H185.242V376.47H159.094Z" fill="#0057FF"/>
<g filter="url(#filter0_d_2008_1405)">
<path d="M28.642 258H26.392L30.4886 246.364H33.0909L37.1932 258H34.9432L31.8352 248.75H31.7443L28.642 258ZM28.7159 253.438H34.8523V255.131H28.7159V253.438ZM40.6918 246.364V258H38.6349V246.364H40.6918ZM44.8636 246.364V258H42.8068V246.364H44.8636ZM50.527 248.131V246.364H59.8111V248.131H56.2145V258H54.1236V248.131H50.527ZM61.5099 258V249.273H63.5668V258H61.5099ZM62.544 248.034C62.2183 248.034 61.938 247.926 61.7031 247.71C61.4683 247.491 61.3509 247.227 61.3509 246.92C61.3509 246.61 61.4683 246.347 61.7031 246.131C61.938 245.911 62.2183 245.801 62.544 245.801C62.8736 245.801 63.1539 245.911 63.3849 246.131C63.6198 246.347 63.7372 246.61 63.7372 246.92C63.7372 247.227 63.6198 247.491 63.3849 247.71C63.1539 247.926 62.8736 248.034 62.544 248.034ZM65.6818 258V249.273H67.6477V250.756H67.75C67.9318 250.256 68.233 249.866 68.6534 249.585C69.0739 249.301 69.5758 249.159 70.1591 249.159C70.75 249.159 71.2481 249.303 71.6534 249.591C72.0625 249.875 72.3504 250.263 72.517 250.756H72.608C72.8011 250.271 73.1269 249.884 73.5852 249.597C74.0473 249.305 74.5947 249.159 75.2273 249.159C76.0303 249.159 76.6856 249.413 77.1932 249.92C77.7008 250.428 77.9545 251.169 77.9545 252.142V258H75.892V252.46C75.892 251.919 75.7481 251.523 75.4602 251.273C75.1723 251.019 74.8201 250.892 74.4034 250.892C73.9072 250.892 73.5189 251.047 73.2386 251.358C72.9621 251.665 72.8239 252.064 72.8239 252.557V258H70.8068V252.375C70.8068 251.924 70.6705 251.564 70.3977 251.295C70.1288 251.027 69.7765 250.892 69.3409 250.892C69.0455 250.892 68.7765 250.968 68.5341 251.119C68.2917 251.267 68.0985 251.477 67.9545 251.75C67.8106 252.019 67.7386 252.333 67.7386 252.693V258H65.6818ZM83.9048 258.17C83.0298 258.17 82.2741 257.989 81.6378 257.625C81.0052 257.258 80.5185 256.739 80.1776 256.068C79.8366 255.394 79.6662 254.6 79.6662 253.688C79.6662 252.79 79.8366 252.002 80.1776 251.324C80.5223 250.642 81.0033 250.112 81.6207 249.733C82.2382 249.35 82.9635 249.159 83.7969 249.159C84.3348 249.159 84.8423 249.246 85.3196 249.42C85.8007 249.591 86.2249 249.856 86.5923 250.216C86.9635 250.576 87.2552 251.034 87.4673 251.591C87.6795 252.144 87.7855 252.803 87.7855 253.568V254.199H80.6321V252.812H85.8139C85.8101 252.419 85.7249 252.068 85.5582 251.761C85.3916 251.451 85.1586 251.206 84.8594 251.028C84.5639 250.85 84.2192 250.761 83.8253 250.761C83.4048 250.761 83.0355 250.864 82.7173 251.068C82.3991 251.269 82.151 251.534 81.973 251.864C81.7988 252.189 81.7098 252.547 81.706 252.938V254.148C81.706 254.655 81.7988 255.091 81.9844 255.455C82.17 255.814 82.4295 256.091 82.7628 256.284C83.0961 256.473 83.4863 256.568 83.9332 256.568C84.2325 256.568 84.5033 256.527 84.7457 256.443C84.9882 256.356 85.1984 256.229 85.3764 256.062C85.5545 255.896 85.6889 255.689 85.7798 255.443L87.7003 255.659C87.5791 256.167 87.348 256.61 87.0071 256.989C86.67 257.364 86.2382 257.655 85.7116 257.864C85.1851 258.068 84.5829 258.17 83.9048 258.17ZM33.4716 268.562C33.4186 268.066 33.1951 267.68 32.8011 267.403C32.411 267.127 31.9034 266.989 31.2784 266.989C30.839 266.989 30.4621 267.055 30.1477 267.188C29.8333 267.32 29.5928 267.5 29.4261 267.727C29.2595 267.955 29.1742 268.214 29.1705 268.506C29.1705 268.748 29.2254 268.958 29.3352 269.136C29.4489 269.314 29.6023 269.466 29.7955 269.591C29.9886 269.712 30.2027 269.814 30.4375 269.898C30.6723 269.981 30.9091 270.051 31.1477 270.108L32.2386 270.381C32.678 270.483 33.1004 270.621 33.5057 270.795C33.9148 270.97 34.2803 271.189 34.6023 271.455C34.928 271.72 35.1856 272.04 35.375 272.415C35.5644 272.79 35.6591 273.229 35.6591 273.733C35.6591 274.415 35.4848 275.015 35.1364 275.534C34.7879 276.049 34.2841 276.453 33.625 276.744C32.9697 277.032 32.1761 277.176 31.2443 277.176C30.339 277.176 29.553 277.036 28.8864 276.756C28.2235 276.475 27.7045 276.066 27.3295 275.528C26.9583 274.991 26.7576 274.335 26.7273 273.562H28.8011C28.8314 273.968 28.9564 274.305 29.1761 274.574C29.3958 274.843 29.6818 275.044 30.0341 275.176C30.3902 275.309 30.7879 275.375 31.2273 275.375C31.6856 275.375 32.0871 275.307 32.4318 275.17C32.7803 275.03 33.053 274.837 33.25 274.591C33.447 274.341 33.5473 274.049 33.5511 273.716C33.5473 273.413 33.4583 273.163 33.2841 272.966C33.1098 272.765 32.8655 272.598 32.5511 272.466C32.2405 272.33 31.8769 272.208 31.4602 272.102L30.1364 271.761C29.178 271.515 28.4205 271.142 27.8636 270.642C27.3106 270.138 27.0341 269.47 27.0341 268.636C27.0341 267.951 27.2197 267.35 27.5909 266.835C27.9659 266.32 28.4754 265.92 29.1193 265.636C29.7633 265.348 30.4924 265.205 31.3068 265.205C32.1326 265.205 32.8561 265.348 33.4773 265.636C34.1023 265.92 34.5928 266.316 34.9489 266.824C35.3049 267.328 35.4886 267.907 35.5 268.562H33.4716ZM39.2486 277L36.7827 268.273H38.8793L40.4134 274.409H40.4929L42.0611 268.273H44.1349L45.7031 274.375H45.7884L47.2997 268.273H49.402L46.9304 277H44.7884L43.152 271.102H43.0327L41.3963 277H39.2486ZM53.3494 277.176C52.7964 277.176 52.2983 277.078 51.8551 276.881C51.4157 276.68 51.0672 276.384 50.8097 275.994C50.5559 275.604 50.429 275.123 50.429 274.551C50.429 274.059 50.5199 273.652 50.7017 273.33C50.8835 273.008 51.1316 272.75 51.446 272.557C51.7604 272.364 52.1146 272.218 52.5085 272.119C52.9063 272.017 53.3172 271.943 53.7415 271.898C54.2528 271.845 54.6676 271.797 54.9858 271.756C55.304 271.71 55.535 271.642 55.679 271.551C55.8267 271.456 55.9006 271.311 55.9006 271.114V271.08C55.9006 270.652 55.7737 270.32 55.5199 270.085C55.2661 269.85 54.9006 269.733 54.4233 269.733C53.9195 269.733 53.5199 269.843 53.2244 270.062C52.9328 270.282 52.7358 270.542 52.6335 270.841L50.7131 270.568C50.8646 270.038 51.1146 269.595 51.4631 269.239C51.8116 268.879 52.2377 268.61 52.7415 268.432C53.2453 268.25 53.8021 268.159 54.4119 268.159C54.8324 268.159 55.2509 268.208 55.6676 268.307C56.0843 268.405 56.465 268.568 56.8097 268.795C57.1544 269.019 57.4309 269.324 57.6392 269.71C57.8513 270.097 57.9574 270.58 57.9574 271.159V277H55.9801V275.801H55.9119C55.7869 276.044 55.6108 276.271 55.3835 276.483C55.16 276.691 54.8778 276.86 54.5369 276.989C54.1998 277.114 53.804 277.176 53.3494 277.176ZM53.8835 275.665C54.2964 275.665 54.6544 275.583 54.9574 275.42C55.2604 275.254 55.4934 275.034 55.6562 274.761C55.8229 274.489 55.9062 274.191 55.9062 273.869V272.841C55.8419 272.894 55.732 272.943 55.5767 272.989C55.4252 273.034 55.2547 273.074 55.0653 273.108C54.8759 273.142 54.6884 273.172 54.5028 273.199C54.3172 273.225 54.1563 273.248 54.0199 273.267C53.7131 273.309 53.4384 273.377 53.196 273.472C52.9536 273.566 52.7623 273.699 52.6222 273.869C52.482 274.036 52.4119 274.252 52.4119 274.517C52.4119 274.896 52.5502 275.182 52.8267 275.375C53.1032 275.568 53.4555 275.665 53.8835 275.665ZM60.0256 280.273V268.273H62.0483V269.716H62.1676C62.2737 269.504 62.4233 269.278 62.6165 269.04C62.8097 268.797 63.071 268.591 63.4006 268.42C63.7301 268.246 64.1506 268.159 64.6619 268.159C65.3362 268.159 65.9441 268.331 66.4858 268.676C67.0313 269.017 67.4631 269.523 67.7812 270.193C68.1032 270.86 68.2642 271.678 68.2642 272.648C68.2642 273.606 68.107 274.42 67.7926 275.091C67.4782 275.761 67.0502 276.273 66.5085 276.625C65.9669 276.977 65.3532 277.153 64.6676 277.153C64.1676 277.153 63.7528 277.07 63.4233 276.903C63.0938 276.737 62.8286 276.536 62.6278 276.301C62.4309 276.062 62.2775 275.837 62.1676 275.625H62.0824V280.273H60.0256ZM62.0426 272.636C62.0426 273.201 62.1222 273.695 62.2812 274.119C62.4441 274.544 62.6771 274.875 62.9801 275.114C63.2869 275.348 63.6581 275.466 64.0938 275.466C64.5483 275.466 64.929 275.345 65.2358 275.102C65.5426 274.856 65.7737 274.521 65.929 274.097C66.0881 273.669 66.1676 273.182 66.1676 272.636C66.1676 272.095 66.09 271.614 65.9347 271.193C65.7794 270.773 65.5483 270.443 65.2415 270.205C64.9347 269.966 64.5521 269.847 64.0938 269.847C63.6544 269.847 63.2812 269.962 62.9744 270.193C62.6676 270.424 62.4347 270.748 62.2756 271.165C62.1203 271.581 62.0426 272.072 62.0426 272.636ZM70.0256 280.273V268.273H72.0483V269.716H72.1676C72.2737 269.504 72.4233 269.278 72.6165 269.04C72.8097 268.797 73.071 268.591 73.4006 268.42C73.7301 268.246 74.1506 268.159 74.6619 268.159C75.3362 268.159 75.9441 268.331 76.4858 268.676C77.0313 269.017 77.4631 269.523 77.7812 270.193C78.1032 270.86 78.2642 271.678 78.2642 272.648C78.2642 273.606 78.107 274.42 77.7926 275.091C77.4782 275.761 77.0502 276.273 76.5085 276.625C75.9669 276.977 75.3532 277.153 74.6676 277.153C74.1676 277.153 73.7528 277.07 73.4233 276.903C73.0938 276.737 72.8286 276.536 72.6278 276.301C72.4309 276.062 72.2775 275.837 72.1676 275.625H72.0824V280.273H70.0256ZM72.0426 272.636C72.0426 273.201 72.1222 273.695 72.2812 274.119C72.4441 274.544 72.6771 274.875 72.9801 275.114C73.2869 275.348 73.6581 275.466 74.0938 275.466C74.5483 275.466 74.929 275.345 75.2358 275.102C75.5426 274.856 75.7737 274.521 75.929 274.097C76.0881 273.669 76.1676 273.182 76.1676 272.636C76.1676 272.095 76.09 271.614 75.9347 271.193C75.7794 270.773 75.5483 270.443 75.2415 270.205C74.9347 269.966 74.5521 269.847 74.0938 269.847C73.6544 269.847 73.2812 269.962 72.9744 270.193C72.6676 270.424 72.4347 270.748 72.2756 271.165C72.1203 271.581 72.0426 272.072 72.0426 272.636ZM83.8892 277.17C83.0142 277.17 82.2585 276.989 81.6222 276.625C80.9896 276.258 80.5028 275.739 80.1619 275.068C79.821 274.394 79.6506 273.6 79.6506 272.688C79.6506 271.79 79.821 271.002 80.1619 270.324C80.5066 269.642 80.9877 269.112 81.6051 268.733C82.2225 268.35 82.9479 268.159 83.7812 268.159C84.3191 268.159 84.8267 268.246 85.304 268.42C85.785 268.591 86.2093 268.856 86.5767 269.216C86.9479 269.576 87.2396 270.034 87.4517 270.591C87.6638 271.144 87.7699 271.803 87.7699 272.568V273.199H80.6165V271.812H85.7983C85.7945 271.419 85.7093 271.068 85.5426 270.761C85.3759 270.451 85.143 270.206 84.8438 270.028C84.5483 269.85 84.2036 269.761 83.8097 269.761C83.3892 269.761 83.0199 269.864 82.7017 270.068C82.3835 270.269 82.1354 270.534 81.9574 270.864C81.7831 271.189 81.6941 271.547 81.6903 271.938V273.148C81.6903 273.655 81.7831 274.091 81.9688 274.455C82.1544 274.814 82.4138 275.091 82.7472 275.284C83.0805 275.473 83.4706 275.568 83.9176 275.568C84.2169 275.568 84.4877 275.527 84.7301 275.443C84.9725 275.356 85.1828 275.229 85.3608 275.062C85.5388 274.896 85.6733 274.689 85.7642 274.443L87.6847 274.659C87.5634 275.167 87.3324 275.61 86.9915 275.989C86.6544 276.364 86.2225 276.655 85.696 276.864C85.1695 277.068 84.5672 277.17 83.8892 277.17ZM89.5099 277V268.273H91.5043V269.727H91.5952C91.7543 269.223 92.027 268.835 92.4134 268.562C92.8035 268.286 93.2486 268.148 93.7486 268.148C93.8622 268.148 93.9891 268.153 94.1293 268.165C94.2732 268.172 94.3925 268.186 94.4872 268.205V270.097C94.4001 270.066 94.2618 270.04 94.0724 270.017C93.8868 269.991 93.7069 269.977 93.5327 269.977C93.1577 269.977 92.8205 270.059 92.5213 270.222C92.2259 270.381 91.9929 270.602 91.8224 270.886C91.652 271.17 91.5668 271.498 91.5668 271.869V277H89.5099ZM102.751 270.58L100.876 270.784C100.823 270.595 100.731 270.417 100.598 270.25C100.469 270.083 100.295 269.949 100.075 269.847C99.8556 269.744 99.5866 269.693 99.2685 269.693C98.8404 269.693 98.4806 269.786 98.1889 269.972C97.901 270.157 97.759 270.398 97.7628 270.693C97.759 270.947 97.8518 271.153 98.0412 271.312C98.2344 271.472 98.5526 271.602 98.9957 271.705L100.484 272.023C101.31 272.201 101.924 272.483 102.325 272.869C102.731 273.256 102.935 273.761 102.939 274.386C102.935 274.936 102.774 275.42 102.456 275.841C102.142 276.258 101.704 276.583 101.143 276.818C100.583 277.053 99.9389 277.17 99.2116 277.17C98.1435 277.17 97.2836 276.947 96.6321 276.5C95.9806 276.049 95.5923 275.422 95.4673 274.619L97.473 274.426C97.5639 274.82 97.7571 275.117 98.0526 275.318C98.348 275.519 98.7325 275.619 99.206 275.619C99.6946 275.619 100.087 275.519 100.382 275.318C100.681 275.117 100.831 274.869 100.831 274.574C100.831 274.324 100.734 274.117 100.541 273.955C100.352 273.792 100.056 273.667 99.6548 273.58L98.1662 273.267C97.3291 273.093 96.7098 272.799 96.3082 272.386C95.9067 271.97 95.7079 271.443 95.7116 270.807C95.7079 270.269 95.8537 269.803 96.1491 269.409C96.4484 269.011 96.8632 268.705 97.3935 268.489C97.9276 268.269 98.5431 268.159 99.2401 268.159C100.263 268.159 101.068 268.377 101.655 268.812C102.246 269.248 102.611 269.837 102.751 270.58Z" fill="white"/>
</g>
<rect x="220.5" y="217.5" width="207" height="200" rx="19.5" fill="url(#paint2_linear_2008_1405)" stroke="url(#paint3_linear_2008_1405)"/>
<path d="M269.2 396.727V349.455H272.228V396.727H269.2ZM277.232 365.058C277.085 363.569 276.451 362.411 275.33 361.587C274.21 360.762 272.69 360.349 270.769 360.349C269.464 360.349 268.362 360.534 267.464 360.903C266.565 361.26 265.876 361.759 265.396 362.399C264.928 363.039 264.694 363.766 264.694 364.578C264.669 365.255 264.811 365.846 265.119 366.351C265.439 366.856 265.876 367.293 266.43 367.662C266.984 368.019 267.624 368.333 268.35 368.604C269.076 368.862 269.852 369.084 270.677 369.268L274.075 370.081C275.724 370.45 277.238 370.943 278.617 371.558C279.996 372.174 281.19 372.931 282.2 373.83C283.209 374.728 283.991 375.787 284.545 377.006C285.111 378.224 285.4 379.622 285.413 381.197C285.4 383.512 284.809 385.518 283.64 387.217C282.483 388.904 280.808 390.215 278.617 391.151C276.438 392.074 273.81 392.536 270.732 392.536C267.679 392.536 265.02 392.068 262.755 391.132C260.502 390.196 258.742 388.812 257.474 386.977C256.218 385.131 255.559 382.847 255.498 380.126H263.235C263.321 381.394 263.684 382.453 264.325 383.303C264.977 384.14 265.845 384.774 266.928 385.205C268.024 385.623 269.261 385.832 270.64 385.832C271.994 385.832 273.17 385.635 274.167 385.241C275.176 384.848 275.958 384.3 276.512 383.598C277.066 382.896 277.343 382.09 277.343 381.179C277.343 380.33 277.091 379.616 276.586 379.037C276.094 378.458 275.367 377.966 274.407 377.56C273.459 377.153 272.296 376.784 270.917 376.452L266.799 375.418C263.611 374.642 261.093 373.429 259.246 371.78C257.4 370.13 256.483 367.908 256.495 365.114C256.483 362.824 257.092 360.823 258.323 359.112C259.567 357.401 261.272 356.065 263.438 355.105C265.605 354.145 268.067 353.665 270.825 353.665C273.631 353.665 276.081 354.145 278.174 355.105C280.279 356.065 281.916 357.401 283.086 359.112C284.255 360.823 284.859 362.805 284.896 365.058H277.232ZM305.397 392.831C302.221 392.819 299.488 392.037 297.199 390.486C294.921 388.935 293.167 386.688 291.936 383.746C290.717 380.804 290.114 377.264 290.126 373.128C290.126 369.004 290.735 365.489 291.954 362.584C293.185 359.679 294.94 357.469 297.217 355.955C299.507 354.428 302.234 353.665 305.397 353.665C308.561 353.665 311.282 354.428 313.559 355.955C315.849 357.481 317.609 359.697 318.841 362.602C320.072 365.495 320.681 369.004 320.669 373.128C320.669 377.277 320.053 380.822 318.822 383.764C317.603 386.706 315.855 388.953 313.578 390.504C311.3 392.055 308.574 392.831 305.397 392.831ZM305.397 386.202C307.564 386.202 309.294 385.112 310.586 382.933C311.879 380.754 312.519 377.486 312.507 373.128C312.507 370.259 312.211 367.871 311.62 365.963C311.042 364.055 310.217 362.621 309.146 361.661C308.087 360.7 306.838 360.22 305.397 360.22C303.243 360.22 301.52 361.297 300.227 363.452C298.934 365.606 298.282 368.831 298.27 373.128C298.27 376.033 298.559 378.458 299.137 380.403C299.728 382.336 300.559 383.789 301.63 384.761C302.701 385.722 303.957 386.202 305.397 386.202ZM329.518 392.48C328.3 392.48 327.253 392.049 326.379 391.188C325.518 390.313 325.087 389.267 325.087 388.048C325.087 386.842 325.518 385.808 326.379 384.946C327.253 384.084 328.3 383.653 329.518 383.653C330.7 383.653 331.734 384.084 332.621 384.946C333.507 385.808 333.95 386.842 333.95 388.048C333.95 388.861 333.741 389.606 333.322 390.283C332.916 390.947 332.381 391.483 331.716 391.889C331.051 392.283 330.319 392.48 329.518 392.48ZM352.065 354.182V392H344.07V361.771H343.848L335.188 367.2V360.109L344.55 354.182H352.065ZM361.275 354.182H371.136L381.551 379.591H381.994L392.409 354.182H402.27V392H394.514V367.385H394.2L384.413 391.815H379.132L369.345 367.293H369.031V392H361.275V354.182Z" fill="#3EBD61"/>
<g filter="url(#filter1_d_2008_1405)">
<path d="M243.034 258V256.477L247.074 252.517C247.46 252.127 247.782 251.78 248.04 251.477C248.297 251.174 248.491 250.881 248.619 250.597C248.748 250.312 248.812 250.009 248.812 249.688C248.812 249.32 248.729 249.006 248.562 248.744C248.396 248.479 248.167 248.275 247.875 248.131C247.583 247.987 247.252 247.915 246.881 247.915C246.498 247.915 246.163 247.994 245.875 248.153C245.587 248.309 245.364 248.53 245.205 248.818C245.049 249.106 244.972 249.449 244.972 249.847H242.966C242.966 249.108 243.134 248.466 243.472 247.92C243.809 247.375 244.273 246.953 244.864 246.653C245.458 246.354 246.14 246.205 246.909 246.205C247.689 246.205 248.375 246.35 248.966 246.642C249.557 246.934 250.015 247.333 250.341 247.841C250.67 248.348 250.835 248.928 250.835 249.58C250.835 250.015 250.752 250.443 250.585 250.864C250.419 251.284 250.125 251.75 249.705 252.261C249.288 252.773 248.703 253.392 247.949 254.119L245.943 256.159V256.239H251.011V258H243.034ZM252.511 255.841V254.165L257.449 246.364H258.847V248.75H257.994L254.67 254.017V254.108H261.562V255.841H252.511ZM258.062 258V255.33L258.085 254.58V246.364H260.074V258H258.062ZM263.491 258V246.364H265.599V251.29H270.991V246.364H273.105V258H270.991V253.057H265.599V258H263.491ZM244.705 265.364L247.733 274.523H247.852L250.875 265.364H253.193L249.091 277H246.489L242.392 265.364H244.705ZM257.504 277.17C256.652 277.17 255.913 276.983 255.288 276.608C254.663 276.233 254.179 275.708 253.834 275.034C253.493 274.36 253.322 273.572 253.322 272.67C253.322 271.769 253.493 270.979 253.834 270.301C254.179 269.623 254.663 269.097 255.288 268.722C255.913 268.347 256.652 268.159 257.504 268.159C258.357 268.159 259.095 268.347 259.72 268.722C260.345 269.097 260.828 269.623 261.169 270.301C261.514 270.979 261.686 271.769 261.686 272.67C261.686 273.572 261.514 274.36 261.169 275.034C260.828 275.708 260.345 276.233 259.72 276.608C259.095 276.983 258.357 277.17 257.504 277.17ZM257.516 275.523C257.978 275.523 258.364 275.396 258.675 275.142C258.985 274.884 259.216 274.54 259.368 274.108C259.523 273.676 259.601 273.195 259.601 272.665C259.601 272.131 259.523 271.648 259.368 271.216C259.216 270.78 258.985 270.434 258.675 270.176C258.364 269.919 257.978 269.79 257.516 269.79C257.042 269.79 256.648 269.919 256.334 270.176C256.023 270.434 255.79 270.78 255.635 271.216C255.483 271.648 255.408 272.131 255.408 272.665C255.408 273.195 255.483 273.676 255.635 274.108C255.79 274.54 256.023 274.884 256.334 275.142C256.648 275.396 257.042 275.523 257.516 275.523ZM265.489 265.364V277H263.432V265.364H265.489ZM273.166 273.33V268.273H275.223V277H273.229V275.449H273.138C272.941 275.937 272.617 276.337 272.166 276.648C271.719 276.958 271.168 277.114 270.513 277.114C269.941 277.114 269.435 276.987 268.996 276.733C268.56 276.475 268.219 276.102 267.973 275.614C267.727 275.121 267.604 274.527 267.604 273.83V268.273H269.661V273.511C269.661 274.064 269.812 274.504 270.115 274.83C270.418 275.155 270.816 275.318 271.308 275.318C271.611 275.318 271.905 275.244 272.189 275.097C272.473 274.949 272.706 274.729 272.888 274.438C273.073 274.142 273.166 273.773 273.166 273.33ZM277.338 277V268.273H279.304V269.756H279.406C279.588 269.256 279.889 268.866 280.31 268.585C280.73 268.301 281.232 268.159 281.815 268.159C282.406 268.159 282.904 268.303 283.31 268.591C283.719 268.875 284.007 269.263 284.173 269.756H284.264C284.457 269.271 284.783 268.884 285.241 268.597C285.704 268.305 286.251 268.159 286.884 268.159C287.687 268.159 288.342 268.413 288.849 268.92C289.357 269.428 289.611 270.169 289.611 271.142V277H287.548V271.46C287.548 270.919 287.404 270.523 287.116 270.273C286.829 270.019 286.476 269.892 286.06 269.892C285.563 269.892 285.175 270.047 284.895 270.358C284.618 270.665 284.48 271.064 284.48 271.557V277H282.463V271.375C282.463 270.924 282.327 270.564 282.054 270.295C281.785 270.027 281.433 269.892 280.997 269.892C280.702 269.892 280.433 269.968 280.19 270.119C279.948 270.267 279.755 270.477 279.611 270.75C279.467 271.019 279.395 271.333 279.395 271.693V277H277.338ZM295.561 277.17C294.686 277.17 293.93 276.989 293.294 276.625C292.661 276.258 292.175 275.739 291.834 275.068C291.493 274.394 291.322 273.6 291.322 272.688C291.322 271.79 291.493 271.002 291.834 270.324C292.179 269.642 292.66 269.112 293.277 268.733C293.894 268.35 294.62 268.159 295.453 268.159C295.991 268.159 296.499 268.246 296.976 268.42C297.457 268.591 297.881 268.856 298.249 269.216C298.62 269.576 298.911 270.034 299.124 270.591C299.336 271.144 299.442 271.803 299.442 272.568V273.199H292.288V271.812H297.47C297.466 271.419 297.381 271.068 297.214 270.761C297.048 270.451 296.815 270.206 296.516 270.028C296.22 269.85 295.875 269.761 295.482 269.761C295.061 269.761 294.692 269.864 294.374 270.068C294.055 270.269 293.807 270.534 293.629 270.864C293.455 271.189 293.366 271.547 293.362 271.938V273.148C293.362 273.655 293.455 274.091 293.641 274.455C293.826 274.814 294.086 275.091 294.419 275.284C294.752 275.473 295.143 275.568 295.589 275.568C295.889 275.568 296.16 275.527 296.402 275.443C296.644 275.356 296.855 275.229 297.033 275.062C297.211 274.896 297.345 274.689 297.436 274.443L299.357 274.659C299.235 275.167 299.004 275.61 298.663 275.989C298.326 276.364 297.894 276.655 297.368 276.864C296.841 277.068 296.239 277.17 295.561 277.17Z" fill="white"/>
</g>
<rect x="0.5" y="0.5" width="427" height="200" rx="19.5" fill="url(#paint4_linear_2008_1405)" stroke="url(#paint5_linear_2008_1405)"/>
<mask id="mask0_2008_1405" style="mask-type:alpha" maskUnits="userSpaceOnUse" x="0" y="0" width="428" height="201">
<rect x="0.5" y="0.5" width="427" height="200" rx="19.5" fill="url(#paint6_linear_2008_1405)" stroke="url(#paint7_linear_2008_1405)"/>
</mask>
<g mask="url(#mask0_2008_1405)">
<path d="M428 201V42C392.904 94.4021 382.005 59.8494 339.598 59.8494C297.191 59.8494 298.543 98.883 245.464 107.447C192.386 116.011 201.539 90.2024 160.844 90.2024C120.148 90.2024 125.962 103.063 82.0368 111.539C38.1116 120.015 13.0626 107.339 0 116.508V201H428Z" fill="url(#paint8_linear_2008_1405)"/>
<path d="M0 115C13.0626 106.017 38.1116 118.436 82.0367 110.132C125.962 101.827 120.148 89.2269 160.844 89.2269C201.539 89.2269 192.386 114.513 245.464 106.123C298.543 97.7319 297.191 59.4882 339.598 59.4882C382.005 59.4882 392.904 93.3416 428 42" stroke="#3EBD61" stroke-width="2"/>
</g>
<path d="M273.217 175.727V128.455H276.246V175.727H273.217ZM281.25 144.058C281.102 142.569 280.468 141.411 279.348 140.587C278.228 139.762 276.707 139.349 274.787 139.349C273.482 139.349 272.38 139.534 271.481 139.903C270.583 140.26 269.893 140.759 269.413 141.399C268.945 142.039 268.711 142.766 268.711 143.578C268.687 144.255 268.828 144.846 269.136 145.351C269.456 145.856 269.893 146.293 270.447 146.662C271.001 147.019 271.641 147.333 272.368 147.604C273.094 147.862 273.87 148.084 274.694 148.268L278.092 149.081C279.742 149.45 281.256 149.943 282.635 150.558C284.014 151.174 285.208 151.931 286.217 152.83C287.227 153.728 288.008 154.787 288.562 156.006C289.129 157.224 289.418 158.622 289.43 160.197C289.418 162.512 288.827 164.518 287.657 166.217C286.5 167.904 284.826 169.215 282.635 170.151C280.456 171.074 277.827 171.536 274.75 171.536C271.697 171.536 269.038 171.068 266.773 170.132C264.52 169.196 262.759 167.812 261.491 165.977C260.236 164.131 259.577 161.847 259.515 159.126H267.253C267.339 160.394 267.702 161.453 268.342 162.303C268.995 163.14 269.863 163.774 270.946 164.205C272.041 164.623 273.279 164.832 274.657 164.832C276.012 164.832 277.187 164.635 278.184 164.241C279.194 163.848 279.976 163.3 280.53 162.598C281.084 161.896 281.361 161.09 281.361 160.179C281.361 159.33 281.108 158.616 280.604 158.037C280.111 157.458 279.385 156.966 278.425 156.56C277.477 156.153 276.313 155.784 274.934 155.452L270.817 154.418C267.628 153.642 265.111 152.429 263.264 150.78C261.417 149.13 260.5 146.908 260.513 144.114C260.5 141.824 261.11 139.823 262.341 138.112C263.584 136.401 265.289 135.065 267.456 134.105C269.622 133.145 272.085 132.665 274.842 132.665C277.649 132.665 280.099 133.145 282.192 134.105C284.297 135.065 285.934 136.401 287.104 138.112C288.273 139.823 288.876 141.805 288.913 144.058H281.25ZM311.04 133.182V171H303.044V140.771H302.823L294.162 146.2V139.109L303.524 133.182H311.04ZM322.669 171.48C321.45 171.48 320.404 171.049 319.53 170.188C318.668 169.313 318.237 168.267 318.237 167.048C318.237 165.842 318.668 164.808 319.53 163.946C320.404 163.084 321.45 162.653 322.669 162.653C323.851 162.653 324.885 163.084 325.771 163.946C326.657 164.808 327.101 165.842 327.101 167.048C327.101 167.861 326.891 168.606 326.473 169.283C326.067 169.947 325.531 170.483 324.866 170.889C324.202 171.283 323.469 171.48 322.669 171.48ZM333.485 171V165.239L346.947 152.774C348.092 151.666 349.052 150.669 349.828 149.783C350.615 148.896 351.213 148.028 351.619 147.179C352.025 146.317 352.228 145.388 352.228 144.391C352.228 143.283 351.976 142.329 351.471 141.528C350.966 140.716 350.277 140.094 349.403 139.663C348.529 139.22 347.538 138.999 346.43 138.999C345.273 138.999 344.263 139.232 343.401 139.7C342.54 140.168 341.875 140.839 341.407 141.713C340.939 142.587 340.705 143.627 340.705 144.834H333.116C333.116 142.359 333.676 140.211 334.796 138.389C335.917 136.567 337.486 135.158 339.505 134.161C341.524 133.163 343.851 132.665 346.485 132.665C349.194 132.665 351.551 133.145 353.558 134.105C355.577 135.053 357.146 136.37 358.267 138.057C359.387 139.743 359.947 141.676 359.947 143.855C359.947 145.283 359.664 146.693 359.097 148.084C358.544 149.475 357.552 151.02 356.124 152.719C354.696 154.405 352.684 156.43 350.086 158.794L344.565 164.205V164.463H360.445V171H333.485ZM366.461 171V133.182H381.603C384.385 133.182 386.706 133.594 388.564 134.419C390.423 135.244 391.821 136.389 392.756 137.854C393.692 139.306 394.16 140.981 394.16 142.876C394.16 144.354 393.864 145.652 393.273 146.773C392.682 147.881 391.87 148.792 390.836 149.506C389.814 150.207 388.644 150.706 387.327 151.001V151.371C388.768 151.432 390.116 151.839 391.371 152.589C392.639 153.34 393.667 154.393 394.455 155.747C395.243 157.089 395.637 158.689 395.637 160.548C395.637 162.555 395.138 164.346 394.141 165.922C393.156 167.485 391.698 168.723 389.765 169.634C387.832 170.545 385.45 171 382.618 171H366.461ZM374.456 164.463H380.975C383.203 164.463 384.828 164.038 385.85 163.189C386.872 162.327 387.383 161.182 387.383 159.754C387.383 158.708 387.13 157.785 386.626 156.984C386.121 156.184 385.401 155.556 384.465 155.101C383.542 154.645 382.44 154.418 381.16 154.418H374.456V164.463ZM374.456 149.007H380.384C381.48 149.007 382.452 148.816 383.302 148.435C384.163 148.041 384.84 147.487 385.333 146.773C385.838 146.059 386.09 145.203 386.09 144.206C386.09 142.839 385.604 141.738 384.631 140.901C383.671 140.063 382.305 139.645 380.532 139.645H374.456V149.007Z" fill="white"/>
<g filter="url(#filter2_d_2008_1405)">
<path d="M33.5008 42H31.2508L35.3474 30.3636H37.9497L42.052 42H39.802L36.694 32.75H36.6031L33.5008 42ZM33.5747 37.4375H39.711V39.1307H33.5747V37.4375ZM45.5505 30.3636V42H43.4937V30.3636H45.5505ZM49.7224 30.3636V42H47.6656V30.3636H49.7224ZM60.1642 33.2727V34.8636H55.1471V33.2727H60.1642ZM56.3858 31.1818H58.4426V39.375C58.4426 39.6515 58.4842 39.8636 58.5676 40.0114C58.6547 40.1553 58.7683 40.2538 58.9085 40.3068C59.0486 40.3598 59.2039 40.3864 59.3744 40.3864C59.5032 40.3864 59.6206 40.3769 59.7267 40.358C59.8365 40.339 59.9199 40.322 59.9767 40.3068L60.3233 41.9148C60.2134 41.9527 60.0562 41.9943 59.8517 42.0398C59.6509 42.0852 59.4047 42.1117 59.113 42.1193C58.5979 42.1345 58.1339 42.0568 57.721 41.8864C57.3081 41.7121 56.9805 41.4432 56.738 41.0795C56.4994 40.7159 56.382 40.2614 56.3858 39.7159V31.1818ZM61.8843 42V33.2727H63.9412V42H61.8843ZM62.9184 32.0341C62.5927 32.0341 62.3124 31.9261 62.0775 31.7102C61.8427 31.4905 61.7252 31.2273 61.7252 30.9205C61.7252 30.6098 61.8427 30.3466 62.0775 30.1307C62.3124 29.911 62.5927 29.8011 62.9184 29.8011C63.248 29.8011 63.5283 29.911 63.7593 30.1307C63.9942 30.3466 64.1116 30.6098 64.1116 30.9205C64.1116 31.2273 63.9942 31.4905 63.7593 31.7102C63.5283 31.9261 63.248 32.0341 62.9184 32.0341ZM66.0562 42V33.2727H68.0221V34.7557H68.1244C68.3062 34.2557 68.6074 33.8655 69.0278 33.5852C69.4483 33.3011 69.9502 33.1591 70.5335 33.1591C71.1244 33.1591 71.6225 33.303 72.0278 33.5909C72.4369 33.875 72.7248 34.2633 72.8914 34.7557H72.9824C73.1755 34.2708 73.5013 33.8845 73.9596 33.5966C74.4217 33.3049 74.9691 33.1591 75.6017 33.1591C76.4047 33.1591 77.06 33.4129 77.5676 33.9205C78.0752 34.428 78.3289 35.1686 78.3289 36.142V42H76.2664V36.4602C76.2664 35.9186 76.1225 35.5227 75.8346 35.2727C75.5467 35.0189 75.1945 34.892 74.7778 34.892C74.2816 34.892 73.8933 35.0473 73.613 35.358C73.3365 35.6648 73.1983 36.0644 73.1983 36.5568V42H71.1812V36.375C71.1812 35.9242 71.0449 35.5644 70.7721 35.2955C70.5032 35.0265 70.1509 34.892 69.7153 34.892C69.4199 34.892 69.1509 34.9678 68.9085 35.1193C68.6661 35.267 68.4729 35.4773 68.3289 35.75C68.185 36.0189 68.113 36.3333 68.113 36.6932V42H66.0562ZM84.2792 42.1705C83.4042 42.1705 82.6485 41.9886 82.0122 41.625C81.3796 41.2576 80.8929 40.7386 80.552 40.0682C80.211 39.3939 80.0406 38.6004 80.0406 37.6875C80.0406 36.7898 80.211 36.0019 80.552 35.3239C80.8967 34.642 81.3777 34.1117 81.9951 33.733C82.6126 33.3504 83.3379 33.1591 84.1713 33.1591C84.7092 33.1591 85.2167 33.2462 85.694 33.4205C86.1751 33.5909 86.5993 33.8561 86.9667 34.2159C87.3379 34.5758 87.6296 35.0341 87.8417 35.5909C88.0538 36.1439 88.1599 36.803 88.1599 37.5682V38.1989H81.0065V36.8125H86.1883C86.1845 36.4186 86.0993 36.0682 85.9326 35.7614C85.766 35.4508 85.533 35.2064 85.2338 35.0284C84.9383 34.8504 84.5936 34.7614 84.1997 34.7614C83.7792 34.7614 83.4099 34.8636 83.0917 35.0682C82.7735 35.2689 82.5254 35.5341 82.3474 35.8636C82.1732 36.1894 82.0842 36.5473 82.0804 36.9375V38.1477C82.0804 38.6553 82.1732 39.0909 82.3588 39.4545C82.5444 39.8144 82.8038 40.0909 83.1372 40.2841C83.4705 40.4735 83.8607 40.5682 84.3076 40.5682C84.6069 40.5682 84.8777 40.5265 85.1201 40.4432C85.3626 40.3561 85.5728 40.2292 85.7508 40.0625C85.9288 39.8958 86.0633 39.6894 86.1542 39.4432L88.0747 39.6591C87.9535 40.1667 87.7224 40.6098 87.3815 40.9886C87.0444 41.3636 86.6126 41.6553 86.086 41.8636C85.5595 42.0682 84.9573 42.1705 84.2792 42.1705ZM33.493 49.3636L36.5214 58.5227H36.6407L39.6635 49.3636H41.9816L37.8794 61H35.2771L31.1805 49.3636H33.493ZM46.2927 61.1705C45.4404 61.1705 44.7018 60.983 44.0768 60.608C43.4518 60.233 42.967 59.7083 42.6223 59.0341C42.2814 58.3598 42.1109 57.572 42.1109 56.6705C42.1109 55.7689 42.2814 54.9792 42.6223 54.3011C42.967 53.6231 43.4518 53.0966 44.0768 52.7216C44.7018 52.3466 45.4404 52.1591 46.2927 52.1591C47.145 52.1591 47.8836 52.3466 48.5086 52.7216C49.1336 53.0966 49.6166 53.6231 49.9575 54.3011C50.3022 54.9792 50.4745 55.7689 50.4745 56.6705C50.4745 57.572 50.3022 58.3598 49.9575 59.0341C49.6166 59.7083 49.1336 60.233 48.5086 60.608C47.8836 60.983 47.145 61.1705 46.2927 61.1705ZM46.3041 59.5227C46.7662 59.5227 47.1526 59.3958 47.4632 59.142C47.7738 58.8845 48.0048 58.5398 48.1564 58.108C48.3117 57.6761 48.3893 57.1951 48.3893 56.6648C48.3893 56.1307 48.3117 55.6477 48.1564 55.2159C48.0048 54.7803 47.7738 54.4337 47.4632 54.1761C47.1526 53.9186 46.7662 53.7898 46.3041 53.7898C45.8306 53.7898 45.4367 53.9186 45.1223 54.1761C44.8117 54.4337 44.5787 54.7803 44.4234 55.2159C44.2719 55.6477 44.1961 56.1307 44.1961 56.6648C44.1961 57.1951 44.2719 57.6761 44.4234 58.108C44.5787 58.5398 44.8117 58.8845 45.1223 59.142C45.4367 59.3958 45.8306 59.5227 46.3041 59.5227ZM54.2771 49.3636V61H52.2203V49.3636H54.2771ZM61.9547 57.3295V52.2727H64.0115V61H62.0172V59.4489H61.9262C61.7293 59.9375 61.4054 60.3371 60.9547 60.6477C60.5077 60.9583 59.9565 61.1136 59.3012 61.1136C58.7293 61.1136 58.2236 60.9867 57.7842 60.733C57.3486 60.4754 57.0077 60.1023 56.7615 59.6136C56.5153 59.1212 56.3922 58.5265 56.3922 57.8295V52.2727H58.449V57.5114C58.449 58.0644 58.6005 58.5038 58.9035 58.8295C59.2065 59.1553 59.6043 59.3182 60.0967 59.3182C60.3997 59.3182 60.6933 59.2443 60.9774 59.0966C61.2615 58.9489 61.4944 58.7292 61.6762 58.4375C61.8619 58.142 61.9547 57.7727 61.9547 57.3295ZM66.1265 61V52.2727H68.0924V53.7557H68.1947C68.3765 53.2557 68.6777 52.8655 69.0981 52.5852C69.5186 52.3011 70.0205 52.1591 70.6038 52.1591C71.1947 52.1591 71.6928 52.303 72.0981 52.5909C72.5072 52.875 72.7951 53.2633 72.9618 53.7557H73.0527C73.2458 53.2708 73.5716 52.8845 74.0299 52.5966C74.4921 52.3049 75.0394 52.1591 75.672 52.1591C76.475 52.1591 77.1303 52.4129 77.6379 52.9205C78.1455 53.428 78.3993 54.1686 78.3993 55.142V61H76.3368V55.4602C76.3368 54.9186 76.1928 54.5227 75.9049 54.2727C75.6171 54.0189 75.2648 53.892 74.8481 53.892C74.3519 53.892 73.9636 54.0473 73.6833 54.358C73.4068 54.6648 73.2686 55.0644 73.2686 55.5568V61H71.2515V55.375C71.2515 54.9242 71.1152 54.5644 70.8424 54.2955C70.5735 54.0265 70.2212 53.892 69.7856 53.892C69.4902 53.892 69.2212 53.9678 68.9788 54.1193C68.7364 54.267 68.5432 54.4773 68.3993 54.75C68.2553 55.0189 68.1833 55.3333 68.1833 55.6932V61H66.1265ZM84.3495 61.1705C83.4745 61.1705 82.7189 60.9886 82.0825 60.625C81.4499 60.2576 80.9632 59.7386 80.6223 59.0682C80.2814 58.3939 80.1109 57.6004 80.1109 56.6875C80.1109 55.7898 80.2814 55.0019 80.6223 54.3239C80.967 53.642 81.448 53.1117 82.0654 52.733C82.6829 52.3504 83.4083 52.1591 84.2416 52.1591C84.7795 52.1591 85.287 52.2462 85.7643 52.4205C86.2454 52.5909 86.6696 52.8561 87.037 53.2159C87.4083 53.5758 87.6999 54.0341 87.912 54.5909C88.1242 55.1439 88.2302 55.803 88.2302 56.5682V57.1989H81.0768V55.8125H86.2586C86.2548 55.4186 86.1696 55.0682 86.0029 54.7614C85.8363 54.4508 85.6033 54.2064 85.3041 54.0284C85.0086 53.8504 84.6639 53.7614 84.27 53.7614C83.8495 53.7614 83.4802 53.8636 83.162 54.0682C82.8439 54.2689 82.5958 54.5341 82.4177 54.8636C82.2435 55.1894 82.1545 55.5473 82.1507 55.9375V57.1477C82.1507 57.6553 82.2435 58.0909 82.4291 58.4545C82.6147 58.8144 82.8742 59.0909 83.2075 59.2841C83.5408 59.4735 83.931 59.5682 84.3779 59.5682C84.6772 59.5682 84.948 59.5265 85.1904 59.4432C85.4329 59.3561 85.6431 59.2292 85.8211 59.0625C85.9992 58.8958 86.1336 58.6894 86.2245 58.4432L88.145 58.6591C88.0238 59.1667 87.7927 59.6098 87.4518 59.9886C87.1147 60.3636 86.6829 60.6553 86.1564 60.8636C85.6298 61.0682 85.0276 61.1705 84.3495 61.1705Z" fill="white"/>
</g>
<defs>
<filter id="filter0_d_2008_1405" x="14.592" y="234.001" width="108.147" height="66.0716" filterUnits="userSpaceOnUse" color-interpolation-filters="sRGB">
<feFlood flood-opacity="0" result="BackgroundImageFix"/>
<feColorMatrix in="SourceAlpha" type="matrix" values="0 0 0 0 0 0 0 0 0 0 0 0 0 0 0 0 0 0 127 0" result="hardAlpha"/>
<feOffset dx="4" dy="4"/>
<feGaussianBlur stdDeviation="7.9"/>
<feComposite in2="hardAlpha" operator="out"/>
<feColorMatrix type="matrix" values="0 0 0 0 0 0 0 0 0 0 0 0 0 0 0 0 0 0 1 0"/>
<feBlend mode="normal" in2="BackgroundImageFix" result="effect1_dropShadow_2008_1405"/>
<feBlend mode="normal" in="SourceGraphic" in2="effect1_dropShadow_2008_1405" result="shape"/>
</filter>
<filter id="filter1_d_2008_1405" x="230.592" y="234.405" width="88.6497" height="62.5659" filterUnits="userSpaceOnUse" color-interpolation-filters="sRGB">
<feFlood flood-opacity="0" result="BackgroundImageFix"/>
<feColorMatrix in="SourceAlpha" type="matrix" values="0 0 0 0 0 0 0 0 0 0 0 0 0 0 0 0 0 0 127 0" result="hardAlpha"/>
<feOffset dx="4" dy="4"/>
<feGaussianBlur stdDeviation="7.9"/>
<feComposite in2="hardAlpha" operator="out"/>
<feColorMatrix type="matrix" values="0 0 0 0 0 0 0 0 0 0 0 0 0 0 0 0 0 0 1 0"/>
<feBlend mode="normal" in2="BackgroundImageFix" result="effect1_dropShadow_2008_1405"/>
<feBlend mode="normal" in="SourceGraphic" in2="effect1_dropShadow_2008_1405" result="shape"/>
</filter>
<filter id="filter2_d_2008_1405" x="19.3805" y="18.0011" width="88.6497" height="62.9693" filterUnits="userSpaceOnUse" color-interpolation-filters="sRGB">
<feFlood flood-opacity="0" result="BackgroundImageFix"/>
<feColorMatrix in="SourceAlpha" type="matrix" values="0 0 0 0 0 0 0 0 0 0 0 0 0 0 0 0 0 0 127 0" result="hardAlpha"/>
<feOffset dx="4" dy="4"/>
<feGaussianBlur stdDeviation="7.9"/>
<feComposite in2="hardAlpha" operator="out"/>
<feColorMatrix type="matrix" values="0 0 0 0 0 0 0 0 0 0 0 0 0 0 0 0 0 0 1 0"/>
<feBlend mode="normal" in2="BackgroundImageFix" result="effect1_dropShadow_2008_1405"/>
<feBlend mode="normal" in="SourceGraphic" in2="effect1_dropShadow_2008_1405" result="shape"/>
</filter>
<linearGradient id="paint0_linear_2008_1405" x1="104" y1="217" x2="104" y2="418" gradientUnits="userSpaceOnUse">
<stop stop-color="#141414"/>
<stop offset="1" stop-color="#070707"/>
</linearGradient>
<linearGradient id="paint1_linear_2008_1405" x1="104" y1="217" x2="104" y2="418" gradientUnits="userSpaceOnUse">
<stop stop-color="#0057FF"/>
<stop offset="1" stop-color="#141414"/>
</linearGradient>
<linearGradient id="paint2_linear_2008_1405" x1="324" y1="217" x2="324" y2="418" gradientUnits="userSpaceOnUse">
<stop stop-color="#141414"/>
<stop offset="1" stop-color="#070707"/>
</linearGradient>
<linearGradient id="paint3_linear_2008_1405" x1="324" y1="217" x2="324" y2="418" gradientUnits="userSpaceOnUse">
<stop stop-color="#3EBD61"/>
<stop offset="1" stop-color="#141414"/>
</linearGradient>
<linearGradient id="paint4_linear_2008_1405" x1="214" y1="0" x2="214" y2="201" gradientUnits="userSpaceOnUse">
<stop stop-color="#141414"/>
<stop offset="1" stop-color="#070707"/>
</linearGradient>
<linearGradient id="paint5_linear_2008_1405" x1="214" y1="0" x2="214" y2="201" gradientUnits="userSpaceOnUse">
<stop stop-color="#3EBD61"/>
<stop offset="1" stop-color="#141414"/>
</linearGradient>
<linearGradient id="paint6_linear_2008_1405" x1="214" y1="0" x2="214" y2="201" gradientUnits="userSpaceOnUse">
<stop stop-color="#141414"/>
<stop offset="1" stop-color="#070707"/>
</linearGradient>
<linearGradient id="paint7_linear_2008_1405" x1="214" y1="0" x2="214" y2="201" gradientUnits="userSpaceOnUse">
<stop stop-color="#3EBD61"/>
<stop offset="1" stop-color="#141414"/>
</linearGradient>
<linearGradient id="paint8_linear_2008_1405" x1="200.969" y1="39.8463" x2="200.969" y2="201" gradientUnits="userSpaceOnUse">
<stop stop-color="#3EBD61"/>
<stop offset="1" stop-color="#121212"/>
</linearGradient>
</defs>
</svg>
