<svg width="400" height="577" viewBox="0 0 400 577" fill="none" xmlns="http://www.w3.org/2000/svg">
<mask id="mask0_347_2211" style="mask-type:alpha" maskUnits="userSpaceOnUse" x="0" y="0" width="400" height="577">
<path d="M0 25C0 11.1929 11.1929 0 25 0H375C388.807 0 400 11.1929 400 25V552C400 565.807 388.807 577 375 577H25C11.1929 577 0 565.807 0 552V25Z" fill="white"/>
</mask>
<g mask="url(#mask0_347_2211)">
<path d="M428.177 212.162C416.557 228.876 405.653 242.46 395.488 252.871C376.429 272.398 367.311 273.366 354.69 274.708C343.986 275.846 330.663 277.261 306.366 289.824C257.77 314.945 189.95 362.702 142.81 447.544C123.128 482.969 107.034 526.164 74.9676 612.219C64.5551 640.16 59.1826 655.934 55.6285 666.373C52.1003 676.729 50.1584 682.434 46.6969 690.17C14.5229 762.078 -74.5038 843.731 -225.502 939.847C-226.045 940.191 -226.181 939.611 -225.804 938.546C-225.425 937.482 -224.674 936.335 -224.133 935.994C-76.2472 841.861 14.3503 759.224 45.1191 690.45C48.3219 683.289 50.1996 677.778 53.6067 667.772C57.184 657.268 62.5875 641.402 73.0577 613.303C105.371 526.587 121.591 483.059 141.835 446.619C180.559 376.912 236.431 322.827 307.878 285.886C332.359 273.229 345.768 271.803 356.542 270.659C369.361 269.294 377.827 268.396 396.21 249.564C437.251 207.526 490.935 111.92 555.775 -34.5893C556.268 -35.7073 557.027 -36.6831 557.47 -36.7756C557.913 -36.8681 557.871 -36.0376 557.378 -34.9222C507.752 77.2107 464.464 159.964 428.175 212.164L428.177 212.162Z" fill="url(#paint0_linear_347_2211)"/>
<path d="M425.392 204.246C413.178 221.807 401.868 235.679 391.091 246.346C373.354 263.901 364.638 265.107 352.571 266.787C346.122 267.679 338.81 268.695 328.68 272.48C323.045 274.587 314.199 278.246 302.477 285.709L299.928 287.324C281.895 298.73 239.661 325.449 196.208 373.128C175.086 396.283 156.684 421.399 141.512 447.776C121.286 482.944 104.559 524.522 73.7561 604.604C65.0444 627.25 60.0649 641.118 56.4266 651.247C51.7651 664.229 49.6377 670.154 45.31 678.626C31.7762 705.119 11.2437 731.91 -21.2746 765.488L-25.7025 770.066C-45.0321 790.055 -66.9409 812.711 -94.143 835.839C-135.577 871.055 -182.182 903.038 -232.662 930.89C-233.163 931.164 -233.256 930.55 -232.863 929.507C-232.47 928.466 -231.749 927.405 -231.244 927.123C-180.893 899.342 -134.427 867.458 -93.135 832.358C-66.0971 809.377 -44.2802 786.814 -25.0313 766.908L-20.5982 762.323C11.234 729.454 31.1912 703.518 44.1203 678.205C48.0313 670.545 50.073 664.864 54.5448 652.413C58.1996 642.234 63.2044 628.295 71.9633 605.523C103.03 524.76 119.938 482.761 140.681 446.696C156.301 419.537 175.171 393.758 196.751 370.111C240.626 321.966 283.108 295.09 301.249 283.614L303.793 282C315.644 274.461 324.58 270.76 330.272 268.635C340.491 264.814 347.846 263.794 354.331 262.897C366.162 261.253 374.707 260.069 391.846 243.105C405.979 229.115 421.093 209.398 438.049 182.829C469.196 134.024 506.495 60.2928 548.912 -36.3256C549.385 -37.4015 550.109 -38.3427 550.546 -38.4449C550.973 -38.54 550.943 -37.7541 550.472 -36.6834C507.75 60.6279 470.092 135.033 438.542 184.469C434.04 191.524 429.659 198.113 425.392 204.248L425.392 204.246Z" fill="url(#paint1_linear_347_2211)"/>
<path d="M422.492 196.46C409.689 214.859 397.898 229.13 386.698 239.814C370.235 255.522 361.469 256.965 350.369 258.801C343.534 259.927 335.785 261.205 324.773 266.11C317.942 269.149 309.493 273.361 298.606 281.579C297.202 282.638 295.587 283.844 293.779 285.189C274.94 299.223 235.742 328.421 194.484 374.659C173.562 398.059 155.314 422.739 140.243 448.02C121.204 479.964 104.76 516.159 72.5694 596.983C65.3033 615.221 60.5982 627.642 57.1627 636.71C51.3824 651.962 48.992 658.273 43.943 667.025C30.0254 691.142 12.4932 712.795 -23.0465 749.75C-29.5966 756.562 -36.2617 763.821 -43.3186 771.511C-59.2854 788.904 -77.3829 808.616 -98.4233 827.507C-142.156 866.775 -188.401 897.653 -239.795 921.898C-240.263 922.121 -240.316 921.479 -239.919 920.47C-239.525 919.465 -238.821 918.465 -238.359 918.248C-187.13 894.075 -141.067 863.324 -97.5354 824.238C-76.667 805.505 -58.6663 785.896 -42.7862 768.597C-35.7044 760.882 -29.0146 753.596 -22.4163 746.734C12.596 710.328 29.7577 689.188 43.1506 665.974C47.6304 658.211 49.7507 652.613 55.4221 637.648C58.8723 628.539 63.5999 616.061 70.8998 597.733C103.395 516.147 120.077 479.47 139.557 446.791C155.002 420.876 173.644 395.645 194.961 371.81C236.561 325.183 275.963 295.837 294.902 281.729C296.704 280.387 298.314 279.188 299.712 278.133C310.768 269.787 319.325 265.515 326.239 262.439C337.361 257.491 345.165 256.201 352.045 255.068C362.941 253.265 371.547 251.846 387.487 236.64C401.387 223.378 416.256 204.379 432.926 178.595C463.033 132.02 499.748 59.125 542.051 -38.0636C542.491 -39.0799 543.198 -40.0082 543.617 -40.1118C544.035 -40.2185 544.011 -39.4684 543.563 -38.4395C500.955 59.4522 463.877 133.022 433.359 180.232C429.654 185.964 426.035 191.37 422.495 196.457L422.492 196.46Z" fill="url(#paint2_linear_347_2211)"/>
<path d="M419.526 188.841C406.171 208.023 393.928 222.635 382.317 233.284C367.065 247.268 358.268 248.899 348.081 250.787C340.881 252.122 332.723 253.64 320.879 259.733C313.505 263.532 305.236 268.31 294.751 277.454C292.798 279.157 290.484 281.141 287.851 283.398C268.391 300.081 232.173 331.127 192.791 376.219C171.717 400.27 154.119 423.852 139.008 448.284C118.447 481.522 100.757 518.441 71.3961 589.382C67.5217 598.742 64.3514 606.456 61.6984 612.912C51.4933 637.739 48.7507 644.412 42.8201 655.011L42.6134 655.38L42.3878 655.681C24.7244 679.234 8.06416 699.608 -24.8087 734.006C-33.7694 743.384 -42.7563 753.8 -52.274 764.831C-67.7101 782.721 -83.6739 801.225 -102.695 819.183C-147.599 861.583 -194.778 892.244 -246.926 912.914C-247.357 913.085 -247.381 912.43 -246.983 911.455C-246.584 910.483 -245.919 909.559 -245.482 909.383C-193.534 888.79 -146.577 858.288 -101.926 816.13C-83.0944 798.349 -67.2361 779.967 -51.899 762.194C-42.326 751.097 -33.2867 740.622 -24.2202 731.133C8.27834 697.123 24.7819 676.975 42.1774 653.79C47.5612 644.129 50.0538 638.066 60.1472 613.509C62.8029 607.047 65.9763 599.328 69.8575 589.95C99.5207 518.279 117.471 480.852 138.454 446.932C153.905 421.956 171.805 397.961 193.197 373.542C232.839 328.156 269.216 296.974 288.761 280.216C291.388 277.962 293.691 275.991 295.639 274.291C306.336 264.959 314.734 260.11 322.217 256.255C334.195 250.09 342.417 248.565 349.672 247.218C360.098 245.282 368.333 243.755 383.131 230.189C396.817 217.637 411.426 199.387 427.8 174.385C457.001 129.793 493.131 57.7413 535.184 -39.7764C535.604 -40.7515 536.279 -41.6463 536.685 -41.7553C537.091 -41.8662 537.077 -41.1616 536.653 -40.1754C494.295 58.044 457.797 130.785 428.178 176.012C425.242 180.496 422.359 184.774 419.525 188.843L419.526 188.841Z" fill="url(#paint3_linear_347_2211)"/>
<path d="M416.463 181.419C402.597 201.326 389.939 216.214 377.941 226.753C363.839 239.139 355.432 240.826 345.699 242.782C338.155 244.3 329.606 246.014 316.989 253.372C309.532 257.72 301.21 263.146 290.909 273.324C288.484 275.719 285.587 278.541 282.266 281.769C262.323 301.17 228.94 333.649 191.113 377.812C169.981 402.488 152.541 425.633 137.791 448.578C119.455 477.107 100.95 510.675 70.2388 581.789L69.111 584.404C51.6614 624.816 48.9801 631.028 41.5495 643.271L41.3163 643.653L41.0751 643.932C23.8462 663.838 7.92125 681.952 -26.5655 718.253C-37.2418 729.489 -47.7008 742.35 -58.7708 755.96C-73.5671 774.154 -88.8695 792.969 -106.968 810.87C-152.814 856.215 -200.925 886.648 -254.05 903.914C-254.446 904.041 -254.448 903.387 -254.053 902.449C-253.659 901.516 -253.02 900.655 -252.616 900.517C-199.716 883.33 -151.856 853.071 -106.308 808.024C-88.423 790.33 -73.236 771.659 -58.5522 753.603C-47.3943 739.884 -36.8557 726.925 -26.0115 715.509C8.22577 679.475 24.1138 661.413 41.1998 641.677C47.9905 630.448 50.7547 624.044 67.7094 584.781L68.8404 582.163C95.7665 519.809 114.984 481.939 137.374 447.104C152.378 423.763 170.068 400.276 191.452 375.31C229.459 330.938 262.949 298.356 282.957 278.89C286.268 275.666 289.156 272.857 291.571 270.472C302.134 260.035 310.613 254.504 318.201 250.078C330.981 242.624 339.606 240.891 347.214 239.365C356.792 237.442 365.066 235.779 378.778 223.736C392.262 211.893 406.623 194.377 422.681 170.174C451.494 126.758 486.046 57.527 528.321 -41.4873C528.72 -42.4226 529.369 -43.2841 529.756 -43.3981C530.147 -43.5118 530.142 -42.8469 529.74 -41.9056C487.159 57.8277 452.247 127.725 423.008 171.786C420.795 175.121 418.616 178.328 416.464 181.417L416.463 181.419Z" fill="url(#paint4_linear_347_2211)"/>
<path d="M413.294 174.227C398.974 194.776 385.941 209.863 373.581 220.222C360.558 231.138 352.14 232.92 343.232 234.8C334.972 236.548 326.436 238.351 313.114 247.011C305.645 251.865 297.321 257.913 287.08 269.203C284.157 272.425 280.661 276.236 276.659 280.607C257.636 301.366 225.795 336.111 189.465 379.437C167.876 405.186 151.077 427.256 136.613 448.883C116.612 478.789 97.4787 511.545 69.1019 574.219C50.9721 614.266 47.9027 620.008 40.3041 631.506L40.0704 631.861L39.0446 632.895C18.8644 653.276 4.28299 668.001 -28.3027 702.483C-40.4237 715.309 -51.9803 730.316 -64.2134 746.2C-78.66 764.959 -93.5969 784.357 -111.229 802.565C-157.896 850.753 -206.942 880.964 -261.165 894.916C-261.534 895.014 -261.515 894.36 -261.126 893.464C-260.738 892.567 -260.123 891.761 -259.757 891.669C-205.772 877.776 -157.005 847.762 -110.671 799.918C-93.274 781.95 -78.4602 762.714 -64.1338 744.114C-51.7858 728.079 -40.1227 712.933 -27.789 699.882C4.83814 665.358 19.4363 650.612 39.6394 630.209L40.213 629.632C47.2059 619.028 50.2831 613.185 67.8464 574.386C96.5723 510.944 115.995 477.705 136.321 447.314C150.979 425.405 167.957 403.086 189.74 377.107C226.164 333.669 258.061 298.86 277.118 278.063C281.112 273.705 284.601 269.898 287.522 266.677C298.094 255.025 306.941 248.629 314.199 243.911C327.716 235.125 336.722 233.22 344.67 231.542C353.832 229.603 361.746 227.932 374.435 217.294C387.73 206.152 401.821 189.386 417.568 165.981C445.692 124.171 479.674 55.7528 521.46 -43.1804C521.839 -44.078 522.451 -44.9017 522.83 -45.0217C523.212 -45.145 523.212 -44.5153 522.835 -43.623C480.74 56.0406 446.398 125.122 417.845 167.573C416.314 169.85 414.799 172.067 413.296 174.224L413.294 174.227Z" fill="url(#paint5_linear_347_2211)"/>
<path d="M409.996 167.274C395.286 188.373 381.926 203.58 369.227 213.692C357.219 223.257 349.184 225.008 340.681 226.858C332.087 228.731 323.201 230.665 309.245 240.653C302.165 245.724 293.543 252.588 283.259 265.083L269.239 282.111C250.289 305.121 221.652 339.895 187.84 381.099C171.779 400.667 153 424.06 135.493 449.17L135.461 449.217C113.1 481.295 94.0082 512.136 67.9763 566.664C50.4815 603.316 46.906 608.894 39.077 619.721L38.6654 620.191L35.9777 622.582C15.0686 641.158 1.2571 653.431 -30.036 686.71C-43.467 700.997 -55.9281 718.003 -69.1187 736.012C-83.3633 755.457 -98.0931 775.564 -115.488 794.264C-162.903 845.236 -212.88 875.217 -268.278 885.92C-268.617 885.985 -268.584 885.343 -268.206 884.491C-267.819 883.627 -267.24 882.883 -266.902 882.82C-211.757 872.166 -162.079 842.4 -115.026 791.817C-97.884 773.386 -83.2842 753.46 -69.165 734.184C-55.8355 715.987 -43.2481 698.805 -29.5579 684.247C1.87204 650.819 15.7346 638.503 36.7203 619.857L39.2119 617.644C46.4522 607.617 49.9759 602.024 66.8791 566.617C93.2553 511.363 112.61 480.1 135.289 447.569L135.321 447.523C152.998 422.169 171.896 398.626 188.055 378.935C221.871 337.728 250.511 302.951 269.461 279.939L283.481 262.911C294.112 249.995 302.959 242.944 310.206 237.753C324.385 227.611 333.362 225.654 342.045 223.763C350.438 221.935 358.364 220.213 370.09 210.868C383.211 200.419 397.05 184.435 412.454 161.808C439.987 121.435 473.399 53.8326 514.597 -44.8582C514.951 -45.7036 515.537 -46.4997 515.903 -46.6251C516.269 -46.7532 516.277 -46.167 515.924 -45.3195C474.419 54.1013 440.65 122.364 412.685 163.374C411.783 164.695 410.886 165.999 409.995 167.276L409.996 167.274Z" fill="url(#paint6_linear_347_2211)"/>
<path d="M406.558 160.572C391.527 182.12 377.886 197.368 364.882 207.162C353.825 215.489 346.168 217.174 338.058 218.964C329.132 220.93 319.904 222.966 305.381 234.299C295.699 241.856 287.454 250.331 279.441 260.966C275.574 266.099 271.111 272.091 266.081 278.849C246.673 304.915 220.096 340.614 186.233 382.784C168.917 404.351 151.011 426.65 134.337 449.56C112.047 480.185 92.9064 507.729 66.8646 559.116C50.3314 591.74 46.0281 597.647 37.8833 607.885L37.5375 608.243L31.3631 613.088C11.047 629.002 -2.37484 639.518 -31.7559 670.916C-46.4274 686.593 -59.6716 705.522 -73.6926 725.559C-87.8295 745.765 -102.446 766.655 -119.739 785.96C-167.854 839.671 -218.767 869.419 -275.39 876.916C-275.703 876.958 -275.657 876.328 -275.289 875.519C-274.919 874.7 -274.369 874.01 -274.052 873.967C-217.691 866.508 -167.094 836.985 -119.369 783.711C-102.338 764.701 -87.8546 744.001 -73.8505 723.986C-59.6704 703.721 -46.2764 684.574 -31.3082 668.581C-1.72493 636.969 11.7715 626.395 32.1974 610.394L38.2052 605.682C45.3035 596.76 49.3455 591.575 65.9375 558.832C92.3484 506.719 111.709 478.86 134.277 447.847C151.06 424.786 169.021 402.419 186.392 380.784C220.169 338.72 246.701 303.084 266.073 277.064C271.115 270.294 275.585 264.289 279.457 259.151C287.771 248.116 296.273 239.364 306.221 231.6C320.998 220.071 330.329 218.011 339.352 216.022C347.365 214.255 354.933 212.587 365.75 204.439C378.884 194.548 392.143 179.604 407.348 157.63C434.764 117.987 466.664 53.1121 507.738 -46.5355C508.066 -47.3354 508.625 -48.1033 508.976 -48.2309C509.329 -48.3635 509.346 -47.816 509.015 -47.0138C467.637 53.3714 435.389 118.888 407.533 159.168C407.208 159.639 406.883 160.105 406.558 160.571L406.558 160.572Z" fill="url(#paint7_linear_347_2211)"/>
<path d="M402.833 154.337C402.683 154.552 402.536 154.759 402.387 154.972C387.133 176.717 373.84 191.222 360.547 200.629C350.389 207.822 343.104 209.423 335.389 211.123C326.125 213.165 316.552 215.267 301.528 227.948C292.162 235.851 283.757 245.211 275.841 256.555C275.771 256.655 275.698 256.76 275.624 256.871C271.271 263.132 266.468 270.236 260.909 278.457C242.532 305.639 217.369 342.853 184.653 384.504C178.798 391.957 172.903 399.385 167.025 406.788C155.772 420.961 144.133 435.622 133.249 449.919L130.324 453.762C109.819 480.672 90.4461 506.094 65.7659 551.588C49.5774 581.428 44.7435 586.914 36.7233 596.019L36.4476 596.273C33.0105 598.681 29.8172 600.88 26.7928 602.966C6.46245 616.971 -5.80728 625.419 -33.4597 655.107C-49.3314 672.141 -63.2883 692.952 -78.066 714.984C-92.1494 735.981 -106.711 757.693 -123.985 777.669C-172.762 834.076 -224.61 863.593 -282.491 867.906C-282.778 867.929 -282.726 867.323 -282.37 866.553C-282.017 865.785 -281.488 865.133 -281.203 865.119C-223.585 860.823 -172.065 831.548 -123.696 775.606C-106.688 755.945 -92.2647 734.439 -78.3133 713.634C-63.3604 691.342 -49.2406 670.295 -33.047 652.91C-5.1418 622.956 7.9165 613.958 27.679 600.345C30.6631 598.289 33.8092 596.121 37.1932 593.753C44.7712 585.154 49.4426 579.783 65.0296 551.051C90.0759 504.881 109.646 479.195 130.362 452.008L133.284 448.174C144.215 433.812 155.873 419.13 167.15 404.926C173.018 397.536 178.908 390.118 184.754 382.674C217.311 341.226 242.379 304.153 260.681 277.08C266.259 268.835 271.075 261.709 275.458 255.402C275.534 255.29 275.613 255.178 275.688 255.07C283.911 243.286 292.603 233.594 302.244 225.462C317.557 212.538 327.242 210.406 336.611 208.341C344.243 206.661 351.455 205.074 361.415 198.023C374.389 188.84 387.363 174.684 402.242 153.474C402.385 153.268 402.535 153.057 402.679 152.851C429.594 114.281 460.814 50.3632 500.878 -48.1905C501.191 -48.959 501.712 -49.6771 502.05 -49.814C502.388 -49.9515 502.413 -49.4486 502.105 -48.6876C461.748 50.5828 430.184 115.143 402.832 154.339L402.833 154.337Z" fill="url(#paint8_linear_347_2211)"/>
<path d="M398.791 148.592C398.275 149.332 397.764 150.059 397.252 150.778C382.377 171.67 369.339 185.436 356.224 194.099C346.919 200.244 339.681 201.818 332.685 203.335C323.083 205.417 313.156 207.572 297.685 221.599C288.328 230.086 279.864 240.283 271.811 252.785C266.997 260.259 261.634 268.964 255.953 278.185C237.612 307.957 214.787 345.004 183.099 386.255C171.009 401.989 158.665 417.336 146.731 432.175C141.82 438.28 136.962 444.32 132.194 450.296C129.089 454.188 126.007 458.007 122.931 461.815C104.138 485.088 86.3901 507.076 64.6847 544.067C49.1765 570.506 43.1455 577.821 35.5 584.206C23.0261 594.625 14.0186 600.213 6.07372 605.139C-5.99801 612.629 -16.4261 619.098 -35.1463 639.281C-52.1955 657.661 -66.8129 680.32 -82.2897 704.316C-96.3588 726.122 -110.909 748.68 -128.215 769.37C-177.636 828.463 -230.419 857.746 -289.585 858.899C-289.85 858.903 -289.79 858.319 -289.448 857.591C-289.108 856.868 -288.617 856.269 -288.349 856.262C-229.447 855.115 -176.999 826.083 -128.005 767.504C-110.96 747.12 -96.5501 724.782 -82.6101 703.171C-66.9544 678.907 -52.1652 655.978 -34.7628 637.216C-15.7652 616.733 -5.23079 610.199 6.96994 602.629C15.2554 597.49 23.8233 592.175 36.1847 581.852C43.5625 575.685 49.0758 568.968 64.1566 543.265C86.1873 505.709 104.941 482.483 123.078 460.023C126.148 456.221 129.222 452.413 132.322 448.529C137.093 442.549 141.956 436.501 146.872 430.388C158.787 415.574 171.106 400.259 183.15 384.581C214.593 343.654 237.29 306.811 255.532 277.202C261.237 267.943 266.624 259.198 271.486 251.649C279.75 238.83 288.761 227.955 298.289 219.314C314.077 204.997 324.124 202.817 333.839 200.713C340.774 199.204 347.942 197.65 357.09 191.607C369.901 183.148 382.631 169.705 397.15 149.316C423.819 111.86 454.637 48.5264 494.026 -49.8499C494.31 -50.5609 494.809 -51.2616 495.13 -51.3922C495.452 -51.534 495.486 -51.0708 495.198 -50.3553C456.267 46.8757 425.573 110.231 398.793 148.59L398.791 148.592Z" fill="url(#paint9_linear_347_2211)"/>
<path d="M394.669 142.994C393.814 144.217 392.966 145.415 392.116 146.59C377.629 166.633 364.852 179.653 351.909 187.561C343.409 192.759 336.571 194.201 329.958 195.598C319.548 197.794 309.717 199.867 293.845 215.252C284.676 224.141 275.976 235.403 267.989 248.725C262.744 257.469 257.126 267.454 251.178 278.02C233.85 308.812 212.287 347.125 181.559 388.033C164.749 410.41 147.444 431.259 131.164 450.689C126.16 456.661 121.137 462.458 116.281 468.059C99.8361 487.03 82.8263 506.658 63.6084 536.552C49.0389 559.21 42.3538 566.351 34.4399 572.23C21.7631 581.647 12.8103 586.444 4.91351 590.674C-7.78236 597.479 -17.8104 602.851 -36.8311 623.446C-55.0574 643.176 -70.3021 667.681 -86.4253 693.601C-100.506 716.235 -115.065 739.639 -132.449 761.086C-182.489 822.832 -236.211 851.88 -296.682 849.886C-296.924 849.876 -296.86 849.316 -296.533 848.631C-296.216 847.959 -295.748 847.4 -295.503 847.408C-235.296 849.397 -181.913 820.608 -132.308 759.399C-115.174 738.257 -100.756 715.077 -86.8045 692.651C-70.4853 666.423 -55.0716 641.644 -36.4773 621.511C-17.1528 600.588 -7.01764 595.158 5.81755 588.278C13.6789 584.067 22.5865 579.295 35.1765 569.941C42.7621 564.305 49.1941 557.433 63.2974 535.496C82.7952 505.164 99.9495 485.37 116.537 466.231C121.379 460.649 126.387 454.868 131.366 448.926C147.598 429.555 164.845 408.776 181.562 386.525C212 345.99 233.394 307.981 250.594 277.417C256.576 266.793 262.224 256.754 267.532 247.904C275.848 234.04 284.861 222.367 294.339 213.174C310.554 197.457 320.97 195.262 331.043 193.134C337.602 191.751 344.388 190.316 352.756 185.203C365.418 177.466 377.901 164.748 392.048 145.179C426.851 97.0073 462.992 9.8913 487.162 -51.4817C487.429 -52.1542 487.889 -52.8104 488.2 -52.954C488.508 -53.0939 488.546 -52.6706 488.285 -52.0031C450.812 43.1513 420.966 105.344 394.668 142.997L394.669 142.994Z" fill="url(#paint10_linear_347_2211)"/>
<path d="M390.898 136.939C389.53 138.897 388.226 140.71 386.984 142.4C372.885 161.604 360.367 173.88 347.596 181.027C339.875 185.344 333.45 186.645 327.236 187.905C316.443 190.09 306.247 192.16 290.003 208.909C280.88 218.312 272.179 230.36 264.156 244.689C258.528 254.74 252.729 265.998 246.59 277.916C230.239 309.664 209.89 349.167 180.036 389.836C165.94 409.035 150.092 428.498 130.164 451.085C123.36 458.797 116.56 466.015 109.986 472.992C95.0347 488.857 79.5762 505.265 62.5459 529.025C48.8671 548.109 41.5028 554.917 33.4091 560.221C20.4892 568.693 11.5088 572.763 3.58464 576.352C-9.72141 582.387 -19.3335 586.742 -38.502 607.583C-57.8954 628.667 -73.7345 654.995 -90.4972 682.861C-104.611 706.321 -119.207 730.583 -136.682 752.8C-187.323 817.182 -241.983 845.99 -303.781 840.865C-304.002 840.844 -303.933 840.308 -303.624 839.67C-303.324 839.039 -302.891 838.534 -302.664 838.547C-241.125 843.656 -186.802 815.107 -136.598 751.278C-119.388 729.396 -104.909 705.334 -90.9158 682.074C-73.9666 653.9 -57.9571 627.283 -38.1787 605.778C-18.6899 584.59 -8.46395 579.954 4.48023 574.088C12.3739 570.508 21.3186 566.455 34.1684 558.031C42.0188 552.886 49.1683 546.276 62.4648 527.722C79.7136 503.658 95.2816 487.139 110.338 471.154C116.893 464.201 123.67 457.008 130.427 449.35C150.254 426.875 166.004 407.532 179.999 388.473C209.485 348.33 228.831 310.758 245.89 277.635C252.066 265.644 257.898 254.321 263.603 244.135C271.936 229.258 280.951 216.772 290.395 207.032C307.007 189.904 317.33 187.808 328.257 185.593C334.427 184.341 340.807 183.052 348.427 178.787C360.935 171.791 373.174 159.795 386.947 141.037C421.576 93.8864 456.807 7.64051 480.302 -53.1294C480.547 -53.7556 480.977 -54.371 481.272 -54.5202C481.567 -54.6689 481.608 -54.2778 481.369 -53.6592C435.601 64.7217 408.099 112.319 390.899 136.935L390.898 136.939Z" fill="url(#paint11_linear_347_2211)"/>
<path d="M386.745 131.453C385.021 133.92 383.395 136.158 381.86 138.215C368.146 156.595 355.892 168.12 343.296 174.482C336.32 178.008 330.327 179.156 324.534 180.264C313.342 182.404 302.771 184.426 286.17 202.572C277.058 212.53 268.358 225.358 260.319 240.688C254.358 252.056 248.45 264.574 242.193 277.834C225.962 312.23 207.572 351.234 178.536 391.673C164.107 411.785 147.966 431.356 129.192 451.506C120.537 460.797 111.916 469.098 103.577 477.129C90.2031 490.009 76.3731 503.323 61.5078 521.484C48.6537 537.185 40.578 543.521 32.4034 548.208C19.1993 555.776 10.1338 559.157 2.13904 562.135C-11.2673 567.131 -20.9553 570.745 -40.1579 591.708C-60.7236 614.159 -77.1335 642.306 -94.5091 672.108C-108.671 696.395 -123.315 721.517 -140.909 744.524C-192.135 811.529 -247.73 840.093 -310.868 831.84C-311.072 831.815 -311.003 831.313 -310.711 830.715C-310.43 830.131 -310.024 829.662 -309.82 829.689C-274.949 834.246 -241.533 827.109 -210.502 808.481C-186.012 793.78 -163.237 772.417 -140.876 743.168C-123.539 720.497 -109.003 695.565 -94.9563 671.471C-77.3894 641.346 -60.7982 612.888 -39.8639 590.037C-20.3287 568.713 -10.5379 565.063 3.01312 560.012C10.9872 557.037 20.0224 553.668 33.1658 546.136C41.1725 541.549 49.0803 535.346 61.6454 519.995C76.6634 501.65 90.5653 488.264 104.013 475.312C112.321 467.313 120.914 459.039 129.509 449.814C148.153 429.8 164.165 410.389 178.459 390.469C207.172 350.425 225.327 311.921 241.414 277.831C247.706 264.497 253.653 251.896 259.695 240.374C268.019 224.502 277.026 211.221 286.464 200.903C303.454 182.331 314.157 180.286 325.487 178.118C331.247 177.018 337.203 175.878 344.098 172.394C356.451 166.152 368.449 154.876 381.85 136.916C416.406 90.6092 450.681 5.33804 473.442 -54.7484C473.66 -55.3267 474.063 -55.9142 474.34 -56.0614C474.62 -56.2083 474.666 -55.8561 474.448 -55.279C430.949 59.5564 403.937 106.858 386.744 131.454L386.745 131.453Z" fill="url(#paint12_linear_347_2211)"/>
<path d="M381.966 126.843C380.226 129.332 378.488 131.724 376.741 134.027C363.23 151.838 351.59 162.298 339.003 167.938C332.751 170.747 327.218 171.719 321.866 172.663C310.259 174.714 299.297 176.65 282.346 196.229C273.222 206.765 264.516 220.386 256.483 236.703C250.241 249.383 244.278 263.166 237.963 277.757C222.701 313.029 205.408 352.987 177.331 393.143C177.238 393.275 177.15 393.4 177.057 393.53C162.496 414.303 146.533 433.408 128.259 451.926C117.412 462.921 106.631 472.165 96.2046 481.11C84.7424 490.941 72.8941 501.102 60.5079 513.894C47.6481 527.177 38.9329 532.445 31.4318 536.164C17.8899 542.871 8.2955 545.699 0.583479 547.973C-13.4096 552.097 -22.6532 554.822 -41.7949 575.802C-63.5321 599.632 -80.5057 629.607 -98.4795 661.347C-112.701 686.46 -127.403 712.414 -145.118 736.234C-167.912 766.868 -191.174 788.995 -216.237 803.882C-247.978 822.74 -282.198 829.105 -317.95 822.805C-318.133 822.772 -318.063 822.299 -317.791 821.749C-317.519 821.2 -317.152 820.779 -316.966 820.809C-281.294 827.098 -247.171 820.761 -215.546 801.973C-190.694 787.209 -167.662 765.314 -145.133 735.035C-127.654 711.542 -113.058 685.77 -98.9424 660.842C-80.7835 628.776 -63.6339 598.495 -41.531 574.265C-22.0514 552.912 -12.7101 550.159 1.4266 545.994C9.11758 543.728 18.6907 540.905 32.1815 534.221C39.5869 530.549 48.1839 525.356 60.8385 512.286C73.3116 499.404 85.2031 489.203 96.7023 479.342C107.57 470.022 117.838 461.213 128.608 450.3C146.734 431.931 162.546 413.011 176.95 392.464L177.215 392.084C204.889 352.509 222.022 312.915 237.143 277.97C243.496 263.29 249.492 249.431 255.817 236.585C264.108 219.742 273.104 205.67 282.549 194.759C299.91 174.708 311.005 172.752 322.755 170.673C328.081 169.733 333.59 168.757 339.779 165.986C352.14 160.441 363.547 150.204 376.757 132.79C411.445 87.0854 444.608 2.96501 466.58 -56.371C466.775 -56.899 467.148 -57.4499 467.412 -57.6001C467.673 -57.7476 467.725 -57.4347 467.529 -56.9056C446.502 -0.118209 415.212 79.3017 381.968 126.843L381.966 126.843Z" fill="url(#paint13_linear_347_2211)"/>
<path d="M377.769 121.472C375.734 124.381 373.686 127.175 371.626 129.845C358.51 146.839 347.127 156.57 334.716 161.398C329.173 163.55 324.126 164.346 319.242 165.117C307.208 167.018 295.842 168.815 278.519 189.899C269.236 201.196 260.759 215.225 252.641 232.751C246.164 246.736 240.191 261.773 233.869 277.696C219.437 314.039 203.079 355.227 175.599 395.417C161.259 416.331 144.993 435.542 127.347 452.37C113.441 465.631 100.219 475.41 86.2221 485.761C77.5558 492.172 68.5962 498.795 59.5432 506.277C47.4103 516.301 38.0409 520.92 30.4776 524.111C16.5493 529.995 6.77995 532.137 -1.07109 533.859C-15.6299 537.046 -24.4192 538.973 -43.4312 559.895C-66.3333 585.1 -83.8688 616.917 -102.431 650.609C-116.716 676.537 -131.436 703.266 -149.332 727.959C-172.294 759.626 -195.812 782.286 -221.232 797.234C-253.558 816.242 -288.481 821.805 -325.031 813.767C-325.199 813.733 -325.129 813.292 -324.877 812.785C-324.636 812.298 -324.287 811.898 -324.122 811.939C-287.644 819.96 -252.809 814.418 -220.59 795.472C-195.381 780.65 -172.087 758.22 -149.381 726.904C-131.764 702.606 -117.086 675.971 -102.895 650.214C-84.1648 616.217 -66.4661 584.095 -43.1908 558.483C-23.8458 537.193 -14.9707 535.25 -0.265644 532.026C7.566 530.312 17.3133 528.178 31.1997 522.311C38.7083 519.142 48.0056 514.562 60.0229 504.631C69.1087 497.128 78.085 490.489 86.7661 484.068C100.721 473.745 113.902 463.997 127.723 450.818C144.382 434.934 159.753 416.972 173.445 397.4C174.123 396.43 174.795 395.46 175.46 394.487C202.524 354.912 218.738 314.086 233.043 278.06C239.398 262.059 245.4 246.944 251.956 232.789C260.311 214.757 269.036 200.312 278.639 188.621C296.381 167.032 307.885 165.211 320.064 163.288C324.925 162.52 329.955 161.728 335.455 159.588C347.658 154.844 358.825 145.309 371.664 128.674C397.823 94.7949 426.614 33.7371 459.713 -57.98C459.885 -58.464 460.23 -58.9801 460.474 -59.1241C460.72 -59.2711 460.777 -58.9968 460.602 -58.5142C440.577 -3.02289 410.707 74.3855 377.769 121.472Z" fill="url(#paint14_linear_347_2211)"/>
<path d="M373.479 116.254C371.143 119.593 368.823 122.726 366.516 125.662C350.201 146.428 338.666 152.164 330.439 154.844C325.585 156.429 321.048 157.037 316.66 157.632C304.192 159.312 292.415 160.902 274.696 183.569C265.343 195.541 256.873 210.335 248.796 228.824C242.125 244.107 236.186 260.414 229.898 277.676C216.307 314.996 200.904 357.292 174.155 397.335C159.94 418.574 143.905 437.24 126.466 452.826C107.246 470.004 88.1396 481.23 69.6627 492.088C65.9788 494.253 62.3004 496.413 58.6243 498.618C47.3511 505.377 37.5977 509.2 29.5436 512.048C15.1786 517.123 5.20348 518.582 -2.80699 519.746C-17.4149 521.882 -26.23 523.167 -45.0501 543.96C-69.1385 570.58 -87.2201 604.243 -106.365 639.891C-120.723 666.631 -135.572 694.304 -153.538 719.681C-176.344 751.922 -200.799 775.777 -226.218 790.574C-259.127 809.737 -294.757 814.5 -332.113 804.728C-332.262 804.689 -332.196 804.283 -331.964 803.822C-331.73 803.359 -331.425 803.02 -331.275 803.059C-293.987 812.815 -258.442 808.073 -225.631 788.969C-200.409 774.282 -176.182 750.666 -153.616 718.764C-153.251 718.248 -152.886 717.73 -152.523 717.21C-135.242 692.517 -120.8 665.622 -106.823 639.594C-87.5129 603.634 -69.2789 569.68 -44.8345 542.675C-25.6931 521.525 -16.7973 520.231 -2.05743 518.08C5.94298 516.912 15.897 515.461 30.231 510.392C38.2584 507.556 47.978 503.747 59.2032 497.015C62.8793 494.81 66.5609 492.648 70.2448 490.482C88.6771 479.652 107.739 468.453 126.852 451.371C144.121 435.934 159.975 417.495 173.996 396.535C200.339 357.102 215.614 315.16 229.092 278.151C235.406 260.808 241.371 244.428 248.117 228.982C256.395 210.023 265.108 194.811 274.742 182.486C292.892 159.266 304.803 157.661 317.414 155.963C321.785 155.376 326.311 154.76 331.133 153.191C339.235 150.552 350.586 144.914 366.568 124.57C392.969 90.9784 421.178 30.7519 452.847 -59.5809C453.004 -60.0265 453.311 -60.4933 453.539 -60.6376C453.767 -60.7817 453.826 -60.5461 453.674 -60.1102C424.542 22.988 398.223 80.8936 373.477 116.256L373.479 116.254Z" fill="url(#paint15_linear_347_2211)"/>
<path d="M167.601 408.21C121.232 474.427 67.9114 489.788 28.5887 501.115C13.7032 505.404 3.48448 506.164 -4.72627 506.776C-19.8739 507.906 -28.2162 508.525 -46.8187 529.148C-72.1377 557.214 -90.7855 592.783 -110.527 630.439C-124.978 658.004 -139.923 686.511 -158.04 712.727C-181.047 746.076 -205.798 770.439 -231.61 785.305C-265.15 804.624 -301.543 808.566 -339.78 797.023C-339.911 796.981 -339.85 796.613 -339.638 796.195C-339.435 795.786 -339.151 795.475 -339.017 795.515C-300.842 807.042 -264.526 803.118 -231.078 783.852C-205.954 769.382 -181.865 745.83 -159.468 713.849C-159.024 713.214 -158.585 712.582 -158.144 711.945C-140.208 685.99 -125.344 657.638 -110.969 630.219C-91.0781 592.277 -72.2946 556.438 -46.6325 527.996C-27.7212 507.03 -19.3065 506.404 -4.03033 505.264C4.17069 504.652 14.3739 503.894 29.2315 499.609C69.9152 487.892 125.622 471.893 172.728 399.693C198.414 360.339 212.181 319.084 225.496 279.188C238.166 241.225 250.119 205.38 271.143 177.186C289.753 152.221 302.093 150.916 315.157 149.538C328.109 148.173 341.502 146.76 361.898 121.292C388.309 88.3158 416.76 27.1473 446.5 -60.5558C446.633 -60.9469 446.912 -61.3829 447.122 -61.5231C447.334 -61.6698 447.394 -61.4627 447.262 -61.0742C417.329 27.1972 388.584 88.8914 361.829 122.306C341.055 148.246 327.538 149.674 314.464 151.055C301.544 152.415 289.335 153.705 271.152 178.098C270.241 179.322 269.343 180.565 268.461 181.825C249.578 208.788 238.24 242.764 226.264 278.654C212.846 318.854 198.973 360.421 172.901 400.37C171.144 403.063 169.376 405.675 167.599 408.211L167.601 408.21Z" fill="url(#paint16_linear_347_2211)"/>
</g>
<defs>
<linearGradient id="paint0_linear_347_2211" x1="456.358" y1="138.034" x2="7.74084" y2="981.154" gradientUnits="userSpaceOnUse">
<stop stop-color="white"/>
<stop offset="0.397379" stop-color="#FFBBB7"/>
<stop offset="0.701224" stop-color="white"/>
</linearGradient>
<linearGradient id="paint1_linear_347_2211" x1="449.398" y1="135.091" x2="-33.1066" y2="962.441" gradientUnits="userSpaceOnUse">
<stop stop-color="white"/>
<stop offset="0.397379" stop-color="#FFBBB7"/>
<stop offset="0.701224" stop-color="white"/>
</linearGradient>
<linearGradient id="paint2_linear_347_2211" x1="442.434" y1="132.112" x2="-70.7619" y2="942.178" gradientUnits="userSpaceOnUse">
<stop stop-color="white"/>
<stop offset="0.397379" stop-color="#FFBBB7"/>
<stop offset="0.701224" stop-color="white"/>
</linearGradient>
<linearGradient id="paint3_linear_347_2211" x1="435.469" y1="129.19" x2="-105.737" y2="920.677" gradientUnits="userSpaceOnUse">
<stop stop-color="white"/>
<stop offset="0.397379" stop-color="#FFBBB7"/>
<stop offset="0.701224" stop-color="white"/>
</linearGradient>
<linearGradient id="paint4_linear_347_2211" x1="428.508" y1="126.305" x2="-138.068" y2="898.299" gradientUnits="userSpaceOnUse">
<stop stop-color="white"/>
<stop offset="0.397379" stop-color="#FFBBB7"/>
<stop offset="0.701224" stop-color="white"/>
</linearGradient>
<linearGradient id="paint5_linear_347_2211" x1="421.555" y1="123.469" x2="-167.88" y2="875.369" gradientUnits="userSpaceOnUse">
<stop stop-color="white"/>
<stop offset="0.397379" stop-color="#FFBBB7"/>
<stop offset="0.701224" stop-color="white"/>
</linearGradient>
<linearGradient id="paint6_linear_347_2211" x1="414.6" y1="120.676" x2="-195.285" y2="852.17" gradientUnits="userSpaceOnUse">
<stop stop-color="white"/>
<stop offset="0.397379" stop-color="#FFBBB7"/>
<stop offset="0.701224" stop-color="white"/>
</linearGradient>
<linearGradient id="paint7_linear_347_2211" x1="407.649" y1="117.912" x2="-220.45" y2="828.923" gradientUnits="userSpaceOnUse">
<stop stop-color="white"/>
<stop offset="0.397379" stop-color="#FFBBB7"/>
<stop offset="0.701224" stop-color="white"/>
</linearGradient>
<linearGradient id="paint8_linear_347_2211" x1="400.701" y1="115.188" x2="-243.518" y2="805.834" gradientUnits="userSpaceOnUse">
<stop stop-color="white"/>
<stop offset="0.397379" stop-color="#FFBBB7"/>
<stop offset="0.701224" stop-color="white"/>
</linearGradient>
<linearGradient id="paint9_linear_347_2211" x1="393.758" y1="112.482" x2="-264.64" y2="783.079" gradientUnits="userSpaceOnUse">
<stop stop-color="white"/>
<stop offset="0.397379" stop-color="#FFBBB7"/>
<stop offset="0.701224" stop-color="white"/>
</linearGradient>
<linearGradient id="paint10_linear_347_2211" x1="386.808" y1="109.809" x2="-284.03" y2="760.742" gradientUnits="userSpaceOnUse">
<stop stop-color="white"/>
<stop offset="0.397379" stop-color="#FFBBB7"/>
<stop offset="0.701224" stop-color="white"/>
</linearGradient>
<linearGradient id="paint11_linear_347_2211" x1="379.863" y1="107.159" x2="-301.861" y2="738.895" gradientUnits="userSpaceOnUse">
<stop stop-color="white"/>
<stop offset="0.397379" stop-color="#FFBBB7"/>
<stop offset="0.701224" stop-color="white"/>
</linearGradient>
<linearGradient id="paint12_linear_347_2211" x1="372.913" y1="104.533" x2="-318.232" y2="717.668" gradientUnits="userSpaceOnUse">
<stop stop-color="white"/>
<stop offset="0.397379" stop-color="#FFBBB7"/>
<stop offset="0.701224" stop-color="white"/>
</linearGradient>
<linearGradient id="paint13_linear_347_2211" x1="365.964" y1="101.888" x2="-333.272" y2="697.13" gradientUnits="userSpaceOnUse">
<stop stop-color="white"/>
<stop offset="0.397379" stop-color="#FFBBB7"/>
<stop offset="0.701224" stop-color="white"/>
</linearGradient>
<linearGradient id="paint14_linear_347_2211" x1="359.012" y1="99.2972" x2="-347.22" y2="677.178" gradientUnits="userSpaceOnUse">
<stop stop-color="white"/>
<stop offset="0.397379" stop-color="#FFBBB7"/>
<stop offset="0.701224" stop-color="white"/>
</linearGradient>
<linearGradient id="paint15_linear_347_2211" x1="352.06" y1="96.7226" x2="-360.146" y2="657.897" gradientUnits="userSpaceOnUse">
<stop stop-color="white"/>
<stop offset="0.397379" stop-color="#FFBBB7"/>
<stop offset="0.701224" stop-color="white"/>
</linearGradient>
<linearGradient id="paint16_linear_347_2211" x1="346.117" y1="100.684" x2="-377.112" y2="630.999" gradientUnits="userSpaceOnUse">
<stop stop-color="white"/>
<stop offset="0.397379" stop-color="#FFBBB7"/>
<stop offset="0.701224" stop-color="white"/>
</linearGradient>
</defs>
</svg>
