<svg width="1438" height="695" viewBox="0 0 1438 695" fill="none" xmlns="http://www.w3.org/2000/svg">
<path d="M1560.29 108.54C1543.39 131.599 1524.7 150.847 1504.25 166.23C1465.89 195.081 1436.25 199.359 1395.22 205.285C1360.43 210.31 1317.11 216.564 1251.59 239.32C1120.53 284.828 954.746 362.779 909.182 475.696C890.157 522.842 893.795 577.576 901.027 686.617C903.372 722.023 906.414 741.835 908.43 754.944C910.423 767.952 911.527 775.116 910.213 785.121C897.999 878.113 705.959 1002 323.079 1163.94C321.701 1164.52 320.457 1163.91 320.302 1162.57C320.152 1161.23 321.154 1159.66 322.529 1159.08C697.519 1000.48 893.564 874.927 905.236 785.99C906.446 776.729 905.387 769.808 903.455 757.241C901.429 744.048 898.369 724.121 896.007 688.516C888.721 578.636 885.061 523.481 904.622 474.984C942.038 382.212 1058.73 301.23 1251.41 234.314C1317.43 211.387 1361.02 205.091 1396.05 200.036C1437.72 194.015 1465.24 190.042 1502.24 162.218C1584.83 100.105 1638.09 -27.3343 1660.56 -216.551C1660.73 -217.994 1661.99 -219.369 1663.36 -219.628C1664.74 -219.888 1665.72 -218.929 1665.55 -217.488C1648.36 -72.6685 1613.05 36.5303 1560.29 108.544L1560.29 108.54Z" fill="url(#paint0_linear_347_2583)"/>
<path d="M1540.17 100.509C1522.4 124.737 1502.72 144.455 1480.53 160.343C1444.01 186.49 1416.05 190.899 1377.35 197.016C1356.67 200.278 1333.22 203.982 1303.94 211.817C1287.66 216.177 1262.57 223.422 1232.85 235.996L1226.38 238.721C1180.55 257.978 1073.24 303.085 990.059 372.454C949.598 406.149 921.017 441.126 905.098 476.412C883.881 523.457 883.189 576.571 886.653 678.38C887.629 707.17 889.433 724.677 890.746 737.465C892.434 753.852 893.206 761.333 889.944 772.476C879.741 807.322 846.185 844.946 781.103 894.468L772.249 901.218C733.601 930.687 689.797 964.089 628.663 999.874C535.526 1054.36 420.48 1106.98 286.704 1156.25C285.375 1156.74 284.229 1156.07 284.157 1154.75C284.087 1153.43 285.103 1151.97 286.436 1151.47C419.866 1102.33 534.579 1049.87 627.389 995.563C688.164 960.004 731.781 926.739 770.267 897.393L779.129 890.632C842.84 842.157 875.597 805.706 885.337 772.411C888.28 762.337 887.548 755.165 885.931 739.446C884.607 726.597 882.793 709 881.807 680.05C878.32 577.374 879.06 523.718 900.819 475.473C917.204 439.142 946.481 403.247 987.833 368.834C1071.81 298.788 1179.76 253.415 1225.85 234.041L1232.31 231.319C1262.37 218.615 1287.71 211.29 1304.16 206.889C1333.69 198.982 1357.28 195.258 1378.08 191.978C1416.02 185.985 1443.43 181.659 1478.72 156.394C1507.82 135.557 1532.53 107.866 1554.24 71.7401C1594.13 5.38034 1621.28 -91.4705 1634.93 -216.134C1635.09 -217.522 1636.27 -218.845 1637.62 -219.113C1638.94 -219.37 1639.9 -218.466 1639.74 -217.084C1625.99 -91.5268 1598.53 6.21658 1558.13 73.4335C1552.36 83.0256 1546.38 92.047 1540.17 100.511L1540.17 100.509Z" fill="url(#paint1_linear_347_2583)"/>
<path d="M1519.82 92.6655C1501.18 118.053 1480.41 138.391 1456.81 154.446C1422.12 178.048 1394.31 182.745 1359.11 188.702C1337.43 192.365 1312.85 196.519 1282.09 205.936C1263 211.773 1240 219.509 1214.14 232.649C1210.8 234.342 1206.94 236.277 1202.62 238.437C1157.61 260.963 1063.94 307.832 986.274 374.796C946.821 408.701 918.172 443.129 901.119 477.132C879.58 520.096 872.588 566.991 872.344 670.127C872.282 693.401 873.065 709.166 873.636 720.676C874.589 740.037 874.987 748.047 869.656 759.76C854.946 792.038 824.644 822.774 753.86 877.188C740.815 887.218 727.984 897.797 714.403 909.001C683.669 934.347 648.83 963.073 602.896 991.891C507.422 1051.79 392.106 1103.03 250.367 1148.51C249.08 1148.93 248.031 1148.22 248.018 1146.93C248.001 1145.65 249.041 1144.27 250.318 1143.86C391.593 1098.51 506.465 1047.49 601.5 987.863C647.064 959.285 681.713 930.711 712.28 905.502C725.912 894.26 738.791 883.642 751.932 873.539C821.664 819.932 851.401 789.909 865.548 758.84C870.283 748.451 869.928 741.345 868.993 722.349C868.418 710.788 867.633 694.95 867.689 671.562C867.939 567.453 875.091 519.927 897.133 475.973C914.601 441.118 943.845 405.927 984.047 371.39C1062.36 303.864 1156.51 256.756 1201.77 234.11C1206.07 231.957 1209.92 230.032 1213.24 228.344C1239.51 215 1262.8 207.158 1282.11 201.25C1313.19 191.746 1337.94 187.559 1359.76 183.872C1394.31 178.024 1421.61 173.411 1455.2 150.561C1484.5 130.634 1509.34 103.844 1531.14 68.712C1570.51 5.25009 1596.81 -90.4459 1609.3 -215.718C1609.42 -217.027 1610.57 -218.329 1611.85 -218.593C1613.13 -218.86 1614.06 -217.998 1613.93 -216.672C1601.34 -90.4946 1574.73 6.09613 1534.82 70.422C1529.97 78.2333 1524.98 85.6423 1519.83 92.6611L1519.82 92.6655Z" fill="url(#paint2_linear_347_2583)"/>
<path d="M1499.48 85.0354C1480.02 111.505 1458.17 132.39 1433.13 148.547C1400.22 169.767 1372.56 174.688 1340.53 180.386C1317.89 184.414 1292.25 188.983 1260.27 200.041C1240.36 206.932 1218.74 215.248 1195.49 229.302C1191.15 231.92 1185.98 234.983 1180.08 238.467C1136.53 264.223 1055.48 312.154 982.627 377.161C943.539 411.858 915.615 444.811 897.279 477.863C872.323 522.829 862.078 570.982 858.107 661.892C857.581 673.887 857.226 683.765 856.928 692.032C855.779 723.824 855.47 732.368 849.636 746.489L849.432 746.98L849.073 747.402C820.888 780.344 791.821 809.321 726.639 859.898C708.875 873.687 692.421 888.665 674.995 904.528C646.731 930.253 617.505 956.861 577.166 983.914C481.942 1047.78 363.161 1099.1 214.04 1140.78C212.807 1141.13 211.842 1140.39 211.88 1139.14C211.922 1137.9 212.933 1136.62 214.178 1136.26C362.727 1094.74 480.967 1043.68 575.657 980.173C615.593 953.388 644.625 926.955 672.709 901.397C690.235 885.44 706.787 870.377 724.762 856.426C789.196 806.421 818.036 777.755 845.807 745.324C851.051 732.461 851.333 724.697 852.469 693.252C852.767 684.977 853.127 675.093 853.651 663.075C857.662 571.228 868.106 522.407 893.576 476.519C912.332 442.729 940.722 409.202 980.393 373.975C1053.73 308.543 1135.14 260.402 1178.88 234.531C1184.76 231.052 1189.91 228.007 1194.23 225.396C1217.96 211.054 1239.92 202.612 1260.12 195.62C1292.46 184.434 1318.31 179.833 1341.12 175.772C1373.89 169.937 1399.78 165.33 1431.71 144.743C1461.24 125.699 1486.21 99.8516 1508.06 65.7112C1547.03 4.82122 1572.47 -89.7127 1583.68 -215.272C1583.79 -216.527 1584.87 -217.78 1586.1 -218.046C1587.33 -218.313 1588.23 -217.507 1588.13 -216.238C1576.83 -89.7741 1551.07 5.67116 1511.54 67.4297C1507.62 73.5526 1503.6 79.4221 1499.48 85.0376L1499.48 85.0354Z" fill="url(#paint3_linear_347_2583)"/>
<path d="M1479.08 77.6607C1458.86 105.134 1435.98 126.477 1409.47 142.644C1378.31 161.646 1352.06 166.495 1321.66 172.111C1298.1 176.467 1271.39 181.397 1238.49 194.162C1219.05 201.706 1198.12 210.778 1176.88 225.943C1171.88 229.512 1165.85 233.731 1158.94 238.56C1117.42 267.574 1047.91 316.147 979.09 379.556C940.648 414.985 912.671 447.385 893.555 478.621C869.798 517.456 852.266 562.081 843.947 653.66L843.647 657.027C838.928 709.067 838.206 717.067 829.497 733.579L829.221 734.095L828.78 734.497C797.15 763.14 767.53 789.29 699.438 842.594C678.356 859.094 660.203 877.366 640.987 896.702C615.306 922.551 588.744 949.282 551.458 975.948C457.009 1043.5 334.758 1094.88 177.73 1133.03C176.558 1133.31 175.666 1132.57 175.746 1131.36C175.823 1130.17 176.832 1128.96 178.018 1128.67C334.389 1090.68 456.022 1039.59 549.861 972.481C586.7 946.125 613.063 919.597 638.55 893.946C657.917 874.455 676.208 856.044 697.618 839.281C765.222 786.367 794.788 760.289 826.161 731.889C834.064 716.752 834.809 708.505 839.397 657.944L839.705 654.573C846.993 574.276 861.141 524.51 890.152 477.089C909.594 445.316 937.959 412.439 976.866 376.593C1046.02 312.884 1115.75 264.156 1157.4 235.045C1164.29 230.224 1170.3 226.024 1175.28 222.468C1197.06 206.918 1218.38 197.672 1238.17 189.994C1271.49 177.063 1298.43 172.085 1322.19 167.697C1352.11 162.172 1377.95 157.398 1408.25 138.921C1438.04 120.753 1463.16 95.8279 1485.02 62.706C1524.25 3.2884 1548.15 -87.4879 1558.08 -214.826C1558.18 -216.029 1559.22 -217.235 1560.38 -217.5C1561.55 -217.765 1562.43 -217.007 1562.34 -215.797C1552.33 -87.5337 1528.11 4.12506 1488.3 64.4246C1485.29 68.9891 1482.22 73.3951 1479.08 77.6583L1479.08 77.6607Z" fill="url(#paint4_linear_347_2583)"/>
<path d="M1458.61 70.5874C1437.72 98.9478 1413.84 120.649 1385.86 136.738C1356.38 153.691 1330.21 158.652 1302.51 163.894C1276.83 168.761 1250.29 173.788 1216.75 188.28C1197.95 196.404 1177.85 206.183 1158.32 222.592C1152.74 227.275 1146.02 232.828 1138.33 239.193C1101.76 269.433 1040.55 320.045 975.681 381.98C937.133 418.788 909.882 449.742 889.962 479.379C862.409 520.361 841.649 564.282 829.869 645.448C822.348 697.31 819.676 704.91 809.393 720.635L809.079 721.12L806.992 722.654C765.986 752.866 736.355 774.694 672.262 825.267C648.42 844.078 629.438 865.173 609.34 887.501C585.608 913.87 561.073 941.136 525.785 967.989C432.384 1039.06 306.662 1090.51 141.434 1125.28C140.316 1125.52 139.498 1124.77 139.609 1123.61C139.717 1122.46 140.716 1121.33 141.836 1121.09C306.331 1086.48 431.375 1035.34 524.109 964.784C558.922 938.286 583.258 911.247 606.796 885.1C627.08 862.561 646.237 841.27 670.498 822.13C734.675 771.495 764.333 749.636 805.388 719.392L806.555 718.535C815.989 704.039 818.553 696.322 825.833 646.076C837.762 563.913 858.854 519.344 886.851 477.697C907.053 447.672 934.575 416.372 973.472 379.234C1038.51 317.139 1099.82 266.434 1136.46 236.141C1144.14 229.792 1150.84 224.246 1156.41 219.565C1176.58 202.629 1197.98 192.271 1216.25 184.377C1250.28 169.673 1278.28 164.367 1302.99 159.688C1331.48 154.29 1356.09 149.63 1384.81 133.11C1414.9 115.805 1440.12 91.8264 1462 59.7204C1501.06 2.36896 1524.12 -87.2836 1532.5 -214.359C1532.58 -215.512 1533.55 -216.663 1534.67 -216.931C1535.8 -217.204 1536.65 -216.488 1536.58 -215.342C1528.13 -87.3281 1504.74 3.20486 1465.08 61.4347C1462.96 64.5576 1460.81 67.6061 1458.61 70.5831L1458.61 70.5874Z" fill="url(#paint5_linear_347_2583)"/>
<path d="M1438.04 63.8287C1416.57 92.9514 1391.73 114.901 1362.27 130.828C1334.41 145.891 1309.51 150.683 1283.14 155.751C1256.5 160.876 1228.94 166.174 1195.05 182.397C1177.85 190.631 1157.85 201.443 1139.8 219.238L1115.18 243.49C1081.89 276.262 1031.59 325.791 972.405 384.435C944.287 412.287 912.1 445.436 886.547 480.095L886.499 480.159C853.868 524.434 830.667 566.162 815.859 637.247C805.915 685.028 801.303 692.617 789.333 707.659L788.571 708.338L782.673 711.994C736.758 740.407 706.434 759.179 645.105 807.933C618.787 828.861 599.431 852.545 578.95 877.623C556.828 904.702 533.953 932.703 500.134 960.033C407.951 1034.53 278.755 1086.04 105.159 1117.53C104.098 1117.72 103.344 1116.98 103.477 1115.87C103.622 1114.76 104.585 1113.71 105.65 1113.52C278.453 1082.18 406.923 1031.02 498.4 957.089C531.725 930.153 554.404 902.404 576.326 875.56C597.026 850.22 616.574 826.292 643.406 804.965C704.997 755.993 735.438 737.155 781.518 708.636L786.99 705.25C798.04 691.323 802.456 683.734 812.072 637.577C827.07 565.546 850.596 523.246 883.694 478.346L883.741 478.281C909.542 443.287 941.93 409.925 970.219 381.899C1029.41 323.25 1079.72 273.717 1113 240.942L1137.62 216.69C1156.28 198.296 1176.8 187.194 1194.4 178.764C1228.84 162.288 1256.67 156.934 1283.59 151.756C1309.62 146.751 1334.19 142.03 1361.39 127.316C1391.83 110.859 1417.25 87.8578 1439.01 56.7565C1478.01 1.24482 1500.23 -87.2812 1506.95 -213.876C1507.01 -214.961 1507.93 -216.071 1509 -216.341C1510.07 -216.614 1510.89 -215.95 1510.83 -214.863C1504.06 -87.3313 1481.51 2.07046 1441.91 58.456C1440.63 60.2725 1439.34 62.0682 1438.04 63.831L1438.04 63.8287Z" fill="url(#paint6_linear_347_2583)"/>
<path d="M1417.34 57.4062C1395.39 87.1511 1369.65 109.247 1338.72 124.917C1312.42 138.241 1288.71 142.826 1263.6 147.689C1235.95 153.036 1207.38 158.568 1173.37 176.518C1150.7 188.487 1134.15 201 1121.29 215.887C1115.09 223.072 1108.02 231.442 1100.06 240.881C1069.35 277.29 1027.29 327.152 969.234 386.912C939.55 417.475 908.851 449.075 883.159 480.942C848.807 523.539 820.993 561.536 801.912 629.051C789.8 671.916 783.16 680.133 769.324 694.615L768.634 695.144L754.211 702.805C706.72 727.985 675.347 744.622 617.972 790.571C589.32 813.514 569.898 839.657 549.334 867.331C528.604 895.237 507.17 924.088 474.512 952.071C383.646 1029.92 250.963 1081.5 68.8823 1109.76C67.878 1109.92 67.1847 1109.19 67.3398 1108.14C67.4913 1107.08 68.4289 1106.1 69.4446 1105.94C250.689 1077.82 382.605 1026.61 472.734 949.385C504.9 921.829 526.14 893.24 546.676 865.597C567.473 837.608 587.109 811.165 616.342 787.759C674.115 741.497 705.663 724.768 753.41 699.451L767.446 691.998C779.505 679.377 786.231 672.072 798.383 629.052C817.735 560.58 845.875 522.15 880.642 479.015C906.501 446.938 937.296 415.241 967.076 384.582C1024.99 324.972 1066.97 275.197 1097.63 238.854C1105.61 229.397 1112.68 221.01 1118.9 213.817C1132.23 198.369 1149.28 185.453 1172.58 173.157C1207.18 154.895 1236.08 149.299 1264.02 143.892C1288.83 139.089 1312.27 134.555 1338 121.517C1369.24 105.691 1394.08 84.0744 1416.05 53.7855C1455.64 -0.854399 1476.41 -85.7521 1481.41 -213.392C1481.45 -214.416 1482.31 -215.484 1483.33 -215.752C1484.35 -216.026 1485.14 -215.409 1485.1 -214.381C1480.06 -85.7964 1458.98 -0.0478203 1418.75 55.47C1418.29 56.1186 1417.81 56.7621 1417.34 57.4055L1417.34 57.4062Z" fill="url(#paint7_linear_347_2583)"/>
<path d="M1396.28 51.6139C1396.07 51.9098 1395.85 52.1967 1395.63 52.491C1373.18 82.5372 1347.63 103.666 1315.2 118.999C1290.42 130.719 1267.85 135.079 1243.96 139.701C1215.27 145.252 1185.61 150.981 1151.72 170.638C1130.59 182.891 1114.69 196.465 1103.12 212.125C1103.02 212.264 1102.91 212.409 1102.81 212.56C1096.48 221.198 1089.76 230.951 1081.98 242.238C1056.27 279.555 1021.06 330.647 966.19 389.419C956.372 399.936 946.38 410.438 936.413 420.905C917.337 440.946 897.607 461.676 879.947 481.728L875.203 487.118C841.899 524.869 810.435 560.533 788.028 620.873C773.33 660.451 764.323 668.375 749.381 681.525L748.789 681.91C740.37 685.847 732.497 689.46 725.045 692.886C674.93 715.9 644.679 729.785 590.865 773.186C559.968 798.09 540.665 826.621 520.224 856.828C500.743 885.616 480.603 915.383 448.916 944.122C359.441 1025.27 223.27 1076.91 32.6278 1101.99C31.6821 1102.12 31.0414 1101.41 31.2127 1100.41C31.375 1099.42 32.2894 1098.49 33.2376 1098.37C223.011 1073.41 358.395 1022.15 447.116 941.675C478.323 913.387 498.273 883.903 517.564 855.379C538.25 824.816 557.786 795.959 589.302 770.543C643.615 726.751 675.801 711.967 724.518 689.597C731.873 686.219 739.628 682.657 747.921 678.785C762.043 666.364 770.654 658.627 784.805 620.519C807.543 559.283 839.32 523.25 872.967 485.111L877.714 479.732C895.442 459.588 915.209 438.828 934.328 418.744C944.275 408.295 954.264 397.806 964.066 387.302C1018.66 328.818 1053.75 277.919 1079.35 240.752C1087.16 229.43 1093.9 219.647 1100.27 210.948C1100.37 210.794 1100.49 210.638 1100.6 210.489C1112.61 194.222 1129.04 180.171 1150.8 167.561C1185.34 147.527 1215.34 141.726 1244.35 136.111C1267.99 131.54 1290.33 127.222 1314.63 115.732C1346.28 100.766 1371.22 80.1454 1393.12 50.8381C1393.32 50.5541 1393.55 50.2613 1393.76 49.9774C1433.09 -3.26829 1452.84 -86.8394 1455.9 -212.883C1455.92 -213.867 1456.72 -214.865 1457.68 -215.138C1458.65 -215.413 1459.41 -214.849 1459.39 -213.877C1456.31 -86.9155 1436.25 -2.49318 1396.28 51.6161L1396.28 51.6139Z" fill="url(#paint8_linear_347_2583)"/>
<path d="M1374.8 46.4899C1374.05 47.5114 1373.29 48.5159 1372.53 49.512C1350.21 78.4557 1324.53 98.6555 1291.7 113.079C1268.4 123.311 1245.96 127.624 1224.26 131.787C1194.48 137.503 1163.69 143.414 1130.1 164.758C1109.79 177.672 1094.81 192.218 1084.34 209.243C1078.08 219.421 1071.62 231.189 1064.78 243.657C1042.68 283.907 1015.18 333.995 963.261 391.952C943.446 414.06 922.25 435.815 901.758 456.85C893.324 465.505 884.982 474.068 876.859 482.526C871.569 488.034 866.259 493.451 860.955 498.855C828.56 531.872 797.976 563.064 774.199 612.698C757.221 648.17 746.618 658.592 729.279 668.517C700.993 684.714 677.958 694.209 657.636 702.581C626.763 715.306 600.094 726.298 563.777 755.776C530.7 782.621 511.649 813.486 491.483 846.169C473.143 875.872 454.183 906.597 423.347 936.159C335.311 1020.59 195.65 1072.29 -3.61923 1094.22C-4.51276 1094.32 -5.09494 1093.64 -4.91644 1092.69C-4.73779 1091.75 -3.88031 1090.9 -2.98003 1090.79C195.399 1068.96 334.263 1017.66 421.545 933.964C451.904 904.841 470.685 874.415 488.851 844.979C509.261 811.927 528.533 780.697 562.293 753.294C599.147 723.378 626.09 712.275 657.292 699.414C678.483 690.682 700.395 681.65 728.429 665.602C745.153 656.018 754.805 646.456 771.324 611.969C795.444 561.58 827.772 528.63 859.036 496.766C864.329 491.371 869.626 485.969 874.909 480.472C883.037 472.008 891.386 463.435 899.829 454.77C920.288 433.769 941.444 412.059 961.175 390.031C1012.7 332.527 1040.04 282.716 1062.02 242.685C1068.9 230.167 1075.39 218.344 1081.71 208.064C1092.46 190.605 1108.38 175.097 1129.07 161.949C1163.34 140.163 1194.51 134.183 1224.64 128.403C1246.15 124.271 1268.38 120.004 1291.28 109.944C1323.35 95.8584 1348.43 76.1321 1370.21 47.8847C1410.2 -4.00781 1429.38 -86.775 1430.38 -212.382C1430.39 -213.29 1431.14 -214.26 1432.05 -214.521C1432.96 -214.794 1433.69 -214.279 1433.68 -213.365C1432.69 -89.2205 1413.96 -6.47206 1374.81 46.487L1374.8 46.4899Z" fill="url(#paint9_linear_347_2583)"/>
<path d="M1353.26 41.5609C1352.01 43.2497 1350.74 44.907 1349.44 46.5397C1327.3 74.3831 1301.5 93.6442 1268.23 107.148C1246.39 116.022 1225.13 120.046 1204.57 123.94C1172.19 130.066 1141.62 135.851 1108.5 158.88C1089.37 172.184 1075.03 188.024 1065.89 205.959C1059.88 217.731 1054.28 231.045 1048.34 245.134C1031.06 286.192 1009.55 337.279 960.428 394.511C933.555 425.819 902.941 455.561 873.89 483.332C864.961 491.868 855.73 500.211 846.804 508.274C816.574 535.581 785.313 563.831 760.405 604.527C741.516 635.373 728.457 645.824 709.524 655.268C679.198 670.396 655.28 678.972 634.183 686.535C600.269 698.7 573.477 708.304 536.696 738.356C501.445 767.147 482.754 800.329 462.99 835.426C445.727 866.074 427.876 897.765 397.801 928.215C311.24 1015.88 168.077 1067.64 -39.8669 1086.45C-40.7034 1086.52 -41.2393 1085.86 -41.0524 1084.97C-40.8822 1084.09 -40.0504 1083.29 -39.2083 1083.22C167.833 1064.49 310.196 1013.15 396.005 926.247C425.645 896.231 443.316 864.844 460.421 834.477C480.436 798.962 499.331 765.41 535.287 736.032C572.657 705.502 599.735 695.794 634.019 683.495C655.023 675.966 678.821 667.435 708.937 652.408C727.082 643.354 739.645 633.298 757.925 603.434C783.193 562.144 814.719 533.653 845.205 506.106C854.111 498.071 863.312 489.75 872.199 481.257C901.163 453.57 931.679 423.928 958.404 392.795C1007.04 336.088 1028.39 285.406 1045.55 244.652C1051.52 230.484 1057.15 217.099 1063.23 205.184C1072.75 186.519 1087.6 170.102 1107.37 156.344C1141.21 132.818 1173.61 126.69 1204.93 120.76C1225.32 116.9 1246.42 112.904 1267.93 104.172C1300.47 90.9595 1325.69 72.1444 1347.31 44.959C1400.46 -21.9551 1405.63 -133.624 1404.88 -211.844C1404.88 -212.702 1405.56 -213.609 1406.42 -213.881C1407.28 -214.147 1407.98 -213.679 1407.99 -212.829C1409.15 -91.5539 1391.73 -10.4231 1353.26 41.5646L1353.26 41.5609Z" fill="url(#paint10_linear_347_2583)"/>
<path d="M1332.31 35.989C1330.3 38.6925 1328.32 41.2086 1326.39 43.5644C1304.43 70.318 1278.5 88.6412 1244.8 101.221C1224.41 108.822 1204.36 112.541 1184.97 116.14C1151.28 122.387 1119.47 128.295 1086.92 153.005C1068.64 166.879 1055.36 183.612 1047.45 202.705C1041.91 216.096 1037.41 230.921 1032.65 246.615C1019.97 288.419 1004.18 340.436 957.708 397.093C935.759 423.84 908.22 451.498 871.048 484.131C858.355 495.273 845.01 505.851 832.106 516.078C802.758 539.332 772.421 563.38 746.664 596.337C725.976 622.808 710.163 633.117 689.846 641.971C657.419 656.108 632.427 663.867 610.372 670.711C573.349 682.212 546.598 690.516 509.647 720.899C472.258 751.635 454.01 787.098 434.7 824.631C418.44 856.23 401.622 888.909 372.274 920.267C287.227 1011.14 140.558 1062.95 -76.1136 1078.66C-76.8904 1078.72 -77.3787 1078.08 -77.1912 1077.25C-77.0241 1076.43 -76.2359 1075.7 -75.4468 1075.64C140.321 1060 286.197 1008.6 370.507 918.507C399.405 887.622 416.096 855.211 432.217 823.882C451.745 785.933 470.183 750.083 508.309 718.733C545.878 687.843 574.334 679.007 610.358 667.824C632.322 661.001 657.216 653.274 689.468 639.215C709.175 630.628 724.526 620.618 744.631 594.883C770.719 561.505 801.279 537.291 830.822 513.865C843.695 503.673 856.994 493.13 869.599 482.066C906.581 449.596 933.951 422.109 955.744 395.555C1001.68 339.625 1016.67 290.154 1029.89 246.539C1034.68 230.75 1039.2 215.84 1044.83 202.268C1053.04 182.444 1066.8 165.102 1085.72 150.734C1119 125.464 1151.21 119.482 1185.32 113.155C1204.57 109.58 1224.48 105.891 1244.6 98.3842C1277.61 86.0681 1302.98 68.1602 1324.42 42.0261C1378.37 -23.6656 1381.61 -134.028 1379.39 -211.327C1379.38 -212.125 1380.01 -212.974 1380.81 -213.247C1381.61 -213.519 1382.28 -213.089 1382.3 -212.302C1386.63 -61.7212 1357.48 1.99411 1332.3 35.9844L1332.31 35.989Z" fill="url(#paint11_linear_347_2583)"/>
<path d="M1310.81 31.1961C1308.28 34.6027 1305.79 37.7146 1303.35 40.5894C1281.59 66.272 1255.55 83.6503 1221.37 95.2753C1202.45 101.717 1183.66 105.111 1165.49 108.391C1130.39 114.726 1097.24 120.71 1065.36 147.133C1047.87 161.634 1035.64 179.255 1029.03 199.491C1024.13 214.497 1020.96 230.792 1017.61 248.053C1008.92 292.827 999.105 343.594 955.096 399.703C933.249 427.605 904.859 455.488 868.316 484.948C851.47 498.53 833.406 510.975 815.934 523.016C787.911 542.324 758.928 562.286 732.968 588.121C710.517 610.458 691.651 620.478 670.227 628.658C635.618 641.867 609.407 648.872 586.289 655.046C547.523 665.401 519.514 672.887 482.612 703.421C443.09 736.121 425.356 773.851 406.578 813.799C391.27 846.356 375.449 880.03 346.765 912.328C263.271 1006.38 113.094 1058.25 -112.34 1070.87C-113.067 1070.91 -113.509 1070.32 -113.325 1069.53C-113.16 1068.77 -112.415 1068.1 -111.686 1068.06C12.8223 1061.08 116.618 1041.32 196.818 1009.32C260.113 984.064 308.599 951.832 345.047 910.774C373.311 878.948 389.022 845.527 404.202 813.231C423.194 772.848 441.122 734.701 481.357 701.418C518.901 670.359 547.209 662.794 586.392 652.327C609.445 646.164 635.568 639.183 670.021 626.036C691.009 618.028 709.484 608.218 731.428 586.381C757.657 560.283 786.787 540.214 814.963 520.798C832.371 508.804 850.379 496.4 867.111 482.913C903.396 453.653 931.56 425.997 953.211 398.361C996.656 342.813 1006.34 292.697 1014.96 248.321C1018.34 230.964 1021.52 214.56 1026.49 199.351C1033.33 178.399 1045.99 160.156 1064.11 145.132C1096.73 118.089 1130.3 112.033 1165.83 105.618C1183.9 102.359 1202.58 98.987 1221.28 92.6218C1254.79 81.2164 1280.3 64.2114 1301.56 39.1153C1356.39 -25.5914 1357.72 -134.512 1353.92 -210.778C1353.89 -211.512 1354.46 -212.321 1355.2 -212.585C1355.95 -212.849 1356.59 -212.465 1356.62 -211.733C1363.87 -65.9753 1335.99 -2.76653 1310.81 31.1983L1310.81 31.1961Z" fill="url(#paint12_linear_347_2583)"/>
<path d="M1288.37 27.6206C1285.82 31.0576 1283.14 34.3827 1280.32 37.6115C1258.49 62.5767 1233.08 78.5287 1197.97 89.331C1180.54 94.704 1163.07 97.7384 1146.18 100.678C1109.54 107.056 1074.95 113.078 1043.82 141.253C1027.06 156.416 1015.89 174.94 1010.63 196.297C1006.55 212.893 1004.9 230.645 1003.14 249.44C998.917 294.872 994.118 346.342 952.979 401.796C952.843 401.979 952.715 402.152 952.574 402.332C931.168 431.031 902.754 458.322 865.708 485.751C843.722 502.035 819.596 516.306 796.273 530.114C770.627 545.288 744.117 560.974 719.33 579.84C693.598 599.428 671.121 608.456 650.677 615.301C613.759 627.648 585.009 634.209 561.9 639.483C519.966 649.05 492.267 655.371 455.594 685.902C413.956 720.58 396.775 760.585 378.58 802.946C364.182 836.463 349.287 871.103 321.287 904.367C285.24 947.15 236.128 980.423 171.142 1006.09C88.8404 1038.6 -18.7252 1057.77 -148.571 1063.06C-149.238 1063.09 -149.638 1062.53 -149.459 1061.81C-149.276 1061.09 -148.596 1060.48 -147.926 1060.45C-18.3634 1055.17 88.9082 1036.07 170.91 1003.68C235.349 978.225 283.992 945.296 319.62 903.009C347.261 870.199 362.04 835.802 376.328 802.533C394.711 759.737 412.077 719.322 454.416 684.063C491.734 652.99 519.727 646.602 562.092 636.938C585.14 631.68 613.826 625.133 650.602 612.83C670.784 606.072 692.96 597.17 718.282 577.895C743.243 558.897 769.846 543.151 795.577 527.929C819.895 513.542 842.863 499.946 864.699 483.78C901.444 456.572 929.597 429.543 950.771 401.156L951.16 400.632C991.71 345.98 996.459 294.979 1000.65 249.968C1002.41 231.059 1004.07 213.209 1008.21 196.395C1013.63 174.351 1025.19 155.211 1042.53 139.51C1074.41 110.656 1109.43 104.565 1146.51 98.1041C1163.32 95.1791 1180.7 92.1484 1197.97 86.8407C1232.45 76.2258 1257.36 60.6076 1278.7 36.1987C1334.8 -27.8691 1333.9 -135.094 1328.44 -210.231C1328.39 -210.9 1328.91 -211.656 1329.6 -211.919C1330.29 -212.178 1330.89 -211.84 1330.94 -211.17C1336.16 -139.26 1337.08 -38.0339 1288.37 27.619L1288.37 27.6206Z" fill="url(#paint13_linear_347_2583)"/>
<path d="M1266.88 22.9756C1263.89 26.9931 1260.71 30.8835 1257.32 34.6392C1235.73 58.5368 1210.21 73.5706 1174.6 83.3871C1158.69 87.7664 1142.63 90.4314 1127.1 93.0111C1088.81 99.367 1052.66 105.373 1022.3 135.389C1006.03 151.472 996.177 170.38 992.263 193.142C989.142 211.303 989.151 230.486 989.169 250.798C989.207 297.159 989.239 349.701 950.174 404.986C929.71 433.768 900.414 461.286 863.218 486.574C833.903 506.503 802.216 522.232 768.668 538.882C747.9 549.194 726.423 559.849 705.787 571.514C678.125 587.142 652.554 595.661 631.187 601.926C591.847 613.473 561.577 619.314 537.251 624.009C492.134 632.708 464.9 637.963 428.59 668.384C384.852 705.03 368.25 747.327 350.69 792.112C337.176 826.578 323.266 862.106 295.827 896.426C260.603 940.442 211.343 974.41 145.224 1000.27C61.1424 1033.15 -49.8928 1051.65 -184.791 1055.25C-185.407 1055.27 -185.766 1054.75 -185.593 1054.08C-185.432 1053.44 -184.788 1052.87 -184.173 1052.86C-49.5382 1049.26 61.2229 1030.82 145.027 998.042C210.6 972.398 259.409 938.771 294.239 895.243C321.26 861.469 335.154 826.063 348.582 791.825C366.3 746.633 383.046 703.934 427.502 666.694C464.446 635.739 491.949 630.435 537.513 621.644C561.783 616.964 591.989 611.139 631.21 599.627C652.421 593.406 677.801 584.957 705.195 569.474C725.913 557.774 747.426 547.095 768.231 536.767C801.675 520.163 833.266 504.483 862.399 484.679C897.518 460.807 925.464 435.023 945.537 407.991C946.531 406.652 947.505 405.315 948.449 403.977C986.928 349.536 986.895 297.456 986.856 251.5C986.845 231.088 986.828 211.806 989.989 193.424C994.025 170.005 1004.16 150.535 1020.98 133.893C1052.08 103.157 1088.67 97.077 1127.42 90.6446C1142.88 88.0769 1158.88 85.4223 1174.67 81.0715C1209.69 71.4231 1234.73 56.6867 1255.87 33.294C1298.97 -14.3533 1314.33 -93.8261 1302.97 -209.667C1302.9 -210.278 1303.37 -210.985 1304 -211.234C1304.64 -211.487 1305.21 -211.194 1305.26 -210.585C1312.14 -140.498 1315.17 -42.0543 1266.88 22.9756Z" fill="url(#paint14_linear_347_2583)"/>
<path d="M1245.28 18.5361C1241.86 23.1472 1238.21 27.5191 1234.34 31.6618C1206.97 60.9648 1175.56 71.5087 1151.25 77.4243C1136.91 80.9189 1122.33 83.1918 1108.24 85.398C1068.18 91.6545 1030.35 97.5678 1000.79 129.522C985.189 146.397 976.394 166.174 973.918 190.016C971.889 209.721 973.729 230.336 975.666 252.159C979.875 299.338 984.644 352.808 947.865 407.67C928.262 436.779 899.013 463.595 860.844 487.4C818.776 513.634 769.068 533.061 720.998 551.849C711.415 555.596 701.843 559.334 692.34 563.123C663.192 574.739 635.243 582.486 611.747 588.533C569.834 599.311 537.946 604.448 512.326 608.564C465.625 616.085 437.437 620.619 401.605 650.826C355.748 689.495 339.781 734.08 322.883 781.295C310.216 816.709 297.141 853.355 270.39 888.477C236.468 933.092 185.641 968.745 119.322 994.434C33.4666 1027.7 -81.045 1045.53 -221.021 1047.44C-221.581 1047.45 -221.902 1046.96 -221.736 1046.36C-221.565 1045.75 -220.99 1045.26 -220.427 1045.25C-80.7023 1043.35 33.5474 1025.57 119.148 992.404C184.948 966.909 235.325 931.607 268.888 887.461C269.431 886.747 269.97 886.031 270.503 885.314C295.849 851.208 308.595 815.588 320.926 781.116C337.966 733.49 354.058 688.521 400.603 649.289C437.044 618.564 465.494 613.992 512.622 606.407C538.202 602.29 570.032 597.171 611.847 586.409C635.269 580.387 663.122 572.667 692.142 561.098C701.646 557.309 711.225 553.567 720.809 549.82C768.763 531.078 818.357 511.698 860.191 485.609C897.984 462.035 926.926 435.539 946.243 406.815C982.472 352.789 977.743 299.766 973.572 252.981C971.61 231.056 969.764 210.348 971.826 190.432C974.353 165.986 983.408 145.649 999.483 128.274C1029.77 95.5407 1068.03 89.5636 1108.55 83.2373C1122.59 81.0462 1137.12 78.768 1151.37 75.3028C1175.31 69.4779 1206.24 59.1084 1233.04 30.4025C1277.34 -17.002 1291.85 -95.3264 1277.5 -209.095C1277.43 -209.657 1277.85 -210.294 1278.43 -210.538C1279.01 -210.781 1279.53 -210.534 1279.6 -209.985C1292.8 -105.329 1281.57 -30.3022 1245.28 18.5384L1245.28 18.5361Z" fill="url(#paint15_linear_347_2583)"/>
<path d="M940.285 422.323C872.212 513.79 711.95 549.845 593.759 576.433C549.019 586.499 515.36 590.926 488.317 594.484C438.426 601.049 410.945 604.661 375.62 634.598C327.539 675.341 312.221 722.292 296.006 771.997C284.136 808.382 271.859 846.01 245.728 882.139C212.621 928.085 161.469 964.419 93.9117 990.322C6.12566 1023.98 -112.083 1041.15 -257.438 1041.35C-257.94 1041.35 -258.227 1040.91 -258.073 1040.36C-257.937 1039.83 -257.392 1039.37 -256.884 1039.37C-111.76 1039.17 6.2125 1022.05 93.7551 988.484C159.516 963.27 209.511 928.09 242.393 883.913C243.046 883.036 243.683 882.164 244.321 881.286C270.19 845.517 282.399 808.093 294.207 771.901C310.545 721.819 325.959 674.513 374.698 633.223C410.609 602.788 438.325 599.143 488.639 592.522C515.649 588.967 549.259 584.549 593.909 574.497C716.194 546.99 883.696 509.378 946.199 410.85C980.3 357.141 971.383 305.426 962.763 255.413C954.564 207.824 946.786 162.894 980.118 123.503C1009.61 88.6249 1049.73 82.8393 1092.22 76.7176C1134.34 70.6515 1177.89 64.3762 1212.77 28.3034C1257.93 -18.4046 1272 -97.8849 1254.64 -207.99C1254.57 -208.481 1254.93 -209.075 1255.45 -209.307C1255.97 -209.548 1256.46 -209.333 1256.53 -208.845C1274 -98.0264 1259.64 -17.8458 1213.9 29.4809C1178.38 66.2213 1134.43 72.5574 1091.91 78.6851C1049.89 84.7347 1010.19 90.4582 981.377 124.537C979.937 126.245 978.564 127.973 977.269 129.712C949.546 166.958 956.889 209.549 964.649 254.539C973.33 304.933 982.309 357.041 947.699 411.56C945.37 415.235 942.888 418.821 940.281 422.325L940.285 422.323Z" fill="url(#paint16_linear_347_2583)"/>
<defs>
<linearGradient id="paint0_linear_347_2583" x1="1555.96" y1="14.4168" x2="1485.15" y2="1149.25" gradientUnits="userSpaceOnUse">
<stop stop-color="white"/>
<stop offset="0.397379" stop-color="#FFBBB7"/>
<stop offset="0.701224" stop-color="white"/>
</linearGradient>
<linearGradient id="paint1_linear_347_2583" x1="1528.37" y1="13.4949" x2="1442.43" y2="1155.38" gradientUnits="userSpaceOnUse">
<stop stop-color="white"/>
<stop offset="0.397379" stop-color="#FFBBB7"/>
<stop offset="0.701224" stop-color="white"/>
</linearGradient>
<linearGradient id="paint2_linear_347_2583" x1="1500.72" y1="12.5355" x2="1400.22" y2="1160.69" gradientUnits="userSpaceOnUse">
<stop stop-color="white"/>
<stop offset="0.397379" stop-color="#FFBBB7"/>
<stop offset="0.701224" stop-color="white"/>
</linearGradient>
<linearGradient id="paint3_linear_347_2583" x1="1473.13" y1="11.641" x2="1358.44" y2="1165.47" gradientUnits="userSpaceOnUse">
<stop stop-color="white"/>
<stop offset="0.397379" stop-color="#FFBBB7"/>
<stop offset="0.701224" stop-color="white"/>
</linearGradient>
<linearGradient id="paint4_linear_347_2583" x1="1445.62" y1="10.7848" x2="1317.13" y2="1169.73" gradientUnits="userSpaceOnUse">
<stop stop-color="white"/>
<stop offset="0.397379" stop-color="#FFBBB7"/>
<stop offset="0.701224" stop-color="white"/>
</linearGradient>
<linearGradient id="paint5_linear_347_2583" x1="1418.19" y1="9.98382" x2="1276.27" y2="1173.54" gradientUnits="userSpaceOnUse">
<stop stop-color="white"/>
<stop offset="0.397379" stop-color="#FFBBB7"/>
<stop offset="0.701224" stop-color="white"/>
</linearGradient>
<linearGradient id="paint6_linear_347_2583" x1="1390.81" y1="9.23177" x2="1235.88" y2="1176.9" gradientUnits="userSpaceOnUse">
<stop stop-color="white"/>
<stop offset="0.397379" stop-color="#FFBBB7"/>
<stop offset="0.701224" stop-color="white"/>
</linearGradient>
<linearGradient id="paint7_linear_347_2583" x1="1363.5" y1="8.51097" x2="1195.93" y2="1179.86" gradientUnits="userSpaceOnUse">
<stop stop-color="white"/>
<stop offset="0.397379" stop-color="#FFBBB7"/>
<stop offset="0.701224" stop-color="white"/>
</linearGradient>
<linearGradient id="paint8_linear_347_2583" x1="1336.24" y1="7.83531" x2="1156.43" y2="1182.42" gradientUnits="userSpaceOnUse">
<stop stop-color="white"/>
<stop offset="0.397379" stop-color="#FFBBB7"/>
<stop offset="0.701224" stop-color="white"/>
</linearGradient>
<linearGradient id="paint9_linear_347_2583" x1="1309.01" y1="7.17872" x2="1117.37" y2="1184.62" gradientUnits="userSpaceOnUse">
<stop stop-color="white"/>
<stop offset="0.397379" stop-color="#FFBBB7"/>
<stop offset="0.701224" stop-color="white"/>
</linearGradient>
<linearGradient id="paint10_linear_347_2583" x1="1281.81" y1="6.56156" x2="1078.73" y2="1186.49" gradientUnits="userSpaceOnUse">
<stop stop-color="white"/>
<stop offset="0.397379" stop-color="#FFBBB7"/>
<stop offset="0.701224" stop-color="white"/>
</linearGradient>
<linearGradient id="paint11_linear_347_2583" x1="1254.68" y1="5.9689" x2="1040.52" y2="1188.07" gradientUnits="userSpaceOnUse">
<stop stop-color="white"/>
<stop offset="0.397379" stop-color="#FFBBB7"/>
<stop offset="0.701224" stop-color="white"/>
</linearGradient>
<linearGradient id="paint12_linear_347_2583" x1="1227.55" y1="5.40376" x2="1002.7" y2="1189.35" gradientUnits="userSpaceOnUse">
<stop stop-color="white"/>
<stop offset="0.397379" stop-color="#FFBBB7"/>
<stop offset="0.701224" stop-color="white"/>
</linearGradient>
<linearGradient id="paint13_linear_347_2583" x1="1200.39" y1="4.81794" x2="965.288" y2="1190.31" gradientUnits="userSpaceOnUse">
<stop stop-color="white"/>
<stop offset="0.397379" stop-color="#FFBBB7"/>
<stop offset="0.701224" stop-color="white"/>
</linearGradient>
<linearGradient id="paint14_linear_347_2583" x1="1173.3" y1="4.29548" x2="928.244" y2="1191.08" gradientUnits="userSpaceOnUse">
<stop stop-color="white"/>
<stop offset="0.397379" stop-color="#FFBBB7"/>
<stop offset="0.701224" stop-color="white"/>
</linearGradient>
<linearGradient id="paint15_linear_347_2583" x1="1146.24" y1="3.79036" x2="891.564" y2="1191.63" gradientUnits="userSpaceOnUse">
<stop stop-color="white"/>
<stop offset="0.397379" stop-color="#FFBBB7"/>
<stop offset="0.701224" stop-color="white"/>
</linearGradient>
<linearGradient id="paint16_linear_347_2583" x1="1131.41" y1="10.3673" x2="857.587" y2="1202.27" gradientUnits="userSpaceOnUse">
<stop stop-color="white"/>
<stop offset="0.397379" stop-color="#FFBBB7"/>
<stop offset="0.701224" stop-color="white"/>
</linearGradient>
</defs>
</svg>
