<svg width="376" height="30" viewBox="0 0 376 30" fill="none" xmlns="http://www.w3.org/2000/svg">
<rect width="121.59" height="30" rx="15" fill="white"/>
<path d="M30.2353 20V10.06H33.6513C34.8273 10.06 35.7093 10.2747 36.2973 10.704C36.8853 11.1333 37.1793 11.81 37.1793 12.734C37.1793 13.1633 37.086 13.5413 36.8993 13.868C36.7127 14.1947 36.4467 14.4513 36.1013 14.638C35.756 14.8153 35.3453 14.904 34.8693 14.904L34.8553 14.82C35.7047 14.82 36.372 15.0487 36.8573 15.506C37.352 15.954 37.5993 16.542 37.5993 17.27C37.5993 18.1753 37.3053 18.8567 36.7173 19.314C36.1293 19.7713 35.294 20 34.2113 20H30.2353ZM31.4393 18.824H34.2113C34.8927 18.824 35.4153 18.684 35.7793 18.404C36.1527 18.124 36.3393 17.7227 36.3393 17.2C36.3393 16.6773 36.1527 16.2713 35.7793 15.982C35.4153 15.6833 34.8927 15.534 34.2113 15.534H31.4393V18.824ZM31.4393 14.358H33.6513C34.3793 14.358 34.9393 14.2227 35.3313 13.952C35.7233 13.672 35.9193 13.2847 35.9193 12.79C35.9193 12.2673 35.728 11.88 35.3453 11.628C34.972 11.3667 34.4073 11.236 33.6513 11.236H31.4393V14.358ZM40.9022 20C40.4729 20 40.1229 19.888 39.8522 19.664C39.5816 19.44 39.4462 19.0853 39.4462 18.6V10.06H40.6222V18.502C40.6222 18.6513 40.6596 18.768 40.7342 18.852C40.8182 18.9267 40.9349 18.964 41.0842 18.964H41.7282V20H40.9022ZM45.9946 20.168C45.3133 20.168 44.716 20.0093 44.2026 19.692C43.6893 19.3747 43.2926 18.9267 43.0126 18.348C42.7326 17.76 42.5926 17.074 42.5926 16.29C42.5926 15.4967 42.7326 14.8107 43.0126 14.232C43.2926 13.6533 43.6893 13.2053 44.2026 12.888C44.716 12.5707 45.3133 12.412 45.9946 12.412C46.676 12.412 47.2686 12.5707 47.7726 12.888C48.286 13.2053 48.6826 13.6533 48.9626 14.232C49.2426 14.8107 49.3826 15.4967 49.3826 16.29C49.3826 17.074 49.2426 17.76 48.9626 18.348C48.6826 18.9267 48.286 19.3747 47.7726 19.692C47.2686 20.0093 46.676 20.168 45.9946 20.168ZM45.9946 19.048C46.676 19.048 47.2033 18.8053 47.5766 18.32C47.9593 17.8253 48.1506 17.1487 48.1506 16.29C48.1506 15.4313 47.9593 14.7593 47.5766 14.274C47.2033 13.7793 46.676 13.532 45.9946 13.532C45.3133 13.532 44.7813 13.7793 44.3986 14.274C44.016 14.7593 43.8246 15.4313 43.8246 16.29C43.8246 17.1487 44.016 17.8253 44.3986 18.32C44.7813 18.8053 45.3133 19.048 45.9946 19.048ZM53.8833 20.168C53.1926 20.168 52.5906 20.0093 52.0773 19.692C51.5733 19.3747 51.1813 18.9267 50.9013 18.348C50.6213 17.76 50.4813 17.074 50.4813 16.29C50.4813 15.506 50.6213 14.8247 50.9013 14.246C51.1813 13.6673 51.5733 13.2193 52.0773 12.902C52.5906 12.5753 53.1926 12.412 53.8833 12.412C54.4526 12.412 54.9566 12.5147 55.3953 12.72C55.8433 12.916 56.2073 13.2053 56.4873 13.588C56.7673 13.9707 56.9493 14.4373 57.0333 14.988L55.8013 15.072C55.7173 14.5773 55.5026 14.1993 55.1573 13.938C54.812 13.6673 54.3873 13.532 53.8833 13.532C53.202 13.532 52.67 13.7793 52.2873 14.274C51.9046 14.7593 51.7133 15.4313 51.7133 16.29C51.7133 17.1487 51.9046 17.8253 52.2873 18.32C52.67 18.8053 53.202 19.048 53.8833 19.048C54.3873 19.048 54.812 18.908 55.1573 18.628C55.5026 18.348 55.7173 17.928 55.8013 17.368L57.0333 17.452C56.9493 18.0027 56.7673 18.4833 56.4873 18.894C56.2073 19.2953 55.8433 19.608 55.3953 19.832C54.9566 20.056 54.4526 20.168 53.8833 20.168ZM58.4912 20V10.06H59.6672V16.57L63.2792 12.58H64.8472L61.9212 15.73L64.9732 20H63.5452L61.1232 16.528L59.6672 18.068V20H58.4912ZM68.9497 20.168C68.259 20.168 67.657 20.0093 67.1437 19.692C66.6397 19.3747 66.2477 18.9267 65.9677 18.348C65.6877 17.76 65.5477 17.074 65.5477 16.29C65.5477 15.506 65.6877 14.8247 65.9677 14.246C66.2477 13.6673 66.6397 13.2193 67.1437 12.902C67.657 12.5753 68.259 12.412 68.9497 12.412C69.519 12.412 70.023 12.5147 70.4617 12.72C70.9097 12.916 71.2737 13.2053 71.5537 13.588C71.8337 13.9707 72.0157 14.4373 72.0997 14.988L70.8677 15.072C70.7837 14.5773 70.569 14.1993 70.2237 13.938C69.8784 13.6673 69.4537 13.532 68.9497 13.532C68.2684 13.532 67.7364 13.7793 67.3537 14.274C66.971 14.7593 66.7797 15.4313 66.7797 16.29C66.7797 17.1487 66.971 17.8253 67.3537 18.32C67.7364 18.8053 68.2684 19.048 68.9497 19.048C69.4537 19.048 69.8784 18.908 70.2237 18.628C70.569 18.348 70.7837 17.928 70.8677 17.368L72.0997 17.452C72.0157 18.0027 71.8337 18.4833 71.5537 18.894C71.2737 19.2953 70.9097 19.608 70.4617 19.832C70.023 20.056 69.519 20.168 68.9497 20.168ZM73.5576 20V10.06H74.7336V14.218L74.5936 14.19C74.6869 13.7793 74.8456 13.4433 75.0696 13.182C75.2936 12.9207 75.5689 12.7293 75.8956 12.608C76.2222 12.4773 76.5816 12.412 76.9736 12.412C77.5056 12.412 77.9536 12.5333 78.3176 12.776C78.6909 13.0093 78.9709 13.3407 79.1576 13.77C79.3536 14.19 79.4516 14.6753 79.4516 15.226V20H78.2756V15.562C78.2756 14.8433 78.1449 14.3113 77.8836 13.966C77.6316 13.6207 77.2442 13.448 76.7216 13.448C76.1242 13.448 75.6436 13.63 75.2796 13.994C74.9156 14.358 74.7336 14.8853 74.7336 15.576V20H73.5576ZM83.5576 20.168C82.7923 20.168 82.1809 19.9907 81.7236 19.636C81.2756 19.2813 81.0516 18.7867 81.0516 18.152C81.0516 17.5173 81.2383 17.018 81.6116 16.654C81.9849 16.29 82.5776 16.0333 83.3896 15.884L86.0216 15.394C86.0216 14.7687 85.8723 14.302 85.5736 13.994C85.2843 13.686 84.8456 13.532 84.2576 13.532C83.7443 13.532 83.3383 13.6487 83.0396 13.882C82.7409 14.106 82.5356 14.4327 82.4236 14.862L81.1776 14.764C81.3176 14.064 81.6536 13.4993 82.1856 13.07C82.7269 12.6313 83.4176 12.412 84.2576 12.412C85.2096 12.412 85.9376 12.6827 86.4416 13.224C86.9456 13.756 87.1976 14.4933 87.1976 15.436V18.502C87.1976 18.67 87.2256 18.7913 87.2816 18.866C87.3469 18.9313 87.4496 18.964 87.5896 18.964H87.8836V20C87.8463 20.0093 87.7856 20.014 87.7016 20.014C87.6176 20.0233 87.5289 20.028 87.4356 20.028C87.0996 20.028 86.8243 19.9767 86.6096 19.874C86.4043 19.762 86.2549 19.594 86.1616 19.37C86.0683 19.1367 86.0216 18.8333 86.0216 18.46L86.1616 18.488C86.0963 18.8053 85.9376 19.0947 85.6856 19.356C85.4336 19.608 85.1209 19.8087 84.7476 19.958C84.3743 20.098 83.9776 20.168 83.5576 20.168ZM83.6696 19.132C84.1643 19.132 84.5843 19.0387 84.9296 18.852C85.2843 18.656 85.5549 18.3947 85.7416 18.068C85.9283 17.732 86.0216 17.3587 86.0216 16.948V16.416L83.6136 16.864C83.1096 16.9573 82.7596 17.102 82.5636 17.298C82.3769 17.4847 82.2836 17.732 82.2836 18.04C82.2836 18.3853 82.4049 18.656 82.6476 18.852C82.8996 19.0387 83.2403 19.132 83.6696 19.132ZM89.1572 20V12.58H90.3332V20H89.1572ZM89.1292 11.418V10.046H90.3612V11.418H89.1292ZM92.7119 20V12.58H93.7899L93.8319 14.47L93.6919 14.344C93.7852 13.9053 93.9485 13.546 94.1819 13.266C94.4152 12.9767 94.6952 12.762 95.0219 12.622C95.3579 12.482 95.7172 12.412 96.0999 12.412C96.6692 12.412 97.1359 12.538 97.4999 12.79C97.8732 13.042 98.1485 13.3827 98.3259 13.812C98.5125 14.232 98.6059 14.7033 98.6059 15.226V20H97.4299V15.562C97.4299 15.1047 97.3739 14.722 97.2619 14.414C97.1592 14.0967 96.9912 13.8587 96.7579 13.7C96.5245 13.532 96.2212 13.448 95.8479 13.448C95.2785 13.448 94.8072 13.63 94.4339 13.994C94.0699 14.3487 93.8879 14.8713 93.8879 15.562V20H92.7119Z" fill="#414141"/>
<rect x="139.297" width="121.59" height="30" rx="15" fill="white"/>
<path d="M185.731 20V10.06H189.497C190.197 10.06 190.799 10.1813 191.303 10.424C191.807 10.6667 192.194 11.0167 192.465 11.474C192.745 11.922 192.885 12.454 192.885 13.07C192.885 13.518 192.778 13.9193 192.563 14.274C192.358 14.6193 192.092 14.8947 191.765 15.1C191.438 15.3053 191.098 15.4173 190.743 15.436L190.659 15.31C191.266 15.31 191.742 15.45 192.087 15.73C192.442 16.01 192.647 16.458 192.703 17.074L192.983 20H191.765L191.513 17.2C191.476 16.7893 191.326 16.486 191.065 16.29C190.813 16.094 190.398 15.996 189.819 15.996H186.935V20H185.731ZM186.935 14.82H189.651C190.258 14.82 190.738 14.666 191.093 14.358C191.448 14.05 191.625 13.6113 191.625 13.042C191.625 12.4633 191.443 12.02 191.079 11.712C190.715 11.3947 190.188 11.236 189.497 11.236H186.935V14.82ZM197.703 20.168C197.003 20.168 196.396 20.0093 195.883 19.692C195.379 19.3747 194.987 18.9267 194.707 18.348C194.436 17.76 194.301 17.074 194.301 16.29C194.301 15.506 194.436 14.8247 194.707 14.246C194.987 13.6673 195.374 13.2193 195.869 12.902C196.373 12.5753 196.966 12.412 197.647 12.412C198.291 12.412 198.86 12.566 199.355 12.874C199.85 13.1727 200.232 13.6113 200.503 14.19C200.783 14.7687 200.923 15.4733 200.923 16.304V16.654H195.533C195.58 17.4473 195.79 18.0447 196.163 18.446C196.546 18.8473 197.059 19.048 197.703 19.048C198.188 19.048 198.585 18.936 198.893 18.712C199.21 18.4787 199.43 18.1753 199.551 17.802L200.811 17.9C200.615 18.5627 200.242 19.1087 199.691 19.538C199.15 19.958 198.487 20.168 197.703 20.168ZM195.533 15.618H199.635C199.579 14.8993 199.369 14.372 199.005 14.036C198.65 13.7 198.198 13.532 197.647 13.532C197.078 13.532 196.606 13.7093 196.233 14.064C195.869 14.4093 195.636 14.9273 195.533 15.618ZM201.989 20V18.824L206.679 13.616H202.129V12.58H207.967V13.756L203.277 18.964H208.079V20H201.989ZM212.469 20.168C211.787 20.168 211.19 20.0093 210.677 19.692C210.163 19.3747 209.767 18.9267 209.487 18.348C209.207 17.76 209.067 17.074 209.067 16.29C209.067 15.4967 209.207 14.8107 209.487 14.232C209.767 13.6533 210.163 13.2053 210.677 12.888C211.19 12.5707 211.787 12.412 212.469 12.412C213.15 12.412 213.743 12.5707 214.247 12.888C214.76 13.2053 215.157 13.6533 215.437 14.232C215.717 14.8107 215.857 15.4967 215.857 16.29C215.857 17.074 215.717 17.76 215.437 18.348C215.157 18.9267 214.76 19.3747 214.247 19.692C213.743 20.0093 213.15 20.168 212.469 20.168ZM212.469 19.048C213.15 19.048 213.677 18.8053 214.051 18.32C214.433 17.8253 214.625 17.1487 214.625 16.29C214.625 15.4313 214.433 14.7593 214.051 14.274C213.677 13.7793 213.15 13.532 212.469 13.532C211.787 13.532 211.255 13.7793 210.873 14.274C210.49 14.7593 210.299 15.4313 210.299 16.29C210.299 17.1487 210.49 17.8253 210.873 18.32C211.255 18.8053 211.787 19.048 212.469 19.048ZM217.459 20V12.58H218.495L218.551 14.456L218.439 14.414C218.533 13.7793 218.733 13.3173 219.041 13.028C219.359 12.7293 219.779 12.58 220.301 12.58H221.029V13.7H220.315C219.942 13.7 219.629 13.77 219.377 13.91C219.135 14.0407 218.948 14.2413 218.817 14.512C218.696 14.7733 218.635 15.1093 218.635 15.52V20H217.459Z" fill="#414141"/>
<rect x="278.595" width="96.7999" height="30" rx="15" fill="white"/>
<path d="M306.568 20V10.06H309.984C311.16 10.06 312.042 10.2747 312.63 10.704C313.218 11.1333 313.512 11.81 313.512 12.734C313.512 13.1633 313.418 13.5413 313.232 13.868C313.045 14.1947 312.779 14.4513 312.434 14.638C312.088 14.8153 311.678 14.904 311.202 14.904L311.188 14.82C312.037 14.82 312.704 15.0487 313.19 15.506C313.684 15.954 313.932 16.542 313.932 17.27C313.932 18.1753 313.638 18.8567 313.05 19.314C312.462 19.7713 311.626 20 310.544 20H306.568ZM307.772 18.824H310.544C311.225 18.824 311.748 18.684 312.112 18.404C312.485 18.124 312.672 17.7227 312.672 17.2C312.672 16.6773 312.485 16.2713 312.112 15.982C311.748 15.6833 311.225 15.534 310.544 15.534H307.772V18.824ZM307.772 14.358H309.984C310.712 14.358 311.272 14.2227 311.664 13.952C312.056 13.672 312.252 13.2847 312.252 12.79C312.252 12.2673 312.06 11.88 311.678 11.628C311.304 11.3667 310.74 11.236 309.984 11.236H307.772V14.358ZM315.806 20V12.58H316.982V20H315.806ZM315.778 11.418V10.046H317.01V11.418H315.778ZM321.379 20C320.707 20 320.208 19.846 319.881 19.538C319.564 19.23 319.405 18.7493 319.405 18.096V10.844H320.581V18.068C320.581 18.404 320.656 18.6373 320.805 18.768C320.955 18.8987 321.183 18.964 321.491 18.964H322.555V20H321.379ZM318.313 13.616V12.58H322.555V13.616H318.313ZM326.825 20.168C326.134 20.168 325.532 20.0093 325.019 19.692C324.515 19.3747 324.123 18.9267 323.843 18.348C323.563 17.76 323.423 17.074 323.423 16.29C323.423 15.506 323.563 14.8247 323.843 14.246C324.123 13.6673 324.515 13.2193 325.019 12.902C325.532 12.5753 326.134 12.412 326.825 12.412C327.394 12.412 327.898 12.5147 328.337 12.72C328.785 12.916 329.149 13.2053 329.429 13.588C329.709 13.9707 329.891 14.4373 329.975 14.988L328.743 15.072C328.659 14.5773 328.444 14.1993 328.099 13.938C327.754 13.6673 327.329 13.532 326.825 13.532C326.144 13.532 325.612 13.7793 325.229 14.274C324.846 14.7593 324.655 15.4313 324.655 16.29C324.655 17.1487 324.846 17.8253 325.229 18.32C325.612 18.8053 326.144 19.048 326.825 19.048C327.329 19.048 327.754 18.908 328.099 18.628C328.444 18.348 328.659 17.928 328.743 17.368L329.975 17.452C329.891 18.0027 329.709 18.4833 329.429 18.894C329.149 19.2953 328.785 19.608 328.337 19.832C327.898 20.056 327.394 20.168 326.825 20.168ZM334.331 20.168C333.65 20.168 333.052 20.0093 332.539 19.692C332.026 19.3747 331.629 18.9267 331.349 18.348C331.069 17.76 330.929 17.074 330.929 16.29C330.929 15.4967 331.069 14.8107 331.349 14.232C331.629 13.6533 332.026 13.2053 332.539 12.888C333.052 12.5707 333.65 12.412 334.331 12.412C335.012 12.412 335.605 12.5707 336.109 12.888C336.622 13.2053 337.019 13.6533 337.299 14.232C337.579 14.8107 337.719 15.4967 337.719 16.29C337.719 17.074 337.579 17.76 337.299 18.348C337.019 18.9267 336.622 19.3747 336.109 19.692C335.605 20.0093 335.012 20.168 334.331 20.168ZM334.331 19.048C335.012 19.048 335.54 18.8053 335.913 18.32C336.296 17.8253 336.487 17.1487 336.487 16.29C336.487 15.4313 336.296 14.7593 335.913 14.274C335.54 13.7793 335.012 13.532 334.331 13.532C333.65 13.532 333.118 13.7793 332.735 14.274C332.352 14.7593 332.161 15.4313 332.161 16.29C332.161 17.1487 332.352 17.8253 332.735 18.32C333.118 18.8053 333.65 19.048 334.331 19.048ZM339.322 20V12.58H340.498V20H339.322ZM339.294 11.418V10.046H340.526V11.418H339.294ZM342.876 20V12.58H343.954L343.996 14.47L343.856 14.344C343.95 13.9053 344.113 13.546 344.346 13.266C344.58 12.9767 344.86 12.762 345.186 12.622C345.522 12.482 345.882 12.412 346.264 12.412C346.834 12.412 347.3 12.538 347.664 12.79C348.038 13.042 348.313 13.3827 348.49 13.812C348.677 14.232 348.77 14.7033 348.77 15.226V20H347.594V15.562C347.594 15.1047 347.538 14.722 347.426 14.414C347.324 14.0967 347.156 13.8587 346.922 13.7C346.689 13.532 346.386 13.448 346.012 13.448C345.443 13.448 344.972 13.63 344.598 13.994C344.234 14.3487 344.052 14.8713 344.052 15.562V20H342.876Z" fill="#414141"/>
</svg>
