<svg width="375" height="150" viewBox="0 0 375 150" fill="none" xmlns="http://www.w3.org/2000/svg">
<path d="M102.137 12.6947C100.697 13.121 99.2687 13.5929 97.8531 14.0979L77.9108 2.58282C71.9463 -0.860938 64.5994 -0.860938 58.6349 2.58282L9.63589 30.8737C3.67554 34.3175 0 40.6793 0 47.5668V104.14C0 111.028 3.67554 117.39 9.63589 120.834L20.559 127.142C20.2776 130.925 20.112 134.712 20.1203 138.499C20.1203 140.391 20.1617 142.282 20.2445 144.174C20.3397 146.062 20.4556 147.949 20.6874 149.824C21.391 142.32 22.5334 134.919 23.949 127.597C25.3811 120.279 27.1071 113.052 29.2098 105.953C29.7313 104.178 30.2777 102.41 30.8531 100.655C31.4284 98.9003 32.0037 97.1453 32.6287 95.411C33.8788 91.9424 35.1909 88.4987 36.6313 85.117L37.7281 82.588L38.8581 80.0755C39.6404 78.4158 40.4227 76.756 41.263 75.1252C42.9145 71.8511 44.6612 68.6309 46.5486 65.5017C48.4236 62.3642 50.427 59.3013 52.5421 56.3294C54.6282 53.3326 56.9089 50.4767 59.2516 47.6786C61.5819 44.8681 64.0985 42.2191 66.6772 39.628C69.26 37.041 71.9877 34.599 74.8023 32.2521C77.6045 29.8845 80.5681 27.7115 83.5814 25.5922L85.8703 24.04C86.247 23.7751 86.6443 23.5351 87.0334 23.2909L88.2048 22.55C89.7487 21.5317 91.3629 20.6335 92.9565 19.6774C96.185 17.8603 99.4632 16.0929 102.845 14.5076L104.111 13.9033L104.745 13.6012L105.386 13.3156L107.953 12.1732C108.805 11.7717 109.674 11.4281 110.544 11.0639C111.413 10.7038 112.278 10.3354 113.147 9.95874C109.447 10.6872 105.755 11.5523 102.141 12.6947H102.137ZM46.9501 52.2854C44.6819 55.4064 42.5502 58.6225 40.5552 61.9172C38.9533 64.6242 37.4425 67.3808 36.027 70.183V62.9313C36.027 59.4089 37.9061 56.1514 40.9567 54.3881L48.7631 49.8806L48.6885 49.9717L46.946 52.2813L46.9501 52.2854Z" fill="url(#paint0_linear_532_26230)"/>
<path d="M127.182 28.8848L104.495 15.7844C102.736 16.8275 100.998 17.8995 99.2799 19.0171C93.6921 22.6843 88.3319 26.7159 83.2988 31.1033C80.1034 33.9055 77.057 36.8319 74.1513 39.8659L95.861 52.3991C98.9115 54.1624 100.791 57.4158 100.791 60.9423V86.787C100.791 90.3094 98.9115 93.5669 95.861 95.3302L73.4807 108.253C70.4302 110.016 66.6677 110.016 63.6172 108.253L41.2369 95.3302C40.5747 94.9452 39.9662 94.4899 39.424 93.9767C34.5729 105.285 30.5911 117.015 27.2881 128.874L58.911 147.131C64.8755 150.575 72.2225 150.575 78.1869 147.131L127.182 118.845C133.146 115.401 136.818 109.039 136.818 102.151V45.5779C136.818 38.6904 133.142 32.3285 127.182 28.8848Z" fill="url(#paint1_linear_532_26230)"/>
<path d="M350.226 103V60.28H359.826L360.226 72.12L359.346 71.96C359.986 67.8534 361.186 64.8934 362.946 63.08C364.759 61.2134 367.212 60.28 370.306 60.28H374.226V69.08H370.226C368.039 69.08 366.226 69.4 364.786 70.04C363.346 70.68 362.252 71.6934 361.506 73.08C360.812 74.4134 360.466 76.1734 360.466 78.36V103H350.226Z" fill="white"/>
<path d="M321.363 103.96C317.15 103.96 313.443 103.053 310.243 101.24C307.097 99.3734 304.643 96.7601 302.883 93.4001C301.177 90.0401 300.323 86.1201 300.323 81.6401C300.323 77.1067 301.177 73.1867 302.883 69.8801C304.643 66.5201 307.097 63.9334 310.243 62.1201C313.443 60.2534 317.15 59.3201 321.363 59.3201C325.577 59.3201 329.257 60.2534 332.403 62.1201C335.55 63.9334 337.977 66.5201 339.683 69.8801C341.443 73.1867 342.323 77.1067 342.323 81.6401C342.323 86.1201 341.443 90.0401 339.683 93.4001C337.977 96.7601 335.55 99.3734 332.403 101.24C329.257 103.053 325.577 103.96 321.363 103.96ZM321.363 95.6401C324.67 95.6401 327.203 94.4134 328.963 91.9601C330.777 89.5067 331.683 86.0667 331.683 81.6401C331.683 77.2667 330.777 73.8534 328.963 71.4001C327.203 68.8934 324.67 67.6401 321.363 67.6401C318.057 67.6401 315.497 68.8934 313.683 71.4001C311.87 73.8534 310.963 77.2667 310.963 81.6401C310.963 86.0667 311.87 89.5067 313.683 91.9601C315.497 94.4134 318.057 95.6401 321.363 95.6401Z" fill="white"/>
<path d="M257.777 103V94.52L282.497 68.2H258.737V60.28H294.577V68.76L269.617 95.08H295.137V103H257.777Z" fill="white"/>
<path d="M231.986 103.96C227.72 103.96 224.013 103.053 220.866 101.24C217.72 99.3734 215.293 96.7601 213.586 93.4001C211.88 90.0401 211.026 86.1201 211.026 81.6401C211.026 77.1601 211.88 73.2667 213.586 69.9601C215.293 66.6001 217.693 63.9867 220.786 62.1201C223.933 60.2534 227.586 59.3201 231.746 59.3201C235.8 59.3201 239.346 60.2267 242.386 62.0401C245.48 63.8534 247.853 66.4667 249.506 69.8801C251.16 73.2934 251.986 77.4001 251.986 82.2001V84.5201H221.666C221.88 88.2534 222.893 91.0801 224.706 93.0001C226.573 94.8667 229.026 95.8001 232.066 95.8001C234.36 95.8001 236.253 95.2934 237.746 94.2801C239.293 93.2134 240.36 91.7467 240.946 89.8801L251.426 90.5201C250.253 94.6801 247.933 97.9601 244.466 100.36C241.053 102.76 236.893 103.96 231.986 103.96ZM221.666 77.6401H241.426C241.213 74.1734 240.226 71.6134 238.466 69.9601C236.706 68.2534 234.466 67.4001 231.746 67.4001C229.026 67.4001 226.76 68.2801 224.946 70.0401C223.186 71.8001 222.093 74.3334 221.666 77.6401Z" fill="white"/>
<path d="M160.4 103V46.2H184.16C188.267 46.2 191.814 46.8933 194.8 48.28C197.787 49.6666 200.107 51.64 201.76 54.2C203.414 56.76 204.24 59.7733 204.24 63.24C204.24 65.8533 203.68 68.1733 202.56 70.2C201.44 72.2266 199.92 73.8533 198 75.08C196.134 76.3066 194.054 77.0533 191.76 77.32L191.36 76.52C195.04 76.52 197.867 77.3466 199.84 79C201.867 80.6533 203.014 83.1866 203.28 86.6L204.72 103H194.16L192.96 88.12C192.8 85.88 192.08 84.2266 190.8 83.16C189.52 82.0933 187.387 81.56 184.4 81.56H170.8V103H160.4ZM170.8 72.44H183.52C186.667 72.44 189.12 71.6933 190.88 70.2C192.64 68.7066 193.52 66.6 193.52 63.88C193.52 61.1066 192.614 58.9733 190.8 57.48C189.04 55.9866 186.454 55.24 183.04 55.24H170.8V72.44Z" fill="white"/>
<defs>
<linearGradient id="paint0_linear_532_26230" x1="0.889912" y1="40.787" x2="70.4769" y2="82.0002" gradientUnits="userSpaceOnUse">
<stop stop-color="#1AF5AF"/>
<stop offset="1" stop-color="#3D84FF"/>
</linearGradient>
<linearGradient id="paint1_linear_532_26230" x1="13.9187" y1="41.3766" x2="75.5917" y2="77.9044" gradientUnits="userSpaceOnUse">
<stop stop-color="#1AF5AF"/>
<stop offset="1" stop-color="#3D84FF"/>
</linearGradient>
</defs>
</svg>
