<svg width="137" height="150" viewBox="0 0 137 150" fill="none" xmlns="http://www.w3.org/2000/svg">
<path d="M102.137 12.6947C100.697 13.121 99.2687 13.5929 97.8531 14.0979L77.9108 2.58282C71.9463 -0.860938 64.5994 -0.860938 58.6349 2.58282L9.63589 30.8737C3.67554 34.3175 0 40.6793 0 47.5668V104.14C0 111.028 3.67554 117.39 9.63589 120.834L20.559 127.142C20.2776 130.925 20.112 134.712 20.1203 138.499C20.1203 140.391 20.1617 142.282 20.2445 144.174C20.3397 146.062 20.4556 147.949 20.6874 149.824C21.391 142.32 22.5334 134.919 23.949 127.597C25.3811 120.279 27.1071 113.052 29.2098 105.953C29.7313 104.178 30.2777 102.41 30.8531 100.655C31.4284 98.9003 32.0037 97.1453 32.6287 95.411C33.8788 91.9424 35.1909 88.4987 36.6313 85.117L37.7281 82.588L38.8581 80.0755C39.6404 78.4158 40.4227 76.756 41.263 75.1252C42.9145 71.8511 44.6612 68.6309 46.5486 65.5017C48.4236 62.3642 50.427 59.3013 52.5421 56.3294C54.6282 53.3326 56.9089 50.4767 59.2516 47.6786C61.5819 44.8681 64.0985 42.2191 66.6772 39.628C69.26 37.041 71.9877 34.599 74.8023 32.2521C77.6045 29.8845 80.5681 27.7115 83.5814 25.5922L85.8703 24.04C86.247 23.7751 86.6443 23.5351 87.0334 23.2909L88.2048 22.55C89.7487 21.5317 91.3629 20.6335 92.9565 19.6774C96.185 17.8603 99.4632 16.0929 102.845 14.5076L104.111 13.9033L104.745 13.6012L105.386 13.3156L107.953 12.1732C108.805 11.7717 109.674 11.4281 110.544 11.0639C111.413 10.7038 112.278 10.3354 113.147 9.95874C109.447 10.6872 105.755 11.5523 102.141 12.6947H102.137ZM46.9501 52.2854C44.6819 55.4064 42.5502 58.6225 40.5552 61.9172C38.9533 64.6242 37.4425 67.3808 36.027 70.183V62.9313C36.027 59.4089 37.9061 56.1514 40.9567 54.3881L48.7631 49.8806L48.6885 49.9717L46.946 52.2813L46.9501 52.2854Z" fill="url(#paint0_linear_532_26221)"/>
<path d="M127.182 28.8848L104.495 15.7844C102.736 16.8275 100.998 17.8995 99.2799 19.0171C93.6921 22.6843 88.3319 26.7159 83.2988 31.1033C80.1034 33.9055 77.057 36.8319 74.1513 39.8659L95.861 52.3991C98.9115 54.1624 100.791 57.4158 100.791 60.9423V86.787C100.791 90.3094 98.9115 93.5669 95.861 95.3302L73.4807 108.253C70.4302 110.016 66.6677 110.016 63.6172 108.253L41.2369 95.3302C40.5747 94.9452 39.9662 94.4899 39.424 93.9767C34.5729 105.285 30.5911 117.015 27.2881 128.874L58.911 147.131C64.8755 150.575 72.2225 150.575 78.1869 147.131L127.182 118.845C133.146 115.401 136.818 109.039 136.818 102.151V45.5779C136.818 38.6904 133.142 32.3285 127.182 28.8848Z" fill="url(#paint1_linear_532_26221)"/>
<defs>
<linearGradient id="paint0_linear_532_26221" x1="0.889912" y1="40.787" x2="70.4769" y2="82.0002" gradientUnits="userSpaceOnUse">
<stop stop-color="#1AF5AF"/>
<stop offset="1" stop-color="#3D84FF"/>
</linearGradient>
<linearGradient id="paint1_linear_532_26221" x1="13.9187" y1="41.3766" x2="75.5917" y2="77.9044" gradientUnits="userSpaceOnUse">
<stop stop-color="#1AF5AF"/>
<stop offset="1" stop-color="#3D84FF"/>
</linearGradient>
</defs>
</svg>
