<svg width="192" height="77" viewBox="0 0 192 77" fill="none" xmlns="http://www.w3.org/2000/svg">
<path d="M52.4025 6.51314C51.6634 6.73188 50.9308 6.97397 50.2045 7.23305L39.9729 1.32514C36.9128 -0.441713 33.1433 -0.441713 30.0832 1.32514L4.94379 15.8401C1.88578 17.6069 0 20.8709 0 24.4046V53.4303C0 56.964 1.88578 60.228 4.94379 61.9949L10.548 65.2313C10.4036 67.1722 10.3187 69.1154 10.3229 71.0585C10.3229 72.029 10.3442 72.9995 10.3866 73.97C10.4355 74.9383 10.4949 75.9067 10.6139 76.8687C10.9749 73.0186 11.561 69.2215 12.2873 65.4649C13.022 61.7103 13.9076 58.0024 14.9864 54.3604C15.254 53.4494 15.5343 52.5426 15.8295 51.6422C16.1247 50.7418 16.4198 49.8414 16.7405 48.9516C17.3818 47.172 18.055 45.4051 18.794 43.6701L19.3568 42.3726L19.9366 41.0836C20.3379 40.232 20.7393 39.3804 21.1704 38.5437C22.0177 36.8639 22.9139 35.2118 23.8822 33.6063C24.8442 31.9966 25.8721 30.4251 26.9572 28.9004C28.0275 27.3629 29.1977 25.8976 30.3996 24.462C31.5952 23.02 32.8864 21.6609 34.2094 20.3315C35.5345 19.0043 36.934 17.7513 38.3781 16.5473C39.8158 15.3325 41.3363 14.2176 42.8823 13.1303L44.0566 12.334C44.2499 12.1981 44.4538 12.0749 44.6534 11.9496L45.2544 11.5695C46.0465 11.0471 46.8747 10.5862 47.6923 10.0957C49.3487 9.16342 51.0306 8.25664 52.7656 7.44329L53.4154 7.13324L53.7403 6.97822L54.0695 6.83169L55.3862 6.24557C55.8236 6.03958 56.2696 5.86332 56.7155 5.67644C57.1615 5.49168 57.6053 5.30268 58.0513 5.10943C56.1528 5.48319 54.2585 5.92703 52.4046 6.51314H52.4025ZM24.0882 26.8256C22.9245 28.4268 21.8308 30.0768 20.8072 31.7672C19.9854 33.1561 19.2103 34.5704 18.484 36.0081V32.2875C18.484 30.4803 19.4481 28.809 21.0132 27.9044L25.0184 25.5918L24.9801 25.6385L24.0861 26.8235L24.0882 26.8256Z" fill="url(#paint0_linear_347_2773)"/>
<path d="M65.2515 14.8196L53.6119 8.09833C52.7094 8.63348 51.8174 9.1835 50.9361 9.75688C48.0692 11.6384 45.3192 13.7068 42.7368 15.9578C41.0974 17.3955 39.5344 18.8969 38.0436 20.4536L49.182 26.8839C50.7471 27.7885 51.7113 29.4577 51.7113 31.267V44.5269C51.7113 46.3341 50.7471 48.0054 49.182 48.9101L37.6996 55.54C36.1345 56.4447 34.2041 56.4447 32.639 55.54L21.1566 48.9101C20.8168 48.7126 20.5047 48.479 20.2265 48.2156C17.7376 54.0174 15.6946 60.0357 14 66.1199L30.2245 75.4872C33.2846 77.254 37.054 77.254 40.1142 75.4872L65.2515 60.9744C68.3116 59.2075 70.1953 55.9435 70.1953 52.4098V23.3842C70.1953 19.8504 68.3095 16.5864 65.2515 14.8196Z" fill="url(#paint1_linear_347_2773)"/>
<path d="M179.688 52.8458V30.9279H184.613L184.818 37.0025L184.367 36.9204C184.695 34.8134 185.311 33.2948 186.214 32.3644C187.144 31.4067 188.403 30.9279 189.99 30.9279H192.001V35.4428H189.949C188.827 35.4428 187.896 35.607 187.158 35.9353C186.419 36.2637 185.858 36.7836 185.475 37.495C185.119 38.1791 184.941 39.0821 184.941 40.204V52.8458H179.688Z" fill="white"/>
<path d="M164.879 53.3383C162.717 53.3383 160.815 52.8732 159.174 51.9428C157.559 50.9851 156.3 49.6443 155.397 47.9204C154.522 46.1965 154.084 44.1853 154.084 41.8868C154.084 39.561 154.522 37.5498 155.397 35.8532C156.3 34.1294 157.559 32.8022 159.174 31.8719C160.815 30.9142 162.717 30.4353 164.879 30.4353C167.04 30.4353 168.929 30.9142 170.543 31.8719C172.157 32.8022 173.402 34.1294 174.278 35.8532C175.181 37.5498 175.633 39.561 175.633 41.8868C175.633 44.1853 175.181 46.1965 174.278 47.9204C173.402 49.6443 172.157 50.9851 170.543 51.9428C168.929 52.8732 167.04 53.3383 164.879 53.3383ZM164.879 49.0697C166.575 49.0697 167.875 48.4403 168.778 47.1816C169.708 45.9229 170.174 44.158 170.174 41.8868C170.174 39.6431 169.708 37.8918 168.778 36.6331C167.875 35.347 166.575 34.704 164.879 34.704C163.182 34.704 161.869 35.347 160.938 36.6331C160.008 37.8918 159.543 39.6431 159.543 41.8868C159.543 44.158 160.008 45.9229 160.938 47.1816C161.869 48.4403 163.182 49.0697 164.879 49.0697Z" fill="white"/>
<path d="M132.256 52.8458V48.495L144.939 34.9913H132.748V30.9279H151.136V35.2786L138.33 48.7823H151.424V52.8458H132.256Z" fill="white"/>
<path d="M119.023 53.3383C116.834 53.3383 114.932 52.8732 113.318 51.9428C111.704 50.9851 110.459 49.6443 109.583 47.9204C108.707 46.1965 108.27 44.1853 108.27 41.8868C108.27 39.5883 108.707 37.5908 109.583 35.8943C110.459 34.1704 111.69 32.8296 113.277 31.8719C114.891 30.9142 116.766 30.4353 118.9 30.4353C120.98 30.4353 122.799 30.9005 124.359 31.8309C125.946 32.7612 127.164 34.102 128.012 35.8532C128.86 37.6045 129.284 39.7115 129.284 42.1741V43.3644H113.728C113.838 45.2799 114.358 46.7301 115.288 47.7152C116.246 48.6729 117.505 49.1518 119.064 49.1518C120.241 49.1518 121.212 48.8918 121.978 48.3719C122.772 47.8246 123.319 47.0722 123.62 46.1144L128.997 46.4428C128.395 48.5771 127.205 50.26 125.426 51.4913C123.675 52.7227 121.541 53.3383 119.023 53.3383ZM113.728 39.8346H123.867C123.757 38.056 123.251 36.7426 122.348 35.8943C121.445 35.0187 120.296 34.5809 118.9 34.5809C117.505 34.5809 116.342 35.0324 115.411 35.9353C114.508 36.8383 113.947 38.1381 113.728 39.8346Z" fill="white"/>
<path d="M82.2949 52.8457V23.7039H94.4852C96.5922 23.7039 98.4118 24.0596 99.9442 24.7711C101.477 25.4825 102.667 26.495 103.515 27.8084C104.363 29.1218 104.787 30.6679 104.787 32.4465C104.787 33.7873 104.5 34.9776 103.926 36.0174C103.351 37.0572 102.571 37.8917 101.586 38.5211C100.628 39.1504 99.5611 39.5335 98.3845 39.6704L98.1793 39.2599C100.067 39.2599 101.518 39.684 102.53 40.5323C103.57 41.3806 104.158 42.6803 104.295 44.4315L105.034 52.8457H99.6158L99.0002 45.2114C98.9181 44.0621 98.5487 43.2139 97.8919 42.6666C97.2352 42.1194 96.1407 41.8457 94.6084 41.8457H87.6307V52.8457H82.2949ZM87.6307 37.1666H94.1569C95.7713 37.1666 97.03 36.7835 97.933 36.0174C98.836 35.2512 99.2875 34.1703 99.2875 32.7748C99.2875 31.3519 98.8223 30.2574 97.8919 29.4912C96.989 28.7251 95.6618 28.342 93.9106 28.342H87.6307V37.1666Z" fill="white"/>
<defs>
<linearGradient id="paint0_linear_347_2773" x1="0.456578" y1="20.9262" x2="36.1589" y2="42.071" gradientUnits="userSpaceOnUse">
<stop stop-color="#1AF5AF"/>
<stop offset="1" stop-color="#3D84FF"/>
</linearGradient>
<linearGradient id="paint1_linear_347_2773" x1="7.1407" y1="21.2287" x2="38.7827" y2="39.9696" gradientUnits="userSpaceOnUse">
<stop stop-color="#1AF5AF"/>
<stop offset="1" stop-color="#3D84FF"/>
</linearGradient>
</defs>
</svg>
