<svg width="23" height="17" viewBox="0 0 23 17" fill="none" xmlns="http://www.w3.org/2000/svg">
<g clip-path="url(#clip0_347_2764)">
<path d="M19.4782 1.41986C17.9653 0.748307 16.3733 0.268623 14.7318 0C14.5242 0.354966 14.2869 0.825056 14.1286 1.2088C12.3883 0.959368 10.6183 0.959368 8.86811 1.2088C8.68024 0.796275 8.47259 0.393341 8.24516 0C6.60371 0.268623 5.01171 0.748307 3.49881 1.42946C0.50268 5.75621 -0.308154 9.98702 0.0972633 14.1507C1.85737 15.417 3.82512 16.386 5.92143 17C6.39606 16.3764 6.81137 15.724 7.16734 15.0333C6.48505 14.7839 5.83243 14.4865 5.20947 14.1219C5.37757 14.0068 5.53578 13.8821 5.68411 13.7573C9.37241 15.4458 13.6441 15.4458 17.3225 13.7573C17.4808 13.8821 17.639 14.0068 17.8071 14.1219C17.1841 14.4865 16.5216 14.7839 15.8393 15.0333C16.1953 15.7144 16.6106 16.3764 17.0852 16.9904C19.1815 16.3764 21.1493 15.4074 22.9094 14.1411C23.3741 9.32506 22.0788 5.13262 19.4782 1.41986ZM7.67164 11.5892C6.53449 11.5892 5.605 10.5818 5.605 9.34424C5.605 8.10666 6.51472 7.08973 7.67164 7.08973C8.82856 7.08973 9.74817 8.09707 9.73828 9.33465C9.72839 10.5722 8.82856 11.5892 7.67164 11.5892ZM15.3152 11.5892C14.1781 11.5892 13.2486 10.5818 13.2486 9.34424C13.2486 8.10666 14.1583 7.08973 15.3152 7.08973C16.4722 7.08973 17.3918 8.09707 17.3819 9.33465C17.372 10.5818 16.4722 11.5892 15.3152 11.5892Z" fill="white"/>
</g>
<defs>
<clipPath id="clip0_347_2764">
<rect width="23" height="17" fill="white"/>
</clipPath>
</defs>
</svg>
