<svg width="1832" height="613" viewBox="0 0 1832 613" fill="none" xmlns="http://www.w3.org/2000/svg">
<path fill-rule="evenodd" clip-rule="evenodd" d="M1832 20C1832 8.95431 1823.05 0 1812 0H20C8.9543 0 0 8.95432 0 20V593C0 604.046 8.9543 613 20 613H197C208.046 613 217 604.046 217 593V575C217 563.954 225.954 555 237 555H1635C1646.05 555 1655 563.954 1655 575V593C1655 604.046 1663.95 613 1675 613H1812C1823.05 613 1832 604.046 1832 593V20Z" fill="url(#paint0_linear_347_2725)"/>
<defs>
<linearGradient id="paint0_linear_347_2725" x1="69" y1="59.5" x2="439.438" y2="1097.12" gradientUnits="userSpaceOnUse">
<stop stop-color="#262626"/>
<stop offset="1" stop-color="#171717"/>
</linearGradient>
</defs>
</svg>
