<svg width="20" height="20" viewBox="0 0 20 20" fill="none" xmlns="http://www.w3.org/2000/svg">
<path d="M19.8429 5.0228C19.6998 3.69964 19.1992 2.53741 18.2336 1.60762C17.1966 0.624195 15.9271 0.177183 14.5503 0.105661C12.2079 -0.0195026 6.61132 -0.0910246 4.66234 0.230824C2.4094 0.588435 0.943197 1.89371 0.335259 4.11089C-0.147514 5.80954 -0.0402311 13.6591 0.227976 15.3399C0.603467 17.6464 1.96239 19.1126 4.25109 19.7027C5.82457 20.1139 13.5847 20.0603 15.3191 19.7742C17.6257 19.3987 19.1098 18.0577 19.6998 15.769C20.1469 14.0167 19.9859 6.59628 19.8429 5.0228ZM18.0012 15.0001C17.733 16.7524 16.5708 17.8252 14.8185 18.0219C13.2092 18.2007 6.00338 18.2901 4.50142 17.8789C3.07098 17.4855 2.24847 16.5021 2.01603 15.0538C1.78358 13.677 1.72994 6.79297 2.01603 4.96916C2.28423 3.23475 3.44647 2.16192 5.18088 1.96523C6.95105 1.76855 13.3344 1.75067 15.033 2.00099C16.7674 2.2692 17.8582 3.43143 18.0548 5.18372C18.2158 6.82873 18.2694 13.2478 18.0012 15.0001ZM9.99073 4.86188C7.16561 4.86188 4.85903 7.15058 4.85903 9.99358C4.85903 12.8187 7.14773 15.1253 9.99073 15.1253C12.8159 15.1253 15.1224 12.8366 15.1224 9.99358C15.1224 7.16846 12.8337 4.86188 9.99073 4.86188ZM9.95497 13.3015C8.13116 13.3015 6.66496 11.7995 6.68284 9.95782C6.70072 8.13401 8.20268 6.64993 10.0265 6.66781C11.8503 6.68569 13.3344 8.18765 13.3165 10.0115C13.2986 11.8532 11.7967 13.3194 9.95497 13.3015ZM16.535 4.66519C16.535 5.32677 15.9986 5.86318 15.337 5.86318C14.6754 5.86318 14.139 5.32677 14.139 4.66519C14.139 4.00361 14.6754 3.4672 15.337 3.4672C15.9986 3.4672 16.535 4.00361 16.535 4.66519Z" fill="white"/>
</svg>
