<?xml version="1.0" encoding="UTF-8"?>
<svg version="1.1" xmlns="http://www.w3.org/2000/svg" width="200" height="200">
<path d="M0 0 C66 0 132 0 200 0 C200 66 200 132 200 200 C134 200 68 200 0 200 C0 134 0 68 0 0 Z " fill="#070606" transform="translate(0,0)"/>
<path d="M0 0 C0.99 0.495 0.99 0.495 2 1 C1.125 7.75 1.125 7.75 0 10 C-0.5858806 13.66175374 -0.67816049 16.03069207 1.4921875 19.1328125 C2.7228297 20.51664668 3.98268034 21.87518554 5.2734375 23.203125 C7.32285435 25.33600227 8.90632001 27.0201073 9.1953125 30.04296875 C9.13020833 32.02864583 9.06510417 34.01432292 9 36 C9.99 36 10.98 36 12 36 C11.93963048 33.28940855 11.8524809 30.58406023 11.75 27.875 C11.73582031 27.11445312 11.72164063 26.35390625 11.70703125 25.5703125 C11.43937684 19.3607302 9.54067912 15.7221562 5.25 11.125 C4.8375 10.75375 4.425 10.3825 4 10 C9.80782482 10.69140772 14.00266908 12.25873714 18.4375 16.125 C20.70292165 20.29337584 20.10641578 23.48981902 19 28 C18.1409934 30.44727401 17.14344935 32.66338611 16 35 C17.79623856 34.60350587 19.58698435 34.18206548 21.375 33.75 C22.37273437 33.51796875 23.37046875 33.2859375 24.3984375 33.046875 C27.08304408 32.23474683 27.08304408 32.23474683 28.35546875 30.12890625 C29.41304593 26.63569676 29.02290545 23.43312643 28 20 C26.50856986 17.48321165 24.80620179 15.31564332 23 13 C23 12.34 23 11.68 23 11 C33.92830816 14.39326463 46.60317138 19.5118956 52.4375 29.9375 C54.12418983 33.68569963 54.42042811 36.87980452 54 41 C53.67 41.33 53.34 41.66 53 42 C54.43066292 46.71277198 55.73233256 49.96594746 59.1875 53.5 C69.33941984 64.57677695 72.62114974 78.60169582 75 93 C76.32 92.34 77.64 91.68 79 91 C79.33 91.99 79.66 92.98 80 94 C80.66 94 81.32 94 82 94 C81.68875002 91.62483024 81.37603597 89.24986818 81.0625 86.875 C80.97548828 86.20984375 80.88847656 85.5446875 80.79882812 84.859375 C80.27369442 80.89169812 79.68185986 76.94373002 79 73 C80.32 73 81.64 73 83 73 C90.19680253 92.19147342 85.83868389 113.56155997 77.7734375 131.63671875 C74.80969208 137.25739014 71.01450006 142.09840067 67 147 C66.55914062 147.59296875 66.11828125 148.1859375 65.6640625 148.796875 C54.09832575 164.05380433 32.81585118 173.19452749 14.2578125 175.7734375 C12 176 12 176 10 176 C8.63838689 176.96113866 7.30144802 177.95884159 6 179 C5.8246875 177.9378125 5.649375 176.875625 5.46875 175.78125 C4.54780294 172.58047594 3.510575 171.29664878 0.65625 169.59375 C-0.71843356 168.8749231 -2.10463139 168.17780046 -3.5 167.5 C-4.95507789 166.7367846 -6.40820883 165.96984588 -7.859375 165.19921875 C-8.56771484 164.82845215 -9.27605469 164.45768555 -10.00585938 164.07568359 C-17.79996963 159.871368 -24.12308544 155.63074369 -27 147 C-27.49890335 140.3511534 -27.77650061 134.66475091 -24 129 C-25.65 128.34 -27.3 127.68 -29 127 C-28.01 124.03 -27.02 121.06 -26 118 C-23.03 118 -20.06 118 -17 118 C-16.34 116.35 -15.68 114.7 -15 113 C-20.33888215 114.21192488 -20.33888215 114.21192488 -25.4375 116.125 C-30.1308939 117.72762231 -34.62488325 117.90327021 -39.30078125 116.125 C-45.78919889 112.71830058 -51.91438283 108.12842575 -56 102 C-56.90400617 96.99438872 -56.90400617 96.99438872 -56 94 C-53.38419038 91.26248944 -50.31329575 89.46881569 -47.0625 87.5625 C-46.21236328 87.03462891 -45.36222656 86.50675781 -44.48632812 85.96289062 C-42.92104685 84.99129372 -41.34818467 84.03173616 -39.76586914 83.08813477 C-38.04378313 82.12079742 -38.04378313 82.12079742 -37 81 C-36.83946185 79.12678052 -36.83946185 79.12678052 -36.875 77 C-36.87242188 76.278125 -36.86984375 75.55625 -36.8671875 74.8125 C-36.80304724 72.97910585 -36.80304724 72.97910585 -38 72 C-38.07179964 70.48071962 -38.08392007 68.95832518 -38.0625 67.4375 C-38.05347656 66.61121094 -38.04445313 65.78492187 -38.03515625 64.93359375 C-38.02355469 64.29550781 -38.01195313 63.65742187 -38 63 C-38.639375 62.731875 -39.27875 62.46375 -39.9375 62.1875 C-42.91815423 60.47136575 -42.94060326 58.17819022 -44 55 C-46.00136244 53.57944932 -46.00136244 53.57944932 -48 53 C-48.26167969 53.55171875 -48.52335937 54.1034375 -48.79296875 54.671875 C-50 57 -50 57 -51.55078125 59.453125 C-61.32064817 74.96360109 -64.4200968 90.82107994 -61.3359375 108.890625 C-56.6699892 126.98638973 -46.9857946 141.22407177 -31 151 C-30.34 151.33 -29.68 151.66 -29 152 C-28.27306096 153.97888961 -27.60183749 155.97954558 -27 158 C-32.69893391 155.92489973 -37.17074218 152.60712969 -42 149 C-42.69609375 148.48566406 -43.3921875 147.97132813 -44.109375 147.44140625 C-53.75659966 139.70433207 -60.06305273 128.56657867 -64 117 C-64.25749023 116.27490234 -64.51498047 115.54980469 -64.78027344 114.80273438 C-66.90093816 108.42308903 -67.54433432 102.57971338 -67.5 95.875 C-67.49500488 94.87307617 -67.49000977 93.87115234 -67.48486328 92.83886719 C-67.14764443 78.31287452 -62.43041538 64.14649366 -52.625 53.1875 C-48.97132187 48.61335797 -49.85391767 44.07664734 -50.09375 38.4765625 C-49.91324887 31.78297878 -46.82589767 26.41872973 -42.0625 21.8125 C-36.67188707 17.61311627 -30.1559936 14.88588882 -24 12 C-24 16.01094227 -25.76100999 17.74328725 -28 21 C-29.20307987 24.60923962 -29.40565724 27.21386577 -29 31 C-26.54442622 32.74654193 -26.54442622 32.74654193 -24 34 C-24.2475 32.60587891 -24.2475 32.60587891 -24.5 31.18359375 C-25.82488033 21.25734187 -25.82488033 21.25734187 -23.390625 17.546875 C-20.37683703 14.92905917 -17.79464536 13.26488179 -14 12 C-15.17975733 14.55614089 -16.46216013 16.63886841 -18.125 18.9375 C-20.06318443 22.10320123 -20.58472252 23.39421113 -20 27 C-19.34 27.99 -18.68 28.98 -18 30 C-18.32126128 32.63434254 -18.81355048 34.62710097 -20 37 C-16.06950388 35.68983463 -13.38903289 34.45082529 -11 31 C-10.67033354 27.97020826 -10.76657689 25.03450042 -11 22 C-6.07853403 26.18324607 -6.07853403 26.18324607 -5.6875 30.25 C-5.790625 31.1575 -5.89375 32.065 -6 33 C-6 33.33 -6 33.66 -6 34 C-4.68 34 -3.36 34 -2 34 C-2.33844523 29.85404593 -2.8039435 27.01951737 -5.0625 23.5 C-7.28538315 19.80886561 -7.75144411 17.35837584 -7 13 C-5.61039548 10.57128469 -4.09063455 8.34994622 -2.41015625 6.11328125 C-1.01612181 4.02416038 -0.43719321 2.45160241 0 0 Z " fill="#0A0909" transform="translate(98,8)"/>
<path d="M0 0 C0.99 0.495 0.99 0.495 2 1 C1.125 7.75 1.125 7.75 0 10 C-0.5858806 13.66175374 -0.67816049 16.03069207 1.4921875 19.1328125 C2.7228297 20.51664668 3.98268034 21.87518554 5.2734375 23.203125 C7.32285435 25.33600227 8.90632001 27.0201073 9.1953125 30.04296875 C9.13020833 32.02864583 9.06510417 34.01432292 9 36 C9.99 36 10.98 36 12 36 C11.93963048 33.28940855 11.8524809 30.58406023 11.75 27.875 C11.73582031 27.11445312 11.72164063 26.35390625 11.70703125 25.5703125 C11.43937684 19.3607302 9.54067912 15.7221562 5.25 11.125 C4.8375 10.75375 4.425 10.3825 4 10 C9.80782482 10.69140772 14.00266908 12.25873714 18.4375 16.125 C20.70292165 20.29337584 20.10641578 23.48981902 19 28 C18.1409934 30.44727401 17.14344935 32.66338611 16 35 C17.79623856 34.60350587 19.58698435 34.18206548 21.375 33.75 C22.37273437 33.51796875 23.37046875 33.2859375 24.3984375 33.046875 C27.08304408 32.23474683 27.08304408 32.23474683 28.35546875 30.12890625 C29.41304593 26.63569676 29.02290545 23.43312643 28 20 C26.50856986 17.48321165 24.80620179 15.31564332 23 13 C23 12.34 23 11.68 23 11 C33.937484 14.39611375 44.5024255 19.43837882 51.9375 28.3125 C53.47594468 32.20386006 53.24307849 35.86766561 53 40 C51.4250586 37.63758789 50.49741476 35.81018058 49.4375 33.25 C46.92123464 28.04393374 42.67769528 25.19842412 38 22 C38.495 23.485 38.495 23.485 39 25 C39.04166002 27.3329614 39.04166002 29.6670386 39 32 C39 32.99 39 33.98 39 35 C39.33 33.68 39.66 32.36 40 31 C40.66 31 41.32 31 42 31 C42.05429959 32.74965358 42.09292823 34.49979787 42.125 36.25 C42.14820313 37.22453125 42.17140625 38.1990625 42.1953125 39.203125 C41.85565938 44.06695762 39.41085565 47.58914435 36 51 C33 51.625 33 51.625 31.21484375 51.75390625 C26.39009862 52.28998904 21.68932135 53.77569442 17 55 C18.51947499 51.63251488 19.52100842 50.39159663 23 49 C19.535 49.495 19.535 49.495 16 50 C18.75520215 47.04070881 21.46627288 44.96318174 25 43 C24.38511719 43.2165625 23.77023438 43.433125 23.13671875 43.65625 C22.32847656 43.9346875 21.52023438 44.213125 20.6875 44.5 C19.88699219 44.7784375 19.08648437 45.056875 18.26171875 45.34375 C16 46 16 46 13 46 C16.71462039 41.58415025 21.21585611 40.20270935 26.51171875 38.46484375 C31.44796513 36.68148927 33.64680397 34.67630003 36 30 C35.93676407 26.26908031 35.80468884 23.99781416 33.4375 21.0625 C32.963125 20.711875 32.48875 20.36125 32 20 C32.495 20.99 32.495 20.99 33 22 C33.62304011 26.53039167 33.70341168 29.90849912 31.1875 33.8125 C24.43472178 38.44675956 17.17922461 40.86097101 9 40 C8.35933594 39.67257813 7.71867187 39.34515625 7.05859375 39.0078125 C3.14781929 37.0932398 -0.76960609 37.30451404 -5 38 C-8.31596866 39.40689536 -11.40053848 41.00597612 -14.53125 42.78515625 C-15.3459375 43.18605469 -16.160625 43.58695313 -17 44 C-17.99 43.505 -17.99 43.505 -19 43 C-18.67 42.67 -18.34 42.34 -18 42 C-18.73605469 41.69707031 -19.47210938 41.39414062 -20.23046875 41.08203125 C-30.88855112 36.50623631 -30.88855112 36.50623631 -34 32 C-34.54615489 27.55273877 -34.10924863 24.87119126 -32 21 C-37.41623813 24.05531382 -41.95435798 26.826477 -44.41015625 32.72265625 C-45.94192783 38.63671475 -45.97570407 43.97631748 -43.3125 49.5 C-39.6264777 53.48488897 -36.36548214 55.23350255 -31 56 C-31 56.66 -31 57.32 -31 58 C-34.465 58.495 -34.465 58.495 -38 59 C-37.01 59.66 -36.02 60.32 -35 61 C-34.55859375 63.12890625 -34.55859375 63.12890625 -34.4375 65.5625 C-34.35309865 67.93738847 -34.35309865 67.93738847 -34 70 C-33.01 70.495 -33.01 70.495 -32 71 C-32 74.96 -32 78.92 -32 83 C-31.01 83 -30.02 83 -29 83 C-32.9700218 87.21814817 -37.30840284 90.61227103 -42 94 C-42.66 93.67 -43.32 93.34 -44 93 C-43.67 92.34 -43.34 91.68 -43 91 C-44.65 91.99 -46.3 92.98 -48 94 C-46.515 94.99 -46.515 94.99 -45 96 C-48.28696233 96.79953138 -49.71023192 97.09658936 -53 96 C-51.7064164 102.03672349 -48.7068363 104.45743399 -44 108 C-43.071875 108.78375 -42.14375 109.5675 -41.1875 110.375 C-36.71804233 112.65354705 -32.92642716 112.67109225 -28 112 C-25.87787247 111.31012109 -23.8678961 110.4877547 -21.81640625 109.61328125 C-18.93926177 108.64185827 -16.83535752 109.07686034 -14 110 C-12.0625 111.1875 -12.0625 111.1875 -11 113 C-11 116.82727486 -11.52291843 118.480823 -14.125 121.3125 C-17.46959365 123.27563105 -20.16095755 123.69889863 -24 124 C-24 124.33 -24 124.66 -24 125 C-21.69 125.33 -19.38 125.66 -17 126 C-17.54140625 126.74830078 -17.54140625 126.74830078 -18.09375 127.51171875 C-22.34550491 134.09012842 -23.20316159 140.25966042 -22 148 C-20.57975096 150.82176643 -20.57975096 150.82176643 -19 153 C-18.67 151.68 -18.34 150.36 -18 149 C-17.505 149.845625 -17.01 150.69125 -16.5 151.5625 C-11.22054504 159.32640435 -4.27306527 163.13263478 4.2421875 166.73828125 C7 168 7 168 9 170 C8.97381592 169.40574219 8.94763184 168.81148437 8.9206543 168.19921875 C8.81573065 165.46642258 8.75137971 162.73405142 8.6875 160 C8.64560547 159.06542969 8.60371094 158.13085938 8.56054688 157.16796875 C8.44230787 150.40469738 9.78497229 146.30703827 14 141 C14.66 141.33 15.32 141.66 16 142 C15.34 143.32 14.68 144.64 14 146 C14.60328125 145.52949219 15.2065625 145.05898437 15.828125 144.57421875 C16.62734375 143.95160156 17.4265625 143.32898438 18.25 142.6875 C19.03890625 142.07261719 19.8278125 141.45773438 20.640625 140.82421875 C22.7462297 139.19620982 24.86609343 137.59064137 27 136 C25.65959673 141.95734787 22.37221574 145.90925737 18 150 C15.0625 151.5 15.0625 151.5 13 152 C13.165 152.94875 13.33 153.8975 13.5 154.875 C14.60415779 163.01610371 15.0144596 169.17476332 10 176 C7.75 177.9375 7.75 177.9375 6 179 C5.8246875 177.9378125 5.649375 176.875625 5.46875 175.78125 C4.54780294 172.58047594 3.510575 171.29664878 0.65625 169.59375 C-0.71843356 168.8749231 -2.10463139 168.17780046 -3.5 167.5 C-4.95507789 166.7367846 -6.40820883 165.96984588 -7.859375 165.19921875 C-8.56771484 164.82845215 -9.27605469 164.45768555 -10.00585938 164.07568359 C-17.79996963 159.871368 -24.12308544 155.63074369 -27 147 C-27.49890335 140.3511534 -27.77650061 134.66475091 -24 129 C-25.65 128.34 -27.3 127.68 -29 127 C-28.01 124.03 -27.02 121.06 -26 118 C-23.03 118 -20.06 118 -17 118 C-16.34 116.35 -15.68 114.7 -15 113 C-20.33888215 114.21192488 -20.33888215 114.21192488 -25.4375 116.125 C-30.1308939 117.72762231 -34.62488325 117.90327021 -39.30078125 116.125 C-45.78919889 112.71830058 -51.91438283 108.12842575 -56 102 C-56.90400617 96.99438872 -56.90400617 96.99438872 -56 94 C-53.38419038 91.26248944 -50.31329575 89.46881569 -47.0625 87.5625 C-46.21236328 87.03462891 -45.36222656 86.50675781 -44.48632812 85.96289062 C-42.92104685 84.99129372 -41.34818467 84.03173616 -39.76586914 83.08813477 C-38.04378313 82.12079742 -38.04378313 82.12079742 -37 81 C-36.83946185 79.12678052 -36.83946185 79.12678052 -36.875 77 C-36.87242188 76.278125 -36.86984375 75.55625 -36.8671875 74.8125 C-36.80304724 72.97910585 -36.80304724 72.97910585 -38 72 C-38.07179964 70.48071962 -38.08392007 68.95832518 -38.0625 67.4375 C-38.05347656 66.61121094 -38.04445313 65.78492187 -38.03515625 64.93359375 C-38.02355469 64.29550781 -38.01195313 63.65742187 -38 63 C-38.639375 62.731875 -39.27875 62.46375 -39.9375 62.1875 C-42.91815423 60.47136575 -42.94060326 58.17819022 -44 55 C-46.00136244 53.57944932 -46.00136244 53.57944932 -48 53 C-48.26167969 53.55171875 -48.52335937 54.1034375 -48.79296875 54.671875 C-50 57 -50 57 -51.55078125 59.453125 C-61.32064817 74.96360109 -64.4200968 90.82107994 -61.3359375 108.890625 C-56.6699892 126.98638973 -46.9857946 141.22407177 -31 151 C-30.34 151.33 -29.68 151.66 -29 152 C-28.27306096 153.97888961 -27.60183749 155.97954558 -27 158 C-32.69893391 155.92489973 -37.17074218 152.60712969 -42 149 C-42.69609375 148.48566406 -43.3921875 147.97132813 -44.109375 147.44140625 C-53.75659966 139.70433207 -60.06305273 128.56657867 -64 117 C-64.25749023 116.27490234 -64.51498047 115.54980469 -64.78027344 114.80273438 C-66.90093816 108.42308903 -67.54433432 102.57971338 -67.5 95.875 C-67.49500488 94.87307617 -67.49000977 93.87115234 -67.48486328 92.83886719 C-67.14764443 78.31287452 -62.43041538 64.14649366 -52.625 53.1875 C-48.97132187 48.61335797 -49.85391767 44.07664734 -50.09375 38.4765625 C-49.91324887 31.78297878 -46.82589767 26.41872973 -42.0625 21.8125 C-36.67188707 17.61311627 -30.1559936 14.88588882 -24 12 C-24 16.01094227 -25.76100999 17.74328725 -28 21 C-29.20307987 24.60923962 -29.40565724 27.21386577 -29 31 C-26.54442622 32.74654193 -26.54442622 32.74654193 -24 34 C-24.2475 32.60587891 -24.2475 32.60587891 -24.5 31.18359375 C-25.82488033 21.25734187 -25.82488033 21.25734187 -23.390625 17.546875 C-20.37683703 14.92905917 -17.79464536 13.26488179 -14 12 C-15.17975733 14.55614089 -16.46216013 16.63886841 -18.125 18.9375 C-20.06318443 22.10320123 -20.58472252 23.39421113 -20 27 C-19.34 27.99 -18.68 28.98 -18 30 C-18.32126128 32.63434254 -18.81355048 34.62710097 -20 37 C-16.06950388 35.68983463 -13.38903289 34.45082529 -11 31 C-10.67033354 27.97020826 -10.76657689 25.03450042 -11 22 C-6.07853403 26.18324607 -6.07853403 26.18324607 -5.6875 30.25 C-5.790625 31.1575 -5.89375 32.065 -6 33 C-6 33.33 -6 33.66 -6 34 C-4.68 34 -3.36 34 -2 34 C-2.33844523 29.85404593 -2.8039435 27.01951737 -5.0625 23.5 C-7.28538315 19.80886561 -7.75144411 17.35837584 -7 13 C-5.61039548 10.57128469 -4.09063455 8.34994622 -2.41015625 6.11328125 C-1.01612181 4.02416038 -0.43719321 2.45160241 0 0 Z " fill="#E3E2E2" transform="translate(98,8)"/>
<path d="M0 0 C0.66 0.33 1.32 0.66 2 1 C1.125 7.75 1.125 7.75 0 10 C-0.5858806 13.66175374 -0.67816049 16.03069207 1.4921875 19.1328125 C2.7228297 20.51664668 3.98268034 21.87518554 5.2734375 23.203125 C7.32285435 25.33600227 8.90632001 27.0201073 9.1953125 30.04296875 C9.13020833 32.02864583 9.06510417 34.01432292 9 36 C9.99 36 10.98 36 12 36 C11.93963048 33.28940855 11.8524809 30.58406023 11.75 27.875 C11.73582031 27.11445312 11.72164062 26.35390625 11.70703125 25.5703125 C11.43937684 19.3607302 9.54067912 15.7221562 5.25 11.125 C4.8375 10.75375 4.425 10.3825 4 10 C9.80782482 10.69140772 14.00266908 12.25873714 18.4375 16.125 C20.70292165 20.29337584 20.10641578 23.48981902 19 28 C18.1409934 30.44727401 17.14344935 32.66338611 16 35 C17.79623856 34.60350587 19.58698435 34.18206548 21.375 33.75 C22.87160156 33.40195313 22.87160156 33.40195313 24.3984375 33.046875 C27.08304408 32.23474683 27.08304408 32.23474683 28.35546875 30.12890625 C29.41304593 26.63569676 29.02290545 23.43312643 28 20 C26.50856986 17.48321165 24.80620179 15.31564332 23 13 C23 12.34 23 11.68 23 11 C33.937484 14.39611375 44.5024255 19.43837882 51.9375 28.3125 C53.47594468 32.20386006 53.24307849 35.86766561 53 40 C51.4250586 37.63758789 50.49741476 35.81018058 49.4375 33.25 C46.92123464 28.04393374 42.67769528 25.19842412 38 22 C38.495 23.485 38.495 23.485 39 25 C39.04166002 27.3329614 39.04166002 29.6670386 39 32 C39 32.99 39 33.98 39 35 C39.33 33.68 39.66 32.36 40 31 C40.66 31 41.32 31 42 31 C42.05429959 32.74965358 42.09292823 34.49979787 42.125 36.25 C42.14820313 37.22453125 42.17140625 38.1990625 42.1953125 39.203125 C41.85565938 44.06695762 39.41085565 47.58914435 36 51 C33 51.625 33 51.625 31.21484375 51.75390625 C26.39009862 52.28998904 21.68932135 53.77569442 17 55 C18.51947499 51.63251488 19.52100842 50.39159663 23 49 C19.535 49.495 19.535 49.495 16 50 C18.75520215 47.04070881 21.46627288 44.96318174 25 43 C24.38511719 43.2165625 23.77023438 43.433125 23.13671875 43.65625 C22.32847656 43.9346875 21.52023438 44.213125 20.6875 44.5 C19.88699219 44.7784375 19.08648437 45.056875 18.26171875 45.34375 C16 46 16 46 13 46 C16.71462039 41.58415025 21.21585611 40.20270935 26.51171875 38.46484375 C31.44796513 36.68148927 33.64680397 34.67630003 36 30 C35.93676407 26.26908031 35.80468884 23.99781416 33.4375 21.0625 C32.963125 20.711875 32.48875 20.36125 32 20 C32.495 20.99 32.495 20.99 33 22 C33.62304011 26.53039167 33.70341168 29.90849912 31.1875 33.8125 C24.43472178 38.44675956 17.17922461 40.86097101 9 40 C8.35933594 39.67257813 7.71867187 39.34515625 7.05859375 39.0078125 C3.14781929 37.0932398 -0.76960609 37.30451404 -5 38 C-8.31596866 39.40689536 -11.40053848 41.00597612 -14.53125 42.78515625 C-15.3459375 43.18605469 -16.160625 43.58695313 -17 44 C-17.66 43.67 -18.32 43.34 -19 43 C-18.505 42.505 -18.505 42.505 -18 42 C-18.73605469 41.69707031 -19.47210938 41.39414062 -20.23046875 41.08203125 C-30.88855112 36.50623631 -30.88855112 36.50623631 -34 32 C-34.76126533 26.76630088 -33.64156434 23.51267241 -31 19 C-30.34 19.33 -29.68 19.66 -29 20 C-29.05800781 20.75925781 -29.11601563 21.51851562 -29.17578125 22.30078125 C-29.22089844 23.29464844 -29.26601562 24.28851563 -29.3125 25.3125 C-29.37050781 26.29863281 -29.42851563 27.28476562 -29.48828125 28.30078125 C-29.2752881 31.24207915 -29.2752881 31.24207915 -26.48046875 32.85546875 C-25.66191406 33.23316406 -24.84335938 33.61085937 -24 34 C-24.165 33.07058594 -24.33 32.14117187 -24.5 31.18359375 C-25.82488033 21.25734187 -25.82488033 21.25734187 -23.390625 17.546875 C-20.37683703 14.92905917 -17.79464536 13.26488179 -14 12 C-15.17975733 14.55614089 -16.46216013 16.63886841 -18.125 18.9375 C-20.06318443 22.10320123 -20.58472252 23.39421113 -20 27 C-19.34 27.99 -18.68 28.98 -18 30 C-18.32126128 32.63434254 -18.81355048 34.62710097 -20 37 C-16.06950388 35.68983463 -13.38903289 34.45082529 -11 31 C-10.67033354 27.97020826 -10.76657689 25.03450042 -11 22 C-6.07853403 26.18324607 -6.07853403 26.18324607 -5.6875 30.25 C-5.790625 31.1575 -5.89375 32.065 -6 33 C-6 33.33 -6 33.66 -6 34 C-4.68 34 -3.36 34 -2 34 C-2.33844523 29.85404593 -2.8039435 27.01951737 -5.0625 23.5 C-7.28538315 19.80886561 -7.75144411 17.35837584 -7 13 C-5.61039548 10.57128469 -4.09063455 8.34994622 -2.41015625 6.11328125 C-1.01612181 4.02416038 -0.43719321 2.45160241 0 0 Z " fill="#EDEDEC" transform="translate(98,8)"/>
<path d="M0 0 C0.99386719 0.00902344 1.98773438 0.01804687 3.01171875 0.02734375 C4.15060547 0.04474609 4.15060547 0.04474609 5.3125 0.0625 C4.3225 0.7225 3.3325 1.3825 2.3125 2.0625 C2.93898437 2.30484375 3.56546875 2.5471875 4.2109375 2.796875 C5.02820313 3.13203125 5.84546875 3.4671875 6.6875 3.8125 C7.49960938 4.13734375 8.31171875 4.4621875 9.1484375 4.796875 C11.3125 6.0625 11.3125 6.0625 13.3125 10.0625 C9.6825 9.4025 6.0525 8.7425 2.3125 8.0625 C2.3125 8.7225 2.3125 9.3825 2.3125 10.0625 C3.158125 10.10375 4.00375 10.145 4.875 10.1875 C9.95253556 11.4799636 13.8001622 14.53699473 16.5078125 19.05859375 C17.59813314 21.77380972 17.44405151 24.16836686 17.3125 27.0625 C15.3325 25.4125 13.3525 23.7625 11.3125 22.0625 C11.3125 23.3825 11.3125 24.7025 11.3125 26.0625 C10.6525 26.0625 9.9925 26.0625 9.3125 26.0625 C7.97916667 24.39583333 6.64583333 22.72916667 5.3125 21.0625 C4.6525 21.0625 3.9925 21.0625 3.3125 21.0625 C3.80363281 21.89007813 3.80363281 21.89007813 4.3046875 22.734375 C5.48037715 25.45030923 5.51498638 27.36801759 5.4375 30.3125 C5.41945312 31.20453125 5.40140625 32.0965625 5.3828125 33.015625 C5.35960937 33.69109375 5.33640625 34.3665625 5.3125 35.0625 C4.590625 34.299375 3.86875 33.53625 3.125 32.75 C-2.56526451 27.31263613 -7.83319716 25.61740431 -15.5625 25.62890625 C-20.31842964 26.28879149 -24.57349922 28.059582 -28.97753906 29.92797852 C-33.06390522 31.62827447 -36.26155372 32.39238419 -40.6875 32.0625 C-37.86352921 29.82414527 -35.05101274 28.13635666 -31.8125 26.5625 C-28.97620757 25.17975538 -26.1656574 23.78680957 -23.375 22.3125 C-20.77910024 21.10510476 -18.51001438 20.47757564 -15.6875 20.0625 C-18.6575 19.4025 -21.6275 18.7425 -24.6875 18.0625 C-25.3475 19.3825 -26.0075 20.7025 -26.6875 22.0625 C-32.68966549 27.27553616 -38.29832325 28.7135303 -46.12109375 28.46875 C-48.6875 28.0625 -48.6875 28.0625 -51.6875 26.0625 C-51.04080586 24.71936601 -50.36846422 23.38858822 -49.6875 22.0625 C-49.3575 21.27746094 -49.0275 20.49242188 -48.6875 19.68359375 C-45.70401775 15.77360041 -42.00785814 14.55856051 -37.5 12.8125 C-36.61538086 12.461875 -35.73076172 12.11125 -34.81933594 11.75 C-26.72737783 8.73039597 -19.30105356 7.87001836 -10.6875 8.0625 C-11.3475 7.7325 -12.0075 7.4025 -12.6875 7.0625 C-12.6875 6.4025 -12.6875 5.7425 -12.6875 5.0625 C-11.3675 4.4025 -10.0475 3.7425 -8.6875 3.0625 C-8.6875 2.4025 -8.6875 1.7425 -8.6875 1.0625 C-5.53819107 0.01273036 -3.29935544 -0.03881595 0 0 Z " fill="#F5F5F5" transform="translate(103.6875,86.9375)"/>
<path d="M0 0 C-0.165 0.515625 -0.33 1.03125 -0.5 1.5625 C-1.1830061 4.89215473 -1.35741638 7.60454442 -1 11 C2.78824431 16.61705191 8.81272217 18.06038051 15 20 C15 20.66 15 21.32 15 22 C16.12535156 21.3503125 16.12535156 21.3503125 17.2734375 20.6875 C24.11159706 16.96699001 29.20395827 15.06861448 37 16 C37 16.33 37 16.66 37 17 C35.906875 17.103125 34.81375 17.20625 33.6875 17.3125 C30.10046342 17.98126953 29.10024928 18.19966763 27 21 C26.505 21.495 26.505 21.495 26 22 C26.66 22.33 27.32 22.66 28 23 C27.52949219 23.49628906 27.05898437 23.99257813 26.57421875 24.50390625 C22.62393472 28.81405053 19.95387647 32.48317233 18 38 C17.34 37.67 16.68 37.34 16 37 C16.66 34.69 17.32 32.38 18 30 C15.67527795 32.85306797 14.2491742 35.54074837 13 39 C11.35 39 9.7 39 8 39 C8.66 37.02 9.32 35.04 10 33 C8.35 35.31 6.7 37.62 5 40 C6.00901367 39.98952637 7.01802734 39.97905273 8.05761719 39.96826172 C11.80725547 39.93201503 15.5568783 39.90908257 19.30664062 39.89013672 C20.92841192 39.88008977 22.55016516 39.86644985 24.171875 39.84912109 C26.50525374 39.82481507 28.8383926 39.81350387 31.171875 39.8046875 C32.25647003 39.78920364 32.25647003 39.78920364 33.36297607 39.77340698 C37.07798039 39.77258218 39.84581045 39.93764529 43 42 C42.01 42.495 42.01 42.495 41 43 C42.58941406 43.18175781 42.58941406 43.18175781 44.2109375 43.3671875 C45.59901324 43.53600752 46.98703119 43.70530308 48.375 43.875 C49.07367188 43.95363281 49.77234375 44.03226563 50.4921875 44.11328125 C55.7734375 44.7734375 55.7734375 44.7734375 58 47 C56.20824107 46.85530469 54.41659858 46.70916739 52.625 46.5625 C51.62726563 46.48128906 50.62953125 46.40007812 49.6015625 46.31640625 C47.67451679 46.14711048 45.74762129 45.96974631 43.8269043 45.73950195 C35.55084563 44.77936134 27.33579758 44.97571277 19.01757812 45.12695312 C17.89931641 45.13791016 16.78105469 45.14886719 15.62890625 45.16015625 C14.1140564 45.18541382 14.1140564 45.18541382 12.56860352 45.21118164 C10 45 10 45 7 43 C7 43.66 7 44.32 7 45 C6.34 45 5.68 45 5 45 C5.495 45.61875 5.99 46.2375 6.5 46.875 C8 49 8 49 8 51 C7.34 51 6.68 51 6 51 C6.33 52.98 6.66 54.96 7 57 C6.01 57.495 6.01 57.495 5 58 C3.40861915 53.82262526 2.78721942 50.46839215 3 46 C1.02 45.67 -0.96 45.34 -3 45 C-3 43.35 -3 41.7 -3 40 C-4.32 39.34 -5.64 38.68 -7 38 C-7 37.67 -7 37.34 -7 37 C-4.36 37 -1.72 37 1 37 C1 36.34 1 35.68 1 35 C-0.03125 34.938125 -1.0625 34.87625 -2.125 34.8125 C-6.98213866 33.7940677 -8.52665259 32.47334741 -12 29 C-14.9248254 24.29831821 -14.57947162 19.35639794 -14 14 C-12.35639675 7.91450694 -8.84389807 4.60623712 -3.8046875 1.03125 C-2 0 -2 0 0 0 Z " fill="#111111" transform="translate(66,29)"/>
<path d="M0 0 C4.90223522 4.7440986 4.90223522 4.7440986 5.203125 8.609375 C5.36479471 19.44124587 5.36479471 19.44124587 2 24 C0.82772377 24.97689686 -0.36122016 25.93399746 -1.5625 26.875 C-5.65881516 30.14342831 -6.16511882 32.9072248 -7 38 C-7.33 38.99 -7.66 39.98 -8 41 C-5.36 41 -2.72 41 0 41 C-0.14168137 42.43791516 -0.28851043 43.8753237 -0.4375 45.3125 C-0.51871094 46.11300781 -0.59992188 46.91351563 -0.68359375 47.73828125 C-1 50 -1 50 -2 53 C-1.46890625 53.42410156 -0.9378125 53.84820312 -0.390625 54.28515625 C6.0581925 59.63955764 10.15206486 64.30866476 11 73 C15.57748509 70.1204024 15.57748509 70.1204024 19 66 C19.66433752 60.13168524 18.20881421 57.76146625 15 53 C15.25 50.125 15.25 50.125 16 48 C16.99 48 17.98 48 19 48 C18.78472656 48.60199219 18.56945312 49.20398438 18.34765625 49.82421875 C18.17556641 50.90123047 18.17556641 50.90123047 18 52 C19.2065625 53.3921875 19.2065625 53.3921875 20.4375 54.8125 C24.72896574 60.37462319 23.73972817 67.36338214 23 74 C20.29880813 85.42445267 12.53218381 95.26563078 4 103 C4.61875 102.690625 5.2375 102.38125 5.875 102.0625 C7.25 101.375 8.625 100.6875 10 100 C9.703125 101.9140625 9.703125 101.9140625 9 104 C5.75 105.375 5.75 105.375 3.609375 106.07421875 C-1.7557856 107.97772633 -6.85393107 110.57601326 -12 113 C-10.40733964 108.61281058 -8.54265126 106.09981985 -5 103 C-4.34 103 -3.68 103 -3 103 C-2.31225595 101.67741528 -1.65288627 100.34013497 -1 99 C-0.46375 98.030625 0.0725 97.06125 0.625 96.0625 C3.1835204 90.07530252 3.11909326 82.18148353 0.98046875 76.1015625 C0.49513672 75.06128906 0.49513672 75.06128906 0 74 C3 75 3 75 4.1328125 76.63671875 C6.13103025 80.76689322 7.53708186 84.37081861 8 89 C10.43523351 81.69429946 9.35797041 75.668812 6 68.8125 C2.96102488 62.90373307 -0.70042086 58.92860106 -6 55 C-7.01703201 54.01732717 -8.02287448 53.02236281 -9 52 C-8.195625 51.21625 -7.39125 50.4325 -6.5625 49.625 C-4.01309583 47.28017144 -4.01309583 47.28017144 -3 45 C-3.928125 45.04125 -4.85625 45.0825 -5.8125 45.125 C-9 45 -9 45 -12 43 C-11.70100771 40.65789369 -11.36181891 38.33266778 -11 36 C-10.90074219 35.23171875 -10.80148438 34.4634375 -10.69921875 33.671875 C-9.97910906 29.27847853 -9.68341763 27.53800962 -6.0625 24.6875 C-5.051875 24.130625 -4.04125 23.57375 -3 23 C1.56178926 17.96630151 1.29058034 12.47100068 1 6 C0.71818839 3.9920923 0.40743184 1.9862302 0 0 Z " fill="#F27F2E" transform="translate(141,36)"/>
<path d="M0 0 C3.44941598 1.24562244 6.34356947 2.43517052 9 5 C11.01584952 9.33407646 12.46431534 14.31600995 11 19 C7.6830173 22.70721596 3.54683587 25.18486243 -0.82421875 27.48828125 C-5.6652645 29.82114338 -5.6652645 29.82114338 -8.875 33.87109375 C-9.28814762 38.28660898 -7.61462109 40.95723372 -4.875 44.3125 C-1.86297137 47.42169085 0.97076588 49.33575112 5 51 C5.86625 51.53625 6.7325 52.0725 7.625 52.625 C10.15097833 54.23337199 10.15097833 54.23337199 14 55 C13.67 57.97 13.34 60.94 13 64 C9.76524552 62.38262276 8.29427979 61.52370777 6 59 C6.36701012 62.30309104 7.13107802 63.12483621 9.625 65.5 C10.800625 66.7375 10.800625 66.7375 12 68 C11.8125 70.3125 11.8125 70.3125 11 72 C10.34 71.01 9.68 70.02 9 69 C6.94074861 68.27617533 6.94074861 68.27617533 5 68 C5.2165625 68.61488281 5.433125 69.22976562 5.65625 69.86328125 C5.9346875 70.67152344 6.213125 71.47976562 6.5 72.3125 C6.7784375 73.11300781 7.056875 73.91351563 7.34375 74.73828125 C8 77 8 77 8 80 C3.48189992 76.61142494 -0.04545357 73.41688582 -2 68 C-2.59591099 63.59361594 -2.07531026 59.30124103 -1 55 C-1.721875 54.525625 -2.44375 54.05125 -3.1875 53.5625 C-9.4825555 47.82700499 -12.42078311 40.061091 -13.21875 31.7109375 C-13.41981513 26.70106469 -12.8022749 23.3034936 -10 19 C-9.278125 18.401875 -8.55625 17.80375 -7.8125 17.1875 C-4.99782869 13.7904829 -5.67356843 10.24361042 -6 6 C-5.34 5.67 -4.68 5.34 -4 5 C-3.4654744 6.24420647 -2.94791389 7.49570936 -2.4375 8.75 C-2.14746094 9.44609375 -1.85742188 10.1421875 -1.55859375 10.859375 C-0.9046737 13.36530637 -1.0493435 14.60593835 -2 17 C-3.2375 18.1446875 -3.2375 18.1446875 -4.5 19.3125 C-7.52403109 22.56333342 -7.74393867 24.64695743 -8 29 C-7.34 29 -6.68 29 -6 29 C-5.938125 28.401875 -5.87625 27.80375 -5.8125 27.1875 C-4.66445318 24.09660471 -2.89452948 23.4119656 0 22 C0.66 22 1.32 22 2 22 C2.05454409 19.64551325 2.0939279 17.29232125 2.125 14.9375 C2.14820313 13.62652344 2.17140625 12.31554687 2.1953125 10.96484375 C1.99417522 6.88175701 1.27165462 3.85000947 0 0 Z " fill="#74310C" transform="translate(51,70)"/>
<path d="M0 0 C2 0 2 0 3.8828125 1.84375 C16.55854715 16.86029976 23.52926047 34.04386713 22.22021484 53.92529297 C20.72744346 67.98911915 15.57399446 80.83869884 7 92 C6.30777344 92.94166016 6.30777344 92.94166016 5.6015625 93.90234375 C-2.64027346 104.40711155 -15.52572361 110.91359911 -28 115 C-29.32 115 -30.64 115 -32 115 C-31.83203125 113.14453125 -31.83203125 113.14453125 -31 111 C-28.69921875 109.76171875 -28.69921875 109.76171875 -25.6875 108.6875 C-7.93530732 101.79795856 4.11545256 91.54816661 11.89453125 73.99609375 C12.25933594 73.00738281 12.62414062 72.01867187 13 71 C13.25894043 70.30116699 13.51788086 69.60233398 13.78466797 68.88232422 C16.12094951 61.97910566 16.54194372 55.5052016 16.5 48.25 C16.49141968 46.52801392 16.49141968 46.52801392 16.48266602 44.77124023 C16.16954771 29.88599643 11.01141762 17.71410685 1 6.5625 C-1 4 -1 4 -0.8125 1.625 C-0.544375 1.08875 -0.27625 0.5525 0 0 Z " fill="#ECECEC" transform="translate(150,55)"/>
<path d="M0 0 C1.32 0 2.64 0 4 0 C11.19680253 19.19147342 6.83868389 40.56155997 -1.2265625 58.63671875 C-4.19030792 64.25739014 -7.98549994 69.09840067 -12 74 C-12.44085938 74.59296875 -12.88171875 75.1859375 -13.3359375 75.796875 C-24.31625945 90.28155501 -44.3895675 99.40531622 -62 102.375 C-63.66439624 102.60075587 -65.330406 102.81659763 -67 103 C-66.04362922 100.66220476 -65.46790368 99.28370631 -63.2734375 97.953125 C-61.515625 97.30208333 -59.7578125 96.65104167 -58 96 C-58 95.01 -58 94.02 -58 93 C-57.34 93 -56.68 93 -56 93 C-56 93.99 -56 94.98 -56 96 C-41.24574673 91.39583586 -29.1018019 84.90839071 -18 74 C-17.44570312 73.45859375 -16.89140625 72.9171875 -16.3203125 72.359375 C-3.53697772 58.67775183 2.17572452 40.04910199 2.1875 21.75 C2.19974609 20.76386719 2.21199219 19.77773437 2.22460938 18.76171875 C2.23743109 12.27393285 1.53106328 6.30468436 0 0 Z " fill="#E7E7E7" transform="translate(177,81)"/>
<path d="M0 0 C0.99 0 1.98 0 3 0 C2.85704109 1.39613065 2.71048442 2.79189308 2.5625 4.1875 C2.48128906 4.96480469 2.40007813 5.74210937 2.31640625 6.54296875 C2 9 2 9 1.47265625 11.44921875 C0.58084725 16.2620392 0.87390801 21.12444323 1 26 C1.01675781 26.90234375 1.03351562 27.8046875 1.05078125 28.734375 C1.85899872 44.34451811 9.76225312 60.3873491 20 72 C20.96679688 73.10794922 20.96679688 73.10794922 21.953125 74.23828125 C34.04314916 87.20147382 50.23139406 94.72411054 67.4140625 98.26171875 C70.30270963 99.08642314 72.49640329 100.35955667 75 102 C64.67030331 105.44323223 50.33913897 98.66867162 41.00439453 94.00244141 C21.21929019 83.49911673 7.53751579 67.48495348 -0.3203125 46.46875 C-2.91318832 37.83791861 -3.37281707 29.49532268 -3.4375 20.5 C-3.44773193 19.38979492 -3.45796387 18.27958984 -3.46850586 17.13574219 C-3.39923493 10.72793874 -2.67137087 5.83875225 0 0 Z " fill="#D2D2D2" transform="translate(22,81)"/>
<path d="M0 0 C1.7492214 -0.08142927 3.49954542 -0.13938541 5.25 -0.1875 C6.22453125 -0.22230469 7.1990625 -0.25710937 8.203125 -0.29296875 C11.37468742 0.03924798 12.67040307 0.88672279 15 3 C14.34 3.804375 13.68 4.60875 13 5.4375 C10.34078749 9.42158707 10.22939059 13.34977077 11 18 C12.35885116 20.40083438 12.35885116 20.40083438 14 22 C14 22.66 14 23.32 14 24 C0.8 24 -12.4 24 -26 24 C-25.34 23.34 -24.68 22.68 -24 22 C-23.38125 21.21625 -22.7625 20.4325 -22.125 19.625 C-20.20202954 17.24956591 -18.19755199 15.11906799 -16 13 C-17.19899698 16.0831351 -18.47700477 19.06279492 -20 22 C-18.35 22 -16.7 22 -15 22 C-14.7525 20.906875 -14.505 19.81375 -14.25 18.6875 C-12.97997149 14.94091591 -12.34243648 13.89404734 -9 12 C-9.165 12.78375 -9.33 13.5675 -9.5 14.375 C-10.0623707 16.88208039 -10.0623707 16.88208039 -10 19 C-9.75765625 18.48050781 -9.5153125 17.96101563 -9.265625 17.42578125 C-7.22863922 13.18728392 -5.12171172 9.56767054 -2 6 C-2.99 6.66 -3.98 7.32 -5 8 C-5.33 7.34 -5.66 6.68 -6 6 C-3.69 4.68 -1.38 3.36 1 2 C0.67 1.34 0.34 0.68 0 0 Z " fill="#0B0B0B" transform="translate(94,46)"/>
<path d="M0 0 C0.65791155 5.26329239 0.52814045 8.94547933 -2.6875 13.3125 C-6.45917555 17.75079727 -10.35947562 20.68153516 -15.5 23.375 C-20.93163564 26.30320291 -23.59071941 29.88607911 -27 35 C-27.0272415 33.58344207 -27.04650467 32.16672955 -27.0625 30.75 C-27.07410156 29.96109375 -27.08570312 29.1721875 -27.09765625 28.359375 C-27.00385306 26.09308998 -26.63241063 24.1711105 -26 22 C-29.4371091 26.55184719 -31.93899471 30.68477584 -34 36 C-34.66 36 -35.32 36 -36 36 C-36.62188935 26.29161633 -36.62188935 26.29161633 -34.375 21.625 C-31.75282343 18.72680484 -29.09030993 16.38796677 -26 14 C-26 14.99 -26 15.98 -26 17 C-25.07316406 16.13375 -24.14632812 15.2675 -23.19140625 14.375 C-21.98189163 13.24987012 -20.77224965 12.12487716 -19.5625 11 C-18.95083984 10.42765625 -18.33917969 9.8553125 -17.70898438 9.265625 C-13.11328125 5 -13.11328125 5 -12 5 C-12.165 6.134375 -12.33 7.26875 -12.5 8.4375 C-12.85632203 10.71132519 -12.85632203 10.71132519 -13 13 C-12.46890625 12.39671875 -11.9378125 11.7934375 -11.390625 11.171875 C-10.33101562 9.97304687 -10.33101562 9.97304687 -9.25 8.75 C-8.55390625 7.96109375 -7.8578125 7.1721875 -7.140625 6.359375 C-1.37086093 0 -1.37086093 0 0 0 Z " fill="#2E2B2A" transform="translate(125,119)"/>
<path d="M0 0 C0.33 0 0.66 0 1 0 C0.89568885 4.90262401 -0.02376048 7.35499321 -3.1875 11.125 C-14.26097332 24.49502529 -16.43296367 40.32131075 -17 57 C-17.66 55.68 -18.32 54.36 -19 53 C-20.98 53.495 -20.98 53.495 -23 54 C-23.33 53.34 -23.66 52.68 -24 52 C-24.66 52.99 -25.32 53.98 -26 55 C-26.37074077 47.13205707 -26.329594 39.30318354 -23 32 C-22.01 31.67 -21.02 31.34 -20 31 C-18.96463755 28.27737907 -18.96463755 28.27737907 -18.3125 25.0625 C-18.06113281 23.98097656 -17.80976563 22.89945313 -17.55078125 21.78515625 C-16.93533369 19.14618177 -16.93533369 19.14618177 -17 17 C-17.99 17 -18.98 17 -20 17 C-20 16.01 -20 15.02 -20 14 C-19.01 14 -18.02 14 -17 14 C-16.67 14.33 -16.34 14.66 -16 15 C-15.34 14.67 -14.68 14.34 -14 14 C-13.87625 13.360625 -13.7525 12.72125 -13.625 12.0625 C-13.41875 11.381875 -13.2125 10.70125 -13 10 C-11.67592331 9.31513275 -10.34090759 8.65129797 -9 8 C-8.34 7.13375 -7.68 6.2675 -7 5.375 C-6.34 4.59125 -5.68 3.8075 -5 3 C-3.68 3 -2.36 3 -1 3 C-0.67 2.01 -0.34 1.02 0 0 Z " fill="#1B1B1A" transform="translate(48,52)"/>
<path d="M0 0 C1.16789062 0.71929687 1.16789062 0.71929687 2.359375 1.453125 C5.3276088 3.19191285 7.54161901 3.58043169 10.9375 4 C15.46884862 4.66965743 19.09200183 5.46508227 23 8 C24.26237731 10.52475462 24.09856404 12.31200466 24.0625 15.125 C24.05347656 16.03507812 24.04445312 16.94515625 24.03515625 17.8828125 C24.02355469 18.58148438 24.01195312 19.28015625 24 20 C23.278125 19.236875 22.55625 18.47375 21.8125 17.6875 C16.12223549 12.25013613 10.85430284 10.55490431 3.125 10.56640625 C-1.63092964 11.22629149 -5.88599922 12.997082 -10.29003906 14.86547852 C-14.37640522 16.56577447 -17.57405372 17.32988419 -22 17 C-19.17602921 14.76164527 -16.36351274 13.07385666 -13.125 11.5 C-10.28870757 10.11725538 -7.4781574 8.72430957 -4.6875 7.25 C-2.09160024 6.04260476 0.17748562 5.41507564 3 5 C0.03 4.34 -2.94 3.68 -6 3 C-6.66 4.32 -7.32 5.64 -8 7 C-14.00216549 12.21303616 -19.61082325 13.6510303 -27.43359375 13.40625 C-30 13 -30 13 -33 11 C-32.67 10.01 -32.34 9.02 -32 8 C-31.484375 8.350625 -30.96875 8.70125 -30.4375 9.0625 C-26.91170155 10.41857633 -24.65469588 9.86721597 -21 9 C-16.50618036 6.97826025 -12.7844948 4.13572427 -9 1 C-5.93570224 -0.53214888 -3.3834358 -0.22938548 0 0 Z " fill="#A0A19D" transform="translate(85,102)"/>
<path d="M0 0 C0.66 0.33 1.32 0.66 2 1 C2 4.33333333 2 7.66666667 2 11 C2.33 9.68 2.66 8.36 3 7 C3.66 7 4.32 7 5 7 C5.05429959 8.74965358 5.09292823 10.49979787 5.125 12.25 C5.14820313 13.22453125 5.17140625 14.1990625 5.1953125 15.203125 C4.85565938 20.06695762 2.41085565 23.58914435 -1 27 C-4 27.625 -4 27.625 -5.78515625 27.75390625 C-10.60990138 28.28998904 -15.31067865 29.77569442 -20 31 C-18.48052501 27.63251488 -17.47899158 26.39159663 -14 25 C-16.31 25.33 -18.62 25.66 -21 26 C-18.24479785 23.04070881 -15.53372712 20.96318174 -12 19 C-12.61488281 19.2165625 -13.22976562 19.433125 -13.86328125 19.65625 C-14.67152344 19.9346875 -15.47976562 20.213125 -16.3125 20.5 C-17.11300781 20.7784375 -17.91351563 21.056875 -18.73828125 21.34375 C-21 22 -21 22 -24 22 C-20.28537961 17.58415025 -15.78414389 16.20270935 -10.48828125 14.46484375 C-5.53521773 12.67541361 -3.42753553 10.63875601 -1 6 C-0.20929452 2.76961158 -0.20929452 2.76961158 0 0 Z " fill="#F3F3F3" transform="translate(135,32)"/>
<path d="M0 0 C4.90223522 4.7440986 4.90223522 4.7440986 5.203125 8.609375 C5.36479471 19.44124587 5.36479471 19.44124587 2 24 C0.82772377 24.97689686 -0.36122016 25.93399746 -1.5625 26.875 C-5.65881516 30.14342831 -6.16511882 32.9072248 -7 38 C-7.33 38.99 -7.66 39.98 -8 41 C-5.36 41 -2.72 41 0 41 C-0.14168137 42.43791516 -0.28851043 43.8753237 -0.4375 45.3125 C-0.51871094 46.11300781 -0.59992188 46.91351563 -0.68359375 47.73828125 C-1 50 -1 50 -2 53 C-1.46890625 53.42410156 -0.9378125 53.84820312 -0.390625 54.28515625 C4.27308883 58.1574004 7.59717051 61.39339786 10 67 C10.25 70.9375 10.25 70.9375 10 74 C9.34 74 8.68 74 8 74 C7.6596875 73.21496094 7.319375 72.42992188 6.96875 71.62109375 C3.62441851 64.37207735 0.29770691 59.8206328 -6 55 C-7.01585201 54.01610738 -8.02143225 53.02098245 -9 52 C-8.195625 51.21625 -7.39125 50.4325 -6.5625 49.625 C-4.01309583 47.28017144 -4.01309583 47.28017144 -3 45 C-3.928125 45.04125 -4.85625 45.0825 -5.8125 45.125 C-9 45 -9 45 -12 43 C-11.70100771 40.65789369 -11.36181891 38.33266778 -11 36 C-10.90074219 35.23171875 -10.80148438 34.4634375 -10.69921875 33.671875 C-9.97910906 29.27847853 -9.68341763 27.53800962 -6.0625 24.6875 C-5.051875 24.130625 -4.04125 23.57375 -3 23 C1.56178926 17.96630151 1.29058034 12.47100068 1 6 C0.71818839 3.9920923 0.40743184 1.9862302 0 0 Z " fill="#E8E7E6" transform="translate(141,36)"/>
<path d="M0 0 C0 3.41017092 -0.43961302 3.84530266 -2.5 6.375 C-4.25370489 8.72983319 -4.96710794 9.79324991 -5.4375 12.75 C-5.09721004 15.2720148 -5.09721004 15.2720148 -3 18 C-3.32126128 20.63434254 -3.81355048 22.62710097 -5 25 C-1.06950388 23.68983463 1.61096711 22.45082529 4 19 C4.32966646 15.97020826 4.23342311 13.03450042 4 10 C8.81481481 14.09259259 8.81481481 14.09259259 9.625 18.0625 C9 21 9 21 6.625 23.375 C4 25 4 25 2 25 C2.33 26.32 2.66 27.64 3 29 C0.625 30.5625 0.625 30.5625 -2 32 C-2.66 31.67 -3.32 31.34 -4 31 C-3.67 30.67 -3.34 30.34 -3 30 C-3.73605469 29.69707031 -4.47210938 29.39414062 -5.23046875 29.08203125 C-15.88855112 24.50623631 -15.88855112 24.50623631 -19 20 C-19.76126533 14.76630088 -18.64156434 11.51267241 -16 7 C-15.34 7.33 -14.68 7.66 -14 8 C-14.05800781 8.75925781 -14.11601563 9.51851562 -14.17578125 10.30078125 C-14.22089844 11.29464844 -14.26601562 12.28851563 -14.3125 13.3125 C-14.37050781 14.29863281 -14.42851563 15.28476562 -14.48828125 16.30078125 C-14.2752881 19.24207915 -14.2752881 19.24207915 -11.48046875 20.85546875 C-10.66191406 21.23316406 -9.84335938 21.61085938 -9 22 C-9.165 21.07058594 -9.33 20.14117187 -9.5 19.18359375 C-10.82787226 9.23492583 -10.82787226 9.23492583 -8.35546875 5.546875 C-5.72053731 3.28700587 -3.09863234 1.54931617 0 0 Z " fill="#EAE8E7" transform="translate(83,20)"/>
<path d="M0 0 C3.44941598 1.24562244 6.34356947 2.43517052 9 5 C11.01584952 9.33407646 12.46431534 14.31600995 11 19 C6.99793322 23.47289817 1.687508 26.18470378 -3.5 29.0625 C-7.40906682 31.23858546 -7.40906682 31.23858546 -9.125 35.375 C-9.08375 36.24125 -9.0425 37.1075 -9 38 C-9.33 38 -9.66 38 -10 38 C-10.33 36.02 -10.66 34.04 -11 32 C-11.33 32 -11.66 32 -12 32 C-12.9406803 23.34225727 -12.9406803 23.34225727 -10.6640625 20.09375 C-9.55858674 18.99346427 -8.44922516 17.89706835 -7.3359375 16.8046875 C-4.92263067 13.54460634 -5.52683815 9.86415514 -6 6 C-5.34 5.67 -4.68 5.34 -4 5 C-3.4654744 6.24420647 -2.94791389 7.49570936 -2.4375 8.75 C-2.14746094 9.44609375 -1.85742188 10.1421875 -1.55859375 10.859375 C-0.9046737 13.36530637 -1.0493435 14.60593835 -2 17 C-3.2375 18.1446875 -3.2375 18.1446875 -4.5 19.3125 C-7.52403109 22.56333342 -7.74393867 24.64695743 -8 29 C-7.34 29 -6.68 29 -6 29 C-5.938125 28.401875 -5.87625 27.80375 -5.8125 27.1875 C-4.66445318 24.09660471 -2.89452948 23.4119656 0 22 C0.66 22 1.32 22 2 22 C2.05454409 19.64551325 2.0939279 17.29232125 2.125 14.9375 C2.14820313 13.62652344 2.17140625 12.31554687 2.1953125 10.96484375 C1.99417522 6.88175701 1.27165462 3.85000947 0 0 Z " fill="#E97D2B" transform="translate(51,70)"/>
<path d="M0 0 C5.90600522 5.75456919 5.90600522 5.75456919 6.25 10.3125 C5.97989426 14.29655969 4.99922566 15.66795723 3 19 C2.44192299 24.20871872 3.26259769 26.66577968 6 31 C6.4375 33.625 6.4375 33.625 6 36 C3.97265625 37.6484375 3.97265625 37.6484375 2 39 C1.731875 38.35933594 1.46375 37.71867187 1.1875 37.05859375 C-1.80066279 30.46301076 -5.21709561 26.33359088 -11 22 C-10.34 20.02 -9.68 18.04 -9 16 C-8.01 16 -7.02 16 -6 16 C-2.57172462 12.32148555 0.40671664 8.09674082 0.375 2.9375 C0.25125 1.968125 0.1275 0.99875 0 0 Z " fill="#EB7B2D" transform="translate(149,67)"/>
<path d="M0 0 C3.39944813 1.13314938 3.59569101 1.46546563 5.125 4.5 C7.22237538 8.91889776 7.77557509 13.15242197 8 18 C8.598125 17.649375 9.19625 17.29875 9.8125 16.9375 C12 16 12 16 15 17 C13.59106853 18.63171123 12.17254042 20.25513945 10.75 21.875 C9.56664062 23.23238281 9.56664062 23.23238281 8.359375 24.6171875 C6.25308597 26.74439993 4.74348474 27.90512306 2 29 C5.57575896 29 7.05295935 27.91159393 10 26 C9.703125 27.9140625 9.703125 27.9140625 9 30 C5.75 31.375 5.75 31.375 3.609375 32.07421875 C-1.7557856 33.97772633 -6.85393107 36.57601326 -12 39 C-10.40733964 34.61281058 -8.54265126 32.09981985 -5 29 C-4.34 29 -3.68 29 -3 29 C-2.31225595 27.67741528 -1.65288627 26.34013497 -1 25 C-0.46375 24.030625 0.0725 23.06125 0.625 22.0625 C3.1835204 16.07530252 3.11909326 8.18148353 0.98046875 2.1015625 C0.65691406 1.40804687 0.33335937 0.71453125 0 0 Z " fill="#74330C" transform="translate(141,110)"/>
<path d="M0 0 C0.66 0.33 1.32 0.66 2 1 C1.125 7.75 1.125 7.75 0 10 C-0.5858806 13.66175374 -0.67816049 16.03069207 1.4921875 19.1328125 C2.7228297 20.51664668 3.98268034 21.87518554 5.2734375 23.203125 C8.09367294 26.13821166 8.98463429 27.54671144 9.125 31.6875 C9.08375 32.780625 9.0425 33.87375 9 35 C5.37 34.67 1.74 34.34 -2 34 C-2.12375 32.4840625 -2.12375 32.4840625 -2.25 30.9375 C-2.65016732 27.96909464 -3.4491784 26.01404532 -5.0625 23.5 C-7.28538315 19.80886561 -7.75144411 17.35837584 -7 13 C-5.61039548 10.57128469 -4.09063455 8.34994622 -2.41015625 6.11328125 C-1.01612181 4.02416038 -0.43719321 2.45160241 0 0 Z " fill="#F67F29" transform="translate(98,8)"/>
<path d="M0 0 C-0.165 0.515625 -0.33 1.03125 -0.5 1.5625 C-1.1830061 4.89215473 -1.35741638 7.60454442 -1 11 C2.78824431 16.61705191 8.81272217 18.06038051 15 20 C12.72349236 22.53667994 10.80981144 24.62792447 7.6875 26.0625 C2.29608912 25.93711835 -1.79949244 22.90038067 -6 19.75 C-8.17211231 16.76334558 -8.66512291 14.82324695 -8.43359375 11.1328125 C-7.68023628 7.4271082 -6.13007036 4.11736574 -4 1 C-2 0 -2 0 0 0 Z " fill="#080808" transform="translate(66,29)"/>
<path d="M0 0 C1.1027124 -0.00902344 2.2054248 -0.01804687 3.34155273 -0.02734375 C4.90885132 -0.02154297 4.90885132 -0.02154297 6.5078125 -0.015625 C7.44512207 -0.01336914 8.38243164 -0.01111328 9.34814453 -0.00878906 C11.97337137 0.26007475 13.61931718 0.9173672 15.875 2.25 C15.215 2.58 14.555 2.91 13.875 3.25 C15.46441406 3.43175781 15.46441406 3.43175781 17.0859375 3.6171875 C18.47401324 3.78600752 19.86203119 3.95530308 21.25 4.125 C22.29800781 4.24294922 22.29800781 4.24294922 23.3671875 4.36328125 C28.6484375 5.0234375 28.6484375 5.0234375 30.875 7.25 C29.08324107 7.10530469 27.29159858 6.95916739 25.5 6.8125 C24.50226563 6.73128906 23.50453125 6.65007812 22.4765625 6.56640625 C20.54951679 6.39711048 18.62262129 6.21974631 16.7019043 5.98950195 C8.42584563 5.02936134 0.21079758 5.22571277 -8.10742188 5.37695312 C-9.22568359 5.38791016 -10.34394531 5.39886719 -11.49609375 5.41015625 C-13.0109436 5.43541382 -13.0109436 5.43541382 -14.55639648 5.46118164 C-17.125 5.25 -17.125 5.25 -20.125 3.25 C-20.125 3.91 -20.125 4.57 -20.125 5.25 C-20.785 5.25 -21.445 5.25 -22.125 5.25 C-21.63 5.86875 -21.135 6.4875 -20.625 7.125 C-19.125 9.25 -19.125 9.25 -19.125 11.25 C-19.785 11.25 -20.445 11.25 -21.125 11.25 C-20.795 13.23 -20.465 15.21 -20.125 17.25 C-20.785 17.58 -21.445 17.91 -22.125 18.25 C-23.71638085 14.07262526 -24.33778058 10.71839215 -24.125 6.25 C-25.445 6.25 -26.765 6.25 -28.125 6.25 C-27.795 4.93 -27.465 3.61 -27.125 2.25 C-18.06848595 0.43545693 -9.21338967 0.03180916 0 0 Z " fill="#AAAAA9" transform="translate(93.125,68.75)"/>
<path d="M0 0 C0.66 0.33 1.32 0.66 2 1 C1 3 0 5 -1 7 C-0.34 7 0.32 7 1 7 C0.40072174 10.35595828 -0.84622436 12.37801226 -3 15 C3.08701358 17.02900453 9.32896504 17.24583071 15.19921875 14.5078125 C20.37124216 11.51186777 20.37124216 11.51186777 24 7 C25.4800841 7.11362262 26.95910074 7.24122908 28.4375 7.375 C29.26121094 7.44460937 30.08492187 7.51421875 30.93359375 7.5859375 C31.95646484 7.79089844 31.95646484 7.79089844 33 8 C33.495 8.99 33.495 8.99 34 10 C32.72125 10.20625 31.4425 10.4125 30.125 10.625 C25.22102434 11.69678084 21.56544351 13.85361189 17.37109375 16.54296875 C15.2550605 17.84326595 13.23803491 18.83260878 10.9375 19.75 C7.89502593 20.67002937 7.89502593 20.67002937 7 23 C0.71175914 19.93290702 -5.57303434 16.53370708 -10 11 C-10.3125 8.1875 -10.3125 8.1875 -10 6 C-8.35 6 -6.7 6 -5 6 C-5.66 5.34 -6.32 4.68 -7 4 C-1.7265625 0.77734375 -1.7265625 0.77734375 0 0 Z " fill="#0D0D0C" transform="translate(55,98)"/>
<path d="M0 0 C0 0.33 0 0.66 0 1 C-1.093125 1.103125 -2.18625 1.20625 -3.3125 1.3125 C-6.89953658 1.98126953 -7.89975072 2.19966763 -10 5 C-10.33 5.33 -10.66 5.66 -11 6 C-10.34 6.33 -9.68 6.66 -9 7 C-9.47050781 7.49628906 -9.94101563 7.99257813 -10.42578125 8.50390625 C-14.37606528 12.81405053 -17.04612353 16.48317233 -19 22 C-19.66 21.67 -20.32 21.34 -21 21 C-20.01 17.535 -20.01 17.535 -19 14 C-21.32472205 16.85306797 -22.7508258 19.54074837 -24 23 C-25.65 23 -27.3 23 -29 23 C-28.34 21.02 -27.68 19.04 -27 17 C-29.475 20.465 -29.475 20.465 -32 24 C-32.33 23.34 -32.66 22.68 -33 22 C-30.34399202 16.04540146 -26.76651858 11.22249132 -21.61328125 7.25390625 C-19.9520023 6.0217754 -19.9520023 6.0217754 -18.484375 4.4453125 C-13.2640782 -0.63760807 -6.79960539 -0.36939506 0 0 Z " fill="#80817F" transform="translate(103,45)"/>
<path d="M0 0 C1 2 1 2 0.9375 4.9375 C1.02132502 9.04492601 2.61066004 10.56856923 5.3125 13.5625 C7.94522985 15.95032475 9.58049633 17.14512408 13 18 C15.60280568 17.67958603 15.60280568 17.67958603 18 17 C18.99 17 19.98 17 21 17 C19.24810131 19.20288251 18.43629349 19.94696595 15.58984375 20.29296875 C14.71457031 20.25816406 13.83929688 20.22335938 12.9375 20.1875 C11.62072266 20.14689453 11.62072266 20.14689453 10.27734375 20.10546875 C9.52582031 20.07066406 8.77429688 20.03585938 8 20 C7.34 20 6.68 20 6 20 C8.64 20.66 11.28 21.32 14 22 C14 22.66 14 23.32 14 24 C12 26 12 26 10.046875 26.22265625 C5.72379379 25.92121691 2.62609732 25.31683704 -0.5625 22.25 C-3.82493668 17.88195978 -3.59788056 13.3610285 -3.50390625 8.0859375 C-2.95991947 4.75454557 -1.91619479 2.74910079 0 0 Z " fill="#ECEDEC" transform="translate(58,36)"/>
<path d="M0 0 C5.80782482 0.69140772 10.00266908 2.25873714 14.4375 6.125 C17.09455625 11.0139835 15.74982909 15.41855714 14.25 20.58203125 C13.54303473 22.74031465 12.79901951 24.87430659 12 27 C10.02 27 8.04 27 6 27 C6.66 26.67 7.32 26.34 8 26 C7.93963048 23.28940855 7.8524809 20.58406023 7.75 17.875 C7.73582031 17.11445312 7.72164063 16.35390625 7.70703125 15.5703125 C7.43937684 9.3607302 5.54067912 5.7221562 1.25 1.125 C0.8375 0.75375 0.425 0.3825 0 0 Z " fill="#F37F29" transform="translate(102,18)"/>
<path d="M0 0 C0.33 0 0.66 0 1 0 C1.07476562 0.58007812 1.14953125 1.16015625 1.2265625 1.7578125 C1.99081901 6.29839529 2.70317038 9.16771062 6.1875 12.3125 C7.115625 13.199375 8.04375 14.08625 9 15 C8.67578125 17.16796875 8.67578125 17.16796875 8 19 C7.34 18.01 6.68 17.02 6 16 C3.94074861 15.27617533 3.94074861 15.27617533 2 15 C2.2165625 15.61488281 2.433125 16.22976562 2.65625 16.86328125 C2.9346875 17.67152344 3.213125 18.47976562 3.5 19.3125 C3.7784375 20.11300781 4.056875 20.91351563 4.34375 21.73828125 C5 24 5 24 5 27 C-0.03854091 23.22109432 -4.25072041 19.41990767 -5.34765625 12.94921875 C-5.54230417 8.45539074 -4.71096775 5.54511167 -2 2 C-1.34 1.34 -0.68 0.68 0 0 Z " fill="#D66E27" transform="translate(54,123)"/>
<path d="M0 0 C3.02791481 2.34419211 4.31900177 4.21948222 4.9375 7.9375 C5.12398864 10.64914557 4.94908886 12.16364295 4.125 14.8125 C1.02348515 18.00523588 -2.6477431 19.22731671 -7 20 C-7.99 19.67 -8.98 19.34 -10 19 C-9.37720331 17.41579871 -8.75166599 15.83267469 -8.125 14.25 C-7.60292969 12.92742188 -7.60292969 12.92742188 -7.0703125 11.578125 C-6.1353291 9.3259752 -5.12219206 7.16350541 -4 5 C-4 5.66 -4 6.32 -4 7 C-2.02 7 -0.04 7 2 7 C1.34 4.69 0.68 2.38 0 0 Z " fill="#150903" transform="translate(123,24)"/>
<path d="M0 0 C4.29 0.66 8.58 1.32 13 2 C13 2.66 13 3.32 13 4 C9.86501708 5.85776765 7.62528568 6.20140476 4 6 C4.639375 6.845625 5.27875 7.69125 5.9375 8.5625 C8.1966273 11.90728565 8.67791759 14.97396992 9 19 C1.28571429 15 1.28571429 15 0 11 C-0.66 11 -1.32 11 -2 11 C-1.67 10.01 -1.34 9.02 -1 8 C-1.87483915 5.83284443 -1.87483915 5.83284443 -3 4 C-1.35 4 0.3 4 2 4 C1.34 2.68 0.68 1.36 0 0 Z " fill="#2E2C2A" transform="translate(121,81)"/>
<path d="M0 0 C-4.6456464 4.2585092 -9.68129441 7.21628559 -15.1953125 10.25390625 C-17.88949431 11.93120328 -19.78793235 13.75352241 -22 16 C-22.66 16 -23.32 16 -24 16 C-23.51480044 11.73024386 -22.94299451 9.15939116 -20 6 C-17.00390625 4.33203125 -17.00390625 4.33203125 -13.5625 2.8125 C-11.86287109 2.04873047 -11.86287109 2.04873047 -10.12890625 1.26953125 C-3.84290541 -1.28096847 -3.84290541 -1.28096847 0 0 Z " fill="#82390D" transform="translate(149,142)"/>
<path d="M0 0 C1 4 1 4 0 7 C0.53109375 7.42410156 1.0621875 7.84820312 1.609375 8.28515625 C6.27308883 12.1574004 9.59717051 15.39339786 12 21 C12.25 24.9375 12.25 24.9375 12 28 C11.34 28 10.68 28 10 28 C9.6596875 27.21496094 9.319375 26.42992188 8.96875 25.62109375 C5.62441851 18.37207735 2.29770691 13.8206328 -4 9 C-4.99 8.01 -5.98 7.02 -7 6 C-4.69 4.02 -2.38 2.04 0 0 Z " fill="#F1EFED" transform="translate(139,82)"/>
<path d="M0 0 C0 3.41017092 -0.43961302 3.84530266 -2.5 6.375 C-4.25370489 8.72983319 -4.96710794 9.79324991 -5.4375 12.75 C-5.09721004 15.2720148 -5.09721004 15.2720148 -3 18 C-3.375 20.6875 -3.375 20.6875 -4 23 C-5.8125 23.625 -5.8125 23.625 -8 24 C-8.99 23.34 -9.98 22.68 -11 22 C-10.34 22 -9.68 22 -9 22 C-9.2475 20.60587891 -9.2475 20.60587891 -9.5 19.18359375 C-10.82787226 9.23492583 -10.82787226 9.23492583 -8.35546875 5.546875 C-5.72053731 3.28700587 -3.09863234 1.54931617 0 0 Z " fill="#F98529" transform="translate(83,20)"/>
<path d="M0 0 C0.66 0.33 1.32 0.66 2 1 C1.32904297 1.61875 1.32904297 1.61875 0.64453125 2.25 C-7.0653301 9.51561303 -7.0653301 9.51561303 -10.33984375 19.2578125 C-10.38733141 23.97492004 -10.3469308 28.45134845 -9 33 C-13.46502838 28.98147446 -15.06373648 25.57491122 -15.4375 19.625 C-15.27594901 14.48087644 -13.60134797 11.59343292 -10 8 C-6.76115382 5.20124132 -3.42796524 2.56265362 0 0 Z " fill="#DADADA" transform="translate(94,126)"/>
<path d="M0 0 C0.66 0 1.32 0 2 0 C2 1.98 2 3.96 2 6 C2.33 6 2.66 6 3 6 C3.34035816 11.5095477 2.31361461 15.51325268 0 20.4375 C-0.28617188 21.07365234 -0.57234375 21.70980469 -0.8671875 22.36523438 C-1.56652845 23.91544015 -2.28163857 25.45851611 -3 27 C-4.32 27 -5.64 27 -7 27 C-6.30581916 23.13548812 -5.25880516 19.48788933 -4.0625 15.75 C-2.42920316 10.52938937 -1.08984021 5.35838102 0 0 Z " fill="#7A7A7A" transform="translate(175,111)"/>
<path d="M0 0 C5.95002458 -0.3797888 10.45276448 0.92516191 16 3 C16.99 3.33 17.98 3.66 19 4 C20.35439668 6.70879335 20.06501451 9.00933268 20 12 C18.02 10.35 16.04 8.7 14 7 C14 8.32 14 9.64 14 11 C13.34 11 12.68 11 12 11 C11.4225 10.236875 10.845 9.47375 10.25 8.6875 C7.73627741 5.68499801 5.49043243 4.66933725 2 3 C1.34 2.01 0.68 1.02 0 0 Z " fill="#8D8E8B" transform="translate(101,102)"/>
<path d="M0 0 C3.43740355 1.24128461 6.39387505 2.39387505 9 5 C10.95507131 10.47419968 9.02676138 14.84721684 7 20 C6.01 19.67 5.02 19.34 4 19 C3.81824219 17.82244141 3.81824219 17.82244141 3.6328125 16.62109375 C2.72813917 10.94948787 1.7420701 5.47507746 0 0 Z " fill="#ED7F30" transform="translate(51,70)"/>
<path d="M0 0 C4.01492145 1.33830715 5.50705259 3.96191252 7.76171875 7.3125 C9.24190814 9.32966661 10.88859282 10.67059548 13 12 C14.32 11.34 15.64 10.68 17 10 C17 11.32 17 12.64 17 14 C16.01 14 15.02 14 14 14 C14.309375 15.175625 14.61875 16.35125 14.9375 17.5625 C15.8930401 21.36432975 16.51401158 25.11209261 17 29 C13.98258618 27.49129309 13.93414683 25.272814 12.875 22.125 C10.6435674 16.07015751 7.74461834 11.39420879 3.76953125 6.33984375 C2.20884311 4.27615237 1.05845842 2.35032049 0 0 Z " fill="#A3A3A2" transform="translate(157,55)"/>
<path d="M0 0 C3 1 3 1 4.25 2.625 C5.34514459 6.09295786 4.86200121 8.49042365 4 12 C1.19512813 16.2728422 -1.39374556 17.98160916 -6.125 19.8125 C-7.17945312 20.23144531 -8.23390625 20.65039062 -9.3203125 21.08203125 C-12 22 -12 22 -14 22 C-14.33 21.01 -14.66 20.02 -15 19 C-14.25234375 18.75765625 -13.5046875 18.5153125 -12.734375 18.265625 C-11.74953125 17.93046875 -10.7646875 17.5953125 -9.75 17.25 C-8.28820312 16.76273438 -8.28820312 16.76273438 -6.796875 16.265625 C-3.70532058 14.86665344 -2.0302341 13.71974757 0 11 C0.48117013 8.18525393 0.48117013 8.18525393 0.25 5.25 C0.21390625 4.26515625 0.1778125 3.2803125 0.140625 2.265625 C0.09421875 1.51796875 0.0478125 0.7703125 0 0 Z " fill="#1C1C1C" transform="translate(130,28)"/>
<path d="M0 0 C3.36530737 1.12176912 3.62117479 1.45488073 5.1875 4.4375 C7.42112227 9.26835747 7.99696675 13.75953374 7 19 C5.26522386 22.72325471 3.17401441 25.27020726 -0.3125 27.4375 C-0.869375 27.623125 -1.42625 27.80875 -2 28 C-1.71125 27.46375 -1.4225 26.9275 -1.125 26.375 C1.2552391 21.35005079 2.2762934 17.00512787 2.25 11.4375 C2.25515625 10.34308594 2.2603125 9.24867187 2.265625 8.12109375 C2.00162841 5.01913386 1.31501748 2.80223963 0 0 Z " fill="#E5E4E3" transform="translate(141,110)"/>
<path d="M0 0 C-1.33984375 1.515625 -1.33984375 1.515625 -3 3 C-5.67479327 2.73904456 -7.60095141 2.1995243 -10 1 C-15.49413712 0.58186213 -19.924513 0.76081456 -25 3 C-27.3125 2.625 -27.3125 2.625 -29 2 C-21.81487278 -6.31962099 -8.98655263 -3.81247687 0 0 Z " fill="#F7F4F2" transform="translate(113,45)"/>
<path d="M0 0 C-0.65484375 0.51046875 -1.3096875 1.0209375 -1.984375 1.546875 C-4.7247093 4.88201054 -4.40756601 6.99571776 -4.25 11.25 C-4.21390625 12.51328125 -4.1778125 13.7765625 -4.140625 15.078125 C-4.09421875 16.04234375 -4.0478125 17.0065625 -4 18 C-6.86724686 17.42655063 -7.8614515 17.1385485 -10 15 C-10.68823251 9.26472905 -9.38372196 4.6398863 -6 0 C-3 -1 -3 -1 0 0 Z " fill="#1A1616" transform="translate(78,24)"/>
<path d="M0 0 C-0.875 4.875 -0.875 4.875 -2 6 C-8.52542373 6.23728814 -8.52542373 6.23728814 -11 5 C-11.99 7.97 -12.98 10.94 -14 14 C-13.34 14.33 -12.68 14.66 -12 15 C-12.66 15.99 -13.32 16.98 -14 18 C-15.97006604 14.05986792 -15.58615688 9.2854581 -15 5 C-12.75 2.9375 -12.75 2.9375 -10 2 C-9.0409375 1.4121875 -9.0409375 1.4121875 -8.0625 0.8125 C-5.31783274 -0.26873256 -2.92008829 -0.13273129 0 0 Z " fill="#5E250B" transform="translate(83,121)"/>
<path d="M0 0 C0 0.33 0 0.66 0 1 C-2.97 1 -5.94 1 -9 1 C-9 1.66 -9 2.32 -9 3 C-10.175625 3.515625 -11.35125 4.03125 -12.5625 4.5625 C-17.29216511 6.91477592 -20.45926631 10.15137642 -24 14 C-24.721875 14.680625 -25.44375 15.36125 -26.1875 16.0625 C-28.47221292 18.50477933 -30.20772551 21.18356866 -32 24 C-32.33 23.34 -32.66 22.68 -33 22 C-30.34399202 16.04540146 -26.76651858 11.22249132 -21.61328125 7.25390625 C-19.9520023 6.0217754 -19.9520023 6.0217754 -18.484375 4.4453125 C-13.2640782 -0.63760807 -6.79960539 -0.36939506 0 0 Z " fill="#2C2C2C" transform="translate(103,45)"/>
<path d="M0 0 C6.71561661 3.18503517 12.27087629 6.83605027 15 14 C14.67 14.33 14.34 14.66 14 15 C13.76924918 16.34747084 13.58846937 17.70377565 13.4375 19.0625 C13.293125 20.361875 13.14875 21.66125 13 23 C12.67 23 12.34 23 12 23 C11.96261719 22.32453125 11.92523438 21.6490625 11.88671875 20.953125 C11.82097656 20.06109375 11.75523437 19.1690625 11.6875 18.25 C11.60048828 16.92742188 11.60048828 16.92742188 11.51171875 15.578125 C10.9358819 12.67696226 9.92403852 11.20774393 8 9 C6.68 9.33 5.36 9.66 4 10 C3.87625 10.969375 3.7525 11.93875 3.625 12.9375 C3.41875 13.948125 3.2125 14.95875 3 16 C2.34 16.33 1.68 16.66 1 17 C1.09539062 16.10796875 1.19078125 15.2159375 1.2890625 14.296875 C1.39992187 13.12640625 1.51078125 11.9559375 1.625 10.75 C1.74101562 9.58984375 1.85703125 8.4296875 1.9765625 7.234375 C1.99955595 4.06127909 1.69705154 2.61682756 0 0 Z " fill="#111111" transform="translate(134,29)"/>
<path d="M0 0 C0.495 0.99 0.495 0.99 1 2 C-6.73657842 12.61839846 -16.53185624 22.15595766 -29 27 C-29.99 26.67 -30.98 26.34 -32 26 C-31.12859375 25.55011719 -30.2571875 25.10023438 -29.359375 24.63671875 C-17.6038193 18.36542865 -8.34872637 10.43590796 0 0 Z " fill="#E3E3E3" transform="translate(164,144)"/>
<path d="M0 0 C0.66 0.33 1.32 0.66 2 1 C1.49210937 1.38929687 0.98421875 1.77859375 0.4609375 2.1796875 C-4.57860793 6.27549783 -7.6794368 10.29771373 -10.67578125 16.05859375 C-11.11277344 16.69925781 -11.54976562 17.33992188 -12 18 C-12.99 18 -13.98 18 -15 18 C-14.814375 17.05125 -14.62875 16.1025 -14.4375 15.125 C-13.71313368 12.10131207 -13.71313368 12.10131207 -15 10 C-13.35 10 -11.7 10 -10 10 C-10 9.34 -10 8.68 -10 8 C-11.27875 7.855625 -12.5575 7.71125 -13.875 7.5625 C-16.25692894 7.29357254 -17.84452691 7.07773654 -20 6 C-19.67 5.34 -19.34 4.68 -19 4 C-18.01 4.33 -17.02 4.66 -16 5 C-11.86265415 5.4984754 -7.73915822 5.97720875 -4.01171875 3.8828125 C-2.18195387 2.38800272 -2.18195387 2.38800272 0 0 Z " fill="#212120" transform="translate(82,50)"/>
<path d="M0 0 C0.33 0.99 0.66 1.98 1 3 C-2.39356793 5.16010111 -5.63312318 6.704893 -9.4375 8 C-13.47909197 9.4200188 -17.23474457 10.9647268 -21 13 C-19.60846256 8.57238086 -17.47928514 6.0443745 -14 3 C-13.34 3 -12.68 3 -12 3 C-11.67 2.34 -11.34 1.68 -11 1 C-11 1.66 -11 2.32 -11 3 C-10.01 3 -9.02 3 -8 3 C-8 3.66 -8 4.32 -8 5 C-4.04 2.525 -4.04 2.525 0 0 Z " fill="#BF6020" transform="translate(150,136)"/>
<path d="M0 0 C0.33 0 0.66 0 1 0 C1.12117187 0.68707031 1.24234375 1.37414062 1.3671875 2.08203125 C1.53476563 2.98308594 1.70234375 3.88414063 1.875 4.8125 C2.11863281 6.15248047 2.11863281 6.15248047 2.3671875 7.51953125 C2.91188449 10.22727846 2.91188449 10.22727846 5 13 C5.125 15.6875 5.125 15.6875 5 18 C1.73961532 14.8603703 -1.10429277 11.47484867 -4 8 C-5.31543863 6.64900897 -6.64175118 5.30794331 -8 4 C-6.576875 3.566875 -6.576875 3.566875 -5.125 3.125 C-1.94788422 2.23174891 -1.94788422 2.23174891 0 0 Z " fill="#77370E" transform="translate(146,84)"/>
<path d="M0 0 C1.32 0.33 2.64 0.66 4 1 C3.25241804 4.80332323 1.65216465 8.07150787 0 11.5625 C-2.19219245 16.20423823 -2.19219245 16.20423823 -4 21 C-4.66 21 -5.32 21 -6 21 C-5.34637475 16.53356078 -4.25000174 12.33333938 -3 8 C-3 7.34 -3 6.68 -3 6 C-3.99 6 -4.98 6 -6 6 C-6 5.01 -6 4.02 -6 3 C-5.01 3 -4.02 3 -3 3 C-2.67 3.33 -2.34 3.66 -2 4 C-1.34 3.67 -0.68 3.34 0 3 C0 2.01 0 1.02 0 0 Z " fill="#26211F" transform="translate(34,63)"/>
<path d="M0 0 C0.27457031 0.56847656 0.54914063 1.13695313 0.83203125 1.72265625 C1.97304288 4.01398651 1.97304288 4.01398651 3.32421875 6.18359375 C3.77410156 6.92738281 4.22398438 7.67117187 4.6875 8.4375 C5.14511719 9.17871094 5.60273437 9.91992188 6.07421875 10.68359375 C7.21212445 13.53075864 6.84354468 15.10127372 6 18 C4.02 18.33 2.04 18.66 0 19 C0.33 18.34 0.66 17.68 1 17 C1.41702122 14.0842309 1.41702122 14.0842309 1 11 C-0.87508162 8.7914234 -0.87508162 8.7914234 -3 7 C-3.33 6.01 -3.66 5.02 -4 4 C-3.01 3.67 -2.02 3.34 -1 3 C-0.67 2.01 -0.34 1.02 0 0 Z " fill="#160C06" transform="translate(90,24)"/>
<path d="M0 0 C2.35282653 0.2105355 4.48221424 0.45630063 6.73828125 1.16015625 C7.06828125 1.82015625 7.39828125 2.48015625 7.73828125 3.16015625 C6.45953125 3.36640625 5.18078125 3.57265625 3.86328125 3.78515625 C-1.09397919 4.85467543 -4.72218657 7.115308 -8.953125 9.828125 C-11.69194737 11.40839307 -14.1095554 11.99425292 -17.26171875 12.16015625 C-17.26171875 11.50015625 -17.26171875 10.84015625 -17.26171875 10.16015625 C-16.59785156 9.85722656 -15.93398437 9.55429688 -15.25 9.2421875 C-9.43920077 6.52329937 -9.43920077 6.52329937 -4.69921875 2.28515625 C-2.26171875 0.16015625 -2.26171875 0.16015625 0 0 Z " fill="#050504" transform="translate(81.26171875,104.83984375)"/>
<path d="M0 0 C1.22578535 3.67735605 0.46596728 4.55066523 -1 8 C-1 8.99 -1 9.98 -1 11 C-4.28519475 12.09506492 -6.73663415 12.09960608 -10.1875 12.0625 C-11.81751953 12.04896484 -11.81751953 12.04896484 -13.48046875 12.03515625 C-14.31191406 12.02355469 -15.14335938 12.01195313 -16 12 C-15.34 11.34 -14.68 10.68 -14 10 C-13.071875 8.824375 -13.071875 8.824375 -12.125 7.625 C-10.20202954 5.24956591 -8.19755199 3.11906799 -6 1 C-7.19899698 4.0831351 -8.47700477 7.06279492 -10 10 C-8.35 10 -6.7 10 -5 10 C-4.731875 8.906875 -4.46375 7.81375 -4.1875 6.6875 C-3.12336261 3.38307337 -2.65345336 2.05039578 0 0 Z " fill="#141414" transform="translate(84,58)"/>
<path d="M0 0 C2 1 2 1 2.625 2.8203125 C3.19571842 6.3278528 3.5775113 8.89003147 1.8984375 12.1171875 C-1.13485468 15.86602553 -3.13267649 17.33551898 -8 18 C-7.38511719 17.05640625 -7.38511719 17.05640625 -6.7578125 16.09375 C-3.38889215 10.74216361 -1.15259184 6.22399592 0 0 Z " fill="#E5E5E4" transform="translate(137,122)"/>
<path d="M0 0 C4.81481481 4.09259259 4.81481481 4.09259259 5.625 8.0625 C5 11 5 11 2.9375 13.3125 C-0.43805902 15.25165093 -3.14482309 15.69763318 -7 16 C-4.66666667 13.66666667 -2.33333333 11.33333333 0 9 C0.24253813 6.78927023 0.24253813 6.78927023 0.125 4.375 C0.09792969 3.14910156 0.09792969 3.14910156 0.0703125 1.8984375 C0.04710938 1.27195312 0.02390625 0.64546875 0 0 Z " fill="#E7792B" transform="translate(87,30)"/>
<path d="M0 0 C0.33 0 0.66 0 1 0 C1.12375 1.11375 1.2475 2.2275 1.375 3.375 C1.6465813 7.03103677 1.6465813 7.03103677 4 9 C4.66 6.36 5.32 3.72 6 1 C6.66 1 7.32 1 8 1 C8.29792728 3.92961828 8.5129419 6.14444718 8 9 C5.24134517 12.01527389 3.11349912 13.62039803 -0.75 14.9375 C-1.4925 14.958125 -2.235 14.97875 -3 15 C-3.66 14.34 -4.32 13.68 -5 13 C-3.68 12.67 -2.36 12.34 -1 12 C-0.67 8.04 -0.34 4.08 0 0 Z " fill="#D06D26" transform="translate(54,80)"/>
<path d="M0 0 C0.66 0.33 1.32 0.66 2 1 C1.3709375 1.40089844 0.741875 1.80179688 0.09375 2.21484375 C-7.3000713 7.12549916 -14.26806762 12.73376979 -18 21 C-18.66 21 -19.32 21 -20 21 C-17.86235904 13.19988459 -12.26852362 6.99448982 -5.625 2.4375 C-3 1 -3 1 0 0 Z " fill="#F0F1F1" transform="translate(94,47)"/>
<path d="M0 0 C3.02791481 2.34419211 4.31900177 4.21948222 4.9375 7.9375 C5.16916709 10.89401331 4.9630863 12.09131283 3.8125 14.9375 C1.79531785 17.23291417 0.89432759 17.43072232 -2 18 C-1.68872484 16.41642541 -1.37592711 14.83315007 -1.0625 13.25 C-0.80146484 11.92742188 -0.80146484 11.92742188 -0.53515625 10.578125 C-0.20336085 8.97969461 0.16611466 7.38799862 0.59375 5.8125 C1.09111044 3.59350727 0.68812629 2.14083735 0 0 Z " fill="#211E1C" transform="translate(123,24)"/>
<path d="M0 0 C0.33 0 0.66 0 1 0 C1 6.42196149 -1.64656589 9.53300184 -5.796875 14.27734375 C-8.42440045 16.33184503 -9.74562305 16.36981556 -13 16 C-11.38405168 13.95880212 -9.7143618 11.95927063 -8 10 C-7.34 10 -6.68 10 -6 10 C-5.7525 9.46375 -5.505 8.9275 -5.25 8.375 C-3.69915043 5.42838581 -1.91694442 2.72082434 0 0 Z " fill="#242121" transform="translate(124,123)"/>
<path d="M0 0 C0.66 0 1.32 0 2 0 C2.25394531 1.19496094 2.50789063 2.38992187 2.76953125 3.62109375 C4.48137172 11.56463419 6.17171202 19.36362247 9 27 C8.34 27 7.68 27 7 27 C3.06231221 17.98239437 -0.41543416 9.97041988 0 0 Z " fill="#C8C9C8" transform="translate(26,111)"/>
<path d="M0 0 C0.66 0.33 1.32 0.66 2 1 C-4.01522184 6.10382459 -8.51426756 7.65072039 -16.3984375 7.40625 C-19 7 -19 7 -22 5 C-21.67 4.01 -21.34 3.02 -21 2 C-20.15888672 2.48339844 -20.15888672 2.48339844 -19.30078125 2.9765625 C-15.3119565 4.75087843 -11.27758275 4.57165852 -7 4 C-4.45298557 2.88713629 -2.34666174 1.51555237 0 0 Z " fill="#B0B0AF" transform="translate(74,108)"/>
<path d="M0 0 C1.65 0 3.3 0 5 0 C5.12375 0.7425 5.2475 1.485 5.375 2.25 C5.95486701 4.80141485 6.73708739 6.7267573 8 9 C7.34 9 6.68 9 6 9 C6.33 10.98 6.66 12.96 7 15 C6.01 15.495 6.01 15.495 5 16 C3.40861915 11.82262526 2.78721942 8.46839215 3 4 C1.68 4 0.36 4 -1 4 C-0.67 2.68 -0.34 1.36 0 0 Z " fill="#CACACA" transform="translate(66,71)"/>
<path d="M0 0 C0.33 0 0.66 0 1 0 C1.433125 1.6396875 1.433125 1.6396875 1.875 3.3125 C2.81893204 7.04013845 2.81893204 7.04013845 5 10 C5.375 12.5 5.375 12.5 5 15 C3 16.8125 3 16.8125 1 18 C0.92652344 17.07767578 0.92652344 17.07767578 0.8515625 16.13671875 C0.77679688 15.32847656 0.70203125 14.52023438 0.625 13.6875 C0.55539063 12.88699219 0.48578125 12.08648437 0.4140625 11.26171875 C0.10435574 8.72775559 0.10435574 8.72775559 -2 6 C-2 5.01 -2 4.02 -2 3 C-1.34 3 -0.68 3 0 3 C0 2.01 0 1.02 0 0 Z " fill="#E87E2E" transform="translate(150,88)"/>
<path d="M0 0 C3.51585374 1.81854504 4.52473178 3.89454567 5.75 7.5 C6.60360717 10.2242782 7 12.1161841 7 15 C-0.25806452 9.35483871 -0.25806452 9.35483871 -2 5 C-1.1875 2.1875 -1.1875 2.1875 0 0 Z " fill="#C9722A" transform="translate(52,135)"/>
<path d="M0 0 C0.66 0.33 1.32 0.66 2 1 C1.01 2.485 1.01 2.485 0 4 C-0.41556258 5.98252649 -0.41556258 5.98252649 -0.5625 8.0625 C-1 12 -1 12 -2 14 C-1.67 14.99 -1.34 15.98 -1 17 C-1.99 16.67 -2.98 16.34 -4 16 C-5.73392465 12.5321507 -5.61299548 8.78231256 -5 5 C-2.5 1.9375 -2.5 1.9375 0 0 Z " fill="#DEDEDD" transform="translate(109,50)"/>
<path d="M0 0 C1.98 0 3.96 0 6 0 C5.67 0.556875 5.34 1.11375 5 1.6875 C3.84750995 4.35263324 3.69725595 6.12393149 4 9 C4.66 9.66 5.32 10.32 6 11 C3.36 11 0.72 11 -2 11 C-1.34 7.37 -0.68 3.74 0 0 Z " fill="#692C0F" transform="translate(135,66)"/>
<path d="M0 0 C0.66 0.66 1.32 1.32 2 2 C-0.27312778 4.81867844 -1.52236567 5.90447313 -5.125 6.625 C-6.40375 6.74875 -7.6825 6.8725 -9 7 C-10.81583357 7.33665819 -12.62837803 7.69146367 -14.4375 8.0625 C-15.30246094 8.23910156 -16.16742188 8.41570313 -17.05859375 8.59765625 C-17.69925781 8.73042969 -18.33992188 8.86320312 -19 9 C-16.28877629 5.46092172 -12.46058287 4.61910606 -8.375 3.375 C-3.83602787 2.28679796 -3.83602787 2.28679796 0 0 Z " fill="#A1A2A1" transform="translate(136,53)"/>
<path d="M0 0 C0.33 0 0.66 0 1 0 C1.33 1.65 1.66 3.3 2 5 C2.33 5 2.66 5 3 5 C3.12117188 5.89203125 3.24234375 6.7840625 3.3671875 7.703125 C3.53476562 8.87359375 3.70234375 10.0440625 3.875 11.25 C4.03742187 12.41015625 4.19984375 13.5703125 4.3671875 14.765625 C4.92341335 17.60855714 5.71005389 19.46659233 7 22 C6.67 22.66 6.34 23.32 6 24 C1.0329392 16.05270271 -0.38926738 9.34241719 0 0 Z " fill="#94430F" transform="translate(38,95)"/>
<path d="M0 0 C0.66 0 1.32 0 2 0 C2 0.99 2 1.98 2 3 C2.66 3.33 3.32 3.66 4 4 C0.04376368 11.5273523 0.04376368 11.5273523 -4.3125 13.5 C-5.199375 13.665 -6.08625 13.83 -7 14 C-5.88323912 11.48728801 -4.72986081 9.6807446 -2.9375 7.5625 C-0.93292265 4.91128479 -0.37223494 3.25705571 0 0 Z " fill="#B3561C" transform="translate(157,114)"/>
<path d="M0 0 C0.33 0.66 0.66 1.32 1 2 C1.66 2 2.32 2 3 2 C3 2.66 3 3.32 3 4 C-8.52164009 8.59225513 -8.52164009 8.59225513 -14 8 C-11.07096942 5.66635648 -8.11431797 3.95039164 -4.75 2.3125 C-3.41195312 1.65701172 -3.41195312 1.65701172 -2.046875 0.98828125 C-1.03367187 0.49908203 -1.03367187 0.49908203 0 0 Z " fill="#A4A6A4" transform="translate(77,111)"/>
<path d="M0 0 C0.47308594 0.433125 0.94617187 0.86625 1.43359375 1.3125 C6.12852098 5.26612293 9.15291958 6.64793476 15.3125 6.2109375 C16.1478125 6.10652344 16.1478125 6.10652344 17 6 C17 6.66 17 7.32 17 8 C15 10 15 10 13.046875 10.22265625 C8.28475825 9.89060389 5.64607262 9.23819179 2.4375 5.5625 C0 2.39837398 0 2.39837398 0 0 Z " fill="#A1A39F" transform="translate(55,52)"/>
<path d="M0 0 C0.99 0.33 1.98 0.66 3 1 C-3.1123231 5.62918587 -9.00281909 9.83146525 -16 13 C-16.99 12.34 -17.98 11.68 -19 11 C-18.46632812 10.79246094 -17.93265625 10.58492187 -17.3828125 10.37109375 C-11.69494138 8.01918857 -7.03961923 5.04637353 -2.1640625 1.29296875 C-1.44992188 0.86628906 -0.73578125 0.43960938 0 0 Z " fill="#222322" transform="translate(151,160)"/>
<path d="M0 0 C0 3.58050122 -0.83159845 4.51032702 -2.875 7.375 C-6.18193913 12.02388545 -8.11287679 16.09379087 -8.625 21.8125 C-8.69976562 22.60269531 -8.77453125 23.39289063 -8.8515625 24.20703125 C-8.90054688 24.79871094 -8.94953125 25.39039063 -9 26 C-9.33 26 -9.66 26 -10 26 C-10.85647293 17.32651228 -10.3086708 11.94511493 -4.82421875 5.0234375 C-3.26265605 3.29134011 -1.67681733 1.62006351 0 0 Z " fill="#4A494B" transform="translate(93,129)"/>
<path d="M0 0 C0.33 0.99 0.66 1.98 1 3 C0.5875 3.391875 0.175 3.78375 -0.25 4.1875 C-2.13653187 6.07306903 -2.13653187 6.07306903 -4.0625 8.6875 C-5.0215625 9.8321875 -5.0215625 9.8321875 -6 11 C-6.66 11 -7.32 11 -8 11 C-7.52274659 6.80017003 -6.9025517 4.13475583 -4 1 C-2 0 -2 0 0 0 Z " fill="#773509" transform="translate(133,147)"/>
<path d="M0 0 C1.32 0 2.64 0 4 0 C4.625 2.875 4.625 2.875 5 6 C4.34 6.66 3.68 7.32 3 8 C-0.125 7.625 -0.125 7.625 -3 7 C-2.34 6.67 -1.68 6.34 -1 6 C-1.0309375 4.7934375 -1.0309375 4.7934375 -1.0625 3.5625 C-1 1 -1 1 0 0 Z " fill="#E77929" transform="translate(75,36)"/>
<path d="M0 0 C0.66 0.33 1.32 0.66 2 1 C0.98548404 3.1851113 0.08370965 4.90959357 -1.5625 6.6875 C-3.75186603 10.20952362 -3.74741953 13.92387378 -4 18 C-5.50390625 16.70703125 -5.50390625 16.70703125 -7 15 C-6.87956975 8.61719686 -4.44889429 4.44889429 0 0 Z " fill="#2D2D2D" transform="translate(59,32)"/>
<path d="M0 0 C6.625 -0.25 6.625 -0.25 10 2 C10 2.99 10 3.98 10 5 C10.99 5.66 11.98 6.32 13 7 C12.67 7.99 12.34 8.98 12 10 C10.6696875 8.8553125 10.6696875 8.8553125 9.3125 7.6875 C7.30641102 6.00466706 5.45030029 4.67018018 3.1875 3.3125 C1 2 1 2 0 0 Z " fill="#A6A6A3" transform="translate(101,102)"/>
<path d="M0 0 C-1.55615009 1.29930979 -3.1202168 2.58914138 -4.6875 3.875 C-5.55761719 4.59429687 -6.42773438 5.31359375 -7.32421875 6.0546875 C-9.8477646 7.88932376 -12.06338486 8.99467229 -15 10 C-13.63738776 5.09459595 -11.35224984 3.47480873 -7 1 C-2.39534884 -1.19767442 -2.39534884 -1.19767442 0 0 Z " fill="#7F7F7F" transform="translate(69,92)"/>
<path d="M0 0 C-0.33 1.98 -0.66 3.96 -1 6 C-4.76624671 7.25541557 -6.37188934 6.37061958 -10 5 C-8.28489314 1.56978628 -3.75681361 0 0 0 Z " fill="#E7E7E7" transform="translate(127,64)"/>
<path d="M0 0 C2.97 0 5.94 0 9 0 C9.33 0.99 9.66 1.98 10 3 C9.01 3.99 8.02 4.98 7 6 C4.50638429 4.79618552 2.31856917 3.54571278 0 2 C0 1.34 0 0.68 0 0 Z " fill="#20201F" transform="translate(55,115)"/>
<path d="M0 0 C0.33 0 0.66 0 1 0 C1.38854209 2.28940956 1.7604628 4.58164574 2.125 6.875 C2.33382813 8.15117188 2.54265625 9.42734375 2.7578125 10.7421875 C2.83773438 11.81726563 2.91765625 12.89234375 3 14 C2.34 14.66 1.68 15.32 1 16 C0.49242138 14.58603098 -0.00574925 13.16868271 -0.5 11.75 C-0.91765625 10.56664063 -0.91765625 10.56664063 -1.34375 9.359375 C-2 7 -2 7 -2 3 C-1.34 3 -0.68 3 0 3 C0 2.01 0 1.02 0 0 Z " fill="#2B2B2B" transform="translate(25,111)"/>
<path d="M0 0 C0.66 0.33 1.32 0.66 2 1 C1.125 7.75 1.125 7.75 0 10 C-0.99 10.33 -1.98 10.66 -3 11 C-3.33 11.66 -3.66 12.32 -4 13 C-4.66 13 -5.32 13 -6 13 C-5.04476793 10.35474197 -4.14300693 8.18876915 -2.4375 5.9375 C-0.94296201 3.92312271 -0.43661788 2.44506011 0 0 Z " fill="#EB8124" transform="translate(98,8)"/>
<path d="M0 0 C-2.27731426 2.60577305 -4.21402762 3.6524187 -7.5 4.6875 C-8.2734375 4.93886719 -9.046875 5.19023438 -9.84375 5.44921875 C-12 6 -12 6 -15 6 C-11.26905985 1.49178065 -5.80089318 -1.93363106 0 0 Z " fill="#E3E4E3" transform="translate(126,48)"/>
<path d="M0 0 C3.62369777 1.35076906 6.82770556 2.98330615 10.125 5 C10.97320312 5.515625 11.82140625 6.03125 12.6953125 6.5625 C14.4830896 7.67758809 16.24684645 8.83123097 18 10 C17.01 10.33 16.02 10.66 15 11 C12.68835065 9.83386861 10.60449296 8.6422155 8.4375 7.25 C7.84775391 6.8890625 7.25800781 6.528125 6.65039062 6.15625 C3.69217477 4.29853083 1.96460083 2.94690125 0 0 Z " fill="#1A1A19" transform="translate(52,162)"/>
<path d="M0 0 C0.33 0.66 0.66 1.32 1 2 C-0.24374574 3.60902058 -1.49526899 5.21203107 -2.75 6.8125 C-3.44609375 7.70582031 -4.1421875 8.59914062 -4.859375 9.51953125 C-6.77825964 11.74305633 -8.58099964 13.3600921 -11 15 C-11 12 -11 12 -9.35546875 10.09765625 C-8.64003906 9.42605469 -7.92460937 8.75445312 -7.1875 8.0625 C-4.49554885 5.51765 -2.14524863 3.02500358 0 0 Z " fill="#BABCBA" transform="translate(164,144)"/>
<path d="M0 0 C0 3 0 3 -1.4609375 4.82421875 C-2.09257812 5.43910156 -2.72421875 6.05398437 -3.375 6.6875 C-4.00148437 7.31011719 -4.62796875 7.93273437 -5.2734375 8.57421875 C-7 10 -7 10 -9 10 C-9.33 10.66 -9.66 11.32 -10 12 C-10 11.34 -10 10.68 -10 10 C-10.99 9.67 -11.98 9.34 -13 9 C-10.33440687 7.22293791 -7.9719385 6.12451727 -5 5 C-5 4.34 -5 3.68 -5 3 C-2.5 1.375 -2.5 1.375 0 0 Z " fill="#954612" transform="translate(152,129)"/>
<path d="M0 0 C0.66 0.33 1.32 0.66 2 1 C2 1.66 2 2.32 2 3 C0.39967863 3.84069415 -1.20541171 4.67231505 -2.8125 5.5 C-4.15248047 6.19609375 -4.15248047 6.19609375 -5.51953125 6.90625 C-8 8 -8 8 -11 8 C-11 7.34 -11 6.68 -11 6 C-10.28972656 5.65066406 -9.57945313 5.30132812 -8.84765625 4.94140625 C-7.92855469 4.48636719 -7.00945312 4.03132813 -6.0625 3.5625 C-4.68771484 2.88380859 -4.68771484 2.88380859 -3.28515625 2.19140625 C-1.09471096 1.19474606 -1.09471096 1.19474606 0 0 Z " fill="#10100F" transform="translate(75,109)"/>
<path d="M0 0 C0.33 0 0.66 0 1 0 C1.55353075 10.55808656 1.55353075 10.55808656 -2 15 C-2.99 14.67 -3.98 14.34 -5 14 C-4.72285156 13.32453125 -4.44570312 12.6490625 -4.16015625 11.953125 C-3.79792969 11.06109375 -3.43570313 10.1690625 -3.0625 9.25 C-2.52302734 7.92742188 -2.52302734 7.92742188 -1.97265625 6.578125 C-1.14643424 4.38813896 -0.50630057 2.28101729 0 0 Z " fill="#79330B" transform="translate(118,29)"/>
<path d="M0 0 C0 0.33 0 0.66 0 1 C-0.94359375 1.14695312 -0.94359375 1.14695312 -1.90625 1.296875 C-7.94238089 2.35137979 -12.64440845 4.02467136 -18 7 C-17.296875 3.21875 -17.296875 3.21875 -14.625 1.25 C-9.69445786 -0.45018695 -5.16423904 -0.24810401 0 0 Z " fill="#3F4040" transform="translate(95,80)"/>
<path d="M0 0 C-1.6209213 1.17232685 -3.24686833 2.3377077 -4.875 3.5 C-5.77992187 4.1496875 -6.68484375 4.799375 -7.6171875 5.46875 C-10 7 -10 7 -12 7 C-12 6.34 -12 5.68 -12 5 C-11.34 5 -10.68 5 -10 5 C-9.67 3.68 -9.34 2.36 -9 1 C-2.25 -1.125 -2.25 -1.125 0 0 Z " fill="#E87620" transform="translate(55,94)"/>
<path d="M0 0 C2.80561393 1.40280696 3.00680507 3.0509005 4.125 5.9375 C4.47820313 6.83339844 4.83140625 7.72929687 5.1953125 8.65234375 C6 11 6 11 6 13 C6.66 13.33 7.32 13.66 8 14 C6.68 14 5.36 14 4 14 C-0.59225513 4.58997722 -0.59225513 4.58997722 0 0 Z " fill="#151514" transform="translate(27,125)"/>
<path d="M0 0 C3.5154466 1.95302589 6.48239591 3.82968374 9 7 C9.25 9.75 9.25 9.75 9 12 C5.72764488 8.84884322 2.7974276 5.57449082 0 2 C0 1.34 0 0.68 0 0 Z " fill="#6A2507" transform="translate(142,90)"/>
<path d="M0 0 C0.66 0.33 1.32 0.66 2 1 C1.7525 1.53625 1.505 2.0725 1.25 2.625 C0.8666748 6.26658941 2.93282694 8.11848603 5 11 C5 11.66 5 12.32 5 13 C0.91376127 11.63792042 0.0105445 9.73386836 -2 6 C-1.71428571 1.71428571 -1.71428571 1.71428571 0 0 Z " fill="#E1832F" transform="translate(158,83)"/>
<path d="M0 0 C1.98 0.99 1.98 0.99 4 2 C6.23470405 1.21690533 6.23470405 1.21690533 8 0 C8 1.32 8 2.64 8 4 C7.01 4 6.02 4 5 4 C5.33 5.32 5.66 6.64 6 8 C5.34 8 4.68 8 4 8 C2.68 5.36 1.36 2.72 0 0 Z " fill="#585757" transform="translate(166,65)"/>
<path d="M0 0 C0.66 0.33 1.32 0.66 2 1 C1.31164062 1.87011719 1.31164062 1.87011719 0.609375 2.7578125 C-2.77869815 7.07119974 -6.03970201 11.38193513 -9 16 C-9.33 15.34 -9.66 14.68 -10 14 C-8.92578125 11.7578125 -8.92578125 11.7578125 -7.3125 9.125 C-6.79300781 8.26132812 -6.27351563 7.39765625 -5.73828125 6.5078125 C-4.02492746 4.03596277 -2.19041205 2.05202 0 0 Z " fill="#DBDBDB" transform="translate(80,53)"/>
<path d="M0 0 C0.33 0 0.66 0 1 0 C0.56179109 4.55737263 0.14958831 7.57653445 -3 11 C-3.66 10.67 -4.32 10.34 -5 10 C-4.814375 9.05125 -4.62875 8.1025 -4.4375 7.125 C-3.71313368 4.10131207 -3.71313368 4.10131207 -5 2 C-3.35 2 -1.7 2 0 2 C0 1.34 0 0.68 0 0 Z " fill="#2A2B29" transform="translate(72,58)"/>
<path d="M0 0 C0.99 0.33 1.98 0.66 3 1 C3 3.31 3 5.62 3 8 C0.03 7.505 0.03 7.505 -3 7 C-2.625 4.5625 -2.625 4.5625 -2 2 C-1.34 1.67 -0.68 1.34 0 1 C0 0.67 0 0.34 0 0 Z " fill="#DC6F26" transform="translate(104,35)"/>
<path d="M0 0 C1.16406323 1.16406323 2.32754865 2.32870939 3.48828125 3.49609375 C4.53794602 4.5403339 5.59871848 5.57347976 6.66796875 6.59765625 C8.14814809 8.02861348 9.57767678 9.51152221 11 11 C11 11.66 11 12.32 11 13 C7.38502261 11.52841629 5.59408489 9.58537669 3.25 6.5 C2.63640625 5.7059375 2.0228125 4.911875 1.390625 4.09375 C0 2 0 2 0 0 Z " fill="#AFB1AF" transform="translate(37,143)"/>
<path d="M0 0 C1.98 0 3.96 0 6 0 C5.67 1.65 5.34 3.3 5 5 C3.35 5.33 1.7 5.66 0 6 C0.185625 5.38125 0.37125 4.7625 0.5625 4.125 C1.23686176 1.95839822 1.23686176 1.95839822 0 0 Z " fill="#813D16" transform="translate(77,121)"/>
<path d="M0 0 C-0.625 2.4375 -0.625 2.4375 -2 5 C-5.125 5.8125 -5.125 5.8125 -8 6 C-7.75 4.125 -7.75 4.125 -7 2 C-4.41847698 0.27898465 -3.15081975 0 0 0 Z " fill="#CFCFCE" transform="translate(88,86)"/>
<path d="M0 0 C0.99 0.33 1.98 0.66 3 1 C1.35 2.98 -0.3 4.96 -2 7 C-3.32 6.67 -4.64 6.34 -6 6 C-5.34 4.68 -4.68 3.36 -4 2 C-3.34 2 -2.68 2 -2 2 C-1.34 1.34 -0.68 0.68 0 0 Z " fill="#F08538" transform="translate(145,81)"/>
<path d="M0 0 C0 3 0 3 -2.25 5.75 C-3.1575 6.4925 -4.065 7.235 -5 8 C-7.171875 7.640625 -7.171875 7.640625 -9 7 C-7.87720538 6.01830524 -6.75168527 5.03972702 -5.625 4.0625 C-4.68527344 3.24458984 -4.68527344 3.24458984 -3.7265625 2.41015625 C-2 1 -2 1 0 0 Z " fill="#E48324" transform="translate(83,20)"/>
<path d="M0 0 C3.465 1.485 3.465 1.485 7 3 C5.68 4.32 4.36 5.64 3 7 C1.68 5.35 0.36 3.7 -1 2 C-0.67 1.34 -0.34 0.68 0 0 Z " fill="#78370A" transform="translate(48,119)"/>
<path d="M0 0 C0.66 0 1.32 0 2 0 C1.27991594 4.60853797 -0.31295939 8.67237409 -2 13 C-2.66 13 -3.32 13 -4 13 C-3.40895235 8.15340923 -2.02055843 4.39251833 0 0 Z " fill="#DCDBDB" transform="translate(32,71)"/>
<path d="M0 0 C0.66 0 1.32 0 2 0 C2.36923077 7.50769231 2.36923077 7.50769231 0.5 10 C0.005 10.33 -0.49 10.66 -1 11 C-1.66 10.67 -2.32 10.34 -3 10 C-2.01 6.7 -1.02 3.4 0 0 Z " fill="#4B291E" transform="translate(60,81)"/>
<path d="M0 0 C1.485 0.99 1.485 0.99 3 2 C2.67 3.98 2.34 5.96 2 8 C1.01 8.33 0.02 8.66 -1 9 C-1.09765625 2.84765625 -1.09765625 2.84765625 -1 1 C-0.67 0.67 -0.34 0.34 0 0 Z " fill="#F58331" transform="translate(148,83)"/>
<path d="M0 0 C0.66 0 1.32 0 2 0 C2.99 1.98 3.98 3.96 5 6 C4.67 6.33 4.34 6.66 4 7 C3.76924918 8.34747084 3.58846937 9.70377565 3.4375 11.0625 C3.2209375 13.0115625 3.2209375 13.0115625 3 15 C2.67 15 2.34 15 2 15 C1.93941406 14.33613281 1.87882813 13.67226563 1.81640625 12.98828125 C1.20136493 6.45091919 1.20136493 6.45091919 0 0 Z " fill="#3A3B3A" transform="translate(144,37)"/>
<path d="M0 0 C0.33 0 0.66 0 1 0 C1.98248524 4.0527516 2.08159574 7.83861737 2 12 C1.01 11.67 0.02 11.34 -1 11 C-1.14285714 3.57142857 -1.14285714 3.57142857 0 0 Z " fill="#7D360C" transform="translate(72,30)"/>
<path d="M0 0 C7.42857143 -0.28571429 7.42857143 -0.28571429 11 2 C11 2.66 11 3.32 11 4 C7.0507432 3.44894091 3.65079826 2.61064629 0 1 C0 0.67 0 0.34 0 0 Z " fill="#ABABA8" transform="translate(78,102)"/>
<path d="M0 0 C1.125 3.75 1.125 3.75 0 6 C-2.475 5.01 -2.475 5.01 -5 4 C-5 3.01 -5 2.02 -5 1 C-3.35 0.67 -1.7 0.34 0 0 Z " fill="#515150" transform="translate(30,72)"/>
<path d="M0 0 C1.32 0 2.64 0 4 0 C3.25 2.4375 3.25 2.4375 2 5 C-0.125 5.8125 -0.125 5.8125 -2 6 C-1.125 1.125 -1.125 1.125 0 0 Z " fill="#E0E0E0" transform="translate(38,50)"/>
<path d="M0 0 C0.99 1.32 1.98 2.64 3 4 C2.34 5.32 1.68 6.64 1 8 C0.34 8 -0.32 8 -1 8 C-1.625 5.6875 -1.625 5.6875 -2 3 C-1.34 2.01 -0.68 1.02 0 0 Z " fill="#E4E4E3" transform="translate(26,98)"/>
<path d="M0 0 C0.99 0 1.98 0 3 0 C3.25 2.3125 3.25 2.3125 3 5 C1 6.8125 1 6.8125 -1 8 C-1.93065133 5.39417629 -2.14917407 4.35801776 -1.0625 1.75 C-0.711875 1.1725 -0.36125 0.595 0 0 Z " fill="#E16F27" transform="translate(152,98)"/>
<path d="M0 0 C0.99 0.33 1.98 0.66 3 1 C2.01 2.485 2.01 2.485 1 4 C0.60986284 5.9896995 0.26797351 7.99019869 0 10 C-1.32 9.67 -2.64 9.34 -4 9 C-3.34 9 -2.68 9 -2 9 C-1.7834375 7.0509375 -1.7834375 7.0509375 -1.5625 5.0625 C-1.125 1.125 -1.125 1.125 0 0 Z " fill="#883D0D" transform="translate(138,66)"/>
<path d="M0 0 C4.29 0.33 8.58 0.66 13 1 C13 1.33 13 1.66 13 2 C10.69 2 8.38 2 6 2 C5.67 2.66 5.34 3.32 5 4 C4.01 3.34 3.02 2.68 2 2 C2 2.66 2 3.32 2 4 C1.01 4 0.02 4 -1 4 C-0.67 2.68 -0.34 1.36 0 0 Z " fill="#8E8F8E" transform="translate(71,70)"/>
<path d="M0 0 C0.99 0.33 1.98 0.66 3 1 C0.03 3.97 -2.94 6.94 -6 10 C-6.99 9.67 -7.98 9.34 -9 9 C-8.51789063 8.60167969 -8.03578125 8.20335937 -7.5390625 7.79296875 C-6.90742188 7.26316406 -6.27578125 6.73335937 -5.625 6.1875 C-4.99851563 5.66542969 -4.37203125 5.14335937 -3.7265625 4.60546875 C-1.7778952 2.91774261 -1.7778952 2.91774261 0 0 Z " fill="#131312" transform="translate(161,150)"/>
<path d="M0 0 C0.33 0.99 0.66 1.98 1 3 C-2.95523655 5.75668002 -6.22423661 6.5317879 -11 7 C-8.99766723 4.99766723 -7.46399161 4.14342975 -4.9375 2.9375 C-2.27306757 1.74827237 -2.27306757 1.74827237 0 0 Z " fill="#E0792A" transform="translate(150,136)"/>
<path d="M0 0 C0.99 0.33 1.98 0.66 3 1 C3.33 1.99 3.66 2.98 4 4 C3.01 5.485 3.01 5.485 2 7 C1.34 7 0.68 7 0 7 C-1.125 2.25 -1.125 2.25 0 0 Z " fill="#F1F1F1" transform="translate(175,99)"/>
<path d="M0 0 C0.99 0 1.98 0 3 0 C4.125 3.75 4.125 3.75 3 6 C3.33 6.99 3.66 7.98 4 9 C3.01 8.67 2.02 8.34 1 8 C-0.35439668 5.29120665 -0.06501451 2.99066732 0 0 Z " fill="#C8C8C9" transform="translate(104,58)"/>
<path d="M0 0 C1.9375 0.6875 1.9375 0.6875 4 2 C4.75 4.625 4.75 4.625 5 7 C3.0625 6.3125 3.0625 6.3125 1 5 C0.25 2.375 0.25 2.375 0 0 Z " fill="#E9E9E8" transform="translate(160,49)"/>
<path d="M0 0 C1.9375 1.0625 1.9375 1.0625 4 3 C4.75 6.6875 4.75 6.6875 5 10 C0.07692308 5.69230769 0.07692308 5.69230769 -0.3125 2.1875 C-0.209375 1.465625 -0.10625 0.74375 0 0 Z " fill="#6B2D08" transform="translate(60,139)"/>
<path d="M0 0 C1.98 0.99 1.98 0.99 4 2 C4.66 1.34 5.32 0.68 6 0 C7.35439668 2.70879335 7.06501451 5.00933268 7 8 C4.35247996 5.42215154 2.05567935 3.08351902 0 0 Z " fill="#A6A7A6" transform="translate(114,106)"/>
<path d="M0 0 C0.66 0.33 1.32 0.66 2 1 C0.84826645 3.46800047 -0.04783565 5.04783565 -2 7 C-2 6.34 -2 5.68 -2 5 C-3.65 5 -5.3 5 -7 5 C-2.25 1.125 -2.25 1.125 0 0 Z " fill="#212121" transform="translate(55,98)"/>
<path d="M0 0 C0.66 0.33 1.32 0.66 2 1 C2.40729228 3.32156597 2.74438677 5.6568787 3 8 C1.35 8.66 -0.3 9.32 -2 10 C-1.34 6.7 -0.68 3.4 0 0 Z " fill="#8B3C0E" transform="translate(123,32)"/>
<path d="M0 0 C1.98 0 3.96 0 6 0 C6 0.66 6 1.32 6 2 C5.195625 2.226875 4.39125 2.45375 3.5625 2.6875 C2.716875 3.120625 1.87125 3.55375 1 4 C0.10613836 6.54775306 0.10613836 6.54775306 0 9 C-0.33 9 -0.66 9 -1 9 C-1.125 2.25 -1.125 2.25 0 0 Z " fill="#2B1910" transform="translate(98,16)"/>
<path d="M0 0 C2.79705825 1.39852912 2.90914993 3.13651858 4 6 C4.99 7.485 4.99 7.485 6 9 C5.01 9 4.02 9 3 9 C0.75 6.1875 0.75 6.1875 -1 3 C-0.67 2.01 -0.34 1.02 0 0 Z " fill="#212221" transform="translate(36,142)"/>
<path d="M0 0 C1.32 0.99 2.64 1.98 4 3 C3.67 4.32 3.34 5.64 3 7 C3 6.01 3 5.02 3 4 C2.01 5.485 2.01 5.485 1 7 C0.01 6.34 -0.98 5.68 -2 5 C-1.34 3.35 -0.68 1.7 0 0 Z " fill="#B8591D" transform="translate(52,135)"/>
<path d="M0 0 C0.75 1.625 0.75 1.625 1 4 C-0.8125 7.25 -0.8125 7.25 -3 10 C-3.66 10 -4.32 10 -5 10 C-3.84414715 6.08788267 -2.64465038 3.1254959 0 0 Z " fill="#E7E7E7" transform="translate(79,58)"/>
<path d="M0 0 C0 3 0 3 -2.5 5.6875 C-3.325 6.450625 -4.15 7.21375 -5 8 C-5.33 7.01 -5.66 6.02 -6 5 C-4.02 3.35 -2.04 1.7 0 0 Z " fill="#1E1916" transform="translate(140,133)"/>
<path d="M0 0 C0.66 0 1.32 0 2 0 C2 0.99 2 1.98 2 3 C2.66 3.33 3.32 3.66 4 4 C2.02 6.97 2.02 6.97 0 10 C-1.27079593 7.45840813 -0.71020908 6.68301208 0 4 C0 2.68 0 1.36 0 0 Z " fill="#C66426" transform="translate(157,114)"/>
<path d="M0 0 C0.804375 0.4640625 0.804375 0.4640625 1.625 0.9375 C4.3984957 2.17827439 7.00042837 2.5909675 10 3 C10 3.33 10 3.66 10 4 C2.375 5.25 2.375 5.25 -1 3 C-0.67 2.01 -0.34 1.02 0 0 Z " fill="#A3A5A1" transform="translate(53,110)"/>
<path d="M0 0 C0.33 0.66 0.66 1.32 1 2 C0.06421005 4.35981813 -0.93347808 6.69631264 -2 9 C-2.99 9 -3.98 9 -5 9 C-3.7508258 5.54074837 -2.32472205 2.85306797 0 0 Z " fill="#878989" transform="translate(81,59)"/>
<path d="M0 0 C1.2077558 3.62326739 0.54311128 4.64146369 -1 8 C-1.99 8 -2.98 8 -4 8 C-3.50168276 4.31245243 -2.89932357 2.39509338 0 0 Z " fill="#0E0E0E" transform="translate(84,58)"/>
<path d="M0 0 C1.20272819 2.40545638 1.10071472 3.94996953 1.0625 6.625 C1.05347656 7.44226562 1.04445313 8.25953125 1.03515625 9.1015625 C1.02355469 9.72804688 1.01195312 10.35453125 1 11 C0.34 11 -0.32 11 -1 11 C-3 8 -3 8 -2.75 5.5 C-2 3 -2 3 0 0 Z " fill="#C3C3C3" transform="translate(58,36)"/>
<path d="M0 0 C0.66 0 1.32 0 2 0 C3.35439668 2.70879335 3.06501451 5.00933268 3 8 C2.01 8 1.02 8 0 8 C0 5.36 0 2.72 0 0 Z " fill="#F6872D" transform="translate(89,33)"/>
<path d="M0 0 C0.33 0.66 0.66 1.32 1 2 C1.99 2 2.98 2 4 2 C3.67 2.99 3.34 3.98 3 5 C1.35 5 -0.3 5 -2 5 C-2 4.01 -2 3.02 -2 2 C-1.34 2 -0.68 2 0 2 C0 1.34 0 0.68 0 0 Z " fill="#A6561F" transform="translate(138,137)"/>
<path d="M0 0 C0.66 0 1.32 0 2 0 C2.08333357 4.8333472 1.95261487 9.23692563 1 14 C0.67 14 0.34 14 0 14 C0 9.33333333 0 4.66666667 0 0 Z " fill="#EE8638" transform="translate(41,94)"/>
<path d="M0 0 C0.33 0.99 0.66 1.98 1 3 C0.01 4.485 0.01 4.485 -1 6 C-2.65 5.67 -4.3 5.34 -6 5 C-5.195625 4.360625 -4.39125 3.72125 -3.5625 3.0625 C-1.7249496 1.59396498 -1.7249496 1.59396498 0 0 Z " fill="#A4A5A3" transform="translate(126,65)"/>
<path d="M0 0 C0.66 0 1.32 0 2 0 C2.33 2.64 2.66 5.28 3 8 C1.68 7.34 0.36 6.68 -1 6 C-0.67 4.02 -0.34 2.04 0 0 Z " fill="#0A0505" transform="translate(69,33)"/>
<path d="M0 0 C0 0.66 0 1.32 0 2 C-2.8125 3.5625 -2.8125 3.5625 -6 5 C-6.99 4.67 -7.98 4.34 -9 4 C-2.25 0 -2.25 0 0 0 Z " fill="#D8D8D8" transform="translate(141,166)"/>
<path d="M0 0 C1.98 0.99 1.98 0.99 4 2 C3.01 4.31 2.02 6.62 1 9 C0.67 9 0.34 9 0 9 C0 6.03 0 3.06 0 0 Z " fill="#242623" transform="translate(98,145)"/>
<path d="M0 0 C1.9375 1.375 1.9375 1.375 2.6875 4 C2.77 4.78375 2.8525 5.5675 2.9375 6.375 C2.339375 5.75625 1.74125 5.1375 1.125 4.5 C-1.07061144 2.23823046 -1.07061144 2.23823046 -4.0625 0.375 C-2.0625 -0.625 -2.0625 -0.625 0 0 Z " fill="#E0792E" transform="translate(60.0625,135.625)"/>
<path d="M0 0 C-1.28497537 2.56995074 -2.49912373 2.90434463 -5.0625 4.125 C-5.79597656 4.47820312 -6.52945313 4.83140625 -7.28515625 5.1953125 C-7.85105469 5.46085938 -8.41695312 5.72640625 -9 6 C-9 5.34 -9 4.68 -9 4 C-5.69649386 0.88002198 -4.67590167 0 0 0 Z " fill="#211005" transform="translate(152,135)"/>
<path d="M0 0 C1.98 0.495 1.98 0.495 4 1 C3.34 2.32 2.68 3.64 2 5 C1.01 5 0.02 5 -1 5 C-0.67 3.35 -0.34 1.7 0 0 Z " fill="#0D0706" transform="translate(75,122)"/>
<path d="M0 0 C0.66 1.32 1.32 2.64 2 4 C0.68 4.99 -0.64 5.98 -2 7 C-2.6875 5.1875 -2.6875 5.1875 -3 3 C-1.5625 1.25 -1.5625 1.25 0 0 Z " fill="#60280D" transform="translate(154,103)"/>
<path d="M0 0 C-0.33 0.99 -0.66 1.98 -1 3 C-3.97 2.505 -3.97 2.505 -7 2 C-7 1.34 -7 0.68 -7 0 C-3.86650268 -1.04449911 -3.01031744 -0.93423645 0 0 Z " fill="#C9C9C7" transform="translate(102,88)"/>
<path d="M0 0 C1.65 0 3.3 0 5 0 C4.67 0.99 4.34 1.98 4 3 C2.35 3.33 0.7 3.66 -1 4 C-0.67 2.68 -0.34 1.36 0 0 Z " fill="#E8E8E7" transform="translate(66,71)"/>
<path d="M0 0 C0.99 0 1.98 0 3 0 C3 0.66 3 1.32 3 2 C3.99 1.67 4.98 1.34 6 1 C5.67 2.32 5.34 3.64 5 5 C4.34 5 3.68 5 3 5 C3 4.34 3 3.68 3 3 C2.01 3 1.02 3 0 3 C0 2.01 0 1.02 0 0 Z " fill="#706E6D" transform="translate(28,66)"/>
<path d="M0 0 C0.99 0.33 1.98 0.66 3 1 C1.68 3.31 0.36 5.62 -1 8 C-1.66 7.67 -2.32 7.34 -3 7 C-2.690625 6.401875 -2.38125 5.80375 -2.0625 5.1875 C-0.89790296 2.91043228 -0.89790296 2.91043228 0 0 Z " fill="#0F0F0F" transform="translate(41,52)"/>
<path d="M0 0 C-3.96 1.98 -3.96 1.98 -8 4 C-8.33 3.01 -8.66 2.02 -9 1 C-2.25 -1.125 -2.25 -1.125 0 0 Z " fill="#3F3F3F" transform="translate(125,51)"/>
<path d="M0 0 C0.66 0.33 1.32 0.66 2 1 C-0.75 3.0625 -0.75 3.0625 -4 5 C-6.203125 4.62109375 -6.203125 4.62109375 -8 4 C-6.71349294 3.30289269 -5.42059335 2.61757124 -4.125 1.9375 C-3.40570313 1.55464844 -2.68640625 1.17179687 -1.9453125 0.77734375 C-1.30335937 0.52082031 -0.66140625 0.26429687 0 0 Z " fill="#C4C5C4" transform="translate(94,47)"/>
</svg>
