<svg width="25" height="25" viewBox="0 0 25 25" fill="none" xmlns="http://www.w3.org/2000/svg">
<g id="Group 1000003121">
<g id="Group">
<g id="bag-dollar--bag-payment-cash-money-finance">
<g id="bag-dollar--bag-payment-cash-money-finance_2">
<path id="Vector" d="M13.2087 21.1911C17.9971 21.1911 21.4173 19.4973 21.4173 15.7271C21.4173 11.629 19.3652 8.89701 15.2608 6.84799L16.8752 4.77165C16.9572 4.63542 17.0017 4.47997 17.0042 4.32103C17.0066 4.1621 16.9669 4.00535 16.8891 3.86667C16.8114 3.72798 16.6982 3.61229 16.5612 3.53133C16.4242 3.45037 16.2683 3.40701 16.1091 3.40564H10.3083C10.1491 3.40701 9.99307 3.45037 9.85608 3.53133C9.71908 3.61229 9.60596 3.72798 9.52818 3.86667C9.45039 4.00535 9.41072 4.1621 9.41317 4.32103C9.41562 4.47997 9.46009 4.63542 9.54211 4.77165L11.1565 6.86165C7.05214 8.92433 4.99997 11.6564 4.99997 15.7544C4.99997 19.4973 8.42026 21.1911 13.2087 21.1911Z" stroke="white" strokeWidth="2" strokeLinecap="round" strokeLinejoin="round"/>
<path id="Vector 3" d="M15.1009 12.0325C15.0358 11.8485 14.9354 11.6811 14.8078 11.5385C14.5364 11.2353 14.1421 11.0445 13.7031 11.0445H12.5559C11.8252 11.0445 11.2329 11.6368 11.2329 12.3675C11.2329 12.9892 11.6658 13.527 12.2732 13.6599L14.0198 14.042C14.7002 14.1908 15.1852 14.7938 15.1852 15.4903C15.1852 16.3089 14.5216 16.9731 13.7031 16.9731H12.715C12.0697 16.9731 11.5207 16.5606 11.3172 15.9849" stroke="white" strokeWidth="2" strokeLinecap="round" strokeLinejoin="round"/>
<path id="Vector 2489" d="M13.2088 11.0443V9.56212" stroke="white" strokeWidth="2" strokeLinecap="round" strokeLinejoin="round"/>
<path id="Vector 2490" d="M13.2088 18.4551V16.9729" stroke="white" strokeWidth="2" strokeLinecap="round" strokeLinejoin="round"/>
</g>
</g>
</g>
</g>
</svg>
