<?xml version="1.0" standalone="no"?>
<!DOCTYPE svg PUBLIC "-//W3C//DTD SVG 20010904//EN"
 "http://www.w3.org/TR/2001/REC-SVG-20010904/DTD/svg10.dtd">
<svg version="1.0" xmlns="http://www.w3.org/2000/svg"
 width="1600.000000pt" height="1600.000000pt" viewBox="0 0 1600.000000 1600.000000"
 preserveAspectRatio="xMidYMid meet">

<g transform="translate(0.000000,1600.000000) scale(0.100000,-0.100000)"
fill="#000000" stroke="none">
<path d="M7640 15019 c-630 -29 -1314 -160 -1935 -371 -1082 -368 -2116 -1039
-2886 -1873 -1121 -1214 -1771 -2708 -1884 -4330 -19 -268 -18 -776 1 -1030
160 -2105 1237 -4015 2954 -5239 1239 -884 2753 -1350 4255 -1312 143 4 276 8
295 11 19 2 98 9 175 15 195 15 486 55 705 96 2167 408 4025 1814 5015 3794
433 864 680 1790 735 2754 95 1672 -395 3308 -1392 4644 -434 581 -970 1107
-1558 1528 -898 644 -1953 1075 -3035 1239 -474 72 -948 96 -1445 74z m2510
-2316 c36 -9 67 -18 69 -20 3 -2 -4 -10 -15 -18 -10 -8 -14 -15 -8 -15 6 0 17
7 24 15 7 8 17 15 24 15 24 0 96 -36 96 -47 0 -7 5 -13 11 -13 5 0 7 5 3 11
-4 7 -2 9 7 5 8 -3 22 -9 32 -12 9 -4 17 -10 17 -15 0 -5 9 -9 19 -9 11 0 23
-4 26 -10 3 -5 4 -10 1 -10 -2 0 -13 -3 -23 -6 -15 -5 -15 -4 -3 5 13 9 13 11
-1 11 -9 0 -19 -7 -23 -15 -3 -8 -1 -15 4 -15 15 0 12 -37 -2 -44 -9 -3 -6
-11 10 -25 l22 -19 0 -878 c0 -832 1 -879 17 -885 10 -4 26 -16 35 -28 11 -13
24 -18 34 -14 24 9 9 -14 -19 -29 -20 -10 -21 -9 -9 5 11 13 10 16 -7 22 -27
8 -63 -3 -58 -18 2 -7 15 -11 28 -9 l24 3 -21 -21 c-11 -12 -27 -22 -35 -24
-8 -1 -28 -9 -45 -18 -50 -27 -136 -58 -146 -52 -4 3 -8 1 -8 -3 0 -18 -205
-48 -325 -48 -201 1 -423 65 -573 166 -24 16 -46 29 -49 29 -12 0 -142 112
-192 166 -88 94 -186 253 -228 368 -8 23 -26 86 -40 141 -22 86 -25 122 -26
260 0 167 13 246 63 382 148 402 528 699 935 732 120 10 282 2 355 -16z m325
-133 c-3 -5 -12 -10 -18 -10 -7 0 -6 4 3 10 19 12 23 12 15 0z m50 -30 c-3 -5
-1 -11 5 -15 5 -3 10 -1 10 4 0 8 7 7 20 -1 11 -7 15 -15 9 -19 -6 -3 -9 -10
-7 -14 1 -4 -10 -9 -27 -11 l-30 -3 28 15 c32 17 36 28 7 19 -13 -4 -20 -2
-20 6 0 8 -7 5 -20 -6 -15 -14 -25 -16 -42 -8 -15 6 -18 12 -10 17 7 4 12 2
12 -5 0 -7 7 -4 15 7 15 18 15 18 8 0 -5 -14 -3 -17 6 -11 7 4 11 18 8 31 -3
20 -2 22 15 13 10 -5 16 -14 13 -19z m230 -190 c10 -11 16 -20 13 -20 -3 0
-13 9 -23 20 -10 11 -16 20 -13 20 3 0 13 -9 23 -20z m8 -1495 c-3 -9 -8 -14
-10 -11 -3 3 -2 9 2 15 9 16 15 13 8 -4z m-69 -68 c-2 -7 -14 -19 -27 -26 -21
-13 -21 -12 2 13 27 29 33 32 25 13z m-66 -56 c-7 -11 -16 -17 -22 -14 -5 3
-1 12 9 20 25 18 27 17 13 -6z m-94 -26 c-13 -10 -15 -14 -5 -15 8 0 12 -3 8
-6 -3 -3 -11 -3 -17 1 -13 8 5 35 23 35 6 0 2 -7 -9 -15z m42 -12 c-2 -9 -9
-19 -17 -21 -11 -3 -11 -1 1 7 13 10 13 11 0 11 -13 0 -13 1 0 10 19 12 19 13
16 -7z m-3321 -651 c1920 -4 3412 -8 3318 -10 -95 -1 -173 -6 -173 -11 0 -5
-19 -12 -41 -16 -47 -8 -36 -25 16 -25 20 0 26 3 17 9 -11 6 -10 10 5 16 25
11 83 13 83 3 0 -4 -9 -8 -20 -8 -11 0 -20 -5 -20 -11 0 -5 5 -7 10 -4 6 3 10
5 10 3 0 -2 4 -18 10 -36 l9 -34 -37 5 c-20 2 -29 2 -19 0 15 -4 17 -20 17
-158 0 -113 -3 -155 -12 -159 -7 -3 -1 -3 14 0 24 5 26 3 21 -17 -4 -15 -3
-20 5 -15 7 4 12 2 12 -3 0 -14 -17 -14 -25 -1 -3 6 -30 10 -59 10 -39 0 -57
-5 -67 -17 -7 -10 -10 -15 -5 -11 5 4 18 2 29 -3 14 -8 26 -8 44 2 17 9 26 10
31 2 4 -5 17 -13 29 -17 13 -4 22 -10 22 -14 -3 -19 3 -22 22 -11 16 8 24 8
33 -2 8 -9 8 -10 -1 -5 -7 4 -22 1 -34 -6 -16 -10 -23 -10 -26 -2 -2 7 -14 10
-26 7 -22 -5 -22 -5 -2 10 17 14 18 16 3 17 -9 0 -20 -5 -23 -11 -4 -6 -13 -8
-21 -5 -8 3 -13 0 -11 -6 1 -7 -6 -14 -17 -16 -11 -2 -16 0 -12 7 4 6 0 11 -8
11 -9 0 -16 -8 -16 -18 0 -15 6 -18 30 -14 17 2 30 7 30 11 0 4 14 6 30 3 39
-6 34 -11 -16 -17 -21 -3 -68 -14 -104 -25 -36 -11 -86 -21 -112 -22 -25 -2
-44 -6 -42 -9 2 -4 -24 -12 -59 -19 -34 -6 -100 -21 -147 -32 -198 -46 -250
-58 -345 -78 -55 -12 -134 -30 -175 -40 -41 -10 -118 -28 -170 -39 -184 -41
-433 -98 -535 -121 -44 -10 -132 -30 -195 -45 -142 -32 -221 -50 -329 -75 -46
-11 -92 -20 -101 -20 -12 0 -90 -110 -237 -332 -713 -1077 -868 -1311 -978
-1478 -67 -102 -261 -394 -430 -650 -170 -256 -381 -575 -470 -710 -89 -135
-276 -418 -417 -630 -140 -212 -389 -587 -553 -835 -1096 -1656 -1209 -1826
-1200 -1800 18 54 245 646 405 1060 22 55 152 395 290 755 138 360 262 682
275 715 13 33 60 155 104 270 44 116 123 323 176 460 53 138 155 403 227 590
72 187 150 392 175 455 25 63 64 167 88 230 24 63 68 180 99 260 31 80 74 190
95 245 21 55 62 161 91 235 29 74 61 158 71 185 9 28 65 174 124 325 226 586
296 773 291 777 -3 3 -143 40 -313 83 -508 129 -1013 257 -1278 325 -137 35
-430 109 -650 165 -220 56 -485 123 -590 150 -104 27 -361 92 -570 145 -209
52 -389 99 -400 104 -11 4 264 7 610 5 347 -2 2201 -7 4120 -12z m3332 -528
c-3 -3 -12 -4 -19 -1 -8 3 -5 6 6 6 11 1 17 -2 13 -5z m-121 -715 c3 -6 2 -15
-4 -21 -6 -6 -8 -17 -5 -24 4 -10 0 -12 -11 -8 -18 7 -22 24 -6 24 6 0 10 5
10 10 0 6 -7 10 -15 10 -8 0 -15 -5 -15 -10 0 -7 -6 -7 -19 0 -25 13 -34 13
-26 0 3 -5 -1 -10 -10 -10 -9 0 -13 -5 -9 -11 4 -8 -1 -9 -17 -4 -13 4 -21 4
-17 0 4 -4 24 -9 44 -11 20 -1 41 -9 45 -16 7 -11 9 -11 9 1 0 11 3 11 15 1
16 -13 19 -38 9 -64 -10 -25 -22 -19 -29 14 -4 17 -11 30 -16 30 -6 0 -8 -4
-4 -9 3 -5 -5 -12 -17 -14 -21 -4 -20 -4 3 -6 20 -1 29 -8 33 -26 4 -14 11
-23 16 -20 6 4 6 -4 0 -21 -6 -15 -15 -52 -19 -83 -5 -31 -16 -87 -25 -126 -9
-38 -25 -110 -36 -160 -10 -49 -26 -125 -35 -167 -9 -43 -20 -80 -24 -83 -10
-5 -6 79 4 95 4 6 7 37 6 68 -1 57 -3 73 -16 125 -5 18 -3 27 4 27 9 0 11 56
9 205 -2 130 1 206 7 209 6 2 6 7 2 12 -19 20 -27 -32 -29 -191 -4 -332 -6
-490 -7 -518 0 -18 -5 -26 -12 -22 -6 4 -5 -2 3 -14 7 -12 16 -21 20 -21 5 0
8 -11 8 -25 0 -14 -5 -25 -11 -25 -5 0 -8 -4 -5 -9 4 -5 1 -22 -5 -38 -6 -15
-13 -50 -16 -78 -6 -64 -29 -119 -44 -109 -8 4 -9 3 -5 -5 4 -6 11 -9 15 -7 8
5 -8 -93 -32 -194 -8 -36 -25 -110 -36 -165 -12 -55 -30 -138 -41 -185 -10
-47 -28 -132 -40 -190 -12 -58 -30 -141 -40 -185 -10 -44 -27 -127 -40 -185
-12 -58 -30 -141 -40 -185 -10 -44 -21 -100 -25 -125 -4 -25 -12 -56 -18 -70
-5 -14 -11 -41 -13 -60 -3 -19 -14 -78 -25 -130 -12 -52 -30 -134 -40 -182
-10 -49 -28 -127 -38 -175 -10 -49 -28 -131 -39 -183 -11 -52 -30 -140 -42
-195 -40 -186 -58 -270 -80 -375 -12 -58 -30 -143 -41 -190 -19 -89 -42 -197
-78 -362 -12 -54 -30 -142 -42 -195 -12 -54 -29 -136 -40 -183 -10 -47 -24
-111 -30 -142 l-12 -58 -922 0 -923 0 13 58 c7 31 43 190 80 352 36 162 75
336 86 385 34 153 45 201 114 505 37 162 73 322 80 355 18 83 46 206 100 445
25 113 55 244 66 293 10 48 28 129 40 180 12 50 27 119 34 152 11 51 63 279
121 535 8 36 23 103 34 150 16 72 108 482 169 755 10 44 35 154 55 245 20 91
39 172 42 181 5 18 36 27 239 75 61 14 146 34 190 44 44 10 150 35 235 55 85
19 189 44 230 54 41 11 116 28 165 40 50 11 167 38 260 60 94 23 189 45 213
51 24 6 48 8 53 5 5 -4 9 -2 9 4 0 9 135 37 154 32 5 -1 12 3 16 10 5 6 27 13
50 15 23 1 45 5 48 8 9 9 20 7 28 -5z m-51 -49 c3 -6 -1 -7 -9 -4 -18 7 -21
14 -7 14 6 0 13 -4 16 -10z"/>
<path d="M10165 12670 c-3 -6 1 -7 9 -4 18 7 21 14 7 14 -6 0 -13 -4 -16 -10z"/>
<path d="M10230 12656 c0 -2 7 -7 16 -10 8 -3 12 -2 9 4 -6 10 -25 14 -25 6z"/>
<path d="M10278 11668 c1 -637 6 -988 12 -988 6 0 11 350 12 984 3 869 1 985
-12 989 -13 3 -15 -110 -12 -985z"/>
<path d="M10331 12593 c-11 -12 -10 -15 8 -20 14 -3 21 -13 21 -29 0 -13 5
-24 10 -24 6 0 10 5 10 10 0 6 8 10 17 10 13 0 14 3 6 11 -6 6 -9 18 -6 25 3
8 -1 14 -8 14 -11 0 -11 2 -1 8 8 6 3 9 -16 9 -15 0 -34 -7 -41 -14z m54 -13
c3 -5 -1 -10 -9 -10 -8 0 -18 5 -21 10 -3 6 1 10 9 10 8 0 18 -4 21 -10z"/>
<path d="M10340 12490 c0 -5 9 -10 20 -10 11 0 20 5 20 10 0 6 -9 10 -20 10
-11 0 -20 -4 -20 -10z"/>
<path d="M10380 10701 c0 -14 6 -21 19 -21 11 0 22 -6 24 -12 3 -7 6 -4 6 7 1
17 3 17 11 5 8 -13 10 -12 10 3 0 9 -7 18 -15 18 -24 2 -29 4 -42 12 -9 6 -13
2 -13 -12z"/>
<path d="M10403 10643 c4 -3 2 -12 -4 -20 -6 -7 -10 -13 -8 -14 38 -8 40 -7
28 7 -14 17 2 19 21 2 8 -7 6 -3 -4 10 -11 12 -24 22 -29 22 -6 0 -7 -3 -4 -7z"/>
<path d="M10280 10595 c0 -25 5 -45 10 -45 6 0 10 20 10 45 0 25 -4 45 -10 45
-5 0 -10 -20 -10 -45z"/>
<path d="M10340 10585 c7 -9 15 -13 17 -11 7 7 -7 26 -19 26 -6 0 -6 -6 2 -15z"/>
<path d="M10230 10549 c-12 -8 -10 -9 9 -4 17 5 22 4 16 -5 -5 -9 -4 -11 4 -6
6 4 9 12 6 17 -8 12 -16 11 -35 -2z"/>
<path d="M10280 9795 c0 -134 4 -205 10 -205 7 0 10 71 10 205 -1 119 -5 205
-11 205 -5 0 -9 -85 -9 -205z"/>
<path d="M10334 9948 c-3 -4 4 -8 15 -8 12 0 21 4 21 8 0 5 -7 9 -15 9 -9 0
-18 -4 -21 -9z"/>
<path d="M10348 9923 c6 -2 18 -2 25 0 6 3 1 5 -13 5 -14 0 -19 -2 -12 -5z"/>
<path d="M10280 9540 c0 -11 5 -20 10 -20 6 0 10 9 10 20 0 11 -4 20 -10 20
-5 0 -10 -9 -10 -20z"/>
<path d="M10292 9488 c2 -6 10 -13 16 -14 7 -1 8 0 2 3 -5 2 -8 9 -4 14 3 5 0
9 -6 9 -7 0 -10 -5 -8 -12z"/>
<path d="M10278 8753 c6 -2 18 -2 25 0 6 3 1 5 -13 5 -14 0 -19 -2 -12 -5z"/>
<path d="M10432 8695 c0 -16 2 -22 5 -12 2 9 2 23 0 30 -3 6 -5 -1 -5 -18z"/>
<path d="M10404 8606 c-3 -8 -4 -23 -2 -33 3 -11 6 -6 9 15 6 34 2 42 -7 18z"/>
<path d="M10346 8448 c-4 -20 -2 -34 4 -36 7 -3 8 -8 1 -16 -5 -6 -12 -43 -14
-81 -3 -46 -2 -63 5 -52 5 10 6 27 3 38 -5 15 -4 19 4 14 8 -5 10 1 6 18 -4
14 -2 27 3 31 5 3 8 25 6 48 -3 32 -1 38 6 23 7 -16 9 -17 9 -3 1 9 3 22 4 30
2 7 2 10 0 6 -3 -5 -9 -8 -14 -8 -6 0 -7 5 -4 10 3 6 2 10 -3 10 -5 0 -12 -15
-16 -32z"/>
<path d="M10166 7743 c-6 -14 -5 -15 5 -6 7 7 10 15 7 18 -3 3 -9 -2 -12 -12z"/>
</g>
</svg>
