<?xml version="1.0" encoding="UTF-8"?><svg id="Camada_1" xmlns="http://www.w3.org/2000/svg" xmlns:xlink="http://www.w3.org/1999/xlink" viewBox="0 0 2000 2000"><defs><style>.cls-1{fill:url(#linear-gradient);}.cls-2{fill:#120732;}.cls-3{fill:#1d1d1b;}</style><linearGradient id="linear-gradient" x1="310.26" y1="1049.45" x2="1616.11" y2="1049.45" gradientTransform="matrix(1, 0, 0, 1, 0, 0)" gradientUnits="userSpaceOnUse"><stop offset="0" stop-color="#00fff8"/><stop offset=".96" stop-color="#e53ce5"/></linearGradient></defs><circle class="cls-2" cx="999.77" cy="1006.74" r="885.26"/><g><g><path d="M1265.89,688.86c76.81-14.36,127.44-88.27,113.08-165.08-14.36-76.81-88.27-127.44-165.08-113.08-76.81,14.36-127.44,88.27-113.08,165.08,14.36,76.81,88.27,127.44,165.08,113.08Z"/><polygon points="1616.11 745.5 310.26 742.73 791.36 865.19 474.51 1690.63 1009.84 882.3 1616.11 745.5"/><polygon points="942.24 1530.47 1173.62 1530.47 1310 896.93 1071.92 953.36 942.24 1530.47"/></g><g><path class="cls-3" d="M1265.89,688.86c76.81-14.36,127.44-88.27,113.08-165.08-14.36-76.81-88.27-127.44-165.08-113.08-76.81,14.36-127.44,88.27-113.08,165.08,14.36,76.81,88.27,127.44,165.08,113.08Z"/><polygon class="cls-3" points="1616.11 745.5 310.26 742.73 791.36 865.19 474.51 1690.63 1009.84 882.3 1616.11 745.5"/><polygon class="cls-3" points="942.24 1530.47 1173.62 1530.47 1310 896.93 1071.92 953.36 942.24 1530.47"/></g><g><path class="cls-1" d="M1265.89,688.86c76.81-14.36,127.44-88.27,113.08-165.08-14.36-76.81-88.27-127.44-165.08-113.08-76.81,14.36-127.44,88.27-113.08,165.08,14.36,76.81,88.27,127.44,165.08,113.08Z"/><polygon class="cls-1" points="1616.11 745.5 310.26 742.73 791.36 865.19 474.51 1690.63 1009.84 882.3 1616.11 745.5"/><polygon class="cls-1" points="942.24 1530.47 1173.62 1530.47 1310 896.93 1071.92 953.36 942.24 1530.47"/></g></g></svg>