<svg width="21" height="21" viewBox="0 0 21 21" fill="none" xmlns="http://www.w3.org/2000/svg">
<g clipPath="url(#clip0_55_1340)">
<path d="M15.6436 7.06074C15.2781 6.83477 14.8081 6.83477 14.3903 7.06074L11.4661 8.92497L9.48172 10.1113L6.60966 11.9755C6.24412 12.2015 5.77415 12.2015 5.3564 11.9755L3.11097 10.5067C2.74543 10.2808 2.48433 9.82884 2.48433 9.32041V6.49582C2.48433 6.04388 2.69321 5.59195 3.11097 5.30949L5.3564 3.89719C5.72193 3.67122 6.19191 3.67122 6.60966 3.89719L8.85509 5.36598C9.22063 5.59195 9.48172 6.04388 9.48172 6.55231V8.41654L11.4661 7.17372V5.25299C11.4661 4.80106 11.2572 4.34912 10.8394 4.06666L6.66188 1.41154C6.29634 1.18557 5.82637 1.18557 5.40862 1.41154L1.12663 4.12315C0.708877 4.34912 0.5 4.80106 0.5 5.25299V10.5632C0.5 11.0152 0.708877 11.4671 1.12663 11.7496L5.3564 14.4047C5.72193 14.6307 6.19191 14.6307 6.60966 14.4047L9.48172 12.5969L11.4661 11.3541L14.3381 9.54638C14.7037 9.32041 15.1736 9.32041 15.5914 9.54638L17.8368 10.9587C18.2023 11.1846 18.4634 11.6366 18.4634 12.145V14.9696C18.4634 15.4215 18.2546 15.8735 17.8368 16.1559L15.6436 17.5682C15.2781 17.7942 14.8081 17.7942 14.3903 17.5682L12.1449 16.1559C11.7794 15.93 11.5183 15.478 11.5183 14.9696V13.1619L9.53394 14.4047V16.2689C9.53394 16.7209 9.74282 17.1728 10.1606 17.4553L14.3903 20.1104C14.7559 20.3363 15.2258 20.3363 15.6436 20.1104L19.8734 17.4553C20.2389 17.2293 20.5 16.7774 20.5 16.2689V10.9022C20.5 10.4503 20.2911 9.99832 19.8734 9.71586L15.6436 7.06074Z" fill="white"/>
</g>
<defs>
<clipPath id="clip0_55_1340">
<rect width="20" height="20" fill="white" transform="translate(0.5 0.279907)"/>
</clipPath>
</defs>
</svg>
