<svg width="25" height="25" viewBox="0 0 25 25" fill="none" xmlns="http://www.w3.org/2000/svg">
<path d="M4.0165 14.6471C3.48779 13.6967 3.22343 13.2214 3.22343 12.7026C3.22343 12.1838 3.48779 11.7085 4.0165 10.7581L5.36575 8.33261L6.79167 5.95137C7.35042 5.01827 7.62979 4.55172 8.07912 4.2923C8.52845 4.03288 9.07219 4.02421 10.1596 4.00687L12.9348 3.96261L15.71 4.00687C16.7974 4.02421 17.3412 4.03288 17.7905 4.2923C18.2398 4.55172 18.5192 5.01827 19.078 5.95137L20.5039 8.33261L21.8531 10.7581C22.3818 11.7085 22.6462 12.1838 22.6462 12.7026C22.6462 13.2214 22.3818 13.6967 21.8531 14.6471L20.5039 17.0726L19.078 19.4538C18.5192 20.3869 18.2398 20.8535 17.7905 21.1129C17.3412 21.3723 16.7974 21.381 15.71 21.3983L12.9348 21.4426L10.1596 21.3983C9.07219 21.381 8.52845 21.3723 8.07912 21.1129C7.62979 20.8535 7.35042 20.3869 6.79167 19.4538L5.36575 17.0726L4.0165 14.6471Z" stroke="white" strokeWidth="2"/>
<circle cx="12.9348" cy="12.7026" r="3" stroke="white" strokeWidth="2"/>
</svg>
